<?xml version="1.0" encoding="utf-8" standalone="no"?>
<!DOCTYPE svg PUBLIC "-//W3C//DTD SVG 1.1//EN"
  "http://www.w3.org/Graphics/SVG/1.1/DTD/svg11.dtd">
<!-- Created with matplotlib (https://matplotlib.org/) -->
<svg height="345.6pt" version="1.1" viewBox="0 0 460.8 345.6" width="460.8pt" xmlns="http://www.w3.org/2000/svg" xmlns:xlink="http://www.w3.org/1999/xlink">
 <defs>
  <style type="text/css">
*{stroke-linecap:butt;stroke-linejoin:round;}
  </style>
 </defs>
 <g id="figure_1">
  <g id="patch_1">
   <path d="M 0 345.6 
L 460.8 345.6 
L 460.8 0 
L 0 0 
z
" style="fill:none;"/>
  </g>
  <g id="axes_1">
   <g id="patch_2">
    <path d="M 236.16 41.472 
L 82.520165 307.584 
L 389.799835 307.584 
z
" style="fill:none;"/>
   </g>
   <g id="PathCollection_1">
    <path clip-path="url(#pb23e624cb1)" d="M 96.698684 307.584 
L 89.609425 295.305043 
L 82.520165 307.584 
M 382.710575 295.305043 
L 375.621316 307.584 
L 389.799835 307.584 
M 229.070741 53.750957 
L 243.249259 53.750957 
L 236.16 41.472 
" style="fill:#48186a;"/>
   </g>
   <g id="PathCollection_2">
    <path clip-path="url(#pb23e624cb1)" d="M 110.877203 307.584 
L 96.698684 283.026085 
L 89.609425 295.305043 
L 96.698684 307.584 
M 375.621316 307.584 
L 382.710575 295.305043 
L 375.621316 283.026085 
L 361.442797 307.584 
M 243.249259 53.750957 
L 229.070741 53.750957 
L 221.981481 66.029915 
L 250.338519 66.029915 
" style="fill:#424086;"/>
   </g>
   <g id="PathCollection_3">
    <path clip-path="url(#pb23e624cb1)" d="M 135.142145 307.584 
L 119.361303 296.995678 
L 110.11049 280.9728 
L 108.831155 262.012029 
L 97.884149 280.9728 
L 96.698684 283.026085 
L 110.877203 307.584 
L 113.248132 307.584 
M 361.442797 307.584 
L 375.621316 283.026085 
L 374.435851 280.9728 
L 363.488845 262.012029 
L 362.20951 280.9728 
L 352.958697 296.995678 
L 337.177855 307.584 
L 359.071868 307.584 
M 250.338519 66.029915 
L 221.981481 66.029915 
L 220.796017 68.0832 
L 209.84901 87.043971 
L 226.909187 78.671522 
L 245.410813 78.671522 
L 262.47099 87.043971 
L 251.523983 68.0832 
" style="fill:#33638d;"/>
   </g>
   <g id="PathCollection_4">
    <path clip-path="url(#pb23e624cb1)" d="M 171.681866 307.584 
L 149.052853 298.790804 
L 132.937927 288.465326 
L 126.70198 284.281251 
L 124.791845 280.9728 
L 124.286304 273.480274 
L 123.40164 254.3616 
L 127.101016 230.367702 
L 113.248132 254.3616 
L 108.831155 262.012029 
L 110.11049 280.9728 
L 119.361303 296.995678 
L 135.142145 307.584 
L 143.976099 307.584 
M 337.177855 307.584 
L 352.958697 296.995678 
L 362.20951 280.9728 
L 363.488845 262.012029 
L 359.071868 254.3616 
L 345.218984 230.367702 
L 348.91836 254.3616 
L 348.033696 273.480274 
L 347.528155 280.9728 
L 345.61802 284.281251 
L 339.382073 288.465326 
L 323.267147 298.790804 
L 300.638134 307.584 
L 328.343901 307.584 
M 262.47099 87.043971 
L 245.410813 78.671522 
L 226.909187 78.671522 
L 209.84901 87.043971 
L 205.432033 94.6944 
L 191.57915 118.688298 
L 210.508787 103.487596 
L 227.508376 94.6944 
L 234.249865 91.385949 
L 238.070135 91.385949 
L 244.811624 94.6944 
L 261.811213 103.487596 
L 280.74085 118.688298 
L 266.887967 94.6944 
" style="fill:#26828e;"/>
   </g>
   <g id="PathCollection_5">
    <path clip-path="url(#pb23e624cb1)" d="M 300.638134 307.584 
L 323.267147 298.790804 
L 339.382073 288.465326 
L 345.61802 284.281251 
L 347.528155 280.9728 
L 348.033696 273.480274 
L 348.91836 254.3616 
L 345.218984 230.367702 
L 343.707884 227.7504 
L 328.343901 201.1392 
L 312.979917 174.528 
L 297.615934 147.9168 
L 282.25195 121.3056 
L 280.74085 118.688298 
L 261.811213 103.487596 
L 244.811624 94.6944 
L 238.070135 91.385949 
L 234.249865 91.385949 
L 227.508376 94.6944 
L 210.508787 103.487596 
L 191.57915 118.688298 
L 190.06805 121.3056 
L 174.704066 147.9168 
L 159.340083 174.528 
L 143.976099 201.1392 
L 128.612116 227.7504 
L 127.101016 230.367702 
L 123.40164 254.3616 
L 124.286304 273.480274 
L 124.791845 280.9728 
L 126.70198 284.281251 
L 132.937927 288.465326 
L 149.052853 298.790804 
L 171.681866 307.584 
L 174.704066 307.584 
L 205.432033 307.584 
L 236.16 307.584 
L 266.887967 307.584 
L 297.615934 307.584 
M 308.81065 288.194183 
L 290.169689 294.686726 
L 272.146608 298.475766 
L 262.512507 300.005481 
L 239.651133 301.53718 
L 232.668867 301.53718 
L 209.807493 300.005481 
L 200.173392 298.475766 
L 182.150311 294.686726 
L 163.50935 288.194183 
L 156.698753 285.547717 
L 149.558701 280.9728 
L 139.085408 262.832525 
L 138.69344 254.3616 
L 139.806831 247.140217 
L 143.504605 227.7504 
L 149.23474 210.247434 
L 152.727019 201.1392 
L 162.831216 180.57482 
L 166.322349 174.528 
L 179.079526 155.495319 
L 185.221348 147.9168 
L 197.514294 134.202874 
L 212.457481 121.3056 
L 218.154687 116.730683 
L 225.686707 112.834675 
L 246.633293 112.834675 
L 254.165313 116.730683 
L 259.862519 121.3056 
L 274.805706 134.202874 
L 287.098652 147.9168 
L 293.240474 155.495319 
L 305.997651 174.528 
L 309.488784 180.57482 
L 319.592981 201.1392 
L 323.08526 210.247434 
L 328.815395 227.7504 
L 332.513169 247.140217 
L 333.62656 254.3616 
L 333.234592 262.832525 
L 322.761299 280.9728 
L 315.621247 285.547717 
" style="fill:#1fa088;"/>
   </g>
   <g id="PathCollection_6">
    <path clip-path="url(#pb23e624cb1)" d="M 315.621247 285.547717 
L 322.761299 280.9728 
L 333.234592 262.832525 
L 333.62656 254.3616 
L 332.513169 247.140217 
L 328.815395 227.7504 
L 323.08526 210.247434 
L 319.592981 201.1392 
L 309.488784 180.57482 
L 305.997651 174.528 
L 293.240474 155.495319 
L 287.098652 147.9168 
L 274.805706 134.202874 
L 259.862519 121.3056 
L 254.165313 116.730683 
L 246.633293 112.834675 
L 225.686707 112.834675 
L 218.154687 116.730683 
L 212.457481 121.3056 
L 197.514294 134.202874 
L 185.221348 147.9168 
L 179.079526 155.495319 
L 166.322349 174.528 
L 162.831216 180.57482 
L 152.727019 201.1392 
L 149.23474 210.247434 
L 143.504605 227.7504 
L 139.806831 247.140217 
L 138.69344 254.3616 
L 139.085408 262.832525 
L 149.558701 280.9728 
L 156.698753 285.547717 
L 163.50935 288.194183 
L 182.150311 294.686726 
L 200.173392 298.475766 
L 209.807493 300.005481 
L 232.668867 301.53718 
L 239.651133 301.53718 
L 262.512507 300.005481 
L 272.146608 298.475766 
L 290.169689 294.686726 
L 308.81065 288.194183 
M 302.543152 201.1392 
L 312.284763 226.546358 
L 312.500645 227.7504 
L 312.376727 228.795157 
L 308.021396 254.3616 
L 302.818665 263.372994 
L 282.855141 279.928043 
L 282.012314 280.557738 
L 280.861642 280.9728 
L 253.987592 285.239896 
L 248.86211 285.5833 
L 223.45789 285.5833 
L 218.332408 285.239896 
L 191.458358 280.9728 
L 190.307686 280.557738 
L 189.464859 279.928043 
L 169.501335 263.372994 
L 164.298604 254.3616 
L 159.943273 228.795157 
L 159.819355 227.7504 
L 160.035237 226.546358 
L 169.776848 201.1392 
L 172.042193 196.5287 
L 184.744302 174.528 
L 187.604441 170.260904 
L 204.736879 149.120842 
L 205.671669 148.331862 
L 206.638415 147.9168 
L 230.957269 138.905406 
L 241.362731 138.905406 
L 265.681585 147.9168 
L 266.648331 148.331862 
L 267.583121 149.120842 
L 284.715559 170.260904 
L 287.575698 174.528 
L 300.277807 196.5287 
" style="fill:#3fbc73;"/>
   </g>
   <g id="PathCollection_7">
    <path clip-path="url(#pb23e624cb1)" d="M 300.277807 196.5287 
L 287.575698 174.528 
L 284.715559 170.260904 
L 267.583121 149.120842 
L 266.648331 148.331862 
L 265.681585 147.9168 
L 241.362731 138.905406 
L 230.957269 138.905406 
L 206.638415 147.9168 
L 205.671669 148.331862 
L 204.736879 149.120842 
L 187.604441 170.260904 
L 184.744302 174.528 
L 172.042193 196.5287 
L 169.776848 201.1392 
L 160.035237 226.546358 
L 159.819355 227.7504 
L 159.943273 228.795157 
L 164.298604 254.3616 
L 169.501335 263.372994 
L 189.464859 279.928043 
L 190.307686 280.557738 
L 191.458358 280.9728 
L 218.332408 285.239896 
L 223.45789 285.5833 
L 248.86211 285.5833 
L 253.987592 285.239896 
L 280.861642 280.9728 
L 282.012314 280.557738 
L 282.855141 279.928043 
L 302.818665 263.372994 
L 308.021396 254.3616 
L 312.376727 228.795157 
L 312.500645 227.7504 
L 312.284763 226.546358 
L 302.543152 201.1392 
M 261.611565 245.222605 
L 242.143529 254.3616 
L 236.837531 255.535119 
L 235.482469 255.535119 
L 230.176471 254.3616 
L 210.708435 245.222605 
L 200.620853 227.7504 
L 202.440268 206.321088 
L 204.07697 201.1392 
L 204.754502 199.965681 
L 208.423798 195.957312 
L 226.072418 183.666995 
L 246.247582 183.666995 
L 263.896202 195.957312 
L 267.565498 199.965681 
L 268.24303 201.1392 
L 269.879732 206.321088 
L 271.699147 227.7504 
" style="fill:#84d44b;"/>
   </g>
   <g id="PathCollection_8">
    <path clip-path="url(#pb23e624cb1)" d="M 271.699147 227.7504 
L 269.879732 206.321088 
L 268.24303 201.1392 
L 267.565498 199.965681 
L 263.896202 195.957312 
L 246.247582 183.666995 
L 226.072418 183.666995 
L 208.423798 195.957312 
L 204.754502 199.965681 
L 204.07697 201.1392 
L 202.440268 206.321088 
L 200.620853 227.7504 
L 210.708435 245.222605 
L 230.176471 254.3616 
L 235.482469 255.535119 
L 236.837531 255.535119 
L 242.143529 254.3616 
L 261.611565 245.222605 
" style="fill:#d8e219;"/>
   </g>
   <g id="matplotlib.axis_1">
    <g id="xtick_1">
     <g id="line2d_1">
      <defs>
       <path d="M 0 0 
L 3.5 0 
" id="m8276c20830" style="stroke:#000000;stroke-width:0.8;"/>
      </defs>
      <g>
       <use style="stroke:#000000;stroke-width:0.8;" x="389.799835" xlink:href="#m8276c20830" y="307.584"/>
      </g>
     </g>
     <g id="text_1">
      <!-- 0.0 -->
      <defs>
       <path d="M 31.78125 66.40625 
Q 24.171875 66.40625 20.328125 58.90625 
Q 16.5 51.421875 16.5 36.375 
Q 16.5 21.390625 20.328125 13.890625 
Q 24.171875 6.390625 31.78125 6.390625 
Q 39.453125 6.390625 43.28125 13.890625 
Q 47.125 21.390625 47.125 36.375 
Q 47.125 51.421875 43.28125 58.90625 
Q 39.453125 66.40625 31.78125 66.40625 
z
M 31.78125 74.21875 
Q 44.046875 74.21875 50.515625 64.515625 
Q 56.984375 54.828125 56.984375 36.375 
Q 56.984375 17.96875 50.515625 8.265625 
Q 44.046875 -1.421875 31.78125 -1.421875 
Q 19.53125 -1.421875 13.0625 8.265625 
Q 6.59375 17.96875 6.59375 36.375 
Q 6.59375 54.828125 13.0625 64.515625 
Q 19.53125 74.21875 31.78125 74.21875 
z
" id="DejaVuSans-48"/>
       <path d="M 10.6875 12.40625 
L 21 12.40625 
L 21 0 
L 10.6875 0 
z
" id="DejaVuSans-46"/>
      </defs>
      <g transform="translate(396.799835 311.383219)scale(0.1 -0.1)">
       <use xlink:href="#DejaVuSans-48"/>
       <use x="63.623047" xlink:href="#DejaVuSans-46"/>
       <use x="95.410156" xlink:href="#DejaVuSans-48"/>
      </g>
     </g>
    </g>
    <g id="xtick_2">
     <g id="line2d_2">
      <g>
       <use style="stroke:#000000;stroke-width:0.8;" x="359.071868" xlink:href="#m8276c20830" y="254.3616"/>
      </g>
     </g>
     <g id="text_2">
      <!-- 0.2 -->
      <defs>
       <path d="M 19.1875 8.296875 
L 53.609375 8.296875 
L 53.609375 0 
L 7.328125 0 
L 7.328125 8.296875 
Q 12.9375 14.109375 22.625 23.890625 
Q 32.328125 33.6875 34.8125 36.53125 
Q 39.546875 41.84375 41.421875 45.53125 
Q 43.3125 49.21875 43.3125 52.78125 
Q 43.3125 58.59375 39.234375 62.25 
Q 35.15625 65.921875 28.609375 65.921875 
Q 23.96875 65.921875 18.8125 64.3125 
Q 13.671875 62.703125 7.8125 59.421875 
L 7.8125 69.390625 
Q 13.765625 71.78125 18.9375 73 
Q 24.125 74.21875 28.421875 74.21875 
Q 39.75 74.21875 46.484375 68.546875 
Q 53.21875 62.890625 53.21875 53.421875 
Q 53.21875 48.921875 51.53125 44.890625 
Q 49.859375 40.875 45.40625 35.40625 
Q 44.1875 33.984375 37.640625 27.21875 
Q 31.109375 20.453125 19.1875 8.296875 
z
" id="DejaVuSans-50"/>
      </defs>
      <g transform="translate(366.071868 258.160819)scale(0.1 -0.1)">
       <use xlink:href="#DejaVuSans-48"/>
       <use x="63.623047" xlink:href="#DejaVuSans-46"/>
       <use x="95.410156" xlink:href="#DejaVuSans-50"/>
      </g>
     </g>
    </g>
    <g id="xtick_3">
     <g id="line2d_3">
      <g>
       <use style="stroke:#000000;stroke-width:0.8;" x="328.343901" xlink:href="#m8276c20830" y="201.1392"/>
      </g>
     </g>
     <g id="text_3">
      <!-- 0.4 -->
      <defs>
       <path d="M 37.796875 64.3125 
L 12.890625 25.390625 
L 37.796875 25.390625 
z
M 35.203125 72.90625 
L 47.609375 72.90625 
L 47.609375 25.390625 
L 58.015625 25.390625 
L 58.015625 17.1875 
L 47.609375 17.1875 
L 47.609375 0 
L 37.796875 0 
L 37.796875 17.1875 
L 4.890625 17.1875 
L 4.890625 26.703125 
z
" id="DejaVuSans-52"/>
      </defs>
      <g transform="translate(335.343901 204.938419)scale(0.1 -0.1)">
       <use xlink:href="#DejaVuSans-48"/>
       <use x="63.623047" xlink:href="#DejaVuSans-46"/>
       <use x="95.410156" xlink:href="#DejaVuSans-52"/>
      </g>
     </g>
    </g>
    <g id="xtick_4">
     <g id="line2d_4">
      <g>
       <use style="stroke:#000000;stroke-width:0.8;" x="297.615934" xlink:href="#m8276c20830" y="147.9168"/>
      </g>
     </g>
     <g id="text_4">
      <!-- 0.6 -->
      <defs>
       <path d="M 33.015625 40.375 
Q 26.375 40.375 22.484375 35.828125 
Q 18.609375 31.296875 18.609375 23.390625 
Q 18.609375 15.53125 22.484375 10.953125 
Q 26.375 6.390625 33.015625 6.390625 
Q 39.65625 6.390625 43.53125 10.953125 
Q 47.40625 15.53125 47.40625 23.390625 
Q 47.40625 31.296875 43.53125 35.828125 
Q 39.65625 40.375 33.015625 40.375 
z
M 52.59375 71.296875 
L 52.59375 62.3125 
Q 48.875 64.0625 45.09375 64.984375 
Q 41.3125 65.921875 37.59375 65.921875 
Q 27.828125 65.921875 22.671875 59.328125 
Q 17.53125 52.734375 16.796875 39.40625 
Q 19.671875 43.65625 24.015625 45.921875 
Q 28.375 48.1875 33.59375 48.1875 
Q 44.578125 48.1875 50.953125 41.515625 
Q 57.328125 34.859375 57.328125 23.390625 
Q 57.328125 12.15625 50.6875 5.359375 
Q 44.046875 -1.421875 33.015625 -1.421875 
Q 20.359375 -1.421875 13.671875 8.265625 
Q 6.984375 17.96875 6.984375 36.375 
Q 6.984375 53.65625 15.1875 63.9375 
Q 23.390625 74.21875 37.203125 74.21875 
Q 40.921875 74.21875 44.703125 73.484375 
Q 48.484375 72.75 52.59375 71.296875 
z
" id="DejaVuSans-54"/>
      </defs>
      <g transform="translate(304.615934 151.716019)scale(0.1 -0.1)">
       <use xlink:href="#DejaVuSans-48"/>
       <use x="63.623047" xlink:href="#DejaVuSans-46"/>
       <use x="95.410156" xlink:href="#DejaVuSans-54"/>
      </g>
     </g>
    </g>
    <g id="xtick_5">
     <g id="line2d_5">
      <g>
       <use style="stroke:#000000;stroke-width:0.8;" x="266.887967" xlink:href="#m8276c20830" y="94.6944"/>
      </g>
     </g>
     <g id="text_5">
      <!-- 0.8 -->
      <defs>
       <path d="M 31.78125 34.625 
Q 24.75 34.625 20.71875 30.859375 
Q 16.703125 27.09375 16.703125 20.515625 
Q 16.703125 13.921875 20.71875 10.15625 
Q 24.75 6.390625 31.78125 6.390625 
Q 38.8125 6.390625 42.859375 10.171875 
Q 46.921875 13.96875 46.921875 20.515625 
Q 46.921875 27.09375 42.890625 30.859375 
Q 38.875 34.625 31.78125 34.625 
z
M 21.921875 38.8125 
Q 15.578125 40.375 12.03125 44.71875 
Q 8.5 49.078125 8.5 55.328125 
Q 8.5 64.0625 14.71875 69.140625 
Q 20.953125 74.21875 31.78125 74.21875 
Q 42.671875 74.21875 48.875 69.140625 
Q 55.078125 64.0625 55.078125 55.328125 
Q 55.078125 49.078125 51.53125 44.71875 
Q 48 40.375 41.703125 38.8125 
Q 48.828125 37.15625 52.796875 32.3125 
Q 56.78125 27.484375 56.78125 20.515625 
Q 56.78125 9.90625 50.3125 4.234375 
Q 43.84375 -1.421875 31.78125 -1.421875 
Q 19.734375 -1.421875 13.25 4.234375 
Q 6.78125 9.90625 6.78125 20.515625 
Q 6.78125 27.484375 10.78125 32.3125 
Q 14.796875 37.15625 21.921875 38.8125 
z
M 18.3125 54.390625 
Q 18.3125 48.734375 21.84375 45.5625 
Q 25.390625 42.390625 31.78125 42.390625 
Q 38.140625 42.390625 41.71875 45.5625 
Q 45.3125 48.734375 45.3125 54.390625 
Q 45.3125 60.0625 41.71875 63.234375 
Q 38.140625 66.40625 31.78125 66.40625 
Q 25.390625 66.40625 21.84375 63.234375 
Q 18.3125 60.0625 18.3125 54.390625 
z
" id="DejaVuSans-56"/>
      </defs>
      <g transform="translate(273.887967 98.493619)scale(0.1 -0.1)">
       <use xlink:href="#DejaVuSans-48"/>
       <use x="63.623047" xlink:href="#DejaVuSans-46"/>
       <use x="95.410156" xlink:href="#DejaVuSans-56"/>
      </g>
     </g>
    </g>
    <g id="xtick_6">
     <g id="line2d_6">
      <g>
       <use style="stroke:#000000;stroke-width:0.8;" x="236.16" xlink:href="#m8276c20830" y="41.472"/>
      </g>
     </g>
     <g id="text_6">
      <!-- 1.0 -->
      <defs>
       <path d="M 12.40625 8.296875 
L 28.515625 8.296875 
L 28.515625 63.921875 
L 10.984375 60.40625 
L 10.984375 69.390625 
L 28.421875 72.90625 
L 38.28125 72.90625 
L 38.28125 8.296875 
L 54.390625 8.296875 
L 54.390625 0 
L 12.40625 0 
z
" id="DejaVuSans-49"/>
      </defs>
      <g transform="translate(243.16 45.271219)scale(0.1 -0.1)">
       <use xlink:href="#DejaVuSans-49"/>
       <use x="63.623047" xlink:href="#DejaVuSans-46"/>
       <use x="95.410156" xlink:href="#DejaVuSans-48"/>
      </g>
     </g>
    </g>
   </g>
   <g id="matplotlib.axis_2">
    <g id="xtick_7">
     <g id="line2d_7">
      <defs>
       <path d="M 0 0 
L -1.75 -3.031089 
" id="me95d510ad4" style="stroke:#000000;stroke-width:0.8;"/>
      </defs>
      <g>
       <use style="stroke:#000000;stroke-width:0.8;" x="236.16" xlink:href="#me95d510ad4" y="41.472"/>
      </g>
     </g>
     <g id="text_7">
      <!-- 0.0 -->
      <g transform="translate(221.418218 23.536921)rotate(-300)scale(0.1 -0.1)">
       <use xlink:href="#DejaVuSans-48"/>
       <use x="63.623047" xlink:href="#DejaVuSans-46"/>
       <use x="95.410156" xlink:href="#DejaVuSans-48"/>
      </g>
     </g>
    </g>
    <g id="xtick_8">
     <g id="line2d_8">
      <g>
       <use style="stroke:#000000;stroke-width:0.8;" x="205.432033" xlink:href="#me95d510ad4" y="94.6944"/>
      </g>
     </g>
     <g id="text_8">
      <!-- 0.2 -->
      <g transform="translate(190.690251 76.759321)rotate(-300)scale(0.1 -0.1)">
       <use xlink:href="#DejaVuSans-48"/>
       <use x="63.623047" xlink:href="#DejaVuSans-46"/>
       <use x="95.410156" xlink:href="#DejaVuSans-50"/>
      </g>
     </g>
    </g>
    <g id="xtick_9">
     <g id="line2d_9">
      <g>
       <use style="stroke:#000000;stroke-width:0.8;" x="174.704066" xlink:href="#me95d510ad4" y="147.9168"/>
      </g>
     </g>
     <g id="text_9">
      <!-- 0.4 -->
      <g transform="translate(159.962284 129.981721)rotate(-300)scale(0.1 -0.1)">
       <use xlink:href="#DejaVuSans-48"/>
       <use x="63.623047" xlink:href="#DejaVuSans-46"/>
       <use x="95.410156" xlink:href="#DejaVuSans-52"/>
      </g>
     </g>
    </g>
    <g id="xtick_10">
     <g id="line2d_10">
      <g>
       <use style="stroke:#000000;stroke-width:0.8;" x="143.976099" xlink:href="#me95d510ad4" y="201.1392"/>
      </g>
     </g>
     <g id="text_10">
      <!-- 0.6 -->
      <g transform="translate(129.234317 183.204121)rotate(-300)scale(0.1 -0.1)">
       <use xlink:href="#DejaVuSans-48"/>
       <use x="63.623047" xlink:href="#DejaVuSans-46"/>
       <use x="95.410156" xlink:href="#DejaVuSans-54"/>
      </g>
     </g>
    </g>
    <g id="xtick_11">
     <g id="line2d_11">
      <g>
       <use style="stroke:#000000;stroke-width:0.8;" x="113.248132" xlink:href="#me95d510ad4" y="254.3616"/>
      </g>
     </g>
     <g id="text_11">
      <!-- 0.8 -->
      <g transform="translate(98.50635 236.426521)rotate(-300)scale(0.1 -0.1)">
       <use xlink:href="#DejaVuSans-48"/>
       <use x="63.623047" xlink:href="#DejaVuSans-46"/>
       <use x="95.410156" xlink:href="#DejaVuSans-56"/>
      </g>
     </g>
    </g>
    <g id="xtick_12">
     <g id="line2d_12">
      <g>
       <use style="stroke:#000000;stroke-width:0.8;" x="82.520165" xlink:href="#me95d510ad4" y="307.584"/>
      </g>
     </g>
     <g id="text_12">
      <!-- 1.0 -->
      <g transform="translate(67.778383 289.648921)rotate(-300)scale(0.1 -0.1)">
       <use xlink:href="#DejaVuSans-49"/>
       <use x="63.623047" xlink:href="#DejaVuSans-46"/>
       <use x="95.410156" xlink:href="#DejaVuSans-48"/>
      </g>
     </g>
    </g>
   </g>
   <g id="matplotlib.axis_3">
    <g id="xtick_13">
     <g id="line2d_13">
      <defs>
       <path d="M 0 0 
L -1.75 3.031089 
" id="m9ed0ff9483" style="stroke:#000000;stroke-width:0.8;"/>
      </defs>
      <g>
       <use style="stroke:#000000;stroke-width:0.8;" x="82.520165" xlink:href="#m9ed0ff9483" y="307.584"/>
      </g>
     </g>
     <g id="text_13">
      <!-- 0.0 -->
      <g transform="translate(74.358823 329.318297)rotate(-60)scale(0.1 -0.1)">
       <use xlink:href="#DejaVuSans-48"/>
       <use x="63.623047" xlink:href="#DejaVuSans-46"/>
       <use x="95.410156" xlink:href="#DejaVuSans-48"/>
      </g>
     </g>
    </g>
    <g id="xtick_14">
     <g id="line2d_14">
      <g>
       <use style="stroke:#000000;stroke-width:0.8;" x="143.976099" xlink:href="#m9ed0ff9483" y="307.584"/>
      </g>
     </g>
     <g id="text_14">
      <!-- 0.2 -->
      <g transform="translate(135.814757 329.318297)rotate(-60)scale(0.1 -0.1)">
       <use xlink:href="#DejaVuSans-48"/>
       <use x="63.623047" xlink:href="#DejaVuSans-46"/>
       <use x="95.410156" xlink:href="#DejaVuSans-50"/>
      </g>
     </g>
    </g>
    <g id="xtick_15">
     <g id="line2d_15">
      <g>
       <use style="stroke:#000000;stroke-width:0.8;" x="205.432033" xlink:href="#m9ed0ff9483" y="307.584"/>
      </g>
     </g>
     <g id="text_15">
      <!-- 0.4 -->
      <g transform="translate(197.27069 329.318297)rotate(-60)scale(0.1 -0.1)">
       <use xlink:href="#DejaVuSans-48"/>
       <use x="63.623047" xlink:href="#DejaVuSans-46"/>
       <use x="95.410156" xlink:href="#DejaVuSans-52"/>
      </g>
     </g>
    </g>
    <g id="xtick_16">
     <g id="line2d_16">
      <g>
       <use style="stroke:#000000;stroke-width:0.8;" x="266.887967" xlink:href="#m9ed0ff9483" y="307.584"/>
      </g>
     </g>
     <g id="text_16">
      <!-- 0.6 -->
      <g transform="translate(258.726624 329.318297)rotate(-60)scale(0.1 -0.1)">
       <use xlink:href="#DejaVuSans-48"/>
       <use x="63.623047" xlink:href="#DejaVuSans-46"/>
       <use x="95.410156" xlink:href="#DejaVuSans-54"/>
      </g>
     </g>
    </g>
    <g id="xtick_17">
     <g id="line2d_17">
      <g>
       <use style="stroke:#000000;stroke-width:0.8;" x="328.343901" xlink:href="#m9ed0ff9483" y="307.584"/>
      </g>
     </g>
     <g id="text_17">
      <!-- 0.8 -->
      <g transform="translate(320.182558 329.318297)rotate(-60)scale(0.1 -0.1)">
       <use xlink:href="#DejaVuSans-48"/>
       <use x="63.623047" xlink:href="#DejaVuSans-46"/>
       <use x="95.410156" xlink:href="#DejaVuSans-56"/>
      </g>
     </g>
    </g>
    <g id="xtick_18">
     <g id="line2d_18">
      <g>
       <use style="stroke:#000000;stroke-width:0.8;" x="389.799835" xlink:href="#m9ed0ff9483" y="307.584"/>
      </g>
     </g>
     <g id="text_18">
      <!-- 1.0 -->
      <g transform="translate(381.638492 329.318297)rotate(-60)scale(0.1 -0.1)">
       <use xlink:href="#DejaVuSans-49"/>
       <use x="63.623047" xlink:href="#DejaVuSans-46"/>
       <use x="95.410156" xlink:href="#DejaVuSans-48"/>
      </g>
     </g>
    </g>
   </g>
   <g id="patch_3">
    <path d="M 82.520165 307.584 
L 389.799835 307.584 
" style="fill:none;stroke:#000000;stroke-linecap:square;stroke-linejoin:miter;stroke-width:0.8;"/>
   </g>
   <g id="patch_4">
    <path d="M 389.799835 307.584 
L 236.16 41.472 
" style="fill:none;stroke:#000000;stroke-linecap:square;stroke-linejoin:miter;stroke-width:0.8;"/>
   </g>
   <g id="patch_5">
    <path d="M 236.16 41.472 
L 82.520165 307.584 
" style="fill:none;stroke:#000000;stroke-linecap:square;stroke-linejoin:miter;stroke-width:0.8;"/>
   </g>
  </g>
 </g>
 <defs>
  <clipPath id="pb23e624cb1">
   <path d="M 236.16 41.472 
L 82.520165 307.584 
L 389.799835 307.584 
z
"/>
  </clipPath>
 </defs>
</svg>
