<?xml version="1.0" encoding="utf-8" standalone="no"?>
<!DOCTYPE svg PUBLIC "-//W3C//DTD SVG 1.1//EN"
  "http://www.w3.org/Graphics/SVG/1.1/DTD/svg11.dtd">
<!-- Created with matplotlib (https://matplotlib.org/) -->
<svg height="345.6pt" version="1.1" viewBox="0 0 777.6 345.6" width="777.6pt" xmlns="http://www.w3.org/2000/svg" xmlns:xlink="http://www.w3.org/1999/xlink">
 <defs>
  <style type="text/css">
*{stroke-linecap:butt;stroke-linejoin:round;}
  </style>
 </defs>
 <g id="figure_1">
  <g id="patch_1">
   <path d="M 0 345.6 
L 777.6 345.6 
L 777.6 0 
L 0 0 
z
" style="fill:#ffffff;"/>
  </g>
  <g id="axes_1">
   <g id="patch_2">
    <path d="M 189.328696 61.071141 
L 58.32 287.984859 
L 320.337391 287.984859 
z
" style="fill:#ffffff;"/>
   </g>
   <g id="matplotlib.axis_1">
    <g id="xtick_1">
     <g id="line2d_1">
      <defs>
       <path d="M 0 0 
L 3.5 0 
" id="m56b68f3f89" style="stroke:#000000;stroke-width:0.8;"/>
      </defs>
      <g>
       <use style="stroke:#000000;stroke-width:0.8;" x="320.337391" xlink:href="#m56b68f3f89" y="287.984859"/>
      </g>
     </g>
     <g id="text_1">
      <!-- 0.0 -->
      <defs>
       <path d="M 31.78125 66.40625 
Q 24.171875 66.40625 20.328125 58.90625 
Q 16.5 51.421875 16.5 36.375 
Q 16.5 21.390625 20.328125 13.890625 
Q 24.171875 6.390625 31.78125 6.390625 
Q 39.453125 6.390625 43.28125 13.890625 
Q 47.125 21.390625 47.125 36.375 
Q 47.125 51.421875 43.28125 58.90625 
Q 39.453125 66.40625 31.78125 66.40625 
z
M 31.78125 74.21875 
Q 44.046875 74.21875 50.515625 64.515625 
Q 56.984375 54.828125 56.984375 36.375 
Q 56.984375 17.96875 50.515625 8.265625 
Q 44.046875 -1.421875 31.78125 -1.421875 
Q 19.53125 -1.421875 13.0625 8.265625 
Q 6.59375 17.96875 6.59375 36.375 
Q 6.59375 54.828125 13.0625 64.515625 
Q 19.53125 74.21875 31.78125 74.21875 
z
" id="DejaVuSans-48"/>
       <path d="M 10.6875 12.40625 
L 21 12.40625 
L 21 0 
L 10.6875 0 
z
" id="DejaVuSans-46"/>
      </defs>
      <g transform="translate(327.337391 291.784077)scale(0.1 -0.1)">
       <use xlink:href="#DejaVuSans-48"/>
       <use x="63.623047" xlink:href="#DejaVuSans-46"/>
       <use x="95.410156" xlink:href="#DejaVuSans-48"/>
      </g>
     </g>
    </g>
    <g id="xtick_2">
     <g id="line2d_2">
      <g>
       <use style="stroke:#000000;stroke-width:0.8;" x="294.135652" xlink:href="#m56b68f3f89" y="242.602115"/>
      </g>
     </g>
     <g id="text_2">
      <!-- 0.2 -->
      <defs>
       <path d="M 19.1875 8.296875 
L 53.609375 8.296875 
L 53.609375 0 
L 7.328125 0 
L 7.328125 8.296875 
Q 12.9375 14.109375 22.625 23.890625 
Q 32.328125 33.6875 34.8125 36.53125 
Q 39.546875 41.84375 41.421875 45.53125 
Q 43.3125 49.21875 43.3125 52.78125 
Q 43.3125 58.59375 39.234375 62.25 
Q 35.15625 65.921875 28.609375 65.921875 
Q 23.96875 65.921875 18.8125 64.3125 
Q 13.671875 62.703125 7.8125 59.421875 
L 7.8125 69.390625 
Q 13.765625 71.78125 18.9375 73 
Q 24.125 74.21875 28.421875 74.21875 
Q 39.75 74.21875 46.484375 68.546875 
Q 53.21875 62.890625 53.21875 53.421875 
Q 53.21875 48.921875 51.53125 44.890625 
Q 49.859375 40.875 45.40625 35.40625 
Q 44.1875 33.984375 37.640625 27.21875 
Q 31.109375 20.453125 19.1875 8.296875 
z
" id="DejaVuSans-50"/>
      </defs>
      <g transform="translate(301.135652 246.401334)scale(0.1 -0.1)">
       <use xlink:href="#DejaVuSans-48"/>
       <use x="63.623047" xlink:href="#DejaVuSans-46"/>
       <use x="95.410156" xlink:href="#DejaVuSans-50"/>
      </g>
     </g>
    </g>
    <g id="xtick_3">
     <g id="line2d_3">
      <g>
       <use style="stroke:#000000;stroke-width:0.8;" x="267.933913" xlink:href="#m56b68f3f89" y="197.219372"/>
      </g>
     </g>
     <g id="text_3">
      <!-- 0.4 -->
      <defs>
       <path d="M 37.796875 64.3125 
L 12.890625 25.390625 
L 37.796875 25.390625 
z
M 35.203125 72.90625 
L 47.609375 72.90625 
L 47.609375 25.390625 
L 58.015625 25.390625 
L 58.015625 17.1875 
L 47.609375 17.1875 
L 47.609375 0 
L 37.796875 0 
L 37.796875 17.1875 
L 4.890625 17.1875 
L 4.890625 26.703125 
z
" id="DejaVuSans-52"/>
      </defs>
      <g transform="translate(274.933913 201.01859)scale(0.1 -0.1)">
       <use xlink:href="#DejaVuSans-48"/>
       <use x="63.623047" xlink:href="#DejaVuSans-46"/>
       <use x="95.410156" xlink:href="#DejaVuSans-52"/>
      </g>
     </g>
    </g>
    <g id="xtick_4">
     <g id="line2d_4">
      <g>
       <use style="stroke:#000000;stroke-width:0.8;" x="241.732174" xlink:href="#m56b68f3f89" y="151.836628"/>
      </g>
     </g>
     <g id="text_4">
      <!-- 0.6 -->
      <defs>
       <path d="M 33.015625 40.375 
Q 26.375 40.375 22.484375 35.828125 
Q 18.609375 31.296875 18.609375 23.390625 
Q 18.609375 15.53125 22.484375 10.953125 
Q 26.375 6.390625 33.015625 6.390625 
Q 39.65625 6.390625 43.53125 10.953125 
Q 47.40625 15.53125 47.40625 23.390625 
Q 47.40625 31.296875 43.53125 35.828125 
Q 39.65625 40.375 33.015625 40.375 
z
M 52.59375 71.296875 
L 52.59375 62.3125 
Q 48.875 64.0625 45.09375 64.984375 
Q 41.3125 65.921875 37.59375 65.921875 
Q 27.828125 65.921875 22.671875 59.328125 
Q 17.53125 52.734375 16.796875 39.40625 
Q 19.671875 43.65625 24.015625 45.921875 
Q 28.375 48.1875 33.59375 48.1875 
Q 44.578125 48.1875 50.953125 41.515625 
Q 57.328125 34.859375 57.328125 23.390625 
Q 57.328125 12.15625 50.6875 5.359375 
Q 44.046875 -1.421875 33.015625 -1.421875 
Q 20.359375 -1.421875 13.671875 8.265625 
Q 6.984375 17.96875 6.984375 36.375 
Q 6.984375 53.65625 15.1875 63.9375 
Q 23.390625 74.21875 37.203125 74.21875 
Q 40.921875 74.21875 44.703125 73.484375 
Q 48.484375 72.75 52.59375 71.296875 
z
" id="DejaVuSans-54"/>
      </defs>
      <g transform="translate(248.732174 155.635847)scale(0.1 -0.1)">
       <use xlink:href="#DejaVuSans-48"/>
       <use x="63.623047" xlink:href="#DejaVuSans-46"/>
       <use x="95.410156" xlink:href="#DejaVuSans-54"/>
      </g>
     </g>
    </g>
    <g id="xtick_5">
     <g id="line2d_5">
      <g>
       <use style="stroke:#000000;stroke-width:0.8;" x="215.530435" xlink:href="#m56b68f3f89" y="106.453885"/>
      </g>
     </g>
     <g id="text_5">
      <!-- 0.8 -->
      <defs>
       <path d="M 31.78125 34.625 
Q 24.75 34.625 20.71875 30.859375 
Q 16.703125 27.09375 16.703125 20.515625 
Q 16.703125 13.921875 20.71875 10.15625 
Q 24.75 6.390625 31.78125 6.390625 
Q 38.8125 6.390625 42.859375 10.171875 
Q 46.921875 13.96875 46.921875 20.515625 
Q 46.921875 27.09375 42.890625 30.859375 
Q 38.875 34.625 31.78125 34.625 
z
M 21.921875 38.8125 
Q 15.578125 40.375 12.03125 44.71875 
Q 8.5 49.078125 8.5 55.328125 
Q 8.5 64.0625 14.71875 69.140625 
Q 20.953125 74.21875 31.78125 74.21875 
Q 42.671875 74.21875 48.875 69.140625 
Q 55.078125 64.0625 55.078125 55.328125 
Q 55.078125 49.078125 51.53125 44.71875 
Q 48 40.375 41.703125 38.8125 
Q 48.828125 37.15625 52.796875 32.3125 
Q 56.78125 27.484375 56.78125 20.515625 
Q 56.78125 9.90625 50.3125 4.234375 
Q 43.84375 -1.421875 31.78125 -1.421875 
Q 19.734375 -1.421875 13.25 4.234375 
Q 6.78125 9.90625 6.78125 20.515625 
Q 6.78125 27.484375 10.78125 32.3125 
Q 14.796875 37.15625 21.921875 38.8125 
z
M 18.3125 54.390625 
Q 18.3125 48.734375 21.84375 45.5625 
Q 25.390625 42.390625 31.78125 42.390625 
Q 38.140625 42.390625 41.71875 45.5625 
Q 45.3125 48.734375 45.3125 54.390625 
Q 45.3125 60.0625 41.71875 63.234375 
Q 38.140625 66.40625 31.78125 66.40625 
Q 25.390625 66.40625 21.84375 63.234375 
Q 18.3125 60.0625 18.3125 54.390625 
z
" id="DejaVuSans-56"/>
      </defs>
      <g transform="translate(222.530435 110.253104)scale(0.1 -0.1)">
       <use xlink:href="#DejaVuSans-48"/>
       <use x="63.623047" xlink:href="#DejaVuSans-46"/>
       <use x="95.410156" xlink:href="#DejaVuSans-56"/>
      </g>
     </g>
    </g>
    <g id="xtick_6">
     <g id="line2d_6">
      <g>
       <use style="stroke:#000000;stroke-width:0.8;" x="189.328696" xlink:href="#m56b68f3f89" y="61.071141"/>
      </g>
     </g>
     <g id="text_6">
      <!-- 1.0 -->
      <defs>
       <path d="M 12.40625 8.296875 
L 28.515625 8.296875 
L 28.515625 63.921875 
L 10.984375 60.40625 
L 10.984375 69.390625 
L 28.421875 72.90625 
L 38.28125 72.90625 
L 38.28125 8.296875 
L 54.390625 8.296875 
L 54.390625 0 
L 12.40625 0 
z
" id="DejaVuSans-49"/>
      </defs>
      <g transform="translate(196.328696 64.87036)scale(0.1 -0.1)">
       <use xlink:href="#DejaVuSans-49"/>
       <use x="63.623047" xlink:href="#DejaVuSans-46"/>
       <use x="95.410156" xlink:href="#DejaVuSans-48"/>
      </g>
     </g>
    </g>
   </g>
   <g id="matplotlib.axis_2">
    <g id="xtick_7">
     <g id="line2d_7">
      <defs>
       <path d="M 0 0 
L -1.75 -3.031089 
" id="mc14c30d96f" style="stroke:#000000;stroke-width:0.8;"/>
      </defs>
      <g>
       <use style="stroke:#000000;stroke-width:0.8;" x="189.328696" xlink:href="#mc14c30d96f" y="61.071141"/>
      </g>
     </g>
     <g id="text_7">
      <!-- 0.0 -->
      <g transform="translate(174.586913 43.136063)rotate(-300)scale(0.1 -0.1)">
       <use xlink:href="#DejaVuSans-48"/>
       <use x="63.623047" xlink:href="#DejaVuSans-46"/>
       <use x="95.410156" xlink:href="#DejaVuSans-48"/>
      </g>
     </g>
    </g>
    <g id="xtick_8">
     <g id="line2d_8">
      <g>
       <use style="stroke:#000000;stroke-width:0.8;" x="163.126957" xlink:href="#mc14c30d96f" y="106.453885"/>
      </g>
     </g>
     <g id="text_8">
      <!-- 0.2 -->
      <g transform="translate(148.385174 88.518806)rotate(-300)scale(0.1 -0.1)">
       <use xlink:href="#DejaVuSans-48"/>
       <use x="63.623047" xlink:href="#DejaVuSans-46"/>
       <use x="95.410156" xlink:href="#DejaVuSans-50"/>
      </g>
     </g>
    </g>
    <g id="xtick_9">
     <g id="line2d_9">
      <g>
       <use style="stroke:#000000;stroke-width:0.8;" x="136.925217" xlink:href="#mc14c30d96f" y="151.836628"/>
      </g>
     </g>
     <g id="text_9">
      <!-- 0.4 -->
      <g transform="translate(122.183435 133.90155)rotate(-300)scale(0.1 -0.1)">
       <use xlink:href="#DejaVuSans-48"/>
       <use x="63.623047" xlink:href="#DejaVuSans-46"/>
       <use x="95.410156" xlink:href="#DejaVuSans-52"/>
      </g>
     </g>
    </g>
    <g id="xtick_10">
     <g id="line2d_10">
      <g>
       <use style="stroke:#000000;stroke-width:0.8;" x="110.723478" xlink:href="#mc14c30d96f" y="197.219372"/>
      </g>
     </g>
     <g id="text_10">
      <!-- 0.6 -->
      <g transform="translate(95.981696 179.284293)rotate(-300)scale(0.1 -0.1)">
       <use xlink:href="#DejaVuSans-48"/>
       <use x="63.623047" xlink:href="#DejaVuSans-46"/>
       <use x="95.410156" xlink:href="#DejaVuSans-54"/>
      </g>
     </g>
    </g>
    <g id="xtick_11">
     <g id="line2d_11">
      <g>
       <use style="stroke:#000000;stroke-width:0.8;" x="84.521739" xlink:href="#mc14c30d96f" y="242.602115"/>
      </g>
     </g>
     <g id="text_11">
      <!-- 0.8 -->
      <g transform="translate(69.779957 224.667036)rotate(-300)scale(0.1 -0.1)">
       <use xlink:href="#DejaVuSans-48"/>
       <use x="63.623047" xlink:href="#DejaVuSans-46"/>
       <use x="95.410156" xlink:href="#DejaVuSans-56"/>
      </g>
     </g>
    </g>
    <g id="xtick_12">
     <g id="line2d_12">
      <g>
       <use style="stroke:#000000;stroke-width:0.8;" x="58.32" xlink:href="#mc14c30d96f" y="287.984859"/>
      </g>
     </g>
     <g id="text_12">
      <!-- 1.0 -->
      <g transform="translate(43.578218 270.04978)rotate(-300)scale(0.1 -0.1)">
       <use xlink:href="#DejaVuSans-49"/>
       <use x="63.623047" xlink:href="#DejaVuSans-46"/>
       <use x="95.410156" xlink:href="#DejaVuSans-48"/>
      </g>
     </g>
    </g>
   </g>
   <g id="matplotlib.axis_3">
    <g id="xtick_13">
     <g id="line2d_13">
      <defs>
       <path d="M 0 0 
L -1.75 3.031089 
" id="mcd1f7da52a" style="stroke:#000000;stroke-width:0.8;"/>
      </defs>
      <g>
       <use style="stroke:#000000;stroke-width:0.8;" x="58.32" xlink:href="#mcd1f7da52a" y="287.984859"/>
      </g>
     </g>
     <g id="text_13">
      <!-- 0.0 -->
      <g transform="translate(50.158657 309.719156)rotate(-60)scale(0.1 -0.1)">
       <use xlink:href="#DejaVuSans-48"/>
       <use x="63.623047" xlink:href="#DejaVuSans-46"/>
       <use x="95.410156" xlink:href="#DejaVuSans-48"/>
      </g>
     </g>
    </g>
    <g id="xtick_14">
     <g id="line2d_14">
      <g>
       <use style="stroke:#000000;stroke-width:0.8;" x="110.723478" xlink:href="#mcd1f7da52a" y="287.984859"/>
      </g>
     </g>
     <g id="text_14">
      <!-- 0.2 -->
      <g transform="translate(102.562136 309.719156)rotate(-60)scale(0.1 -0.1)">
       <use xlink:href="#DejaVuSans-48"/>
       <use x="63.623047" xlink:href="#DejaVuSans-46"/>
       <use x="95.410156" xlink:href="#DejaVuSans-50"/>
      </g>
     </g>
    </g>
    <g id="xtick_15">
     <g id="line2d_15">
      <g>
       <use style="stroke:#000000;stroke-width:0.8;" x="163.126957" xlink:href="#mcd1f7da52a" y="287.984859"/>
      </g>
     </g>
     <g id="text_15">
      <!-- 0.4 -->
      <g transform="translate(154.965614 309.719156)rotate(-60)scale(0.1 -0.1)">
       <use xlink:href="#DejaVuSans-48"/>
       <use x="63.623047" xlink:href="#DejaVuSans-46"/>
       <use x="95.410156" xlink:href="#DejaVuSans-52"/>
      </g>
     </g>
    </g>
    <g id="xtick_16">
     <g id="line2d_16">
      <g>
       <use style="stroke:#000000;stroke-width:0.8;" x="215.530435" xlink:href="#mcd1f7da52a" y="287.984859"/>
      </g>
     </g>
     <g id="text_16">
      <!-- 0.6 -->
      <g transform="translate(207.369092 309.719156)rotate(-60)scale(0.1 -0.1)">
       <use xlink:href="#DejaVuSans-48"/>
       <use x="63.623047" xlink:href="#DejaVuSans-46"/>
       <use x="95.410156" xlink:href="#DejaVuSans-54"/>
      </g>
     </g>
    </g>
    <g id="xtick_17">
     <g id="line2d_17">
      <g>
       <use style="stroke:#000000;stroke-width:0.8;" x="267.933913" xlink:href="#mcd1f7da52a" y="287.984859"/>
      </g>
     </g>
     <g id="text_17">
      <!-- 0.8 -->
      <g transform="translate(259.77257 309.719156)rotate(-60)scale(0.1 -0.1)">
       <use xlink:href="#DejaVuSans-48"/>
       <use x="63.623047" xlink:href="#DejaVuSans-46"/>
       <use x="95.410156" xlink:href="#DejaVuSans-56"/>
      </g>
     </g>
    </g>
    <g id="xtick_18">
     <g id="line2d_18">
      <g>
       <use style="stroke:#000000;stroke-width:0.8;" x="320.337391" xlink:href="#mcd1f7da52a" y="287.984859"/>
      </g>
     </g>
     <g id="text_18">
      <!-- 1.0 -->
      <g transform="translate(312.176049 309.719156)rotate(-60)scale(0.1 -0.1)">
       <use xlink:href="#DejaVuSans-49"/>
       <use x="63.623047" xlink:href="#DejaVuSans-46"/>
       <use x="95.410156" xlink:href="#DejaVuSans-48"/>
      </g>
     </g>
    </g>
   </g>
   <g id="LineCollection_1"/>
   <g id="LineCollection_2">
    <path clip-path="url(#p8287ff1915)" d="M 304.21736 287.984859 
L 312.277375 274.024502 
" style="fill:none;stroke:#443983;stroke-width:1.5;"/>
    <path clip-path="url(#p8287ff1915)" d="M 197.388711 75.031498 
L 181.26868 75.031498 
" style="fill:none;stroke:#443983;stroke-width:1.5;"/>
    <path clip-path="url(#p8287ff1915)" d="M 66.380016 274.024502 
L 74.440032 287.984859 
" style="fill:none;stroke:#443983;stroke-width:1.5;"/>
   </g>
   <g id="LineCollection_3">
    <path clip-path="url(#p8287ff1915)" d="M 282.939197 287.984859 
L 291.009417 282.57006 
L 292.768742 279.522818 
" style="fill:none;stroke:#31688e;stroke-width:1.5;"/>
    <path clip-path="url(#p8287ff1915)" d="M 208.027793 93.458928 
L 199.30333 89.177312 
L 197.954062 89.177312 
" style="fill:none;stroke:#31688e;stroke-width:1.5;"/>
    <path clip-path="url(#p8287ff1915)" d="M 77.019097 255.597072 
L 77.673341 265.293487 
L 79.432666 268.340728 
" style="fill:none;stroke:#31688e;stroke-width:1.5;"/>
   </g>
   <g id="LineCollection_4">
    <path clip-path="url(#p8287ff1915)" d="M 244.309204 287.984859 
L 263.604965 280.4869 
L 270.833679 275.855173 
" style="fill:none;stroke:#21918c;stroke-width:1.5;"/>
    <path clip-path="url(#p8287ff1915)" d="M 285.160834 249.451187 
L 285.477755 242.602115 
L 282.323298 222.142517 
" style="fill:none;stroke:#21918c;stroke-width:1.5;"/>
    <path clip-path="url(#p8287ff1915)" d="M 227.342789 126.913483 
L 211.201486 113.951843 
L 204.152802 110.305846 
" style="fill:none;stroke:#21918c;stroke-width:1.5;"/>
    <path clip-path="url(#p8287ff1915)" d="M 171.719427 111.746497 
L 167.455905 113.951843 
L 151.314602 126.913483 
" style="fill:none;stroke:#21918c;stroke-width:1.5;"/>
    <path clip-path="url(#p8287ff1915)" d="M 96.334094 222.142517 
L 93.179636 242.602115 
L 93.641946 252.5932 
" style="fill:none;stroke:#21918c;stroke-width:1.5;"/>
    <path clip-path="url(#p8287ff1915)" d="M 110.771813 277.744139 
L 115.052427 280.4869 
L 134.348187 287.984859 
" style="fill:none;stroke:#21918c;stroke-width:1.5;"/>
   </g>
   <g id="LineCollection_5">
    <path clip-path="url(#p8287ff1915)" d="M 141.389511 165.016638 
L 135.01426 174.528 
L 129.419304 184.218749 
L 123.031518 197.219372 
L 118.11968 210.029968 
L 114.884904 219.910743 
L 110.598712 242.386014 
L 110.565394 242.602115 
L 110.577123 242.855609 
L 123.531638 265.293487 
L 123.745306 265.430392 
L 123.949114 265.509588 
L 145.556365 273.035273 
L 155.730755 275.174262 
L 169.280976 277.325783 
L 183.733739 278.29411 
L 194.923652 278.29411 
L 209.376415 277.325783 
L 222.926636 275.174262 
L 233.101026 273.035273 
L 254.708277 265.509588 
L 254.912086 265.430392 
L 255.125753 265.293487 
L 268.080268 242.855609 
L 268.091998 242.602115 
L 268.058679 242.386014 
L 263.772488 219.910743 
L 260.537712 210.029968 
L 255.625873 197.219372 
L 249.238087 184.218749 
L 243.643131 174.528 
L 235.578154 162.495703 
L 226.939771 151.836628 
L 220.000157 144.094843 
L 202.679097 129.145257 
L 202.508608 129.008351 
L 202.28321 128.891763 
L 176.374181 128.891763 
L 176.148784 129.008351 
L 175.978294 129.145257 
L 163.698121 139.744118 
" style="fill:none;stroke:#35b779;stroke-width:1.5;"/>
   </g>
   <g id="LineCollection_6">
    <path clip-path="url(#p8287ff1915)" d="M 153.353392 242.61257 
L 160.177383 247.710925 
L 167.628225 250.398541 
L 182.879915 253.771732 
L 195.777477 253.771732 
L 211.029166 250.398541 
L 218.480008 247.710925 
L 225.317992 242.602115 
L 233.525083 228.387017 
L 234.53045 219.910743 
L 233.132573 212.114318 
L 228.427997 197.219372 
L 221.979216 186.049755 
L 211.432102 174.528 
L 205.379138 169.41919 
L 197.535786 166.051727 
L 181.121605 166.051727 
L 173.278253 169.41919 
L 167.225289 174.528 
L 156.678175 186.049755 
L 150.229394 197.219372 
L 145.524819 212.114318 
L 145.427991 212.654354 
" style="fill:none;stroke:#90d743;stroke-width:1.5;"/>
   </g>
   <g id="LineCollection_7"/>
   <g id="patch_3">
    <path d="M 58.32 287.984859 
L 320.337391 287.984859 
" style="fill:none;stroke:#000000;stroke-linecap:square;stroke-linejoin:miter;stroke-width:0.8;"/>
   </g>
   <g id="patch_4">
    <path d="M 320.337391 287.984859 
L 189.328696 61.071141 
" style="fill:none;stroke:#000000;stroke-linecap:square;stroke-linejoin:miter;stroke-width:0.8;"/>
   </g>
   <g id="patch_5">
    <path d="M 189.328696 61.071141 
L 58.32 287.984859 
" style="fill:none;stroke:#000000;stroke-linecap:square;stroke-linejoin:miter;stroke-width:0.8;"/>
   </g>
   <g id="text_19">
    <g clip-path="url(#p8287ff1915)">
     <!-- 0.400 -->
     <g style="fill:#31688e;" transform="translate(299.604811 279.805697)rotate(-73.659645)scale(0.1 -0.1)">
      <use xlink:href="#DejaVuSans-48"/>
      <use x="63.623047" xlink:href="#DejaVuSans-46"/>
      <use x="95.410156" xlink:href="#DejaVuSans-52"/>
      <use x="159.033203" xlink:href="#DejaVuSans-48"/>
      <use x="222.65625" xlink:href="#DejaVuSans-48"/>
     </g>
    </g>
   </g>
   <g id="text_20">
    <g clip-path="url(#p8287ff1915)">
     <!-- 0.400 -->
     <g style="fill:#31688e;" transform="translate(165.921575 94.840778)rotate(-11.950207)scale(0.1 -0.1)">
      <use xlink:href="#DejaVuSans-48"/>
      <use x="63.623047" xlink:href="#DejaVuSans-46"/>
      <use x="95.410156" xlink:href="#DejaVuSans-52"/>
      <use x="159.033203" xlink:href="#DejaVuSans-48"/>
      <use x="222.65625" xlink:href="#DejaVuSans-48"/>
     </g>
    </g>
   </g>
   <g id="text_21">
    <g clip-path="url(#p8287ff1915)">
     <!-- 0.400 -->
     <g style="fill:#31688e;" transform="translate(76.903129 272.718419)rotate(-306.571909)scale(0.1 -0.1)">
      <use xlink:href="#DejaVuSans-48"/>
      <use x="63.623047" xlink:href="#DejaVuSans-46"/>
      <use x="95.410156" xlink:href="#DejaVuSans-52"/>
      <use x="159.033203" xlink:href="#DejaVuSans-48"/>
      <use x="222.65625" xlink:href="#DejaVuSans-48"/>
     </g>
    </g>
   </g>
   <g id="text_22">
    <g clip-path="url(#p8287ff1915)">
     <!-- 0.600 -->
     <g style="fill:#21918c;" transform="translate(280.951163 279.483031)rotate(-65.83884)scale(0.1 -0.1)">
      <use xlink:href="#DejaVuSans-48"/>
      <use x="63.623047" xlink:href="#DejaVuSans-46"/>
      <use x="95.410156" xlink:href="#DejaVuSans-54"/>
      <use x="159.033203" xlink:href="#DejaVuSans-48"/>
      <use x="222.65625" xlink:href="#DejaVuSans-48"/>
     </g>
    </g>
   </g>
   <g id="text_23">
    <g clip-path="url(#p8287ff1915)">
     <!-- 0.600 -->
     <g style="fill:#21918c;" transform="translate(173.592405 107.304888)rotate(-3.678786)scale(0.1 -0.1)">
      <use xlink:href="#DejaVuSans-48"/>
      <use x="63.623047" xlink:href="#DejaVuSans-46"/>
      <use x="95.410156" xlink:href="#DejaVuSans-54"/>
      <use x="159.033203" xlink:href="#DejaVuSans-48"/>
      <use x="222.65625" xlink:href="#DejaVuSans-48"/>
     </g>
    </g>
   </g>
   <g id="text_24">
    <g clip-path="url(#p8287ff1915)">
     <!-- 0.600 -->
     <g style="fill:#21918c;" transform="translate(86.307604 257.220411)rotate(-300.729626)scale(0.1 -0.1)">
      <use xlink:href="#DejaVuSans-48"/>
      <use x="63.623047" xlink:href="#DejaVuSans-46"/>
      <use x="95.410156" xlink:href="#DejaVuSans-54"/>
      <use x="159.033203" xlink:href="#DejaVuSans-48"/>
      <use x="222.65625" xlink:href="#DejaVuSans-48"/>
     </g>
    </g>
   </g>
   <g id="text_25">
    <g clip-path="url(#p8287ff1915)">
     <!-- 0.800 -->
     <g style="fill:#35b779;" transform="translate(145.334039 164.942216)rotate(-53.118547)scale(0.1 -0.1)">
      <use xlink:href="#DejaVuSans-48"/>
      <use x="63.623047" xlink:href="#DejaVuSans-46"/>
      <use x="95.410156" xlink:href="#DejaVuSans-56"/>
      <use x="159.033203" xlink:href="#DejaVuSans-48"/>
      <use x="222.65625" xlink:href="#DejaVuSans-48"/>
     </g>
    </g>
   </g>
   <g id="text_26">
    <g clip-path="url(#p8287ff1915)">
     <!-- 1.000 -->
     <g style="fill:#90d743;" transform="translate(139.077742 215.126219)rotate(-283.629042)scale(0.1 -0.1)">
      <use xlink:href="#DejaVuSans-49"/>
      <use x="63.623047" xlink:href="#DejaVuSans-46"/>
      <use x="95.410156" xlink:href="#DejaVuSans-48"/>
      <use x="159.033203" xlink:href="#DejaVuSans-48"/>
      <use x="222.65625" xlink:href="#DejaVuSans-48"/>
     </g>
    </g>
   </g>
   <g id="text_27">
    <!-- tricontour -->
    <defs>
     <path d="M 18.3125 70.21875 
L 18.3125 54.6875 
L 36.8125 54.6875 
L 36.8125 47.703125 
L 18.3125 47.703125 
L 18.3125 18.015625 
Q 18.3125 11.328125 20.140625 9.421875 
Q 21.96875 7.515625 27.59375 7.515625 
L 36.8125 7.515625 
L 36.8125 0 
L 27.59375 0 
Q 17.1875 0 13.234375 3.875 
Q 9.28125 7.765625 9.28125 18.015625 
L 9.28125 47.703125 
L 2.6875 47.703125 
L 2.6875 54.6875 
L 9.28125 54.6875 
L 9.28125 70.21875 
z
" id="DejaVuSans-116"/>
     <path d="M 41.109375 46.296875 
Q 39.59375 47.171875 37.8125 47.578125 
Q 36.03125 48 33.890625 48 
Q 26.265625 48 22.1875 43.046875 
Q 18.109375 38.09375 18.109375 28.8125 
L 18.109375 0 
L 9.078125 0 
L 9.078125 54.6875 
L 18.109375 54.6875 
L 18.109375 46.1875 
Q 20.953125 51.171875 25.484375 53.578125 
Q 30.03125 56 36.53125 56 
Q 37.453125 56 38.578125 55.875 
Q 39.703125 55.765625 41.0625 55.515625 
z
" id="DejaVuSans-114"/>
     <path d="M 9.421875 54.6875 
L 18.40625 54.6875 
L 18.40625 0 
L 9.421875 0 
z
M 9.421875 75.984375 
L 18.40625 75.984375 
L 18.40625 64.59375 
L 9.421875 64.59375 
z
" id="DejaVuSans-105"/>
     <path d="M 48.78125 52.59375 
L 48.78125 44.1875 
Q 44.96875 46.296875 41.140625 47.34375 
Q 37.3125 48.390625 33.40625 48.390625 
Q 24.65625 48.390625 19.8125 42.84375 
Q 14.984375 37.3125 14.984375 27.296875 
Q 14.984375 17.28125 19.8125 11.734375 
Q 24.65625 6.203125 33.40625 6.203125 
Q 37.3125 6.203125 41.140625 7.25 
Q 44.96875 8.296875 48.78125 10.40625 
L 48.78125 2.09375 
Q 45.015625 0.34375 40.984375 -0.53125 
Q 36.96875 -1.421875 32.421875 -1.421875 
Q 20.0625 -1.421875 12.78125 6.34375 
Q 5.515625 14.109375 5.515625 27.296875 
Q 5.515625 40.671875 12.859375 48.328125 
Q 20.21875 56 33.015625 56 
Q 37.15625 56 41.109375 55.140625 
Q 45.0625 54.296875 48.78125 52.59375 
z
" id="DejaVuSans-99"/>
     <path d="M 30.609375 48.390625 
Q 23.390625 48.390625 19.1875 42.75 
Q 14.984375 37.109375 14.984375 27.296875 
Q 14.984375 17.484375 19.15625 11.84375 
Q 23.34375 6.203125 30.609375 6.203125 
Q 37.796875 6.203125 41.984375 11.859375 
Q 46.1875 17.53125 46.1875 27.296875 
Q 46.1875 37.015625 41.984375 42.703125 
Q 37.796875 48.390625 30.609375 48.390625 
z
M 30.609375 56 
Q 42.328125 56 49.015625 48.375 
Q 55.71875 40.765625 55.71875 27.296875 
Q 55.71875 13.875 49.015625 6.21875 
Q 42.328125 -1.421875 30.609375 -1.421875 
Q 18.84375 -1.421875 12.171875 6.21875 
Q 5.515625 13.875 5.515625 27.296875 
Q 5.515625 40.765625 12.171875 48.375 
Q 18.84375 56 30.609375 56 
z
" id="DejaVuSans-111"/>
     <path d="M 54.890625 33.015625 
L 54.890625 0 
L 45.90625 0 
L 45.90625 32.71875 
Q 45.90625 40.484375 42.875 44.328125 
Q 39.84375 48.1875 33.796875 48.1875 
Q 26.515625 48.1875 22.3125 43.546875 
Q 18.109375 38.921875 18.109375 30.90625 
L 18.109375 0 
L 9.078125 0 
L 9.078125 54.6875 
L 18.109375 54.6875 
L 18.109375 46.1875 
Q 21.34375 51.125 25.703125 53.5625 
Q 30.078125 56 35.796875 56 
Q 45.21875 56 50.046875 50.171875 
Q 54.890625 44.34375 54.890625 33.015625 
z
" id="DejaVuSans-110"/>
     <path d="M 8.5 21.578125 
L 8.5 54.6875 
L 17.484375 54.6875 
L 17.484375 21.921875 
Q 17.484375 14.15625 20.5 10.265625 
Q 23.53125 6.390625 29.59375 6.390625 
Q 36.859375 6.390625 41.078125 11.03125 
Q 45.3125 15.671875 45.3125 23.6875 
L 45.3125 54.6875 
L 54.296875 54.6875 
L 54.296875 0 
L 45.3125 0 
L 45.3125 8.40625 
Q 42.046875 3.421875 37.71875 1 
Q 33.40625 -1.421875 27.6875 -1.421875 
Q 18.265625 -1.421875 13.375 4.4375 
Q 8.5 10.296875 8.5 21.578125 
z
M 31.109375 56 
z
" id="DejaVuSans-117"/>
    </defs>
    <g transform="translate(159.777758 25.071141)scale(0.12 -0.12)">
     <use xlink:href="#DejaVuSans-116"/>
     <use x="39.208984" xlink:href="#DejaVuSans-114"/>
     <use x="80.322266" xlink:href="#DejaVuSans-105"/>
     <use x="108.105469" xlink:href="#DejaVuSans-99"/>
     <use x="163.085938" xlink:href="#DejaVuSans-111"/>
     <use x="224.267578" xlink:href="#DejaVuSans-110"/>
     <use x="287.646484" xlink:href="#DejaVuSans-116"/>
     <use x="326.855469" xlink:href="#DejaVuSans-111"/>
     <use x="388.037109" xlink:href="#DejaVuSans-117"/>
     <use x="451.416016" xlink:href="#DejaVuSans-114"/>
    </g>
   </g>
   <g id="axes_2">
    <g id="patch_6">
     <path clip-path="url(#pd5ed3dda68)" d="M 333.438261 265.293487 
L 333.438261 231.256429 
L 333.438261 95.108199 
L 333.438261 61.071141 
L 346.53913 61.071141 
L 346.53913 95.108199 
L 346.53913 231.256429 
L 346.53913 265.293487 
z
" style="fill:#ffffff;stroke:#ffffff;stroke-linejoin:miter;stroke-width:0.01;"/>
    </g>
    <g id="matplotlib.axis_4"/>
    <g id="matplotlib.axis_5">
     <g id="ytick_1">
      <g id="line2d_19">
       <g>
        <use style="stroke:#000000;stroke-width:0.8;" x="346.53913" xlink:href="#m56b68f3f89" y="265.293487"/>
       </g>
      </g>
      <g id="text_28">
       <!-- 0.0 -->
       <g transform="translate(353.53913 269.092706)scale(0.1 -0.1)">
        <use xlink:href="#DejaVuSans-48"/>
        <use x="63.623047" xlink:href="#DejaVuSans-46"/>
        <use x="95.410156" xlink:href="#DejaVuSans-48"/>
       </g>
      </g>
     </g>
     <g id="ytick_2">
      <g id="line2d_20">
       <g>
        <use style="stroke:#000000;stroke-width:0.8;" x="346.53913" xlink:href="#m56b68f3f89" y="231.256429"/>
       </g>
      </g>
      <g id="text_29">
       <!-- 0.2 -->
       <g transform="translate(353.53913 235.055648)scale(0.1 -0.1)">
        <use xlink:href="#DejaVuSans-48"/>
        <use x="63.623047" xlink:href="#DejaVuSans-46"/>
        <use x="95.410156" xlink:href="#DejaVuSans-50"/>
       </g>
      </g>
     </g>
     <g id="ytick_3">
      <g id="line2d_21">
       <g>
        <use style="stroke:#000000;stroke-width:0.8;" x="346.53913" xlink:href="#m56b68f3f89" y="197.219372"/>
       </g>
      </g>
      <g id="text_30">
       <!-- 0.4 -->
       <g transform="translate(353.53913 201.01859)scale(0.1 -0.1)">
        <use xlink:href="#DejaVuSans-48"/>
        <use x="63.623047" xlink:href="#DejaVuSans-46"/>
        <use x="95.410156" xlink:href="#DejaVuSans-52"/>
       </g>
      </g>
     </g>
     <g id="ytick_4">
      <g id="line2d_22">
       <g>
        <use style="stroke:#000000;stroke-width:0.8;" x="346.53913" xlink:href="#m56b68f3f89" y="163.182314"/>
       </g>
      </g>
      <g id="text_31">
       <!-- 0.6 -->
       <g transform="translate(353.53913 166.981533)scale(0.1 -0.1)">
        <use xlink:href="#DejaVuSans-48"/>
        <use x="63.623047" xlink:href="#DejaVuSans-46"/>
        <use x="95.410156" xlink:href="#DejaVuSans-54"/>
       </g>
      </g>
     </g>
     <g id="ytick_5">
      <g id="line2d_23">
       <g>
        <use style="stroke:#000000;stroke-width:0.8;" x="346.53913" xlink:href="#m56b68f3f89" y="129.145257"/>
       </g>
      </g>
      <g id="text_32">
       <!-- 0.8 -->
       <g transform="translate(353.53913 132.944475)scale(0.1 -0.1)">
        <use xlink:href="#DejaVuSans-48"/>
        <use x="63.623047" xlink:href="#DejaVuSans-46"/>
        <use x="95.410156" xlink:href="#DejaVuSans-56"/>
       </g>
      </g>
     </g>
     <g id="ytick_6">
      <g id="line2d_24">
       <g>
        <use style="stroke:#000000;stroke-width:0.8;" x="346.53913" xlink:href="#m56b68f3f89" y="95.108199"/>
       </g>
      </g>
      <g id="text_33">
       <!-- 1.0 -->
       <g transform="translate(353.53913 98.907418)scale(0.1 -0.1)">
        <use xlink:href="#DejaVuSans-49"/>
        <use x="63.623047" xlink:href="#DejaVuSans-46"/>
        <use x="95.410156" xlink:href="#DejaVuSans-48"/>
       </g>
      </g>
     </g>
     <g id="ytick_7">
      <g id="line2d_25">
       <g>
        <use style="stroke:#000000;stroke-width:0.8;" x="346.53913" xlink:href="#m56b68f3f89" y="61.071141"/>
       </g>
      </g>
      <g id="text_34">
       <!-- 1.2 -->
       <g transform="translate(353.53913 64.87036)scale(0.1 -0.1)">
        <use xlink:href="#DejaVuSans-49"/>
        <use x="63.623047" xlink:href="#DejaVuSans-46"/>
        <use x="95.410156" xlink:href="#DejaVuSans-50"/>
       </g>
      </g>
     </g>
     <g id="text_35">
      <!-- Entropy -->
      <defs>
       <path d="M 9.8125 72.90625 
L 55.90625 72.90625 
L 55.90625 64.59375 
L 19.671875 64.59375 
L 19.671875 43.015625 
L 54.390625 43.015625 
L 54.390625 34.71875 
L 19.671875 34.71875 
L 19.671875 8.296875 
L 56.78125 8.296875 
L 56.78125 0 
L 9.8125 0 
z
" id="DejaVuSans-69"/>
       <path d="M 18.109375 8.203125 
L 18.109375 -20.796875 
L 9.078125 -20.796875 
L 9.078125 54.6875 
L 18.109375 54.6875 
L 18.109375 46.390625 
Q 20.953125 51.265625 25.265625 53.625 
Q 29.59375 56 35.59375 56 
Q 45.5625 56 51.78125 48.09375 
Q 58.015625 40.1875 58.015625 27.296875 
Q 58.015625 14.40625 51.78125 6.484375 
Q 45.5625 -1.421875 35.59375 -1.421875 
Q 29.59375 -1.421875 25.265625 0.953125 
Q 20.953125 3.328125 18.109375 8.203125 
z
M 48.6875 27.296875 
Q 48.6875 37.203125 44.609375 42.84375 
Q 40.53125 48.484375 33.40625 48.484375 
Q 26.265625 48.484375 22.1875 42.84375 
Q 18.109375 37.203125 18.109375 27.296875 
Q 18.109375 17.390625 22.1875 11.75 
Q 26.265625 6.109375 33.40625 6.109375 
Q 40.53125 6.109375 44.609375 11.75 
Q 48.6875 17.390625 48.6875 27.296875 
z
" id="DejaVuSans-112"/>
       <path d="M 32.171875 -5.078125 
Q 28.375 -14.84375 24.75 -17.8125 
Q 21.140625 -20.796875 15.09375 -20.796875 
L 7.90625 -20.796875 
L 7.90625 -13.28125 
L 13.1875 -13.28125 
Q 16.890625 -13.28125 18.9375 -11.515625 
Q 21 -9.765625 23.484375 -3.21875 
L 25.09375 0.875 
L 2.984375 54.6875 
L 12.5 54.6875 
L 29.59375 11.921875 
L 46.6875 54.6875 
L 56.203125 54.6875 
z
" id="DejaVuSans-121"/>
      </defs>
      <g transform="translate(373.442255 143.647158)rotate(-270)scale(0.1 -0.1)">
       <use xlink:href="#DejaVuSans-69"/>
       <use x="63.183594" xlink:href="#DejaVuSans-110"/>
       <use x="126.5625" xlink:href="#DejaVuSans-116"/>
       <use x="165.771484" xlink:href="#DejaVuSans-114"/>
       <use x="206.853516" xlink:href="#DejaVuSans-111"/>
       <use x="268.035156" xlink:href="#DejaVuSans-112"/>
       <use x="331.511719" xlink:href="#DejaVuSans-121"/>
      </g>
     </g>
    </g>
    <g id="LineCollection_8">
     <path clip-path="url(#pd5ed3dda68)" d="M 333.438261 265.293487 
L 346.53913 265.293487 
" style="fill:none;stroke:#440154;stroke-width:1.5;"/>
     <path clip-path="url(#pd5ed3dda68)" d="M 333.438261 231.256429 
L 346.53913 231.256429 
" style="fill:none;stroke:#443983;stroke-width:1.5;"/>
     <path clip-path="url(#pd5ed3dda68)" d="M 333.438261 197.219372 
L 346.53913 197.219372 
" style="fill:none;stroke:#31688e;stroke-width:1.5;"/>
     <path clip-path="url(#pd5ed3dda68)" d="M 333.438261 163.182314 
L 346.53913 163.182314 
" style="fill:none;stroke:#21918c;stroke-width:1.5;"/>
     <path clip-path="url(#pd5ed3dda68)" d="M 333.438261 129.145257 
L 346.53913 129.145257 
" style="fill:none;stroke:#35b779;stroke-width:1.5;"/>
     <path clip-path="url(#pd5ed3dda68)" d="M 333.438261 95.108199 
L 346.53913 95.108199 
" style="fill:none;stroke:#90d743;stroke-width:1.5;"/>
     <path clip-path="url(#pd5ed3dda68)" d="M 333.438261 61.071141 
L 346.53913 61.071141 
" style="fill:none;stroke:#fde725;stroke-width:1.5;"/>
    </g>
    <g id="patch_7">
     <path d="M 333.438261 265.293487 
L 333.438261 231.256429 
L 333.438261 95.108199 
L 333.438261 61.071141 
L 346.53913 61.071141 
L 346.53913 95.108199 
L 346.53913 231.256429 
L 346.53913 265.293487 
z
" style="fill:none;stroke:#000000;stroke-linejoin:miter;stroke-width:0.8;"/>
    </g>
   </g>
  </g>
  <g id="axes_3">
   <g id="patch_8">
    <path d="M 529.951304 61.071141 
L 398.942609 287.984859 
L 660.96 287.984859 
z
" style="fill:#ffffff;"/>
   </g>
   <g id="PathCollection_1">
    <path clip-path="url(#p4a5252716b)" d="M 415.06264 287.984859 
L 407.002625 274.024502 
L 398.942609 287.984859 
M 652.899984 274.024502 
L 644.839968 287.984859 
L 660.96 287.984859 
M 521.891289 75.031498 
L 538.01132 75.031498 
L 529.951304 61.071141 
" style="fill:#481f70;"/>
   </g>
   <g id="PathCollection_2">
    <path clip-path="url(#p4a5252716b)" d="M 436.340803 287.984859 
L 428.270583 282.57006 
L 418.29595 265.293487 
L 417.641706 255.597072 
L 412.043478 265.293487 
L 407.002625 274.024502 
L 415.06264 287.984859 
L 425.144348 287.984859 
M 644.839968 287.984859 
L 652.899984 274.024502 
L 647.85913 265.293487 
L 642.260903 255.597072 
L 641.606659 265.293487 
L 631.632025 282.57006 
L 623.561806 287.984859 
L 634.758261 287.984859 
M 538.01132 75.031498 
L 521.891289 75.031498 
L 516.850435 83.762513 
L 511.252207 93.458928 
L 519.97667 89.177312 
L 539.925938 89.177312 
L 548.650402 93.458928 
L 543.052174 83.762513 
" style="fill:#3b528b;"/>
   </g>
   <g id="PathCollection_3">
    <path clip-path="url(#p4a5252716b)" d="M 474.970796 287.984859 
L 455.675035 280.4869 
L 441.933837 271.682364 
L 436.616445 268.114604 
L 434.987672 265.293487 
L 434.556597 258.90461 
L 433.802245 242.602115 
L 436.956702 222.142517 
L 425.144348 242.602115 
L 417.641706 255.597072 
L 418.29595 265.293487 
L 428.270583 282.57006 
L 436.340803 287.984859 
L 451.346087 287.984859 
M 623.561806 287.984859 
L 631.632025 282.57006 
L 641.606659 265.293487 
L 642.260903 255.597072 
L 634.758261 242.602115 
L 622.945906 222.142517 
L 626.100364 242.602115 
L 625.346011 258.90461 
L 624.914936 265.293487 
L 623.286164 268.114604 
L 617.968771 271.682364 
L 604.227573 280.4869 
L 584.931813 287.984859 
L 608.556522 287.984859 
M 548.650402 93.458928 
L 539.925938 89.177312 
L 519.97667 89.177312 
L 511.252207 93.458928 
L 503.749565 106.453885 
L 491.937211 126.913483 
L 508.078514 113.951843 
L 522.574064 106.453885 
L 528.322532 103.632768 
L 531.580077 103.632768 
L 537.328544 106.453885 
L 551.824095 113.951843 
L 567.965398 126.913483 
L 556.153043 106.453885 
" style="fill:#287c8e;"/>
   </g>
   <g id="PathCollection_4">
    <path clip-path="url(#p4a5252716b)" d="M 584.931813 287.984859 
L 604.227573 280.4869 
L 617.968771 271.682364 
L 623.286164 268.114604 
L 624.914936 265.293487 
L 625.346011 258.90461 
L 626.100364 242.602115 
L 622.945906 222.142517 
L 621.657391 219.910743 
L 608.556522 197.219372 
L 595.455652 174.528 
L 582.354783 151.836628 
L 569.253913 129.145257 
L 567.965398 126.913483 
L 551.824095 113.951843 
L 537.328544 106.453885 
L 531.580077 103.632768 
L 528.322532 103.632768 
L 522.574064 106.453885 
L 508.078514 113.951843 
L 491.937211 126.913483 
L 490.648696 129.145257 
L 477.547826 151.836628 
L 464.446957 174.528 
L 451.346087 197.219372 
L 438.245217 219.910743 
L 436.956702 222.142517 
L 433.802245 242.602115 
L 434.556597 258.90461 
L 434.987672 265.293487 
L 436.616445 268.114604 
L 441.933837 271.682364 
L 455.675035 280.4869 
L 474.970796 287.984859 
L 477.547826 287.984859 
L 503.749565 287.984859 
L 529.951304 287.984859 
L 556.153043 287.984859 
L 582.354783 287.984859 
M 595.330886 265.509588 
L 573.723635 273.035273 
L 563.549245 275.174262 
L 549.999024 277.325783 
L 535.546261 278.29411 
L 524.356348 278.29411 
L 509.903585 277.325783 
L 496.353364 275.174262 
L 486.178974 273.035273 
L 464.571723 265.509588 
L 464.367914 265.430392 
L 464.154247 265.293487 
L 451.199732 242.855609 
L 451.188002 242.602115 
L 451.221321 242.386014 
L 455.507512 219.910743 
L 458.742288 210.029968 
L 463.654127 197.219372 
L 470.041913 184.218749 
L 475.636869 174.528 
L 483.701846 162.495703 
L 492.340229 151.836628 
L 499.279843 144.094843 
L 516.600903 129.145257 
L 516.771392 129.008351 
L 516.99679 128.891763 
L 542.905819 128.891763 
L 543.131216 129.008351 
L 543.301706 129.145257 
L 560.622766 144.094843 
L 567.56238 151.836628 
L 576.200763 162.495703 
L 584.26574 174.528 
L 589.860696 184.218749 
L 596.248482 197.219372 
L 601.16032 210.029968 
L 604.395096 219.910743 
L 608.681288 242.386014 
L 608.714606 242.602115 
L 608.702877 242.855609 
L 595.748362 265.293487 
L 595.534694 265.430392 
" style="fill:#20a486;"/>
   </g>
   <g id="PathCollection_5">
    <path clip-path="url(#p4a5252716b)" d="M 595.534694 265.430392 
L 595.748362 265.293487 
L 608.702877 242.855609 
L 608.714606 242.602115 
L 608.681288 242.386014 
L 604.395096 219.910743 
L 601.16032 210.029968 
L 596.248482 197.219372 
L 589.860696 184.218749 
L 584.26574 174.528 
L 576.200763 162.495703 
L 567.56238 151.836628 
L 560.622766 144.094843 
L 543.301706 129.145257 
L 543.131216 129.008351 
L 542.905819 128.891763 
L 516.99679 128.891763 
L 516.771392 129.008351 
L 516.600903 129.145257 
L 499.279843 144.094843 
L 492.340229 151.836628 
L 483.701846 162.495703 
L 475.636869 174.528 
L 470.041913 184.218749 
L 463.654127 197.219372 
L 458.742288 210.029968 
L 455.507512 219.910743 
L 451.221321 242.386014 
L 451.188002 242.602115 
L 451.199732 242.855609 
L 464.154247 265.293487 
L 464.367914 265.430392 
L 464.571723 265.509588 
L 486.178974 273.035273 
L 496.353364 275.174262 
L 509.903585 277.325783 
L 524.356348 278.29411 
L 535.546261 278.29411 
L 549.999024 277.325783 
L 563.549245 275.174262 
L 573.723635 273.035273 
L 595.330886 265.509588 
M 575.153059 219.910743 
L 574.147692 228.387017 
L 565.940601 242.602115 
L 559.102617 247.710925 
L 551.651775 250.398541 
L 536.400085 253.771732 
L 523.502523 253.771732 
L 508.250834 250.398541 
L 500.799992 247.710925 
L 493.962008 242.602115 
L 485.754917 228.387017 
L 484.74955 219.910743 
L 486.147427 212.114318 
L 490.852003 197.219372 
L 497.300784 186.049755 
L 507.847898 174.528 
L 513.900862 169.41919 
L 521.744214 166.051727 
L 538.158395 166.051727 
L 546.001747 169.41919 
L 552.054711 174.528 
L 562.601825 186.049755 
L 569.050606 197.219372 
L 573.755181 212.114318 
" style="fill:#5ec962;"/>
   </g>
   <g id="PathCollection_6">
    <path clip-path="url(#p4a5252716b)" d="M 573.755181 212.114318 
L 569.050606 197.219372 
L 562.601825 186.049755 
L 552.054711 174.528 
L 546.001747 169.41919 
L 538.158395 166.051727 
L 521.744214 166.051727 
L 513.900862 169.41919 
L 507.847898 174.528 
L 497.300784 186.049755 
L 490.852003 197.219372 
L 486.147427 212.114318 
L 484.74955 219.910743 
L 485.754917 228.387017 
L 493.962008 242.602115 
L 500.799992 247.710925 
L 508.250834 250.398541 
L 523.502523 253.771732 
L 536.400085 253.771732 
L 551.651775 250.398541 
L 559.102617 247.710925 
L 565.940601 242.602115 
L 574.147692 228.387017 
L 575.153059 219.910743 
" style="fill:#c8e020;"/>
   </g>
   <g id="matplotlib.axis_6">
    <g id="xtick_19">
     <g id="line2d_26">
      <g>
       <use style="stroke:#000000;stroke-width:0.8;" x="660.96" xlink:href="#m56b68f3f89" y="287.984859"/>
      </g>
     </g>
     <g id="text_36">
      <!-- 0.0 -->
      <g transform="translate(667.96 291.784077)scale(0.1 -0.1)">
       <use xlink:href="#DejaVuSans-48"/>
       <use x="63.623047" xlink:href="#DejaVuSans-46"/>
       <use x="95.410156" xlink:href="#DejaVuSans-48"/>
      </g>
     </g>
    </g>
    <g id="xtick_20">
     <g id="line2d_27">
      <g>
       <use style="stroke:#000000;stroke-width:0.8;" x="634.758261" xlink:href="#m56b68f3f89" y="242.602115"/>
      </g>
     </g>
     <g id="text_37">
      <!-- 0.2 -->
      <g transform="translate(641.758261 246.401334)scale(0.1 -0.1)">
       <use xlink:href="#DejaVuSans-48"/>
       <use x="63.623047" xlink:href="#DejaVuSans-46"/>
       <use x="95.410156" xlink:href="#DejaVuSans-50"/>
      </g>
     </g>
    </g>
    <g id="xtick_21">
     <g id="line2d_28">
      <g>
       <use style="stroke:#000000;stroke-width:0.8;" x="608.556522" xlink:href="#m56b68f3f89" y="197.219372"/>
      </g>
     </g>
     <g id="text_38">
      <!-- 0.4 -->
      <g transform="translate(615.556522 201.01859)scale(0.1 -0.1)">
       <use xlink:href="#DejaVuSans-48"/>
       <use x="63.623047" xlink:href="#DejaVuSans-46"/>
       <use x="95.410156" xlink:href="#DejaVuSans-52"/>
      </g>
     </g>
    </g>
    <g id="xtick_22">
     <g id="line2d_29">
      <g>
       <use style="stroke:#000000;stroke-width:0.8;" x="582.354783" xlink:href="#m56b68f3f89" y="151.836628"/>
      </g>
     </g>
     <g id="text_39">
      <!-- 0.6 -->
      <g transform="translate(589.354783 155.635847)scale(0.1 -0.1)">
       <use xlink:href="#DejaVuSans-48"/>
       <use x="63.623047" xlink:href="#DejaVuSans-46"/>
       <use x="95.410156" xlink:href="#DejaVuSans-54"/>
      </g>
     </g>
    </g>
    <g id="xtick_23">
     <g id="line2d_30">
      <g>
       <use style="stroke:#000000;stroke-width:0.8;" x="556.153043" xlink:href="#m56b68f3f89" y="106.453885"/>
      </g>
     </g>
     <g id="text_40">
      <!-- 0.8 -->
      <g transform="translate(563.153043 110.253104)scale(0.1 -0.1)">
       <use xlink:href="#DejaVuSans-48"/>
       <use x="63.623047" xlink:href="#DejaVuSans-46"/>
       <use x="95.410156" xlink:href="#DejaVuSans-56"/>
      </g>
     </g>
    </g>
    <g id="xtick_24">
     <g id="line2d_31">
      <g>
       <use style="stroke:#000000;stroke-width:0.8;" x="529.951304" xlink:href="#m56b68f3f89" y="61.071141"/>
      </g>
     </g>
     <g id="text_41">
      <!-- 1.0 -->
      <g transform="translate(536.951304 64.87036)scale(0.1 -0.1)">
       <use xlink:href="#DejaVuSans-49"/>
       <use x="63.623047" xlink:href="#DejaVuSans-46"/>
       <use x="95.410156" xlink:href="#DejaVuSans-48"/>
      </g>
     </g>
    </g>
   </g>
   <g id="matplotlib.axis_7">
    <g id="xtick_25">
     <g id="line2d_32">
      <g>
       <use style="stroke:#000000;stroke-width:0.8;" x="529.951304" xlink:href="#mc14c30d96f" y="61.071141"/>
      </g>
     </g>
     <g id="text_42">
      <!-- 0.0 -->
      <g transform="translate(515.209522 43.136063)rotate(-300)scale(0.1 -0.1)">
       <use xlink:href="#DejaVuSans-48"/>
       <use x="63.623047" xlink:href="#DejaVuSans-46"/>
       <use x="95.410156" xlink:href="#DejaVuSans-48"/>
      </g>
     </g>
    </g>
    <g id="xtick_26">
     <g id="line2d_33">
      <g>
       <use style="stroke:#000000;stroke-width:0.8;" x="503.749565" xlink:href="#mc14c30d96f" y="106.453885"/>
      </g>
     </g>
     <g id="text_43">
      <!-- 0.2 -->
      <g transform="translate(489.007783 88.518806)rotate(-300)scale(0.1 -0.1)">
       <use xlink:href="#DejaVuSans-48"/>
       <use x="63.623047" xlink:href="#DejaVuSans-46"/>
       <use x="95.410156" xlink:href="#DejaVuSans-50"/>
      </g>
     </g>
    </g>
    <g id="xtick_27">
     <g id="line2d_34">
      <g>
       <use style="stroke:#000000;stroke-width:0.8;" x="477.547826" xlink:href="#mc14c30d96f" y="151.836628"/>
      </g>
     </g>
     <g id="text_44">
      <!-- 0.4 -->
      <g transform="translate(462.806044 133.90155)rotate(-300)scale(0.1 -0.1)">
       <use xlink:href="#DejaVuSans-48"/>
       <use x="63.623047" xlink:href="#DejaVuSans-46"/>
       <use x="95.410156" xlink:href="#DejaVuSans-52"/>
      </g>
     </g>
    </g>
    <g id="xtick_28">
     <g id="line2d_35">
      <g>
       <use style="stroke:#000000;stroke-width:0.8;" x="451.346087" xlink:href="#mc14c30d96f" y="197.219372"/>
      </g>
     </g>
     <g id="text_45">
      <!-- 0.6 -->
      <g transform="translate(436.604305 179.284293)rotate(-300)scale(0.1 -0.1)">
       <use xlink:href="#DejaVuSans-48"/>
       <use x="63.623047" xlink:href="#DejaVuSans-46"/>
       <use x="95.410156" xlink:href="#DejaVuSans-54"/>
      </g>
     </g>
    </g>
    <g id="xtick_29">
     <g id="line2d_36">
      <g>
       <use style="stroke:#000000;stroke-width:0.8;" x="425.144348" xlink:href="#mc14c30d96f" y="242.602115"/>
      </g>
     </g>
     <g id="text_46">
      <!-- 0.8 -->
      <g transform="translate(410.402565 224.667036)rotate(-300)scale(0.1 -0.1)">
       <use xlink:href="#DejaVuSans-48"/>
       <use x="63.623047" xlink:href="#DejaVuSans-46"/>
       <use x="95.410156" xlink:href="#DejaVuSans-56"/>
      </g>
     </g>
    </g>
    <g id="xtick_30">
     <g id="line2d_37">
      <g>
       <use style="stroke:#000000;stroke-width:0.8;" x="398.942609" xlink:href="#mc14c30d96f" y="287.984859"/>
      </g>
     </g>
     <g id="text_47">
      <!-- 1.0 -->
      <g transform="translate(384.200826 270.04978)rotate(-300)scale(0.1 -0.1)">
       <use xlink:href="#DejaVuSans-49"/>
       <use x="63.623047" xlink:href="#DejaVuSans-46"/>
       <use x="95.410156" xlink:href="#DejaVuSans-48"/>
      </g>
     </g>
    </g>
   </g>
   <g id="matplotlib.axis_8">
    <g id="xtick_31">
     <g id="line2d_38">
      <g>
       <use style="stroke:#000000;stroke-width:0.8;" x="398.942609" xlink:href="#mcd1f7da52a" y="287.984859"/>
      </g>
     </g>
     <g id="text_48">
      <!-- 0.0 -->
      <g transform="translate(390.781266 309.719156)rotate(-60)scale(0.1 -0.1)">
       <use xlink:href="#DejaVuSans-48"/>
       <use x="63.623047" xlink:href="#DejaVuSans-46"/>
       <use x="95.410156" xlink:href="#DejaVuSans-48"/>
      </g>
     </g>
    </g>
    <g id="xtick_32">
     <g id="line2d_39">
      <g>
       <use style="stroke:#000000;stroke-width:0.8;" x="451.346087" xlink:href="#mcd1f7da52a" y="287.984859"/>
      </g>
     </g>
     <g id="text_49">
      <!-- 0.2 -->
      <g transform="translate(443.184744 309.719156)rotate(-60)scale(0.1 -0.1)">
       <use xlink:href="#DejaVuSans-48"/>
       <use x="63.623047" xlink:href="#DejaVuSans-46"/>
       <use x="95.410156" xlink:href="#DejaVuSans-50"/>
      </g>
     </g>
    </g>
    <g id="xtick_33">
     <g id="line2d_40">
      <g>
       <use style="stroke:#000000;stroke-width:0.8;" x="503.749565" xlink:href="#mcd1f7da52a" y="287.984859"/>
      </g>
     </g>
     <g id="text_50">
      <!-- 0.4 -->
      <g transform="translate(495.588223 309.719156)rotate(-60)scale(0.1 -0.1)">
       <use xlink:href="#DejaVuSans-48"/>
       <use x="63.623047" xlink:href="#DejaVuSans-46"/>
       <use x="95.410156" xlink:href="#DejaVuSans-52"/>
      </g>
     </g>
    </g>
    <g id="xtick_34">
     <g id="line2d_41">
      <g>
       <use style="stroke:#000000;stroke-width:0.8;" x="556.153043" xlink:href="#mcd1f7da52a" y="287.984859"/>
      </g>
     </g>
     <g id="text_51">
      <!-- 0.6 -->
      <g transform="translate(547.991701 309.719156)rotate(-60)scale(0.1 -0.1)">
       <use xlink:href="#DejaVuSans-48"/>
       <use x="63.623047" xlink:href="#DejaVuSans-46"/>
       <use x="95.410156" xlink:href="#DejaVuSans-54"/>
      </g>
     </g>
    </g>
    <g id="xtick_35">
     <g id="line2d_42">
      <g>
       <use style="stroke:#000000;stroke-width:0.8;" x="608.556522" xlink:href="#mcd1f7da52a" y="287.984859"/>
      </g>
     </g>
     <g id="text_52">
      <!-- 0.8 -->
      <g transform="translate(600.395179 309.719156)rotate(-60)scale(0.1 -0.1)">
       <use xlink:href="#DejaVuSans-48"/>
       <use x="63.623047" xlink:href="#DejaVuSans-46"/>
       <use x="95.410156" xlink:href="#DejaVuSans-56"/>
      </g>
     </g>
    </g>
    <g id="xtick_36">
     <g id="line2d_43">
      <g>
       <use style="stroke:#000000;stroke-width:0.8;" x="660.96" xlink:href="#mcd1f7da52a" y="287.984859"/>
      </g>
     </g>
     <g id="text_53">
      <!-- 1.0 -->
      <g transform="translate(652.798657 309.719156)rotate(-60)scale(0.1 -0.1)">
       <use xlink:href="#DejaVuSans-49"/>
       <use x="63.623047" xlink:href="#DejaVuSans-46"/>
       <use x="95.410156" xlink:href="#DejaVuSans-48"/>
      </g>
     </g>
    </g>
   </g>
   <g id="patch_9">
    <path d="M 398.942609 287.984859 
L 660.96 287.984859 
" style="fill:none;stroke:#000000;stroke-linecap:square;stroke-linejoin:miter;stroke-width:0.8;"/>
   </g>
   <g id="patch_10">
    <path d="M 660.96 287.984859 
L 529.951304 61.071141 
" style="fill:none;stroke:#000000;stroke-linecap:square;stroke-linejoin:miter;stroke-width:0.8;"/>
   </g>
   <g id="patch_11">
    <path d="M 529.951304 61.071141 
L 398.942609 287.984859 
" style="fill:none;stroke:#000000;stroke-linecap:square;stroke-linejoin:miter;stroke-width:0.8;"/>
   </g>
   <g id="text_54">
    <!-- tricontourf -->
    <defs>
     <path d="M 37.109375 75.984375 
L 37.109375 68.5 
L 28.515625 68.5 
Q 23.6875 68.5 21.796875 66.546875 
Q 19.921875 64.59375 19.921875 59.515625 
L 19.921875 54.6875 
L 34.71875 54.6875 
L 34.71875 47.703125 
L 19.921875 47.703125 
L 19.921875 0 
L 10.890625 0 
L 10.890625 47.703125 
L 2.296875 47.703125 
L 2.296875 54.6875 
L 10.890625 54.6875 
L 10.890625 58.5 
Q 10.890625 67.625 15.140625 71.796875 
Q 19.390625 75.984375 28.609375 75.984375 
z
" id="DejaVuSans-102"/>
    </defs>
    <g transform="translate(498.288179 25.071141)scale(0.12 -0.12)">
     <use xlink:href="#DejaVuSans-116"/>
     <use x="39.208984" xlink:href="#DejaVuSans-114"/>
     <use x="80.322266" xlink:href="#DejaVuSans-105"/>
     <use x="108.105469" xlink:href="#DejaVuSans-99"/>
     <use x="163.085938" xlink:href="#DejaVuSans-111"/>
     <use x="224.267578" xlink:href="#DejaVuSans-110"/>
     <use x="287.646484" xlink:href="#DejaVuSans-116"/>
     <use x="326.855469" xlink:href="#DejaVuSans-111"/>
     <use x="388.037109" xlink:href="#DejaVuSans-117"/>
     <use x="451.416016" xlink:href="#DejaVuSans-114"/>
     <use x="492.529297" xlink:href="#DejaVuSans-102"/>
    </g>
   </g>
   <g id="axes_4">
    <g id="patch_12">
     <path clip-path="url(#p871d135589)" d="M 674.06087 265.293487 
L 674.06087 231.256429 
L 674.06087 95.108199 
L 674.06087 61.071141 
L 687.161739 61.071141 
L 687.161739 95.108199 
L 687.161739 231.256429 
L 687.161739 265.293487 
z
" style="fill:#ffffff;stroke:#ffffff;stroke-linejoin:miter;stroke-width:0.01;"/>
    </g>
    <g id="QuadMesh_1">
     <path clip-path="url(#p871d135589)" d="M 674.06087 265.293487 
L 687.161739 265.293487 
L 687.161739 231.256429 
L 674.06087 231.256429 
L 674.06087 265.293487 
" style="fill:#481f70;"/>
     <path clip-path="url(#p871d135589)" d="M 674.06087 231.256429 
L 687.161739 231.256429 
L 687.161739 197.219372 
L 674.06087 197.219372 
L 674.06087 231.256429 
" style="fill:#3b528b;"/>
     <path clip-path="url(#p871d135589)" d="M 674.06087 197.219372 
L 687.161739 197.219372 
L 687.161739 163.182314 
L 674.06087 163.182314 
L 674.06087 197.219372 
" style="fill:#287c8e;"/>
     <path clip-path="url(#p871d135589)" d="M 674.06087 163.182314 
L 687.161739 163.182314 
L 687.161739 129.145257 
L 674.06087 129.145257 
L 674.06087 163.182314 
" style="fill:#20a486;"/>
     <path clip-path="url(#p871d135589)" d="M 674.06087 129.145257 
L 687.161739 129.145257 
L 687.161739 95.108199 
L 674.06087 95.108199 
L 674.06087 129.145257 
" style="fill:#5ec962;"/>
     <path clip-path="url(#p871d135589)" d="M 674.06087 95.108199 
L 687.161739 95.108199 
L 687.161739 61.071141 
L 674.06087 61.071141 
L 674.06087 95.108199 
" style="fill:#c8e020;"/>
    </g>
    <g id="matplotlib.axis_9"/>
    <g id="matplotlib.axis_10">
     <g id="ytick_8">
      <g id="line2d_44">
       <g>
        <use style="stroke:#000000;stroke-width:0.8;" x="687.161739" xlink:href="#m56b68f3f89" y="265.293487"/>
       </g>
      </g>
      <g id="text_55">
       <!-- 0.0 -->
       <g transform="translate(694.161739 269.092706)scale(0.1 -0.1)">
        <use xlink:href="#DejaVuSans-48"/>
        <use x="63.623047" xlink:href="#DejaVuSans-46"/>
        <use x="95.410156" xlink:href="#DejaVuSans-48"/>
       </g>
      </g>
     </g>
     <g id="ytick_9">
      <g id="line2d_45">
       <g>
        <use style="stroke:#000000;stroke-width:0.8;" x="687.161739" xlink:href="#m56b68f3f89" y="231.256429"/>
       </g>
      </g>
      <g id="text_56">
       <!-- 0.2 -->
       <g transform="translate(694.161739 235.055648)scale(0.1 -0.1)">
        <use xlink:href="#DejaVuSans-48"/>
        <use x="63.623047" xlink:href="#DejaVuSans-46"/>
        <use x="95.410156" xlink:href="#DejaVuSans-50"/>
       </g>
      </g>
     </g>
     <g id="ytick_10">
      <g id="line2d_46">
       <g>
        <use style="stroke:#000000;stroke-width:0.8;" x="687.161739" xlink:href="#m56b68f3f89" y="197.219372"/>
       </g>
      </g>
      <g id="text_57">
       <!-- 0.4 -->
       <g transform="translate(694.161739 201.01859)scale(0.1 -0.1)">
        <use xlink:href="#DejaVuSans-48"/>
        <use x="63.623047" xlink:href="#DejaVuSans-46"/>
        <use x="95.410156" xlink:href="#DejaVuSans-52"/>
       </g>
      </g>
     </g>
     <g id="ytick_11">
      <g id="line2d_47">
       <g>
        <use style="stroke:#000000;stroke-width:0.8;" x="687.161739" xlink:href="#m56b68f3f89" y="163.182314"/>
       </g>
      </g>
      <g id="text_58">
       <!-- 0.6 -->
       <g transform="translate(694.161739 166.981533)scale(0.1 -0.1)">
        <use xlink:href="#DejaVuSans-48"/>
        <use x="63.623047" xlink:href="#DejaVuSans-46"/>
        <use x="95.410156" xlink:href="#DejaVuSans-54"/>
       </g>
      </g>
     </g>
     <g id="ytick_12">
      <g id="line2d_48">
       <g>
        <use style="stroke:#000000;stroke-width:0.8;" x="687.161739" xlink:href="#m56b68f3f89" y="129.145257"/>
       </g>
      </g>
      <g id="text_59">
       <!-- 0.8 -->
       <g transform="translate(694.161739 132.944475)scale(0.1 -0.1)">
        <use xlink:href="#DejaVuSans-48"/>
        <use x="63.623047" xlink:href="#DejaVuSans-46"/>
        <use x="95.410156" xlink:href="#DejaVuSans-56"/>
       </g>
      </g>
     </g>
     <g id="ytick_13">
      <g id="line2d_49">
       <g>
        <use style="stroke:#000000;stroke-width:0.8;" x="687.161739" xlink:href="#m56b68f3f89" y="95.108199"/>
       </g>
      </g>
      <g id="text_60">
       <!-- 1.0 -->
       <g transform="translate(694.161739 98.907418)scale(0.1 -0.1)">
        <use xlink:href="#DejaVuSans-49"/>
        <use x="63.623047" xlink:href="#DejaVuSans-46"/>
        <use x="95.410156" xlink:href="#DejaVuSans-48"/>
       </g>
      </g>
     </g>
     <g id="ytick_14">
      <g id="line2d_50">
       <g>
        <use style="stroke:#000000;stroke-width:0.8;" x="687.161739" xlink:href="#m56b68f3f89" y="61.071141"/>
       </g>
      </g>
      <g id="text_61">
       <!-- 1.2 -->
       <g transform="translate(694.161739 64.87036)scale(0.1 -0.1)">
        <use xlink:href="#DejaVuSans-49"/>
        <use x="63.623047" xlink:href="#DejaVuSans-46"/>
        <use x="95.410156" xlink:href="#DejaVuSans-50"/>
       </g>
      </g>
     </g>
     <g id="text_62">
      <!-- Entropy -->
      <g transform="translate(714.064864 143.647158)rotate(-270)scale(0.1 -0.1)">
       <use xlink:href="#DejaVuSans-69"/>
       <use x="63.183594" xlink:href="#DejaVuSans-110"/>
       <use x="126.5625" xlink:href="#DejaVuSans-116"/>
       <use x="165.771484" xlink:href="#DejaVuSans-114"/>
       <use x="206.853516" xlink:href="#DejaVuSans-111"/>
       <use x="268.035156" xlink:href="#DejaVuSans-112"/>
       <use x="331.511719" xlink:href="#DejaVuSans-121"/>
      </g>
     </g>
    </g>
    <g id="patch_13">
     <path d="M 674.06087 265.293487 
L 674.06087 231.256429 
L 674.06087 95.108199 
L 674.06087 61.071141 
L 687.161739 61.071141 
L 687.161739 95.108199 
L 687.161739 231.256429 
L 687.161739 265.293487 
z
" style="fill:none;stroke:#000000;stroke-linejoin:miter;stroke-width:0.8;"/>
    </g>
   </g>
  </g>
 </g>
 <defs>
  <clipPath id="p8287ff1915">
   <path d="M 189.328696 61.071141 
L 58.32 287.984859 
L 320.337391 287.984859 
z
"/>
  </clipPath>
  <clipPath id="pd5ed3dda68">
   <rect height="204.222345" width="13.10087" x="333.438261" y="61.071141"/>
  </clipPath>
  <clipPath id="p4a5252716b">
   <path d="M 529.951304 61.071141 
L 398.942609 287.984859 
L 660.96 287.984859 
z
"/>
  </clipPath>
  <clipPath id="p871d135589">
   <rect height="204.222345" width="13.10087" x="674.06087" y="61.071141"/>
  </clipPath>
 </defs>
</svg>
