<?xml version="1.0" encoding="utf-8" standalone="no"?>
<!DOCTYPE svg PUBLIC "-//W3C//DTD SVG 1.1//EN"
  "http://www.w3.org/Graphics/SVG/1.1/DTD/svg11.dtd">
<!-- Created with matplotlib (https://matplotlib.org/) -->
<svg height="633.6pt" version="1.1" viewBox="0 0 777.6 633.6" width="777.6pt" xmlns="http://www.w3.org/2000/svg" xmlns:xlink="http://www.w3.org/1999/xlink">
 <defs>
  <style type="text/css">
*{stroke-linecap:butt;stroke-linejoin:round;}
  </style>
 </defs>
 <g id="figure_1">
  <g id="patch_1">
   <path d="M 0 633.6 
L 777.6 633.6 
L 777.6 0 
L 0 0 
z
" style="fill:#ffffff;"/>
  </g>
  <g id="axes_1">
   <g id="patch_2">
    <path d="M 202.176 63.36 
L 85.117078 266.112 
L 319.234922 266.112 
z
" style="fill:#ffffff;"/>
   </g>
   <g id="matplotlib.axis_1">
    <g id="xtick_1">
     <g id="line2d_1">
      <defs>
       <path d="M 0 0 
L 3.5 0 
" id="m8365a0ced5" style="stroke:#000000;stroke-width:0.8;"/>
      </defs>
      <g>
       <use style="stroke:#000000;stroke-width:0.8;" x="319.234922" xlink:href="#m8365a0ced5" y="266.112"/>
      </g>
     </g>
     <g id="text_1">
      <!-- 0.0 -->
      <defs>
       <path d="M 31.78125 66.40625 
Q 24.171875 66.40625 20.328125 58.90625 
Q 16.5 51.421875 16.5 36.375 
Q 16.5 21.390625 20.328125 13.890625 
Q 24.171875 6.390625 31.78125 6.390625 
Q 39.453125 6.390625 43.28125 13.890625 
Q 47.125 21.390625 47.125 36.375 
Q 47.125 51.421875 43.28125 58.90625 
Q 39.453125 66.40625 31.78125 66.40625 
z
M 31.78125 74.21875 
Q 44.046875 74.21875 50.515625 64.515625 
Q 56.984375 54.828125 56.984375 36.375 
Q 56.984375 17.96875 50.515625 8.265625 
Q 44.046875 -1.421875 31.78125 -1.421875 
Q 19.53125 -1.421875 13.0625 8.265625 
Q 6.59375 17.96875 6.59375 36.375 
Q 6.59375 54.828125 13.0625 64.515625 
Q 19.53125 74.21875 31.78125 74.21875 
z
" id="DejaVuSans-48"/>
       <path d="M 10.6875 12.40625 
L 21 12.40625 
L 21 0 
L 10.6875 0 
z
" id="DejaVuSans-46"/>
      </defs>
      <g transform="translate(326.234922 269.911219)scale(0.1 -0.1)">
       <use xlink:href="#DejaVuSans-48"/>
       <use x="63.623047" xlink:href="#DejaVuSans-46"/>
       <use x="95.410156" xlink:href="#DejaVuSans-48"/>
      </g>
     </g>
    </g>
    <g id="xtick_2">
     <g id="line2d_2">
      <g>
       <use style="stroke:#000000;stroke-width:0.8;" x="295.823137" xlink:href="#m8365a0ced5" y="225.5616"/>
      </g>
     </g>
     <g id="text_2">
      <!-- 0.2 -->
      <defs>
       <path d="M 19.1875 8.296875 
L 53.609375 8.296875 
L 53.609375 0 
L 7.328125 0 
L 7.328125 8.296875 
Q 12.9375 14.109375 22.625 23.890625 
Q 32.328125 33.6875 34.8125 36.53125 
Q 39.546875 41.84375 41.421875 45.53125 
Q 43.3125 49.21875 43.3125 52.78125 
Q 43.3125 58.59375 39.234375 62.25 
Q 35.15625 65.921875 28.609375 65.921875 
Q 23.96875 65.921875 18.8125 64.3125 
Q 13.671875 62.703125 7.8125 59.421875 
L 7.8125 69.390625 
Q 13.765625 71.78125 18.9375 73 
Q 24.125 74.21875 28.421875 74.21875 
Q 39.75 74.21875 46.484375 68.546875 
Q 53.21875 62.890625 53.21875 53.421875 
Q 53.21875 48.921875 51.53125 44.890625 
Q 49.859375 40.875 45.40625 35.40625 
Q 44.1875 33.984375 37.640625 27.21875 
Q 31.109375 20.453125 19.1875 8.296875 
z
" id="DejaVuSans-50"/>
      </defs>
      <g transform="translate(302.823137 229.360819)scale(0.1 -0.1)">
       <use xlink:href="#DejaVuSans-48"/>
       <use x="63.623047" xlink:href="#DejaVuSans-46"/>
       <use x="95.410156" xlink:href="#DejaVuSans-50"/>
      </g>
     </g>
    </g>
    <g id="xtick_3">
     <g id="line2d_3">
      <g>
       <use style="stroke:#000000;stroke-width:0.8;" x="272.411353" xlink:href="#m8365a0ced5" y="185.0112"/>
      </g>
     </g>
     <g id="text_3">
      <!-- 0.4 -->
      <defs>
       <path d="M 37.796875 64.3125 
L 12.890625 25.390625 
L 37.796875 25.390625 
z
M 35.203125 72.90625 
L 47.609375 72.90625 
L 47.609375 25.390625 
L 58.015625 25.390625 
L 58.015625 17.1875 
L 47.609375 17.1875 
L 47.609375 0 
L 37.796875 0 
L 37.796875 17.1875 
L 4.890625 17.1875 
L 4.890625 26.703125 
z
" id="DejaVuSans-52"/>
      </defs>
      <g transform="translate(279.411353 188.810419)scale(0.1 -0.1)">
       <use xlink:href="#DejaVuSans-48"/>
       <use x="63.623047" xlink:href="#DejaVuSans-46"/>
       <use x="95.410156" xlink:href="#DejaVuSans-52"/>
      </g>
     </g>
    </g>
    <g id="xtick_4">
     <g id="line2d_4">
      <g>
       <use style="stroke:#000000;stroke-width:0.8;" x="248.999569" xlink:href="#m8365a0ced5" y="144.4608"/>
      </g>
     </g>
     <g id="text_4">
      <!-- 0.6 -->
      <defs>
       <path d="M 33.015625 40.375 
Q 26.375 40.375 22.484375 35.828125 
Q 18.609375 31.296875 18.609375 23.390625 
Q 18.609375 15.53125 22.484375 10.953125 
Q 26.375 6.390625 33.015625 6.390625 
Q 39.65625 6.390625 43.53125 10.953125 
Q 47.40625 15.53125 47.40625 23.390625 
Q 47.40625 31.296875 43.53125 35.828125 
Q 39.65625 40.375 33.015625 40.375 
z
M 52.59375 71.296875 
L 52.59375 62.3125 
Q 48.875 64.0625 45.09375 64.984375 
Q 41.3125 65.921875 37.59375 65.921875 
Q 27.828125 65.921875 22.671875 59.328125 
Q 17.53125 52.734375 16.796875 39.40625 
Q 19.671875 43.65625 24.015625 45.921875 
Q 28.375 48.1875 33.59375 48.1875 
Q 44.578125 48.1875 50.953125 41.515625 
Q 57.328125 34.859375 57.328125 23.390625 
Q 57.328125 12.15625 50.6875 5.359375 
Q 44.046875 -1.421875 33.015625 -1.421875 
Q 20.359375 -1.421875 13.671875 8.265625 
Q 6.984375 17.96875 6.984375 36.375 
Q 6.984375 53.65625 15.1875 63.9375 
Q 23.390625 74.21875 37.203125 74.21875 
Q 40.921875 74.21875 44.703125 73.484375 
Q 48.484375 72.75 52.59375 71.296875 
z
" id="DejaVuSans-54"/>
      </defs>
      <g transform="translate(255.999569 148.260019)scale(0.1 -0.1)">
       <use xlink:href="#DejaVuSans-48"/>
       <use x="63.623047" xlink:href="#DejaVuSans-46"/>
       <use x="95.410156" xlink:href="#DejaVuSans-54"/>
      </g>
     </g>
    </g>
    <g id="xtick_5">
     <g id="line2d_5">
      <g>
       <use style="stroke:#000000;stroke-width:0.8;" x="225.587784" xlink:href="#m8365a0ced5" y="103.9104"/>
      </g>
     </g>
     <g id="text_5">
      <!-- 0.8 -->
      <defs>
       <path d="M 31.78125 34.625 
Q 24.75 34.625 20.71875 30.859375 
Q 16.703125 27.09375 16.703125 20.515625 
Q 16.703125 13.921875 20.71875 10.15625 
Q 24.75 6.390625 31.78125 6.390625 
Q 38.8125 6.390625 42.859375 10.171875 
Q 46.921875 13.96875 46.921875 20.515625 
Q 46.921875 27.09375 42.890625 30.859375 
Q 38.875 34.625 31.78125 34.625 
z
M 21.921875 38.8125 
Q 15.578125 40.375 12.03125 44.71875 
Q 8.5 49.078125 8.5 55.328125 
Q 8.5 64.0625 14.71875 69.140625 
Q 20.953125 74.21875 31.78125 74.21875 
Q 42.671875 74.21875 48.875 69.140625 
Q 55.078125 64.0625 55.078125 55.328125 
Q 55.078125 49.078125 51.53125 44.71875 
Q 48 40.375 41.703125 38.8125 
Q 48.828125 37.15625 52.796875 32.3125 
Q 56.78125 27.484375 56.78125 20.515625 
Q 56.78125 9.90625 50.3125 4.234375 
Q 43.84375 -1.421875 31.78125 -1.421875 
Q 19.734375 -1.421875 13.25 4.234375 
Q 6.78125 9.90625 6.78125 20.515625 
Q 6.78125 27.484375 10.78125 32.3125 
Q 14.796875 37.15625 21.921875 38.8125 
z
M 18.3125 54.390625 
Q 18.3125 48.734375 21.84375 45.5625 
Q 25.390625 42.390625 31.78125 42.390625 
Q 38.140625 42.390625 41.71875 45.5625 
Q 45.3125 48.734375 45.3125 54.390625 
Q 45.3125 60.0625 41.71875 63.234375 
Q 38.140625 66.40625 31.78125 66.40625 
Q 25.390625 66.40625 21.84375 63.234375 
Q 18.3125 60.0625 18.3125 54.390625 
z
" id="DejaVuSans-56"/>
      </defs>
      <g transform="translate(232.587784 107.709619)scale(0.1 -0.1)">
       <use xlink:href="#DejaVuSans-48"/>
       <use x="63.623047" xlink:href="#DejaVuSans-46"/>
       <use x="95.410156" xlink:href="#DejaVuSans-56"/>
      </g>
     </g>
    </g>
    <g id="xtick_6">
     <g id="line2d_6">
      <g>
       <use style="stroke:#000000;stroke-width:0.8;" x="202.176" xlink:href="#m8365a0ced5" y="63.36"/>
      </g>
     </g>
     <g id="text_6">
      <!-- 1.0 -->
      <defs>
       <path d="M 12.40625 8.296875 
L 28.515625 8.296875 
L 28.515625 63.921875 
L 10.984375 60.40625 
L 10.984375 69.390625 
L 28.421875 72.90625 
L 38.28125 72.90625 
L 38.28125 8.296875 
L 54.390625 8.296875 
L 54.390625 0 
L 12.40625 0 
z
" id="DejaVuSans-49"/>
      </defs>
      <g transform="translate(209.176 67.159219)scale(0.1 -0.1)">
       <use xlink:href="#DejaVuSans-49"/>
       <use x="63.623047" xlink:href="#DejaVuSans-46"/>
       <use x="95.410156" xlink:href="#DejaVuSans-48"/>
      </g>
     </g>
    </g>
    <g id="text_7">
     <!-- Top -->
     <defs>
      <path d="M -0.296875 72.90625 
L 61.375 72.90625 
L 61.375 64.59375 
L 35.5 64.59375 
L 35.5 0 
L 25.59375 0 
L 25.59375 64.59375 
L -0.296875 64.59375 
z
" id="DejaVuSans-84"/>
      <path d="M 30.609375 48.390625 
Q 23.390625 48.390625 19.1875 42.75 
Q 14.984375 37.109375 14.984375 27.296875 
Q 14.984375 17.484375 19.15625 11.84375 
Q 23.34375 6.203125 30.609375 6.203125 
Q 37.796875 6.203125 41.984375 11.859375 
Q 46.1875 17.53125 46.1875 27.296875 
Q 46.1875 37.015625 41.984375 42.703125 
Q 37.796875 48.390625 30.609375 48.390625 
z
M 30.609375 56 
Q 42.328125 56 49.015625 48.375 
Q 55.71875 40.765625 55.71875 27.296875 
Q 55.71875 13.875 49.015625 6.21875 
Q 42.328125 -1.421875 30.609375 -1.421875 
Q 18.84375 -1.421875 12.171875 6.21875 
Q 5.515625 13.875 5.515625 27.296875 
Q 5.515625 40.765625 12.171875 48.375 
Q 18.84375 56 30.609375 56 
z
" id="DejaVuSans-111"/>
      <path d="M 18.109375 8.203125 
L 18.109375 -20.796875 
L 9.078125 -20.796875 
L 9.078125 54.6875 
L 18.109375 54.6875 
L 18.109375 46.390625 
Q 20.953125 51.265625 25.265625 53.625 
Q 29.59375 56 35.59375 56 
Q 45.5625 56 51.78125 48.09375 
Q 58.015625 40.1875 58.015625 27.296875 
Q 58.015625 14.40625 51.78125 6.484375 
Q 45.5625 -1.421875 35.59375 -1.421875 
Q 29.59375 -1.421875 25.265625 0.953125 
Q 20.953125 3.328125 18.109375 8.203125 
z
M 48.6875 27.296875 
Q 48.6875 37.203125 44.609375 42.84375 
Q 40.53125 48.484375 33.40625 48.484375 
Q 26.265625 48.484375 22.1875 42.84375 
Q 18.109375 37.203125 18.109375 27.296875 
Q 18.109375 17.390625 22.1875 11.75 
Q 26.265625 6.109375 33.40625 6.109375 
Q 40.53125 6.109375 44.609375 11.75 
Q 48.6875 17.390625 48.6875 27.296875 
z
" id="DejaVuSans-112"/>
     </defs>
     <g transform="translate(192.901781 35.546015)scale(0.1 -0.1)">
      <use xlink:href="#DejaVuSans-84"/>
      <use x="60.818359" xlink:href="#DejaVuSans-111"/>
      <use x="122" xlink:href="#DejaVuSans-112"/>
     </g>
    </g>
   </g>
   <g id="matplotlib.axis_2">
    <g id="xtick_7">
     <g id="line2d_7">
      <defs>
       <path d="M 0 0 
L -1.75 -3.031089 
" id="mda8440bc1e" style="stroke:#000000;stroke-width:0.8;"/>
      </defs>
      <g>
       <use style="stroke:#000000;stroke-width:0.8;" x="202.176" xlink:href="#mda8440bc1e" y="63.36"/>
      </g>
     </g>
     <g id="text_8">
      <!-- 0.0 -->
      <g transform="translate(187.434218 45.424921)rotate(-300)scale(0.1 -0.1)">
       <use xlink:href="#DejaVuSans-48"/>
       <use x="63.623047" xlink:href="#DejaVuSans-46"/>
       <use x="95.410156" xlink:href="#DejaVuSans-48"/>
      </g>
     </g>
    </g>
    <g id="xtick_8">
     <g id="line2d_8">
      <g>
       <use style="stroke:#000000;stroke-width:0.8;" x="178.764216" xlink:href="#mda8440bc1e" y="103.9104"/>
      </g>
     </g>
     <g id="text_9">
      <!-- 0.2 -->
      <g transform="translate(164.022433 85.975321)rotate(-300)scale(0.1 -0.1)">
       <use xlink:href="#DejaVuSans-48"/>
       <use x="63.623047" xlink:href="#DejaVuSans-46"/>
       <use x="95.410156" xlink:href="#DejaVuSans-50"/>
      </g>
     </g>
    </g>
    <g id="xtick_9">
     <g id="line2d_9">
      <g>
       <use style="stroke:#000000;stroke-width:0.8;" x="155.352431" xlink:href="#mda8440bc1e" y="144.4608"/>
      </g>
     </g>
     <g id="text_10">
      <!-- 0.4 -->
      <g transform="translate(140.610649 126.525721)rotate(-300)scale(0.1 -0.1)">
       <use xlink:href="#DejaVuSans-48"/>
       <use x="63.623047" xlink:href="#DejaVuSans-46"/>
       <use x="95.410156" xlink:href="#DejaVuSans-52"/>
      </g>
     </g>
    </g>
    <g id="xtick_10">
     <g id="line2d_10">
      <g>
       <use style="stroke:#000000;stroke-width:0.8;" x="131.940647" xlink:href="#mda8440bc1e" y="185.0112"/>
      </g>
     </g>
     <g id="text_11">
      <!-- 0.6 -->
      <g transform="translate(117.198864 167.076121)rotate(-300)scale(0.1 -0.1)">
       <use xlink:href="#DejaVuSans-48"/>
       <use x="63.623047" xlink:href="#DejaVuSans-46"/>
       <use x="95.410156" xlink:href="#DejaVuSans-54"/>
      </g>
     </g>
    </g>
    <g id="xtick_11">
     <g id="line2d_11">
      <g>
       <use style="stroke:#000000;stroke-width:0.8;" x="108.528863" xlink:href="#mda8440bc1e" y="225.5616"/>
      </g>
     </g>
     <g id="text_12">
      <!-- 0.8 -->
      <g transform="translate(93.78708 207.626521)rotate(-300)scale(0.1 -0.1)">
       <use xlink:href="#DejaVuSans-48"/>
       <use x="63.623047" xlink:href="#DejaVuSans-46"/>
       <use x="95.410156" xlink:href="#DejaVuSans-56"/>
      </g>
     </g>
    </g>
    <g id="xtick_12">
     <g id="line2d_12">
      <g>
       <use style="stroke:#000000;stroke-width:0.8;" x="85.117078" xlink:href="#mda8440bc1e" y="266.112"/>
      </g>
     </g>
     <g id="text_13">
      <!-- 1.0 -->
      <g transform="translate(70.375296 248.176921)rotate(-300)scale(0.1 -0.1)">
       <use xlink:href="#DejaVuSans-49"/>
       <use x="63.623047" xlink:href="#DejaVuSans-46"/>
       <use x="95.410156" xlink:href="#DejaVuSans-48"/>
      </g>
     </g>
    </g>
    <g id="text_14">
     <!-- Left -->
     <defs>
      <path d="M 9.8125 72.90625 
L 19.671875 72.90625 
L 19.671875 8.296875 
L 55.171875 8.296875 
L 55.171875 0 
L 9.8125 0 
z
" id="DejaVuSans-76"/>
      <path d="M 56.203125 29.59375 
L 56.203125 25.203125 
L 14.890625 25.203125 
Q 15.484375 15.921875 20.484375 11.0625 
Q 25.484375 6.203125 34.421875 6.203125 
Q 39.59375 6.203125 44.453125 7.46875 
Q 49.3125 8.734375 54.109375 11.28125 
L 54.109375 2.78125 
Q 49.265625 0.734375 44.1875 -0.34375 
Q 39.109375 -1.421875 33.890625 -1.421875 
Q 20.796875 -1.421875 13.15625 6.1875 
Q 5.515625 13.8125 5.515625 26.8125 
Q 5.515625 40.234375 12.765625 48.109375 
Q 20.015625 56 32.328125 56 
Q 43.359375 56 49.78125 48.890625 
Q 56.203125 41.796875 56.203125 29.59375 
z
M 47.21875 32.234375 
Q 47.125 39.59375 43.09375 43.984375 
Q 39.0625 48.390625 32.421875 48.390625 
Q 24.90625 48.390625 20.390625 44.140625 
Q 15.875 39.890625 15.1875 32.171875 
z
" id="DejaVuSans-101"/>
      <path d="M 37.109375 75.984375 
L 37.109375 68.5 
L 28.515625 68.5 
Q 23.6875 68.5 21.796875 66.546875 
Q 19.921875 64.59375 19.921875 59.515625 
L 19.921875 54.6875 
L 34.71875 54.6875 
L 34.71875 47.703125 
L 19.921875 47.703125 
L 19.921875 0 
L 10.890625 0 
L 10.890625 47.703125 
L 2.296875 47.703125 
L 2.296875 54.6875 
L 10.890625 54.6875 
L 10.890625 58.5 
Q 10.890625 67.625 15.140625 71.796875 
Q 19.390625 75.984375 28.609375 75.984375 
z
" id="DejaVuSans-102"/>
      <path d="M 18.3125 70.21875 
L 18.3125 54.6875 
L 36.8125 54.6875 
L 36.8125 47.703125 
L 18.3125 47.703125 
L 18.3125 18.015625 
Q 18.3125 11.328125 20.140625 9.421875 
Q 21.96875 7.515625 27.59375 7.515625 
L 36.8125 7.515625 
L 36.8125 0 
L 27.59375 0 
Q 17.1875 0 13.234375 3.875 
Q 9.28125 7.765625 9.28125 18.015625 
L 9.28125 47.703125 
L 2.6875 47.703125 
L 2.6875 54.6875 
L 9.28125 54.6875 
L 9.28125 70.21875 
z
" id="DejaVuSans-116"/>
     </defs>
     <g transform="translate(51.459458 274.480762)rotate(-300)scale(0.1 -0.1)">
      <use xlink:href="#DejaVuSans-76"/>
      <use x="55.697266" xlink:href="#DejaVuSans-101"/>
      <use x="117.220703" xlink:href="#DejaVuSans-102"/>
      <use x="152.410156" xlink:href="#DejaVuSans-116"/>
     </g>
    </g>
   </g>
   <g id="matplotlib.axis_3">
    <g id="xtick_13">
     <g id="line2d_13">
      <defs>
       <path d="M 0 0 
L -1.75 3.031089 
" id="mc37563e400" style="stroke:#000000;stroke-width:0.8;"/>
      </defs>
      <g>
       <use style="stroke:#000000;stroke-width:0.8;" x="85.117078" xlink:href="#mc37563e400" y="266.112"/>
      </g>
     </g>
     <g id="text_15">
      <!-- 0.0 -->
      <g transform="translate(76.955736 287.846297)rotate(-60)scale(0.1 -0.1)">
       <use xlink:href="#DejaVuSans-48"/>
       <use x="63.623047" xlink:href="#DejaVuSans-46"/>
       <use x="95.410156" xlink:href="#DejaVuSans-48"/>
      </g>
     </g>
    </g>
    <g id="xtick_14">
     <g id="line2d_14">
      <g>
       <use style="stroke:#000000;stroke-width:0.8;" x="131.940647" xlink:href="#mc37563e400" y="266.112"/>
      </g>
     </g>
     <g id="text_16">
      <!-- 0.2 -->
      <g transform="translate(123.779304 287.846297)rotate(-60)scale(0.1 -0.1)">
       <use xlink:href="#DejaVuSans-48"/>
       <use x="63.623047" xlink:href="#DejaVuSans-46"/>
       <use x="95.410156" xlink:href="#DejaVuSans-50"/>
      </g>
     </g>
    </g>
    <g id="xtick_15">
     <g id="line2d_15">
      <g>
       <use style="stroke:#000000;stroke-width:0.8;" x="178.764216" xlink:href="#mc37563e400" y="266.112"/>
      </g>
     </g>
     <g id="text_17">
      <!-- 0.4 -->
      <g transform="translate(170.602873 287.846297)rotate(-60)scale(0.1 -0.1)">
       <use xlink:href="#DejaVuSans-48"/>
       <use x="63.623047" xlink:href="#DejaVuSans-46"/>
       <use x="95.410156" xlink:href="#DejaVuSans-52"/>
      </g>
     </g>
    </g>
    <g id="xtick_16">
     <g id="line2d_16">
      <g>
       <use style="stroke:#000000;stroke-width:0.8;" x="225.587784" xlink:href="#mc37563e400" y="266.112"/>
      </g>
     </g>
     <g id="text_18">
      <!-- 0.6 -->
      <g transform="translate(217.426442 287.846297)rotate(-60)scale(0.1 -0.1)">
       <use xlink:href="#DejaVuSans-48"/>
       <use x="63.623047" xlink:href="#DejaVuSans-46"/>
       <use x="95.410156" xlink:href="#DejaVuSans-54"/>
      </g>
     </g>
    </g>
    <g id="xtick_17">
     <g id="line2d_17">
      <g>
       <use style="stroke:#000000;stroke-width:0.8;" x="272.411353" xlink:href="#mc37563e400" y="266.112"/>
      </g>
     </g>
     <g id="text_19">
      <!-- 0.8 -->
      <g transform="translate(264.250011 287.846297)rotate(-60)scale(0.1 -0.1)">
       <use xlink:href="#DejaVuSans-48"/>
       <use x="63.623047" xlink:href="#DejaVuSans-46"/>
       <use x="95.410156" xlink:href="#DejaVuSans-56"/>
      </g>
     </g>
    </g>
    <g id="xtick_18">
     <g id="line2d_18">
      <g>
       <use style="stroke:#000000;stroke-width:0.8;" x="319.234922" xlink:href="#mc37563e400" y="266.112"/>
      </g>
     </g>
     <g id="text_20">
      <!-- 1.0 -->
      <g transform="translate(311.073579 287.846297)rotate(-60)scale(0.1 -0.1)">
       <use xlink:href="#DejaVuSans-49"/>
       <use x="63.623047" xlink:href="#DejaVuSans-46"/>
       <use x="95.410156" xlink:href="#DejaVuSans-48"/>
      </g>
     </g>
    </g>
    <g id="text_21">
     <!-- Right -->
     <defs>
      <path d="M 44.390625 34.1875 
Q 47.5625 33.109375 50.5625 29.59375 
Q 53.5625 26.078125 56.59375 19.921875 
L 66.609375 0 
L 56 0 
L 46.6875 18.703125 
Q 43.0625 26.03125 39.671875 28.421875 
Q 36.28125 30.8125 30.421875 30.8125 
L 19.671875 30.8125 
L 19.671875 0 
L 9.8125 0 
L 9.8125 72.90625 
L 32.078125 72.90625 
Q 44.578125 72.90625 50.734375 67.671875 
Q 56.890625 62.453125 56.890625 51.90625 
Q 56.890625 45.015625 53.6875 40.46875 
Q 50.484375 35.9375 44.390625 34.1875 
z
M 19.671875 64.796875 
L 19.671875 38.921875 
L 32.078125 38.921875 
Q 39.203125 38.921875 42.84375 42.21875 
Q 46.484375 45.515625 46.484375 51.90625 
Q 46.484375 58.296875 42.84375 61.546875 
Q 39.203125 64.796875 32.078125 64.796875 
z
" id="DejaVuSans-82"/>
      <path d="M 9.421875 54.6875 
L 18.40625 54.6875 
L 18.40625 0 
L 9.421875 0 
z
M 9.421875 75.984375 
L 18.40625 75.984375 
L 18.40625 64.59375 
L 9.421875 64.59375 
z
" id="DejaVuSans-105"/>
      <path d="M 45.40625 27.984375 
Q 45.40625 37.75 41.375 43.109375 
Q 37.359375 48.484375 30.078125 48.484375 
Q 22.859375 48.484375 18.828125 43.109375 
Q 14.796875 37.75 14.796875 27.984375 
Q 14.796875 18.265625 18.828125 12.890625 
Q 22.859375 7.515625 30.078125 7.515625 
Q 37.359375 7.515625 41.375 12.890625 
Q 45.40625 18.265625 45.40625 27.984375 
z
M 54.390625 6.78125 
Q 54.390625 -7.171875 48.1875 -13.984375 
Q 42 -20.796875 29.203125 -20.796875 
Q 24.46875 -20.796875 20.265625 -20.09375 
Q 16.0625 -19.390625 12.109375 -17.921875 
L 12.109375 -9.1875 
Q 16.0625 -11.328125 19.921875 -12.34375 
Q 23.78125 -13.375 27.78125 -13.375 
Q 36.625 -13.375 41.015625 -8.765625 
Q 45.40625 -4.15625 45.40625 5.171875 
L 45.40625 9.625 
Q 42.625 4.78125 38.28125 2.390625 
Q 33.9375 0 27.875 0 
Q 17.828125 0 11.671875 7.65625 
Q 5.515625 15.328125 5.515625 27.984375 
Q 5.515625 40.671875 11.671875 48.328125 
Q 17.828125 56 27.875 56 
Q 33.9375 56 38.28125 53.609375 
Q 42.625 51.21875 45.40625 46.390625 
L 45.40625 54.6875 
L 54.390625 54.6875 
z
" id="DejaVuSans-103"/>
      <path d="M 54.890625 33.015625 
L 54.890625 0 
L 45.90625 0 
L 45.90625 32.71875 
Q 45.90625 40.484375 42.875 44.328125 
Q 39.84375 48.1875 33.796875 48.1875 
Q 26.515625 48.1875 22.3125 43.546875 
Q 18.109375 38.921875 18.109375 30.90625 
L 18.109375 0 
L 9.078125 0 
L 9.078125 75.984375 
L 18.109375 75.984375 
L 18.109375 46.1875 
Q 21.34375 51.125 25.703125 53.5625 
Q 30.078125 56 35.796875 56 
Q 45.21875 56 50.046875 50.171875 
Q 54.890625 44.34375 54.890625 33.015625 
z
" id="DejaVuSans-104"/>
     </defs>
     <g transform="translate(342.419245 294.700732)rotate(-60)scale(0.1 -0.1)">
      <use xlink:href="#DejaVuSans-82"/>
      <use x="69.482422" xlink:href="#DejaVuSans-105"/>
      <use x="97.265625" xlink:href="#DejaVuSans-103"/>
      <use x="160.742188" xlink:href="#DejaVuSans-104"/>
      <use x="224.121094" xlink:href="#DejaVuSans-116"/>
     </g>
    </g>
   </g>
   <g id="line2d_19">
    <path clip-path="url(#p6f82d02292)" d="M 202.176 198.528 
L 201.570211 198.331167 
L 201.14537 197.779204 
L 201.052806 196.982055 
L 201.163885 196.541613 
L 201.388669 196.104844 
L 201.727606 195.696951 
L 202.176 195.343179 
L 202.724037 195.067828 
L 203.356997 194.893266 
L 204.055642 194.838995 
L 204.796787 194.920796 
L 205.554013 195.149987 
L 206.298519 195.532815 
L 207.000084 196.070007 
L 207.628101 196.756505 
L 208.15266 197.58139 
L 208.545642 198.528 
L 208.781782 199.574253 
L 208.839678 200.69316 
L 208.702701 201.85352 
L 208.359778 203.020778 
L 207.806021 204.158021 
L 207.043176 205.227093 
L 206.079872 206.18978 
L 204.931659 207.009045 
L 203.620826 207.650271 
L 202.176 208.082463 
L 200.631531 208.279393 
L 199.026676 208.220623 
L 197.404601 207.892398 
L 195.811231 207.288353 
L 194.29397 206.41003 
L 192.900333 205.267167 
L 191.676524 203.87775 
L 190.66601 202.267822 
L 189.908119 200.471041 
L 189.436716 198.528 
L 189.278997 196.485315 
L 189.454432 194.394512 
L 189.973906 192.310723 
L 190.839073 190.29124 
L 192.041962 188.393962 
L 193.564842 186.675758 
L 195.380371 185.190828 
L 197.452014 183.989065 
L 199.734743 183.114508 
L 202.176 182.603895 
L 204.7169 182.485386 
L 207.293652 182.777487 
L 209.839156 183.48821 
L 212.28475 184.614499 
L 214.562047 186.141953 
L 216.604816 188.044852 
L 218.350869 190.286493 
L 219.743879 192.81985 
L 220.735102 195.588527 
L 221.284926 198.528 
L 221.364224 201.567116 
L 220.955457 204.629816 
L 220.053486 207.637034 
L 218.666075 210.508741 
L 216.814055 213.166055 
L 214.531139 215.53339 
L 211.863386 217.540565 
L 208.868314 219.124824 
L 205.613689 220.232713 
L 202.176 220.821747 
L 198.638668 220.861835 
L 195.090021 220.336402 
L 191.621087 219.243183 
L 188.323268 217.59465 
L 185.285936 215.418064 
L 182.594035 212.75513 
L 180.325739 209.661264 
L 178.550231 206.204478 
L 177.325677 202.463905 
L 176.697432 198.528 
L 176.696555 194.492452 
L 177.338653 190.457857 
L 178.623121 186.527209 
L 180.532776 182.803277 
L 183.033928 179.385928 
L 186.076879 176.369461 
L 189.596857 173.840043 
L 193.515359 171.873286 
L 197.74188 170.532066 
L 202.176 169.864611 
L 206.709763 169.902944 
L 211.230307 170.661708 
L 215.62267 172.137425 
L 219.772713 174.308202 
L 223.570081 177.133919 
L 226.911113 180.556888 
L 229.701654 184.502979 
L 231.859658 188.883195 
L 233.317544 193.595664 
L 234.02421 198.528 
L 233.946666 203.559979 
L 233.071236 208.566471 
L 231.404271 213.420548 
L 228.972373 217.996704 
L 225.822089 222.174089 
L 222.019102 225.839687 
L 217.6469 228.89135 
L 212.804969 231.240603 
L 207.606552 232.815155 
L 202.176 233.561031 
L 196.645805 233.444277 
L 191.153365 232.452181 
L 185.837573 230.593968 
L 180.835305 227.900947 
L 176.277902 224.426098 
L 172.287738 220.243093 
L 168.974954 215.444778 
L 166.434452 210.141133 
L 164.743235 204.456768 
L 163.958148 198.528 
L 164.114112 192.499589 
L 165.222874 186.521202 
L 167.272336 180.743695 
L 170.226479 175.315314 
L 174.025894 170.377894 
L 178.588916 166.063164 
L 183.813344 162.489257 
L 189.578703 159.757507 
L 195.749017 157.949624 
L 202.176 157.125327 
L 208.702627 157.320502 
L 215.166962 158.545929 
L 221.406184 160.78664 
L 227.260677 164.001905 
L 232.578115 168.125885 
L 237.21741 173.068925 
L 241.052439 178.719465 
L 243.975437 184.94654 
L 245.899986 191.602801 
L 246.763494 198.528 
L 246.529109 205.552842 
L 245.187015 212.503126 
L 242.755057 219.204062 
L 239.27867 225.484667 
L 234.830123 231.182123 
L 229.507066 236.145985 
L 223.430413 240.242135 
L 216.741624 243.356382 
L 209.599415 245.397597 
L 202.176 246.300315 
L 194.652942 246.026719 
L 187.21671 244.56796 
L 180.05406 241.944753 
L 173.347342 238.207244 
L 167.269868 233.434132 
L 161.981441 227.731056 
L 157.624169 221.228292 
L 154.318673 214.077788 
L 152.160792 206.449631 
L 151.218865 198.528 
L 151.53167 190.506726 
L 153.107095 182.584546 
L 155.921551 174.960181 
L 159.920182 167.827351 
L 165.01786 161.36986 
L 171.100953 155.756867 
L 178.02983 151.138472 
L 185.642048 147.641728 
L 193.756154 145.367182 
L 202.176 144.386044 
L 210.69549 144.73806 
L 219.103617 146.430151 
L 227.189697 149.435855 
L 234.74864 153.695607 
L 241.586149 159.117851 
L 247.523707 165.580962 
L 252.403224 172.935951 
L 256.091216 181.009884 
L 258.482429 189.609938 
L 259.502777 198.528 
L 259.111551 207.545705 
L 257.302794 216.439781 
L 254.105842 224.987576 
L 249.584967 232.972631 
L 243.838157 240.190157 
L 236.995029 246.452282 
L 229.213927 251.59292 
L 220.67828 255.472161 
L 211.592278 257.980039 
L 202.176 259.039598 
L 192.660079 258.609161 
L 183.280055 256.683739 
L 174.270546 253.295538 
L 165.859379 248.513541 
L 158.261834 242.442166 
L 151.675144 235.21902 
L 146.273384 227.011806 
L 142.202894 218.014443 
L 139.57835 208.442494 
L 138.479581 198.528 
L 138.479581 198.528 
" style="fill:none;stroke:#1f77b4;stroke-linecap:square;stroke-width:1.5;"/>
   </g>
   <g id="patch_3">
    <path d="M 85.117078 266.112 
L 319.234922 266.112 
" style="fill:none;stroke:#000000;stroke-linecap:square;stroke-linejoin:miter;stroke-width:0.8;"/>
   </g>
   <g id="patch_4">
    <path d="M 319.234922 266.112 
L 202.176 63.36 
" style="fill:none;stroke:#000000;stroke-linecap:square;stroke-linejoin:miter;stroke-width:0.8;"/>
   </g>
   <g id="patch_5">
    <path d="M 202.176 63.36 
L 85.117078 266.112 
" style="fill:none;stroke:#000000;stroke-linecap:square;stroke-linejoin:miter;stroke-width:0.8;"/>
   </g>
   <g id="text_22">
    <!-- rotation=0 -->
    <defs>
     <path d="M 41.109375 46.296875 
Q 39.59375 47.171875 37.8125 47.578125 
Q 36.03125 48 33.890625 48 
Q 26.265625 48 22.1875 43.046875 
Q 18.109375 38.09375 18.109375 28.8125 
L 18.109375 0 
L 9.078125 0 
L 9.078125 54.6875 
L 18.109375 54.6875 
L 18.109375 46.1875 
Q 20.953125 51.171875 25.484375 53.578125 
Q 30.03125 56 36.53125 56 
Q 37.453125 56 38.578125 55.875 
Q 39.703125 55.765625 41.0625 55.515625 
z
" id="DejaVuSans-114"/>
     <path d="M 34.28125 27.484375 
Q 23.390625 27.484375 19.1875 25 
Q 14.984375 22.515625 14.984375 16.5 
Q 14.984375 11.71875 18.140625 8.90625 
Q 21.296875 6.109375 26.703125 6.109375 
Q 34.1875 6.109375 38.703125 11.40625 
Q 43.21875 16.703125 43.21875 25.484375 
L 43.21875 27.484375 
z
M 52.203125 31.203125 
L 52.203125 0 
L 43.21875 0 
L 43.21875 8.296875 
Q 40.140625 3.328125 35.546875 0.953125 
Q 30.953125 -1.421875 24.3125 -1.421875 
Q 15.921875 -1.421875 10.953125 3.296875 
Q 6 8.015625 6 15.921875 
Q 6 25.140625 12.171875 29.828125 
Q 18.359375 34.515625 30.609375 34.515625 
L 43.21875 34.515625 
L 43.21875 35.40625 
Q 43.21875 41.609375 39.140625 45 
Q 35.0625 48.390625 27.6875 48.390625 
Q 23 48.390625 18.546875 47.265625 
Q 14.109375 46.140625 10.015625 43.890625 
L 10.015625 52.203125 
Q 14.9375 54.109375 19.578125 55.046875 
Q 24.21875 56 28.609375 56 
Q 40.484375 56 46.34375 49.84375 
Q 52.203125 43.703125 52.203125 31.203125 
z
" id="DejaVuSans-97"/>
     <path d="M 54.890625 33.015625 
L 54.890625 0 
L 45.90625 0 
L 45.90625 32.71875 
Q 45.90625 40.484375 42.875 44.328125 
Q 39.84375 48.1875 33.796875 48.1875 
Q 26.515625 48.1875 22.3125 43.546875 
Q 18.109375 38.921875 18.109375 30.90625 
L 18.109375 0 
L 9.078125 0 
L 9.078125 54.6875 
L 18.109375 54.6875 
L 18.109375 46.1875 
Q 21.34375 51.125 25.703125 53.5625 
Q 30.078125 56 35.796875 56 
Q 45.21875 56 50.046875 50.171875 
Q 54.890625 44.34375 54.890625 33.015625 
z
" id="DejaVuSans-110"/>
     <path d="M 10.59375 45.40625 
L 73.1875 45.40625 
L 73.1875 37.203125 
L 10.59375 37.203125 
z
M 10.59375 25.484375 
L 73.1875 25.484375 
L 73.1875 17.1875 
L 10.59375 17.1875 
z
" id="DejaVuSans-61"/>
    </defs>
    <g transform="translate(169.672875 21.36)scale(0.12 -0.12)">
     <use xlink:href="#DejaVuSans-114"/>
     <use x="41.082031" xlink:href="#DejaVuSans-111"/>
     <use x="102.263672" xlink:href="#DejaVuSans-116"/>
     <use x="141.472656" xlink:href="#DejaVuSans-97"/>
     <use x="202.751953" xlink:href="#DejaVuSans-116"/>
     <use x="241.960938" xlink:href="#DejaVuSans-105"/>
     <use x="269.744141" xlink:href="#DejaVuSans-111"/>
     <use x="330.925781" xlink:href="#DejaVuSans-110"/>
     <use x="394.304688" xlink:href="#DejaVuSans-61"/>
     <use x="478.09375" xlink:href="#DejaVuSans-48"/>
    </g>
   </g>
  </g>
  <g id="axes_2">
   <g id="patch_6">
    <path d="M 474.048 164.736 
L 676.8 281.794922 
L 676.8 47.677078 
z
" style="fill:#ffffff;"/>
   </g>
   <g id="matplotlib.axis_4">
    <g id="xtick_19">
     <g id="line2d_20">
      <defs>
       <path d="M 0 0 
L -0 -3.5 
" id="mdf2d518ecc" style="stroke:#000000;stroke-width:0.8;"/>
      </defs>
      <g>
       <use style="stroke:#000000;stroke-width:0.8;" x="676.8" xlink:href="#mdf2d518ecc" y="47.677078"/>
      </g>
     </g>
     <g id="text_23">
      <!-- 0.0 -->
      <g transform="translate(680.599219 40.677078)rotate(-90)scale(0.1 -0.1)">
       <use xlink:href="#DejaVuSans-48"/>
       <use x="63.623047" xlink:href="#DejaVuSans-46"/>
       <use x="95.410156" xlink:href="#DejaVuSans-48"/>
      </g>
     </g>
    </g>
    <g id="xtick_20">
     <g id="line2d_21">
      <g>
       <use style="stroke:#000000;stroke-width:0.8;" x="636.2496" xlink:href="#mdf2d518ecc" y="71.088863"/>
      </g>
     </g>
     <g id="text_24">
      <!-- 0.2 -->
      <g transform="translate(640.048819 64.088863)rotate(-90)scale(0.1 -0.1)">
       <use xlink:href="#DejaVuSans-48"/>
       <use x="63.623047" xlink:href="#DejaVuSans-46"/>
       <use x="95.410156" xlink:href="#DejaVuSans-50"/>
      </g>
     </g>
    </g>
    <g id="xtick_21">
     <g id="line2d_22">
      <g>
       <use style="stroke:#000000;stroke-width:0.8;" x="595.6992" xlink:href="#mdf2d518ecc" y="94.500647"/>
      </g>
     </g>
     <g id="text_25">
      <!-- 0.4 -->
      <g transform="translate(599.498419 87.500647)rotate(-90)scale(0.1 -0.1)">
       <use xlink:href="#DejaVuSans-48"/>
       <use x="63.623047" xlink:href="#DejaVuSans-46"/>
       <use x="95.410156" xlink:href="#DejaVuSans-52"/>
      </g>
     </g>
    </g>
    <g id="xtick_22">
     <g id="line2d_23">
      <g>
       <use style="stroke:#000000;stroke-width:0.8;" x="555.1488" xlink:href="#mdf2d518ecc" y="117.912431"/>
      </g>
     </g>
     <g id="text_26">
      <!-- 0.6 -->
      <g transform="translate(558.948019 110.912431)rotate(-90)scale(0.1 -0.1)">
       <use xlink:href="#DejaVuSans-48"/>
       <use x="63.623047" xlink:href="#DejaVuSans-46"/>
       <use x="95.410156" xlink:href="#DejaVuSans-54"/>
      </g>
     </g>
    </g>
    <g id="xtick_23">
     <g id="line2d_24">
      <g>
       <use style="stroke:#000000;stroke-width:0.8;" x="514.5984" xlink:href="#mdf2d518ecc" y="141.324216"/>
      </g>
     </g>
     <g id="text_27">
      <!-- 0.8 -->
      <g transform="translate(518.397619 134.324216)rotate(-90)scale(0.1 -0.1)">
       <use xlink:href="#DejaVuSans-48"/>
       <use x="63.623047" xlink:href="#DejaVuSans-46"/>
       <use x="95.410156" xlink:href="#DejaVuSans-56"/>
      </g>
     </g>
    </g>
    <g id="xtick_24">
     <g id="line2d_25">
      <g>
       <use style="stroke:#000000;stroke-width:0.8;" x="474.048" xlink:href="#mdf2d518ecc" y="164.736"/>
      </g>
     </g>
     <g id="text_28">
      <!-- 1.0 -->
      <g transform="translate(477.847219 157.736)rotate(-90)scale(0.1 -0.1)">
       <use xlink:href="#DejaVuSans-49"/>
       <use x="63.623047" xlink:href="#DejaVuSans-46"/>
       <use x="95.410156" xlink:href="#DejaVuSans-48"/>
      </g>
     </g>
    </g>
    <g id="text_29">
     <!-- Top -->
     <g transform="translate(446.234015 174.010219)rotate(-90)scale(0.1 -0.1)">
      <use xlink:href="#DejaVuSans-84"/>
      <use x="60.818359" xlink:href="#DejaVuSans-111"/>
      <use x="122" xlink:href="#DejaVuSans-112"/>
     </g>
    </g>
   </g>
   <g id="matplotlib.axis_5">
    <g id="xtick_25">
     <g id="line2d_26">
      <defs>
       <path d="M 0 0 
L -3.031089 1.75 
" id="mfecc6ee6a6" style="stroke:#000000;stroke-width:0.8;"/>
      </defs>
      <g>
       <use style="stroke:#000000;stroke-width:0.8;" x="474.048" xlink:href="#mfecc6ee6a6" y="164.736"/>
      </g>
     </g>
     <g id="text_30">
      <!-- 0.0 -->
      <g transform="translate(456.112921 179.477782)rotate(-30)scale(0.1 -0.1)">
       <use xlink:href="#DejaVuSans-48"/>
       <use x="63.623047" xlink:href="#DejaVuSans-46"/>
       <use x="95.410156" xlink:href="#DejaVuSans-48"/>
      </g>
     </g>
    </g>
    <g id="xtick_26">
     <g id="line2d_27">
      <g>
       <use style="stroke:#000000;stroke-width:0.8;" x="514.5984" xlink:href="#mfecc6ee6a6" y="188.147784"/>
      </g>
     </g>
     <g id="text_31">
      <!-- 0.2 -->
      <g transform="translate(496.663321 202.889567)rotate(-30)scale(0.1 -0.1)">
       <use xlink:href="#DejaVuSans-48"/>
       <use x="63.623047" xlink:href="#DejaVuSans-46"/>
       <use x="95.410156" xlink:href="#DejaVuSans-50"/>
      </g>
     </g>
    </g>
    <g id="xtick_27">
     <g id="line2d_28">
      <g>
       <use style="stroke:#000000;stroke-width:0.8;" x="555.1488" xlink:href="#mfecc6ee6a6" y="211.559569"/>
      </g>
     </g>
     <g id="text_32">
      <!-- 0.4 -->
      <g transform="translate(537.213721 226.301351)rotate(-30)scale(0.1 -0.1)">
       <use xlink:href="#DejaVuSans-48"/>
       <use x="63.623047" xlink:href="#DejaVuSans-46"/>
       <use x="95.410156" xlink:href="#DejaVuSans-52"/>
      </g>
     </g>
    </g>
    <g id="xtick_28">
     <g id="line2d_29">
      <g>
       <use style="stroke:#000000;stroke-width:0.8;" x="595.6992" xlink:href="#mfecc6ee6a6" y="234.971353"/>
      </g>
     </g>
     <g id="text_33">
      <!-- 0.6 -->
      <g transform="translate(577.764121 249.713136)rotate(-30)scale(0.1 -0.1)">
       <use xlink:href="#DejaVuSans-48"/>
       <use x="63.623047" xlink:href="#DejaVuSans-46"/>
       <use x="95.410156" xlink:href="#DejaVuSans-54"/>
      </g>
     </g>
    </g>
    <g id="xtick_29">
     <g id="line2d_30">
      <g>
       <use style="stroke:#000000;stroke-width:0.8;" x="636.2496" xlink:href="#mfecc6ee6a6" y="258.383137"/>
      </g>
     </g>
     <g id="text_34">
      <!-- 0.8 -->
      <g transform="translate(618.314521 273.12492)rotate(-30)scale(0.1 -0.1)">
       <use xlink:href="#DejaVuSans-48"/>
       <use x="63.623047" xlink:href="#DejaVuSans-46"/>
       <use x="95.410156" xlink:href="#DejaVuSans-56"/>
      </g>
     </g>
    </g>
    <g id="xtick_30">
     <g id="line2d_31">
      <g>
       <use style="stroke:#000000;stroke-width:0.8;" x="676.8" xlink:href="#mfecc6ee6a6" y="281.794922"/>
      </g>
     </g>
     <g id="text_35">
      <!-- 1.0 -->
      <g transform="translate(658.864921 296.536704)rotate(-30)scale(0.1 -0.1)">
       <use xlink:href="#DejaVuSans-49"/>
       <use x="63.623047" xlink:href="#DejaVuSans-46"/>
       <use x="95.410156" xlink:href="#DejaVuSans-48"/>
      </g>
     </g>
    </g>
    <g id="text_36">
     <!-- Left -->
     <g transform="translate(685.688683 316.353073)rotate(-30)scale(0.1 -0.1)">
      <use xlink:href="#DejaVuSans-76"/>
      <use x="55.697266" xlink:href="#DejaVuSans-101"/>
      <use x="117.220703" xlink:href="#DejaVuSans-102"/>
      <use x="152.410156" xlink:href="#DejaVuSans-116"/>
     </g>
    </g>
   </g>
   <g id="matplotlib.axis_6">
    <g id="xtick_31">
     <g id="line2d_32">
      <defs>
       <path d="M 0 0 
L 3.031089 1.75 
" id="mc1eb4dcafa" style="stroke:#000000;stroke-width:0.8;"/>
      </defs>
      <g>
       <use style="stroke:#000000;stroke-width:0.8;" x="676.8" xlink:href="#mc1eb4dcafa" y="281.794922"/>
      </g>
     </g>
     <g id="text_37">
      <!-- 0.0 -->
      <g transform="translate(680.962568 288.585142)rotate(-330)scale(0.1 -0.1)">
       <use xlink:href="#DejaVuSans-48"/>
       <use x="63.623047" xlink:href="#DejaVuSans-46"/>
       <use x="95.410156" xlink:href="#DejaVuSans-48"/>
      </g>
     </g>
    </g>
    <g id="xtick_32">
     <g id="line2d_33">
      <g>
       <use style="stroke:#000000;stroke-width:0.8;" x="676.8" xlink:href="#mc1eb4dcafa" y="234.971353"/>
      </g>
     </g>
     <g id="text_38">
      <!-- 0.2 -->
      <g transform="translate(680.962568 241.761573)rotate(-330)scale(0.1 -0.1)">
       <use xlink:href="#DejaVuSans-48"/>
       <use x="63.623047" xlink:href="#DejaVuSans-46"/>
       <use x="95.410156" xlink:href="#DejaVuSans-50"/>
      </g>
     </g>
    </g>
    <g id="xtick_33">
     <g id="line2d_34">
      <g>
       <use style="stroke:#000000;stroke-width:0.8;" x="676.8" xlink:href="#mc1eb4dcafa" y="188.147784"/>
      </g>
     </g>
     <g id="text_39">
      <!-- 0.4 -->
      <g transform="translate(680.962568 194.938004)rotate(-330)scale(0.1 -0.1)">
       <use xlink:href="#DejaVuSans-48"/>
       <use x="63.623047" xlink:href="#DejaVuSans-46"/>
       <use x="95.410156" xlink:href="#DejaVuSans-52"/>
      </g>
     </g>
    </g>
    <g id="xtick_34">
     <g id="line2d_35">
      <g>
       <use style="stroke:#000000;stroke-width:0.8;" x="676.8" xlink:href="#mc1eb4dcafa" y="141.324216"/>
      </g>
     </g>
     <g id="text_40">
      <!-- 0.6 -->
      <g transform="translate(680.962568 148.114436)rotate(-330)scale(0.1 -0.1)">
       <use xlink:href="#DejaVuSans-48"/>
       <use x="63.623047" xlink:href="#DejaVuSans-46"/>
       <use x="95.410156" xlink:href="#DejaVuSans-54"/>
      </g>
     </g>
    </g>
    <g id="xtick_35">
     <g id="line2d_36">
      <g>
       <use style="stroke:#000000;stroke-width:0.8;" x="676.8" xlink:href="#mc1eb4dcafa" y="94.500647"/>
      </g>
     </g>
     <g id="text_41">
      <!-- 0.8 -->
      <g transform="translate(680.962568 101.290867)rotate(-330)scale(0.1 -0.1)">
       <use xlink:href="#DejaVuSans-48"/>
       <use x="63.623047" xlink:href="#DejaVuSans-46"/>
       <use x="95.410156" xlink:href="#DejaVuSans-56"/>
      </g>
     </g>
    </g>
    <g id="xtick_36">
     <g id="line2d_37">
      <g>
       <use style="stroke:#000000;stroke-width:0.8;" x="676.8" xlink:href="#mc1eb4dcafa" y="47.677078"/>
      </g>
     </g>
     <g id="text_42">
      <!-- 1.0 -->
      <g transform="translate(680.962568 54.467298)rotate(-330)scale(0.1 -0.1)">
       <use xlink:href="#DejaVuSans-49"/>
       <use x="63.623047" xlink:href="#DejaVuSans-46"/>
       <use x="95.410156" xlink:href="#DejaVuSans-48"/>
      </g>
     </g>
    </g>
    <g id="text_43">
     <!-- Right -->
     <g transform="translate(679.824472 16.105726)rotate(-330)scale(0.1 -0.1)">
      <use xlink:href="#DejaVuSans-82"/>
      <use x="69.482422" xlink:href="#DejaVuSans-105"/>
      <use x="97.265625" xlink:href="#DejaVuSans-103"/>
      <use x="160.742188" xlink:href="#DejaVuSans-104"/>
      <use x="224.121094" xlink:href="#DejaVuSans-116"/>
     </g>
    </g>
   </g>
   <g id="line2d_38">
    <path clip-path="url(#pb1011a5b54)" d="M 609.216 164.736 
L 609.019167 165.341789 
L 608.467204 165.76663 
L 607.670055 165.859194 
L 607.229613 165.748115 
L 606.792844 165.523331 
L 606.384951 165.184394 
L 606.031179 164.736 
L 605.755828 164.187963 
L 605.581266 163.555003 
L 605.526995 162.856358 
L 605.608796 162.115213 
L 605.837987 161.357987 
L 606.220815 160.613481 
L 606.758007 159.911916 
L 607.444505 159.283899 
L 608.26939 158.75934 
L 609.216 158.366358 
L 610.262253 158.130218 
L 611.38116 158.072322 
L 612.54152 158.209299 
L 613.708778 158.552222 
L 614.846021 159.105979 
L 615.915093 159.868824 
L 616.87778 160.832128 
L 617.697045 161.980341 
L 618.338271 163.291174 
L 618.770463 164.736 
L 618.967393 166.280469 
L 618.908623 167.885324 
L 618.580398 169.507399 
L 617.976353 171.100769 
L 617.09803 172.61803 
L 615.955167 174.011667 
L 614.56575 175.235476 
L 612.955822 176.24599 
L 611.159041 177.003881 
L 609.216 177.475284 
L 607.173315 177.633003 
L 605.082512 177.457568 
L 602.998723 176.938094 
L 600.97924 176.072927 
L 599.081962 174.870038 
L 597.363758 173.347158 
L 595.878828 171.531629 
L 594.677065 169.459986 
L 593.802508 167.177257 
L 593.291895 164.736 
L 593.173386 162.1951 
L 593.465487 159.618348 
L 594.17621 157.072844 
L 595.302499 154.62725 
L 596.829953 152.349953 
L 598.732852 150.307184 
L 600.974493 148.561131 
L 603.50785 147.168121 
L 606.276527 146.176898 
L 609.216 145.627074 
L 612.255116 145.547776 
L 615.317816 145.956543 
L 618.325034 146.858514 
L 621.196741 148.245925 
L 623.854055 150.097945 
L 626.22139 152.380861 
L 628.228565 155.048614 
L 629.812824 158.043686 
L 630.920713 161.298311 
L 631.509747 164.736 
L 631.549835 168.273332 
L 631.024402 171.821979 
L 629.931183 175.290913 
L 628.28265 178.588732 
L 626.106064 181.626064 
L 623.44313 184.317965 
L 620.349264 186.586261 
L 616.892478 188.361769 
L 613.151905 189.586323 
L 609.216 190.214568 
L 605.180452 190.215445 
L 601.145857 189.573347 
L 597.215209 188.288879 
L 593.491277 186.379224 
L 590.073928 183.878072 
L 587.057461 180.835121 
L 584.528043 177.315143 
L 582.561286 173.396641 
L 581.220066 169.17012 
L 580.552611 164.736 
L 580.590944 160.202237 
L 581.349708 155.681693 
L 582.825425 151.28933 
L 584.996202 147.139287 
L 587.821919 143.341919 
L 591.244888 140.000887 
L 595.190979 137.210346 
L 599.571195 135.052342 
L 604.283664 133.594456 
L 609.216 132.88779 
L 614.247979 132.965334 
L 619.254471 133.840764 
L 624.108548 135.507729 
L 628.684704 137.939627 
L 632.862089 141.089911 
L 636.527687 144.892898 
L 639.57935 149.2651 
L 641.928603 154.107031 
L 643.503155 159.305448 
L 644.249031 164.736 
L 644.132277 170.266195 
L 643.140181 175.758635 
L 641.281968 181.074427 
L 638.588947 186.076695 
L 635.114098 190.634098 
L 630.931093 194.624262 
L 626.132778 197.937046 
L 620.829133 200.477548 
L 615.144768 202.168765 
L 609.216 202.953852 
L 603.187589 202.797888 
L 597.209202 201.689126 
L 591.431695 199.639664 
L 586.003314 196.685521 
L 581.065894 192.886106 
L 576.751164 188.323084 
L 573.177257 183.098656 
L 570.445507 177.333297 
L 568.637624 171.162983 
L 567.813327 164.736 
L 568.008502 158.209373 
L 569.233929 151.745038 
L 571.47464 145.505816 
L 574.689905 139.651323 
L 578.813885 134.333885 
L 583.756925 129.69459 
L 589.407465 125.859561 
L 595.63454 122.936563 
L 602.290801 121.012014 
L 609.216 120.148506 
L 616.240842 120.382891 
L 623.191126 121.724985 
L 629.892062 124.156943 
L 636.172667 127.63333 
L 641.870123 132.081877 
L 646.833985 137.404934 
L 650.930135 143.481587 
L 654.044382 150.170376 
L 656.085597 157.312585 
L 656.988315 164.736 
L 656.714719 172.259058 
L 655.25596 179.69529 
L 652.632753 186.85794 
L 648.895244 193.564658 
L 644.122132 199.642132 
L 638.419056 204.930559 
L 631.916292 209.287831 
L 624.765788 212.593327 
L 617.137631 214.751208 
L 609.216 215.693135 
L 601.194726 215.38033 
L 593.272546 213.804905 
L 585.648181 210.990449 
L 578.515351 206.991818 
L 572.05786 201.89414 
L 566.444867 195.811047 
L 561.826472 188.88217 
L 558.329728 181.269952 
L 556.055182 173.155846 
L 555.074044 164.736 
L 555.42606 156.21651 
L 557.118151 147.808383 
L 560.123855 139.722303 
L 564.383607 132.16336 
L 569.805851 125.325851 
L 576.268962 119.388293 
L 583.623951 114.508776 
L 591.697884 110.820784 
L 600.297938 108.429571 
L 609.216 107.409223 
L 618.233705 107.800449 
L 627.127781 109.609206 
L 635.675576 112.806158 
L 643.660631 117.327033 
L 650.878157 123.073843 
L 657.140282 129.916971 
L 662.28092 137.698073 
L 666.160161 146.23372 
L 668.668039 155.319722 
L 669.727598 164.736 
L 669.297161 174.251921 
L 667.371739 183.631945 
L 663.983538 192.641454 
L 659.201541 201.052621 
L 653.130166 208.650166 
L 645.90702 215.236856 
L 637.699806 220.638616 
L 628.702443 224.709106 
L 619.130494 227.33365 
L 609.216 228.432419 
L 609.216 228.432419 
" style="fill:none;stroke:#1f77b4;stroke-linecap:square;stroke-width:1.5;"/>
   </g>
   <g id="patch_7">
    <path d="M 676.8 281.794922 
L 676.8 47.677078 
" style="fill:none;stroke:#000000;stroke-linecap:square;stroke-linejoin:miter;stroke-width:0.8;"/>
   </g>
   <g id="patch_8">
    <path d="M 676.8 47.677078 
L 474.048 164.736 
" style="fill:none;stroke:#000000;stroke-linecap:square;stroke-linejoin:miter;stroke-width:0.8;"/>
   </g>
   <g id="patch_9">
    <path d="M 474.048 164.736 
L 676.8 281.794922 
" style="fill:none;stroke:#000000;stroke-linecap:square;stroke-linejoin:miter;stroke-width:0.8;"/>
   </g>
   <g id="text_44">
    <!-- rotation=90 -->
    <defs>
     <path d="M 10.984375 1.515625 
L 10.984375 10.5 
Q 14.703125 8.734375 18.5 7.8125 
Q 22.3125 6.890625 25.984375 6.890625 
Q 35.75 6.890625 40.890625 13.453125 
Q 46.046875 20.015625 46.78125 33.40625 
Q 43.953125 29.203125 39.59375 26.953125 
Q 35.25 24.703125 29.984375 24.703125 
Q 19.046875 24.703125 12.671875 31.3125 
Q 6.296875 37.9375 6.296875 49.421875 
Q 6.296875 60.640625 12.9375 67.421875 
Q 19.578125 74.21875 30.609375 74.21875 
Q 43.265625 74.21875 49.921875 64.515625 
Q 56.59375 54.828125 56.59375 36.375 
Q 56.59375 19.140625 48.40625 8.859375 
Q 40.234375 -1.421875 26.421875 -1.421875 
Q 22.703125 -1.421875 18.890625 -0.6875 
Q 15.09375 0.046875 10.984375 1.515625 
z
M 30.609375 32.421875 
Q 37.25 32.421875 41.125 36.953125 
Q 45.015625 41.5 45.015625 49.421875 
Q 45.015625 57.28125 41.125 61.84375 
Q 37.25 66.40625 30.609375 66.40625 
Q 23.96875 66.40625 20.09375 61.84375 
Q 16.21875 57.28125 16.21875 49.421875 
Q 16.21875 41.5 20.09375 36.953125 
Q 23.96875 32.421875 30.609375 32.421875 
z
" id="DejaVuSans-57"/>
    </defs>
    <g transform="translate(539.103375 21.36)scale(0.12 -0.12)">
     <use xlink:href="#DejaVuSans-114"/>
     <use x="41.082031" xlink:href="#DejaVuSans-111"/>
     <use x="102.263672" xlink:href="#DejaVuSans-116"/>
     <use x="141.472656" xlink:href="#DejaVuSans-97"/>
     <use x="202.751953" xlink:href="#DejaVuSans-116"/>
     <use x="241.960938" xlink:href="#DejaVuSans-105"/>
     <use x="269.744141" xlink:href="#DejaVuSans-111"/>
     <use x="330.925781" xlink:href="#DejaVuSans-110"/>
     <use x="394.304688" xlink:href="#DejaVuSans-61"/>
     <use x="478.09375" xlink:href="#DejaVuSans-57"/>
     <use x="541.716797" xlink:href="#DejaVuSans-48"/>
    </g>
   </g>
  </g>
  <g id="axes_3">
   <g id="patch_10">
    <path d="M 202.176 570.24 
L 319.234922 367.488 
L 85.117078 367.488 
z
" style="fill:#ffffff;"/>
   </g>
   <g id="matplotlib.axis_7">
    <g id="xtick_37">
     <g id="line2d_39">
      <defs>
       <path d="M 0 0 
L -3.5 -0 
" id="m823f4fe072" style="stroke:#000000;stroke-width:0.8;"/>
      </defs>
      <g>
       <use style="stroke:#000000;stroke-width:0.8;" x="85.117078" xlink:href="#m823f4fe072" y="367.488"/>
      </g>
     </g>
     <g id="text_45">
      <!-- 0.0 -->
      <g transform="translate(62.213953 371.287219)scale(0.1 -0.1)">
       <use xlink:href="#DejaVuSans-48"/>
       <use x="63.623047" xlink:href="#DejaVuSans-46"/>
       <use x="95.410156" xlink:href="#DejaVuSans-48"/>
      </g>
     </g>
    </g>
    <g id="xtick_38">
     <g id="line2d_40">
      <g>
       <use style="stroke:#000000;stroke-width:0.8;" x="108.528863" xlink:href="#m823f4fe072" y="408.0384"/>
      </g>
     </g>
     <g id="text_46">
      <!-- 0.2 -->
      <g transform="translate(85.625738 411.837619)scale(0.1 -0.1)">
       <use xlink:href="#DejaVuSans-48"/>
       <use x="63.623047" xlink:href="#DejaVuSans-46"/>
       <use x="95.410156" xlink:href="#DejaVuSans-50"/>
      </g>
     </g>
    </g>
    <g id="xtick_39">
     <g id="line2d_41">
      <g>
       <use style="stroke:#000000;stroke-width:0.8;" x="131.940647" xlink:href="#m823f4fe072" y="448.5888"/>
      </g>
     </g>
     <g id="text_47">
      <!-- 0.4 -->
      <g transform="translate(109.037522 452.388019)scale(0.1 -0.1)">
       <use xlink:href="#DejaVuSans-48"/>
       <use x="63.623047" xlink:href="#DejaVuSans-46"/>
       <use x="95.410156" xlink:href="#DejaVuSans-52"/>
      </g>
     </g>
    </g>
    <g id="xtick_40">
     <g id="line2d_42">
      <g>
       <use style="stroke:#000000;stroke-width:0.8;" x="155.352431" xlink:href="#m823f4fe072" y="489.1392"/>
      </g>
     </g>
     <g id="text_48">
      <!-- 0.6 -->
      <g transform="translate(132.449306 492.938419)scale(0.1 -0.1)">
       <use xlink:href="#DejaVuSans-48"/>
       <use x="63.623047" xlink:href="#DejaVuSans-46"/>
       <use x="95.410156" xlink:href="#DejaVuSans-54"/>
      </g>
     </g>
    </g>
    <g id="xtick_41">
     <g id="line2d_43">
      <g>
       <use style="stroke:#000000;stroke-width:0.8;" x="178.764216" xlink:href="#m823f4fe072" y="529.6896"/>
      </g>
     </g>
     <g id="text_49">
      <!-- 0.8 -->
      <g transform="translate(155.861091 533.488819)scale(0.1 -0.1)">
       <use xlink:href="#DejaVuSans-48"/>
       <use x="63.623047" xlink:href="#DejaVuSans-46"/>
       <use x="95.410156" xlink:href="#DejaVuSans-56"/>
      </g>
     </g>
    </g>
    <g id="xtick_42">
     <g id="line2d_44">
      <g>
       <use style="stroke:#000000;stroke-width:0.8;" x="202.176" xlink:href="#m823f4fe072" y="570.24"/>
      </g>
     </g>
     <g id="text_50">
      <!-- 1.0 -->
      <g transform="translate(179.272875 574.039219)scale(0.1 -0.1)">
       <use xlink:href="#DejaVuSans-49"/>
       <use x="63.623047" xlink:href="#DejaVuSans-46"/>
       <use x="95.410156" xlink:href="#DejaVuSans-48"/>
      </g>
     </g>
    </g>
    <g id="text_51">
     <!-- Top -->
     <g transform="translate(192.901781 604.612579)scale(0.1 -0.1)">
      <use xlink:href="#DejaVuSans-84"/>
      <use x="60.818359" xlink:href="#DejaVuSans-111"/>
      <use x="122" xlink:href="#DejaVuSans-112"/>
     </g>
    </g>
   </g>
   <g id="matplotlib.axis_8">
    <g id="xtick_43">
     <g id="line2d_45">
      <defs>
       <path d="M 0 0 
L 1.75 3.031089 
" id="m6795ab125e" style="stroke:#000000;stroke-width:0.8;"/>
      </defs>
      <g>
       <use style="stroke:#000000;stroke-width:0.8;" x="202.176" xlink:href="#m6795ab125e" y="570.24"/>
      </g>
     </g>
     <g id="text_52">
      <!-- 0.0 -->
      <g transform="translate(202.38578 578.201787)rotate(-300)scale(0.1 -0.1)">
       <use xlink:href="#DejaVuSans-48"/>
       <use x="63.623047" xlink:href="#DejaVuSans-46"/>
       <use x="95.410156" xlink:href="#DejaVuSans-48"/>
      </g>
     </g>
    </g>
    <g id="xtick_44">
     <g id="line2d_46">
      <g>
       <use style="stroke:#000000;stroke-width:0.8;" x="225.587784" xlink:href="#m6795ab125e" y="529.6896"/>
      </g>
     </g>
     <g id="text_53">
      <!-- 0.2 -->
      <g transform="translate(225.797564 537.651387)rotate(-300)scale(0.1 -0.1)">
       <use xlink:href="#DejaVuSans-48"/>
       <use x="63.623047" xlink:href="#DejaVuSans-46"/>
       <use x="95.410156" xlink:href="#DejaVuSans-50"/>
      </g>
     </g>
    </g>
    <g id="xtick_45">
     <g id="line2d_47">
      <g>
       <use style="stroke:#000000;stroke-width:0.8;" x="248.999569" xlink:href="#m6795ab125e" y="489.1392"/>
      </g>
     </g>
     <g id="text_54">
      <!-- 0.4 -->
      <g transform="translate(249.209349 497.100987)rotate(-300)scale(0.1 -0.1)">
       <use xlink:href="#DejaVuSans-48"/>
       <use x="63.623047" xlink:href="#DejaVuSans-46"/>
       <use x="95.410156" xlink:href="#DejaVuSans-52"/>
      </g>
     </g>
    </g>
    <g id="xtick_46">
     <g id="line2d_48">
      <g>
       <use style="stroke:#000000;stroke-width:0.8;" x="272.411353" xlink:href="#m6795ab125e" y="448.5888"/>
      </g>
     </g>
     <g id="text_55">
      <!-- 0.6 -->
      <g transform="translate(272.621133 456.550587)rotate(-300)scale(0.1 -0.1)">
       <use xlink:href="#DejaVuSans-48"/>
       <use x="63.623047" xlink:href="#DejaVuSans-46"/>
       <use x="95.410156" xlink:href="#DejaVuSans-54"/>
      </g>
     </g>
    </g>
    <g id="xtick_47">
     <g id="line2d_49">
      <g>
       <use style="stroke:#000000;stroke-width:0.8;" x="295.823137" xlink:href="#m6795ab125e" y="408.0384"/>
      </g>
     </g>
     <g id="text_56">
      <!-- 0.8 -->
      <g transform="translate(296.032917 416.000187)rotate(-300)scale(0.1 -0.1)">
       <use xlink:href="#DejaVuSans-48"/>
       <use x="63.623047" xlink:href="#DejaVuSans-46"/>
       <use x="95.410156" xlink:href="#DejaVuSans-56"/>
      </g>
     </g>
    </g>
    <g id="xtick_48">
     <g id="line2d_50">
      <g>
       <use style="stroke:#000000;stroke-width:0.8;" x="319.234922" xlink:href="#m6795ab125e" y="367.488"/>
      </g>
     </g>
     <g id="text_57">
      <!-- 1.0 -->
      <g transform="translate(319.444702 375.449787)rotate(-300)scale(0.1 -0.1)">
       <use xlink:href="#DejaVuSans-49"/>
       <use x="63.623047" xlink:href="#DejaVuSans-46"/>
       <use x="95.410156" xlink:href="#DejaVuSans-48"/>
      </g>
     </g>
    </g>
    <g id="text_58">
     <!-- Left -->
     <g transform="translate(339.432445 344.76348)rotate(-300)scale(0.1 -0.1)">
      <use xlink:href="#DejaVuSans-76"/>
      <use x="55.697266" xlink:href="#DejaVuSans-101"/>
      <use x="117.220703" xlink:href="#DejaVuSans-102"/>
      <use x="152.410156" xlink:href="#DejaVuSans-116"/>
     </g>
    </g>
   </g>
   <g id="matplotlib.axis_9">
    <g id="xtick_49">
     <g id="line2d_51">
      <defs>
       <path d="M 0 0 
L 1.75 -3.031089 
" id="m358f5c39b6" style="stroke:#000000;stroke-width:0.8;"/>
      </defs>
      <g>
       <use style="stroke:#000000;stroke-width:0.8;" x="319.234922" xlink:href="#m358f5c39b6" y="367.488"/>
      </g>
     </g>
     <g id="text_59">
      <!-- 0.0 -->
      <g transform="translate(326.025142 363.325432)rotate(-60)scale(0.1 -0.1)">
       <use xlink:href="#DejaVuSans-48"/>
       <use x="63.623047" xlink:href="#DejaVuSans-46"/>
       <use x="95.410156" xlink:href="#DejaVuSans-48"/>
      </g>
     </g>
    </g>
    <g id="xtick_50">
     <g id="line2d_52">
      <g>
       <use style="stroke:#000000;stroke-width:0.8;" x="272.411353" xlink:href="#m358f5c39b6" y="367.488"/>
      </g>
     </g>
     <g id="text_60">
      <!-- 0.2 -->
      <g transform="translate(279.201573 363.325432)rotate(-60)scale(0.1 -0.1)">
       <use xlink:href="#DejaVuSans-48"/>
       <use x="63.623047" xlink:href="#DejaVuSans-46"/>
       <use x="95.410156" xlink:href="#DejaVuSans-50"/>
      </g>
     </g>
    </g>
    <g id="xtick_51">
     <g id="line2d_53">
      <g>
       <use style="stroke:#000000;stroke-width:0.8;" x="225.587784" xlink:href="#m358f5c39b6" y="367.488"/>
      </g>
     </g>
     <g id="text_61">
      <!-- 0.4 -->
      <g transform="translate(232.378004 363.325432)rotate(-60)scale(0.1 -0.1)">
       <use xlink:href="#DejaVuSans-48"/>
       <use x="63.623047" xlink:href="#DejaVuSans-46"/>
       <use x="95.410156" xlink:href="#DejaVuSans-52"/>
      </g>
     </g>
    </g>
    <g id="xtick_52">
     <g id="line2d_54">
      <g>
       <use style="stroke:#000000;stroke-width:0.8;" x="178.764216" xlink:href="#m358f5c39b6" y="367.488"/>
      </g>
     </g>
     <g id="text_62">
      <!-- 0.6 -->
      <g transform="translate(185.554436 363.325432)rotate(-60)scale(0.1 -0.1)">
       <use xlink:href="#DejaVuSans-48"/>
       <use x="63.623047" xlink:href="#DejaVuSans-46"/>
       <use x="95.410156" xlink:href="#DejaVuSans-54"/>
      </g>
     </g>
    </g>
    <g id="xtick_53">
     <g id="line2d_55">
      <g>
       <use style="stroke:#000000;stroke-width:0.8;" x="131.940647" xlink:href="#m358f5c39b6" y="367.488"/>
      </g>
     </g>
     <g id="text_63">
      <!-- 0.8 -->
      <g transform="translate(138.730867 363.325432)rotate(-60)scale(0.1 -0.1)">
       <use xlink:href="#DejaVuSans-48"/>
       <use x="63.623047" xlink:href="#DejaVuSans-46"/>
       <use x="95.410156" xlink:href="#DejaVuSans-56"/>
      </g>
     </g>
    </g>
    <g id="xtick_54">
     <g id="line2d_56">
      <g>
       <use style="stroke:#000000;stroke-width:0.8;" x="85.117078" xlink:href="#m358f5c39b6" y="367.488"/>
      </g>
     </g>
     <g id="text_64">
      <!-- 1.0 -->
      <g transform="translate(91.907298 363.325432)rotate(-60)scale(0.1 -0.1)">
       <use xlink:href="#DejaVuSans-49"/>
       <use x="63.623047" xlink:href="#DejaVuSans-46"/>
       <use x="95.410156" xlink:href="#DejaVuSans-48"/>
      </g>
     </g>
    </g>
    <g id="text_65">
     <!-- Right -->
     <g transform="translate(54.446258 364.98345)rotate(-60)scale(0.1 -0.1)">
      <use xlink:href="#DejaVuSans-82"/>
      <use x="69.482422" xlink:href="#DejaVuSans-105"/>
      <use x="97.265625" xlink:href="#DejaVuSans-103"/>
      <use x="160.742188" xlink:href="#DejaVuSans-104"/>
      <use x="224.121094" xlink:href="#DejaVuSans-116"/>
     </g>
    </g>
   </g>
   <g id="line2d_57">
    <path clip-path="url(#pa333241cef)" d="M 202.176 435.072 
L 202.781789 435.268833 
L 203.20663 435.820796 
L 203.299194 436.617945 
L 203.188115 437.058387 
L 202.963331 437.495156 
L 202.624394 437.903049 
L 202.176 438.256821 
L 201.627963 438.532172 
L 200.995003 438.706734 
L 200.296358 438.761005 
L 199.555213 438.679204 
L 198.797987 438.450013 
L 198.053481 438.067185 
L 197.351916 437.529993 
L 196.723899 436.843495 
L 196.19934 436.01861 
L 195.806358 435.072 
L 195.570218 434.025747 
L 195.512322 432.90684 
L 195.649299 431.74648 
L 195.992222 430.579222 
L 196.545979 429.441979 
L 197.308824 428.372907 
L 198.272128 427.41022 
L 199.420341 426.590955 
L 200.731174 425.949729 
L 202.176 425.517537 
L 203.720469 425.320607 
L 205.325324 425.379377 
L 206.947399 425.707602 
L 208.540769 426.311647 
L 210.05803 427.18997 
L 211.451667 428.332833 
L 212.675476 429.72225 
L 213.68599 431.332178 
L 214.443881 433.128959 
L 214.915284 435.072 
L 215.073003 437.114685 
L 214.897568 439.205488 
L 214.378094 441.289277 
L 213.512927 443.30876 
L 212.310038 445.206038 
L 210.787158 446.924242 
L 208.971629 448.409172 
L 206.899986 449.610935 
L 204.617257 450.485492 
L 202.176 450.996105 
L 199.6351 451.114614 
L 197.058348 450.822513 
L 194.512844 450.11179 
L 192.06725 448.985501 
L 189.789953 447.458047 
L 187.747184 445.555148 
L 186.001131 443.313507 
L 184.608121 440.78015 
L 183.616898 438.011473 
L 183.067074 435.072 
L 182.987776 432.032884 
L 183.396543 428.970184 
L 184.298514 425.962966 
L 185.685925 423.091259 
L 187.537945 420.433945 
L 189.820861 418.06661 
L 192.488614 416.059435 
L 195.483686 414.475176 
L 198.738311 413.367287 
L 202.176 412.778253 
L 205.713332 412.738165 
L 209.261979 413.263598 
L 212.730913 414.356817 
L 216.028732 416.00535 
L 219.066064 418.181936 
L 221.757965 420.84487 
L 224.026261 423.938736 
L 225.801769 427.395522 
L 227.026323 431.136095 
L 227.654568 435.072 
L 227.655445 439.107548 
L 227.013347 443.142143 
L 225.728879 447.072791 
L 223.819224 450.796723 
L 221.318072 454.214072 
L 218.275121 457.230539 
L 214.755143 459.759957 
L 210.836641 461.726714 
L 206.61012 463.067934 
L 202.176 463.735389 
L 197.642237 463.697056 
L 193.121693 462.938292 
L 188.72933 461.462575 
L 184.579287 459.291798 
L 180.781919 456.466081 
L 177.440887 453.043112 
L 174.650346 449.097021 
L 172.492342 444.716805 
L 171.034456 440.004336 
L 170.32779 435.072 
L 170.405334 430.040021 
L 171.280764 425.033529 
L 172.947729 420.179452 
L 175.379627 415.603296 
L 178.529911 411.425911 
L 182.332898 407.760313 
L 186.7051 404.70865 
L 191.547031 402.359397 
L 196.745448 400.784845 
L 202.176 400.038969 
L 207.706195 400.155723 
L 213.198635 401.147819 
L 218.514427 403.006032 
L 223.516695 405.699053 
L 228.074098 409.173902 
L 232.064262 413.356907 
L 235.377046 418.155222 
L 237.917548 423.458867 
L 239.608765 429.143232 
L 240.393852 435.072 
L 240.237888 441.100411 
L 239.129126 447.078798 
L 237.079664 452.856305 
L 234.125521 458.284686 
L 230.326106 463.222106 
L 225.763084 467.536836 
L 220.538656 471.110743 
L 214.773297 473.842493 
L 208.602983 475.650376 
L 202.176 476.474673 
L 195.649373 476.279498 
L 189.185038 475.054071 
L 182.945816 472.81336 
L 177.091323 469.598095 
L 171.773885 465.474115 
L 167.13459 460.531075 
L 163.299561 454.880535 
L 160.376563 448.65346 
L 158.452014 441.997199 
L 157.588506 435.072 
L 157.822891 428.047158 
L 159.164985 421.096874 
L 161.596943 414.395938 
L 165.07333 408.115333 
L 169.521877 402.417877 
L 174.844934 397.454015 
L 180.921587 393.357865 
L 187.610376 390.243618 
L 194.752585 388.202403 
L 202.176 387.299685 
L 209.699058 387.573281 
L 217.13529 389.03204 
L 224.29794 391.655247 
L 231.004658 395.392756 
L 237.082132 400.165868 
L 242.370559 405.868944 
L 246.727831 412.371708 
L 250.033327 419.522212 
L 252.191208 427.150369 
L 253.133135 435.072 
L 252.82033 443.093274 
L 251.244905 451.015454 
L 248.430449 458.639819 
L 244.431818 465.772649 
L 239.33414 472.23014 
L 233.251047 477.843133 
L 226.32217 482.461528 
L 218.709952 485.958272 
L 210.595846 488.232818 
L 202.176 489.213956 
L 193.65651 488.86194 
L 185.248383 487.169849 
L 177.162303 484.164145 
L 169.60336 479.904393 
L 162.765851 474.482149 
L 156.828293 468.019038 
L 151.948776 460.664049 
L 148.260784 452.590116 
L 145.869571 443.990062 
L 144.849223 435.072 
L 145.240449 426.054295 
L 147.049206 417.160219 
L 150.246158 408.612424 
L 154.767033 400.627369 
L 160.513843 393.409843 
L 167.356971 387.147718 
L 175.138073 382.00708 
L 183.67372 378.127839 
L 192.759722 375.619961 
L 202.176 374.560402 
L 211.691921 374.990839 
L 221.071945 376.916261 
L 230.081454 380.304462 
L 238.492621 385.086459 
L 246.090166 391.157834 
L 252.676856 398.38098 
L 258.078616 406.588194 
L 262.149106 415.585557 
L 264.77365 425.157506 
L 265.872419 435.072 
L 265.872419 435.072 
" style="fill:none;stroke:#1f77b4;stroke-linecap:square;stroke-width:1.5;"/>
   </g>
   <g id="patch_11">
    <path d="M 319.234922 367.488 
L 85.117078 367.488 
" style="fill:none;stroke:#000000;stroke-linecap:square;stroke-linejoin:miter;stroke-width:0.8;"/>
   </g>
   <g id="patch_12">
    <path d="M 85.117078 367.488 
L 202.176 570.24 
" style="fill:none;stroke:#000000;stroke-linecap:square;stroke-linejoin:miter;stroke-width:0.8;"/>
   </g>
   <g id="patch_13">
    <path d="M 202.176 570.24 
L 319.234922 367.488 
" style="fill:none;stroke:#000000;stroke-linecap:square;stroke-linejoin:miter;stroke-width:0.8;"/>
   </g>
   <g id="text_66">
    <!-- rotation=180 -->
    <g transform="translate(162.037875 325.488)scale(0.12 -0.12)">
     <use xlink:href="#DejaVuSans-114"/>
     <use x="41.082031" xlink:href="#DejaVuSans-111"/>
     <use x="102.263672" xlink:href="#DejaVuSans-116"/>
     <use x="141.472656" xlink:href="#DejaVuSans-97"/>
     <use x="202.751953" xlink:href="#DejaVuSans-116"/>
     <use x="241.960938" xlink:href="#DejaVuSans-105"/>
     <use x="269.744141" xlink:href="#DejaVuSans-111"/>
     <use x="330.925781" xlink:href="#DejaVuSans-110"/>
     <use x="394.304688" xlink:href="#DejaVuSans-61"/>
     <use x="478.09375" xlink:href="#DejaVuSans-49"/>
     <use x="541.716797" xlink:href="#DejaVuSans-56"/>
     <use x="605.339844" xlink:href="#DejaVuSans-48"/>
    </g>
   </g>
  </g>
  <g id="axes_4">
   <g id="patch_14">
    <path d="M 676.8 468.864 
L 474.048 351.805078 
L 474.048 585.922922 
z
" style="fill:#ffffff;"/>
   </g>
   <g id="matplotlib.axis_10">
    <g id="xtick_55">
     <g id="line2d_58">
      <defs>
       <path d="M 0 0 
L -0 3.5 
" id="m5a16a78c19" style="stroke:#000000;stroke-width:0.8;"/>
      </defs>
      <g>
       <use style="stroke:#000000;stroke-width:0.8;" x="474.048" xlink:href="#m5a16a78c19" y="585.922922"/>
      </g>
     </g>
     <g id="text_67">
      <!-- 0.0 -->
      <g transform="translate(470.248781 592.922922)rotate(-270)scale(0.1 -0.1)">
       <use xlink:href="#DejaVuSans-48"/>
       <use x="63.623047" xlink:href="#DejaVuSans-46"/>
       <use x="95.410156" xlink:href="#DejaVuSans-48"/>
      </g>
     </g>
    </g>
    <g id="xtick_56">
     <g id="line2d_59">
      <g>
       <use style="stroke:#000000;stroke-width:0.8;" x="514.5984" xlink:href="#m5a16a78c19" y="562.511137"/>
      </g>
     </g>
     <g id="text_68">
      <!-- 0.2 -->
      <g transform="translate(510.799181 569.511137)rotate(-270)scale(0.1 -0.1)">
       <use xlink:href="#DejaVuSans-48"/>
       <use x="63.623047" xlink:href="#DejaVuSans-46"/>
       <use x="95.410156" xlink:href="#DejaVuSans-50"/>
      </g>
     </g>
    </g>
    <g id="xtick_57">
     <g id="line2d_60">
      <g>
       <use style="stroke:#000000;stroke-width:0.8;" x="555.1488" xlink:href="#m5a16a78c19" y="539.099353"/>
      </g>
     </g>
     <g id="text_69">
      <!-- 0.4 -->
      <g transform="translate(551.349581 546.099353)rotate(-270)scale(0.1 -0.1)">
       <use xlink:href="#DejaVuSans-48"/>
       <use x="63.623047" xlink:href="#DejaVuSans-46"/>
       <use x="95.410156" xlink:href="#DejaVuSans-52"/>
      </g>
     </g>
    </g>
    <g id="xtick_58">
     <g id="line2d_61">
      <g>
       <use style="stroke:#000000;stroke-width:0.8;" x="595.6992" xlink:href="#m5a16a78c19" y="515.687569"/>
      </g>
     </g>
     <g id="text_70">
      <!-- 0.6 -->
      <g transform="translate(591.899981 522.687569)rotate(-270)scale(0.1 -0.1)">
       <use xlink:href="#DejaVuSans-48"/>
       <use x="63.623047" xlink:href="#DejaVuSans-46"/>
       <use x="95.410156" xlink:href="#DejaVuSans-54"/>
      </g>
     </g>
    </g>
    <g id="xtick_59">
     <g id="line2d_62">
      <g>
       <use style="stroke:#000000;stroke-width:0.8;" x="636.2496" xlink:href="#m5a16a78c19" y="492.275784"/>
      </g>
     </g>
     <g id="text_71">
      <!-- 0.8 -->
      <g transform="translate(632.450381 499.275784)rotate(-270)scale(0.1 -0.1)">
       <use xlink:href="#DejaVuSans-48"/>
       <use x="63.623047" xlink:href="#DejaVuSans-46"/>
       <use x="95.410156" xlink:href="#DejaVuSans-56"/>
      </g>
     </g>
    </g>
    <g id="xtick_60">
     <g id="line2d_63">
      <g>
       <use style="stroke:#000000;stroke-width:0.8;" x="676.8" xlink:href="#m5a16a78c19" y="468.864"/>
      </g>
     </g>
     <g id="text_72">
      <!-- 1.0 -->
      <g transform="translate(673.000781 475.864)rotate(-270)scale(0.1 -0.1)">
       <use xlink:href="#DejaVuSans-49"/>
       <use x="63.623047" xlink:href="#DejaVuSans-46"/>
       <use x="95.410156" xlink:href="#DejaVuSans-48"/>
      </g>
     </g>
    </g>
    <g id="text_73">
     <!-- Top -->
     <g transform="translate(705.653829 459.589781)rotate(-270)scale(0.1 -0.1)">
      <use xlink:href="#DejaVuSans-84"/>
      <use x="60.818359" xlink:href="#DejaVuSans-111"/>
      <use x="122" xlink:href="#DejaVuSans-112"/>
     </g>
    </g>
   </g>
   <g id="matplotlib.axis_11">
    <g id="xtick_61">
     <g id="line2d_64">
      <defs>
       <path d="M 0 0 
L 3.031089 -1.75 
" id="mc80561593f" style="stroke:#000000;stroke-width:0.8;"/>
      </defs>
      <g>
       <use style="stroke:#000000;stroke-width:0.8;" x="676.8" xlink:href="#mc80561593f" y="468.864"/>
      </g>
     </g>
     <g id="text_74">
      <!-- 0.0 -->
      <g transform="translate(684.761787 468.65422)rotate(-30)scale(0.1 -0.1)">
       <use xlink:href="#DejaVuSans-48"/>
       <use x="63.623047" xlink:href="#DejaVuSans-46"/>
       <use x="95.410156" xlink:href="#DejaVuSans-48"/>
      </g>
     </g>
    </g>
    <g id="xtick_62">
     <g id="line2d_65">
      <g>
       <use style="stroke:#000000;stroke-width:0.8;" x="636.2496" xlink:href="#mc80561593f" y="445.452216"/>
      </g>
     </g>
     <g id="text_75">
      <!-- 0.2 -->
      <g transform="translate(644.211387 445.242436)rotate(-30)scale(0.1 -0.1)">
       <use xlink:href="#DejaVuSans-48"/>
       <use x="63.623047" xlink:href="#DejaVuSans-46"/>
       <use x="95.410156" xlink:href="#DejaVuSans-50"/>
      </g>
     </g>
    </g>
    <g id="xtick_63">
     <g id="line2d_66">
      <g>
       <use style="stroke:#000000;stroke-width:0.8;" x="595.6992" xlink:href="#mc80561593f" y="422.040431"/>
      </g>
     </g>
     <g id="text_76">
      <!-- 0.4 -->
      <g transform="translate(603.660987 421.830651)rotate(-30)scale(0.1 -0.1)">
       <use xlink:href="#DejaVuSans-48"/>
       <use x="63.623047" xlink:href="#DejaVuSans-46"/>
       <use x="95.410156" xlink:href="#DejaVuSans-52"/>
      </g>
     </g>
    </g>
    <g id="xtick_64">
     <g id="line2d_67">
      <g>
       <use style="stroke:#000000;stroke-width:0.8;" x="555.1488" xlink:href="#mc80561593f" y="398.628647"/>
      </g>
     </g>
     <g id="text_77">
      <!-- 0.6 -->
      <g transform="translate(563.110587 398.418867)rotate(-30)scale(0.1 -0.1)">
       <use xlink:href="#DejaVuSans-48"/>
       <use x="63.623047" xlink:href="#DejaVuSans-46"/>
       <use x="95.410156" xlink:href="#DejaVuSans-54"/>
      </g>
     </g>
    </g>
    <g id="xtick_65">
     <g id="line2d_68">
      <g>
       <use style="stroke:#000000;stroke-width:0.8;" x="514.5984" xlink:href="#mc80561593f" y="375.216863"/>
      </g>
     </g>
     <g id="text_78">
      <!-- 0.8 -->
      <g transform="translate(522.560187 375.007083)rotate(-30)scale(0.1 -0.1)">
       <use xlink:href="#DejaVuSans-48"/>
       <use x="63.623047" xlink:href="#DejaVuSans-46"/>
       <use x="95.410156" xlink:href="#DejaVuSans-56"/>
      </g>
     </g>
    </g>
    <g id="xtick_66">
     <g id="line2d_69">
      <g>
       <use style="stroke:#000000;stroke-width:0.8;" x="474.048" xlink:href="#mc80561593f" y="351.805078"/>
      </g>
     </g>
     <g id="text_79">
      <!-- 1.0 -->
      <g transform="translate(482.009787 351.595298)rotate(-30)scale(0.1 -0.1)">
       <use xlink:href="#DejaVuSans-49"/>
       <use x="63.623047" xlink:href="#DejaVuSans-46"/>
       <use x="95.410156" xlink:href="#DejaVuSans-48"/>
      </g>
     </g>
    </g>
    <g id="text_80">
     <!-- Left -->
     <g transform="translate(451.843402 332.508086)rotate(-30)scale(0.1 -0.1)">
      <use xlink:href="#DejaVuSans-76"/>
      <use x="55.697266" xlink:href="#DejaVuSans-101"/>
      <use x="117.220703" xlink:href="#DejaVuSans-102"/>
      <use x="152.410156" xlink:href="#DejaVuSans-116"/>
     </g>
    </g>
   </g>
   <g id="matplotlib.axis_12">
    <g id="xtick_67">
     <g id="line2d_70">
      <defs>
       <path d="M 0 0 
L -3.031089 -1.75 
" id="ma6450c58d3" style="stroke:#000000;stroke-width:0.8;"/>
      </defs>
      <g>
       <use style="stroke:#000000;stroke-width:0.8;" x="474.048" xlink:href="#ma6450c58d3" y="351.805078"/>
      </g>
     </g>
     <g id="text_81">
      <!-- 0.0 -->
      <g transform="translate(452.313703 343.643736)rotate(-330)scale(0.1 -0.1)">
       <use xlink:href="#DejaVuSans-48"/>
       <use x="63.623047" xlink:href="#DejaVuSans-46"/>
       <use x="95.410156" xlink:href="#DejaVuSans-48"/>
      </g>
     </g>
    </g>
    <g id="xtick_68">
     <g id="line2d_71">
      <g>
       <use style="stroke:#000000;stroke-width:0.8;" x="474.048" xlink:href="#ma6450c58d3" y="398.628647"/>
      </g>
     </g>
     <g id="text_82">
      <!-- 0.2 -->
      <g transform="translate(452.313703 390.467304)rotate(-330)scale(0.1 -0.1)">
       <use xlink:href="#DejaVuSans-48"/>
       <use x="63.623047" xlink:href="#DejaVuSans-46"/>
       <use x="95.410156" xlink:href="#DejaVuSans-50"/>
      </g>
     </g>
    </g>
    <g id="xtick_69">
     <g id="line2d_72">
      <g>
       <use style="stroke:#000000;stroke-width:0.8;" x="474.048" xlink:href="#ma6450c58d3" y="445.452216"/>
      </g>
     </g>
     <g id="text_83">
      <!-- 0.4 -->
      <g transform="translate(452.313703 437.290873)rotate(-330)scale(0.1 -0.1)">
       <use xlink:href="#DejaVuSans-48"/>
       <use x="63.623047" xlink:href="#DejaVuSans-46"/>
       <use x="95.410156" xlink:href="#DejaVuSans-52"/>
      </g>
     </g>
    </g>
    <g id="xtick_70">
     <g id="line2d_73">
      <g>
       <use style="stroke:#000000;stroke-width:0.8;" x="474.048" xlink:href="#ma6450c58d3" y="492.275784"/>
      </g>
     </g>
     <g id="text_84">
      <!-- 0.6 -->
      <g transform="translate(452.313703 484.114442)rotate(-330)scale(0.1 -0.1)">
       <use xlink:href="#DejaVuSans-48"/>
       <use x="63.623047" xlink:href="#DejaVuSans-46"/>
       <use x="95.410156" xlink:href="#DejaVuSans-54"/>
      </g>
     </g>
    </g>
    <g id="xtick_71">
     <g id="line2d_74">
      <g>
       <use style="stroke:#000000;stroke-width:0.8;" x="474.048" xlink:href="#ma6450c58d3" y="539.099353"/>
      </g>
     </g>
     <g id="text_85">
      <!-- 0.8 -->
      <g transform="translate(452.313703 530.938011)rotate(-330)scale(0.1 -0.1)">
       <use xlink:href="#DejaVuSans-48"/>
       <use x="63.623047" xlink:href="#DejaVuSans-46"/>
       <use x="95.410156" xlink:href="#DejaVuSans-56"/>
      </g>
     </g>
    </g>
    <g id="xtick_72">
     <g id="line2d_75">
      <g>
       <use style="stroke:#000000;stroke-width:0.8;" x="474.048" xlink:href="#ma6450c58d3" y="585.922922"/>
      </g>
     </g>
     <g id="text_86">
      <!-- 1.0 -->
      <g transform="translate(452.313703 577.761579)rotate(-330)scale(0.1 -0.1)">
       <use xlink:href="#DejaVuSans-49"/>
       <use x="63.623047" xlink:href="#DejaVuSans-46"/>
       <use x="95.410156" xlink:href="#DejaVuSans-48"/>
      </g>
     </g>
    </g>
    <g id="text_87">
     <!-- Right -->
     <g transform="translate(445.459268 609.107245)rotate(-330)scale(0.1 -0.1)">
      <use xlink:href="#DejaVuSans-82"/>
      <use x="69.482422" xlink:href="#DejaVuSans-105"/>
      <use x="97.265625" xlink:href="#DejaVuSans-103"/>
      <use x="160.742188" xlink:href="#DejaVuSans-104"/>
      <use x="224.121094" xlink:href="#DejaVuSans-116"/>
     </g>
    </g>
   </g>
   <g id="line2d_76">
    <path clip-path="url(#p946b3109fb)" d="M 541.632 468.864 
L 541.828833 468.258211 
L 542.380796 467.83337 
L 543.177945 467.740806 
L 543.618387 467.851885 
L 544.055156 468.076669 
L 544.463049 468.415606 
L 544.816821 468.864 
L 545.092172 469.412037 
L 545.266734 470.044997 
L 545.321005 470.743642 
L 545.239204 471.484787 
L 545.010013 472.242013 
L 544.627185 472.986519 
L 544.089993 473.688084 
L 543.403495 474.316101 
L 542.57861 474.84066 
L 541.632 475.233642 
L 540.585747 475.469782 
L 539.46684 475.527678 
L 538.30648 475.390701 
L 537.139222 475.047778 
L 536.001979 474.494021 
L 534.932907 473.731176 
L 533.97022 472.767872 
L 533.150955 471.619659 
L 532.509729 470.308826 
L 532.077537 468.864 
L 531.880607 467.319531 
L 531.939377 465.714676 
L 532.267602 464.092601 
L 532.871647 462.499231 
L 533.74997 460.98197 
L 534.892833 459.588333 
L 536.28225 458.364524 
L 537.892178 457.35401 
L 539.688959 456.596119 
L 541.632 456.124716 
L 543.674685 455.966997 
L 545.765488 456.142432 
L 547.849277 456.661906 
L 549.86876 457.527073 
L 551.766038 458.729962 
L 553.484242 460.252842 
L 554.969172 462.068371 
L 556.170935 464.140014 
L 557.045492 466.422743 
L 557.556105 468.864 
L 557.674614 471.4049 
L 557.382513 473.981652 
L 556.67179 476.527156 
L 555.545501 478.97275 
L 554.018047 481.250047 
L 552.115148 483.292816 
L 549.873507 485.038869 
L 547.34015 486.431879 
L 544.571473 487.423102 
L 541.632 487.972926 
L 538.592884 488.052224 
L 535.530184 487.643457 
L 532.522966 486.741486 
L 529.651259 485.354075 
L 526.993945 483.502055 
L 524.62661 481.219139 
L 522.619435 478.551386 
L 521.035176 475.556314 
L 519.927287 472.301689 
L 519.338253 468.864 
L 519.298165 465.326668 
L 519.823598 461.778021 
L 520.916817 458.309087 
L 522.56535 455.011268 
L 524.741936 451.973936 
L 527.40487 449.282035 
L 530.498736 447.013739 
L 533.955522 445.238231 
L 537.696095 444.013677 
L 541.632 443.385432 
L 545.667548 443.384555 
L 549.702143 444.026653 
L 553.632791 445.311121 
L 557.356723 447.220776 
L 560.774072 449.721928 
L 563.790539 452.764879 
L 566.319957 456.284857 
L 568.286714 460.203359 
L 569.627934 464.42988 
L 570.295389 468.864 
L 570.257056 473.397763 
L 569.498292 477.918307 
L 568.022575 482.31067 
L 565.851798 486.460713 
L 563.026081 490.258081 
L 559.603112 493.599113 
L 555.657021 496.389654 
L 551.276805 498.547658 
L 546.564336 500.005544 
L 541.632 500.71221 
L 536.600021 500.634666 
L 531.593529 499.759236 
L 526.739452 498.092271 
L 522.163296 495.660373 
L 517.985911 492.510089 
L 514.320313 488.707102 
L 511.26865 484.3349 
L 508.919397 479.492969 
L 507.344845 474.294552 
L 506.598969 468.864 
L 506.715723 463.333805 
L 507.707819 457.841365 
L 509.566032 452.525573 
L 512.259053 447.523305 
L 515.733902 442.965902 
L 519.916907 438.975738 
L 524.715222 435.662954 
L 530.018867 433.122452 
L 535.703232 431.431235 
L 541.632 430.646148 
L 547.660411 430.802112 
L 553.638798 431.910874 
L 559.416305 433.960336 
L 564.844686 436.914479 
L 569.782106 440.713894 
L 574.096836 445.276916 
L 577.670743 450.501344 
L 580.402493 456.266703 
L 582.210376 462.437017 
L 583.034673 468.864 
L 582.839498 475.390627 
L 581.614071 481.854962 
L 579.37336 488.094184 
L 576.158095 493.948677 
L 572.034115 499.266115 
L 567.091075 503.90541 
L 561.440535 507.740439 
L 555.21346 510.663437 
L 548.557199 512.587986 
L 541.632 513.451494 
L 534.607158 513.217109 
L 527.656874 511.875015 
L 520.955938 509.443057 
L 514.675333 505.96667 
L 508.977877 501.518123 
L 504.014015 496.195066 
L 499.917865 490.118413 
L 496.803618 483.429624 
L 494.762403 476.287415 
L 493.859685 468.864 
L 494.133281 461.340942 
L 495.59204 453.90471 
L 498.215247 446.74206 
L 501.952756 440.035342 
L 506.725868 433.957868 
L 512.428944 428.669441 
L 518.931708 424.312169 
L 526.082212 421.006673 
L 533.710369 418.848792 
L 541.632 417.906865 
L 549.653274 418.21967 
L 557.575454 419.795095 
L 565.199819 422.609551 
L 572.332649 426.608182 
L 578.79014 431.70586 
L 584.403133 437.788953 
L 589.021528 444.71783 
L 592.518272 452.330048 
L 594.792818 460.444154 
L 595.773956 468.864 
L 595.42194 477.38349 
L 593.729849 485.791617 
L 590.724145 493.877697 
L 586.464393 501.43664 
L 581.042149 508.274149 
L 574.579038 514.211707 
L 567.224049 519.091224 
L 559.150116 522.779216 
L 550.550062 525.170429 
L 541.632 526.190777 
L 532.614295 525.799551 
L 523.720219 523.990794 
L 515.172424 520.793842 
L 507.187369 516.272967 
L 499.969843 510.526157 
L 493.707718 503.683029 
L 488.56708 495.901927 
L 484.687839 487.36628 
L 482.179961 478.280278 
L 481.120402 468.864 
L 481.550839 459.348079 
L 483.476261 449.968055 
L 486.864462 440.958546 
L 491.646459 432.547379 
L 497.717834 424.949834 
L 504.94098 418.363144 
L 513.148194 412.961384 
L 522.145557 408.890894 
L 531.717506 406.26635 
L 541.632 405.167581 
L 541.632 405.167581 
" style="fill:none;stroke:#1f77b4;stroke-linecap:square;stroke-width:1.5;"/>
   </g>
   <g id="patch_15">
    <path d="M 474.048 351.805078 
L 474.048 585.922922 
" style="fill:none;stroke:#000000;stroke-linecap:square;stroke-linejoin:miter;stroke-width:0.8;"/>
   </g>
   <g id="patch_16">
    <path d="M 474.048 585.922922 
L 676.8 468.864 
" style="fill:none;stroke:#000000;stroke-linecap:square;stroke-linejoin:miter;stroke-width:0.8;"/>
   </g>
   <g id="patch_17">
    <path d="M 676.8 468.864 
L 474.048 351.805078 
" style="fill:none;stroke:#000000;stroke-linecap:square;stroke-linejoin:miter;stroke-width:0.8;"/>
   </g>
   <g id="text_88">
    <!-- rotation=270 -->
    <defs>
     <path d="M 8.203125 72.90625 
L 55.078125 72.90625 
L 55.078125 68.703125 
L 28.609375 0 
L 18.3125 0 
L 43.21875 64.59375 
L 8.203125 64.59375 
z
" id="DejaVuSans-55"/>
    </defs>
    <g transform="translate(535.285875 325.488)scale(0.12 -0.12)">
     <use xlink:href="#DejaVuSans-114"/>
     <use x="41.082031" xlink:href="#DejaVuSans-111"/>
     <use x="102.263672" xlink:href="#DejaVuSans-116"/>
     <use x="141.472656" xlink:href="#DejaVuSans-97"/>
     <use x="202.751953" xlink:href="#DejaVuSans-116"/>
     <use x="241.960938" xlink:href="#DejaVuSans-105"/>
     <use x="269.744141" xlink:href="#DejaVuSans-111"/>
     <use x="330.925781" xlink:href="#DejaVuSans-110"/>
     <use x="394.304688" xlink:href="#DejaVuSans-61"/>
     <use x="478.09375" xlink:href="#DejaVuSans-50"/>
     <use x="541.716797" xlink:href="#DejaVuSans-55"/>
     <use x="605.339844" xlink:href="#DejaVuSans-48"/>
    </g>
   </g>
  </g>
 </g>
 <defs>
  <clipPath id="p6f82d02292">
   <path d="M 202.176 63.36 
L 85.117078 266.112 
L 319.234922 266.112 
z
"/>
  </clipPath>
  <clipPath id="pb1011a5b54">
   <path d="M 474.048 164.736 
L 676.8 281.794922 
L 676.8 47.677078 
z
"/>
  </clipPath>
  <clipPath id="pa333241cef">
   <path d="M 202.176 570.24 
L 319.234922 367.488 
L 85.117078 367.488 
z
"/>
  </clipPath>
  <clipPath id="p946b3109fb">
   <path d="M 676.8 468.864 
L 474.048 351.805078 
L 474.048 585.922922 
z
"/>
  </clipPath>
 </defs>
</svg>
