<?xml version="1.0" encoding="utf-8" standalone="no"?>
<!DOCTYPE svg PUBLIC "-//W3C//DTD SVG 1.1//EN"
  "http://www.w3.org/Graphics/SVG/1.1/DTD/svg11.dtd">
<!-- Created with matplotlib (https://matplotlib.org/) -->
<svg height="345.6pt" version="1.1" viewBox="0 0 777.6 345.6" width="777.6pt" xmlns="http://www.w3.org/2000/svg" xmlns:xlink="http://www.w3.org/1999/xlink">
 <defs>
  <style type="text/css">
*{stroke-linecap:butt;stroke-linejoin:round;}
  </style>
 </defs>
 <g id="figure_1">
  <g id="patch_1">
   <path d="M 0 345.6 
L 777.6 345.6 
L 777.6 0 
L 0 0 
z
" style="fill:#ffffff;"/>
  </g>
  <g id="axes_1">
   <g id="patch_2">
    <path d="M 212.956364 41.472 
L 59.316529 307.584 
L 366.596198 307.584 
z
" style="fill:#ffffff;"/>
   </g>
   <g id="matplotlib.axis_1">
    <g id="xtick_1">
     <g id="line2d_1">
      <defs>
       <path d="M 0 0 
L 3.5 0 
" id="mf0af6dea6c" style="stroke:#000000;stroke-width:0.8;"/>
      </defs>
      <g>
       <use style="stroke:#000000;stroke-width:0.8;" x="366.596198" xlink:href="#mf0af6dea6c" y="307.584"/>
      </g>
     </g>
     <g id="text_1">
      <!-- 0.0 -->
      <defs>
       <path d="M 31.78125 66.40625 
Q 24.171875 66.40625 20.328125 58.90625 
Q 16.5 51.421875 16.5 36.375 
Q 16.5 21.390625 20.328125 13.890625 
Q 24.171875 6.390625 31.78125 6.390625 
Q 39.453125 6.390625 43.28125 13.890625 
Q 47.125 21.390625 47.125 36.375 
Q 47.125 51.421875 43.28125 58.90625 
Q 39.453125 66.40625 31.78125 66.40625 
z
M 31.78125 74.21875 
Q 44.046875 74.21875 50.515625 64.515625 
Q 56.984375 54.828125 56.984375 36.375 
Q 56.984375 17.96875 50.515625 8.265625 
Q 44.046875 -1.421875 31.78125 -1.421875 
Q 19.53125 -1.421875 13.0625 8.265625 
Q 6.59375 17.96875 6.59375 36.375 
Q 6.59375 54.828125 13.0625 64.515625 
Q 19.53125 74.21875 31.78125 74.21875 
z
" id="DejaVuSans-48"/>
       <path d="M 10.6875 12.40625 
L 21 12.40625 
L 21 0 
L 10.6875 0 
z
" id="DejaVuSans-46"/>
      </defs>
      <g transform="translate(373.596198 311.383219)scale(0.1 -0.1)">
       <use xlink:href="#DejaVuSans-48"/>
       <use x="63.623047" xlink:href="#DejaVuSans-46"/>
       <use x="95.410156" xlink:href="#DejaVuSans-48"/>
      </g>
     </g>
    </g>
    <g id="xtick_2">
     <g id="line2d_2">
      <g>
       <use style="stroke:#000000;stroke-width:0.8;" x="335.868232" xlink:href="#mf0af6dea6c" y="254.3616"/>
      </g>
     </g>
     <g id="text_2">
      <!-- 0.2 -->
      <defs>
       <path d="M 19.1875 8.296875 
L 53.609375 8.296875 
L 53.609375 0 
L 7.328125 0 
L 7.328125 8.296875 
Q 12.9375 14.109375 22.625 23.890625 
Q 32.328125 33.6875 34.8125 36.53125 
Q 39.546875 41.84375 41.421875 45.53125 
Q 43.3125 49.21875 43.3125 52.78125 
Q 43.3125 58.59375 39.234375 62.25 
Q 35.15625 65.921875 28.609375 65.921875 
Q 23.96875 65.921875 18.8125 64.3125 
Q 13.671875 62.703125 7.8125 59.421875 
L 7.8125 69.390625 
Q 13.765625 71.78125 18.9375 73 
Q 24.125 74.21875 28.421875 74.21875 
Q 39.75 74.21875 46.484375 68.546875 
Q 53.21875 62.890625 53.21875 53.421875 
Q 53.21875 48.921875 51.53125 44.890625 
Q 49.859375 40.875 45.40625 35.40625 
Q 44.1875 33.984375 37.640625 27.21875 
Q 31.109375 20.453125 19.1875 8.296875 
z
" id="DejaVuSans-50"/>
      </defs>
      <g transform="translate(342.868232 258.160819)scale(0.1 -0.1)">
       <use xlink:href="#DejaVuSans-48"/>
       <use x="63.623047" xlink:href="#DejaVuSans-46"/>
       <use x="95.410156" xlink:href="#DejaVuSans-50"/>
      </g>
     </g>
    </g>
    <g id="xtick_3">
     <g id="line2d_3">
      <g>
       <use style="stroke:#000000;stroke-width:0.8;" x="305.140265" xlink:href="#mf0af6dea6c" y="201.1392"/>
      </g>
     </g>
     <g id="text_3">
      <!-- 0.4 -->
      <defs>
       <path d="M 37.796875 64.3125 
L 12.890625 25.390625 
L 37.796875 25.390625 
z
M 35.203125 72.90625 
L 47.609375 72.90625 
L 47.609375 25.390625 
L 58.015625 25.390625 
L 58.015625 17.1875 
L 47.609375 17.1875 
L 47.609375 0 
L 37.796875 0 
L 37.796875 17.1875 
L 4.890625 17.1875 
L 4.890625 26.703125 
z
" id="DejaVuSans-52"/>
      </defs>
      <g transform="translate(312.140265 204.938419)scale(0.1 -0.1)">
       <use xlink:href="#DejaVuSans-48"/>
       <use x="63.623047" xlink:href="#DejaVuSans-46"/>
       <use x="95.410156" xlink:href="#DejaVuSans-52"/>
      </g>
     </g>
    </g>
    <g id="xtick_4">
     <g id="line2d_4">
      <g>
       <use style="stroke:#000000;stroke-width:0.8;" x="274.412298" xlink:href="#mf0af6dea6c" y="147.9168"/>
      </g>
     </g>
     <g id="text_4">
      <!-- 0.6 -->
      <defs>
       <path d="M 33.015625 40.375 
Q 26.375 40.375 22.484375 35.828125 
Q 18.609375 31.296875 18.609375 23.390625 
Q 18.609375 15.53125 22.484375 10.953125 
Q 26.375 6.390625 33.015625 6.390625 
Q 39.65625 6.390625 43.53125 10.953125 
Q 47.40625 15.53125 47.40625 23.390625 
Q 47.40625 31.296875 43.53125 35.828125 
Q 39.65625 40.375 33.015625 40.375 
z
M 52.59375 71.296875 
L 52.59375 62.3125 
Q 48.875 64.0625 45.09375 64.984375 
Q 41.3125 65.921875 37.59375 65.921875 
Q 27.828125 65.921875 22.671875 59.328125 
Q 17.53125 52.734375 16.796875 39.40625 
Q 19.671875 43.65625 24.015625 45.921875 
Q 28.375 48.1875 33.59375 48.1875 
Q 44.578125 48.1875 50.953125 41.515625 
Q 57.328125 34.859375 57.328125 23.390625 
Q 57.328125 12.15625 50.6875 5.359375 
Q 44.046875 -1.421875 33.015625 -1.421875 
Q 20.359375 -1.421875 13.671875 8.265625 
Q 6.984375 17.96875 6.984375 36.375 
Q 6.984375 53.65625 15.1875 63.9375 
Q 23.390625 74.21875 37.203125 74.21875 
Q 40.921875 74.21875 44.703125 73.484375 
Q 48.484375 72.75 52.59375 71.296875 
z
" id="DejaVuSans-54"/>
      </defs>
      <g transform="translate(281.412298 151.716019)scale(0.1 -0.1)">
       <use xlink:href="#DejaVuSans-48"/>
       <use x="63.623047" xlink:href="#DejaVuSans-46"/>
       <use x="95.410156" xlink:href="#DejaVuSans-54"/>
      </g>
     </g>
    </g>
    <g id="xtick_5">
     <g id="line2d_5">
      <g>
       <use style="stroke:#000000;stroke-width:0.8;" x="243.684331" xlink:href="#mf0af6dea6c" y="94.6944"/>
      </g>
     </g>
     <g id="text_5">
      <!-- 0.8 -->
      <defs>
       <path d="M 31.78125 34.625 
Q 24.75 34.625 20.71875 30.859375 
Q 16.703125 27.09375 16.703125 20.515625 
Q 16.703125 13.921875 20.71875 10.15625 
Q 24.75 6.390625 31.78125 6.390625 
Q 38.8125 6.390625 42.859375 10.171875 
Q 46.921875 13.96875 46.921875 20.515625 
Q 46.921875 27.09375 42.890625 30.859375 
Q 38.875 34.625 31.78125 34.625 
z
M 21.921875 38.8125 
Q 15.578125 40.375 12.03125 44.71875 
Q 8.5 49.078125 8.5 55.328125 
Q 8.5 64.0625 14.71875 69.140625 
Q 20.953125 74.21875 31.78125 74.21875 
Q 42.671875 74.21875 48.875 69.140625 
Q 55.078125 64.0625 55.078125 55.328125 
Q 55.078125 49.078125 51.53125 44.71875 
Q 48 40.375 41.703125 38.8125 
Q 48.828125 37.15625 52.796875 32.3125 
Q 56.78125 27.484375 56.78125 20.515625 
Q 56.78125 9.90625 50.3125 4.234375 
Q 43.84375 -1.421875 31.78125 -1.421875 
Q 19.734375 -1.421875 13.25 4.234375 
Q 6.78125 9.90625 6.78125 20.515625 
Q 6.78125 27.484375 10.78125 32.3125 
Q 14.796875 37.15625 21.921875 38.8125 
z
M 18.3125 54.390625 
Q 18.3125 48.734375 21.84375 45.5625 
Q 25.390625 42.390625 31.78125 42.390625 
Q 38.140625 42.390625 41.71875 45.5625 
Q 45.3125 48.734375 45.3125 54.390625 
Q 45.3125 60.0625 41.71875 63.234375 
Q 38.140625 66.40625 31.78125 66.40625 
Q 25.390625 66.40625 21.84375 63.234375 
Q 18.3125 60.0625 18.3125 54.390625 
z
" id="DejaVuSans-56"/>
      </defs>
      <g transform="translate(250.684331 98.493619)scale(0.1 -0.1)">
       <use xlink:href="#DejaVuSans-48"/>
       <use x="63.623047" xlink:href="#DejaVuSans-46"/>
       <use x="95.410156" xlink:href="#DejaVuSans-56"/>
      </g>
     </g>
    </g>
    <g id="xtick_6">
     <g id="line2d_6">
      <g>
       <use style="stroke:#000000;stroke-width:0.8;" x="212.956364" xlink:href="#mf0af6dea6c" y="41.472"/>
      </g>
     </g>
     <g id="text_6">
      <!-- 1.0 -->
      <defs>
       <path d="M 12.40625 8.296875 
L 28.515625 8.296875 
L 28.515625 63.921875 
L 10.984375 60.40625 
L 10.984375 69.390625 
L 28.421875 72.90625 
L 38.28125 72.90625 
L 38.28125 8.296875 
L 54.390625 8.296875 
L 54.390625 0 
L 12.40625 0 
z
" id="DejaVuSans-49"/>
      </defs>
      <g transform="translate(219.956364 45.271219)scale(0.1 -0.1)">
       <use xlink:href="#DejaVuSans-49"/>
       <use x="63.623047" xlink:href="#DejaVuSans-46"/>
       <use x="95.410156" xlink:href="#DejaVuSans-48"/>
      </g>
     </g>
    </g>
   </g>
   <g id="matplotlib.axis_2">
    <g id="xtick_7">
     <g id="line2d_7">
      <defs>
       <path d="M 0 0 
L -1.75 -3.031089 
" id="m0ae1e54386" style="stroke:#000000;stroke-width:0.8;"/>
      </defs>
      <g>
       <use style="stroke:#000000;stroke-width:0.8;" x="212.956364" xlink:href="#m0ae1e54386" y="41.472"/>
      </g>
     </g>
     <g id="text_7">
      <!-- 0.0 -->
      <g transform="translate(198.214581 23.536921)rotate(-300)scale(0.1 -0.1)">
       <use xlink:href="#DejaVuSans-48"/>
       <use x="63.623047" xlink:href="#DejaVuSans-46"/>
       <use x="95.410156" xlink:href="#DejaVuSans-48"/>
      </g>
     </g>
    </g>
    <g id="xtick_8">
     <g id="line2d_8">
      <g>
       <use style="stroke:#000000;stroke-width:0.8;" x="182.228397" xlink:href="#m0ae1e54386" y="94.6944"/>
      </g>
     </g>
     <g id="text_8">
      <!-- 0.2 -->
      <g transform="translate(167.486614 76.759321)rotate(-300)scale(0.1 -0.1)">
       <use xlink:href="#DejaVuSans-48"/>
       <use x="63.623047" xlink:href="#DejaVuSans-46"/>
       <use x="95.410156" xlink:href="#DejaVuSans-50"/>
      </g>
     </g>
    </g>
    <g id="xtick_9">
     <g id="line2d_9">
      <g>
       <use style="stroke:#000000;stroke-width:0.8;" x="151.50043" xlink:href="#m0ae1e54386" y="147.9168"/>
      </g>
     </g>
     <g id="text_9">
      <!-- 0.4 -->
      <g transform="translate(136.758647 129.981721)rotate(-300)scale(0.1 -0.1)">
       <use xlink:href="#DejaVuSans-48"/>
       <use x="63.623047" xlink:href="#DejaVuSans-46"/>
       <use x="95.410156" xlink:href="#DejaVuSans-52"/>
      </g>
     </g>
    </g>
    <g id="xtick_10">
     <g id="line2d_10">
      <g>
       <use style="stroke:#000000;stroke-width:0.8;" x="120.772463" xlink:href="#m0ae1e54386" y="201.1392"/>
      </g>
     </g>
     <g id="text_10">
      <!-- 0.6 -->
      <g transform="translate(106.03068 183.204121)rotate(-300)scale(0.1 -0.1)">
       <use xlink:href="#DejaVuSans-48"/>
       <use x="63.623047" xlink:href="#DejaVuSans-46"/>
       <use x="95.410156" xlink:href="#DejaVuSans-54"/>
      </g>
     </g>
    </g>
    <g id="xtick_11">
     <g id="line2d_11">
      <g>
       <use style="stroke:#000000;stroke-width:0.8;" x="90.044496" xlink:href="#m0ae1e54386" y="254.3616"/>
      </g>
     </g>
     <g id="text_11">
      <!-- 0.8 -->
      <g transform="translate(75.302713 236.426521)rotate(-300)scale(0.1 -0.1)">
       <use xlink:href="#DejaVuSans-48"/>
       <use x="63.623047" xlink:href="#DejaVuSans-46"/>
       <use x="95.410156" xlink:href="#DejaVuSans-56"/>
      </g>
     </g>
    </g>
    <g id="xtick_12">
     <g id="line2d_12">
      <g>
       <use style="stroke:#000000;stroke-width:0.8;" x="59.316529" xlink:href="#m0ae1e54386" y="307.584"/>
      </g>
     </g>
     <g id="text_12">
      <!-- 1.0 -->
      <g transform="translate(44.574746 289.648921)rotate(-300)scale(0.1 -0.1)">
       <use xlink:href="#DejaVuSans-49"/>
       <use x="63.623047" xlink:href="#DejaVuSans-46"/>
       <use x="95.410156" xlink:href="#DejaVuSans-48"/>
      </g>
     </g>
    </g>
   </g>
   <g id="matplotlib.axis_3">
    <g id="xtick_13">
     <g id="line2d_13">
      <defs>
       <path d="M 0 0 
L -1.75 3.031089 
" id="md3ef507275" style="stroke:#000000;stroke-width:0.8;"/>
      </defs>
      <g>
       <use style="stroke:#000000;stroke-width:0.8;" x="59.316529" xlink:href="#md3ef507275" y="307.584"/>
      </g>
     </g>
     <g id="text_13">
      <!-- 0.0 -->
      <g transform="translate(51.155186 329.318297)rotate(-60)scale(0.1 -0.1)">
       <use xlink:href="#DejaVuSans-48"/>
       <use x="63.623047" xlink:href="#DejaVuSans-46"/>
       <use x="95.410156" xlink:href="#DejaVuSans-48"/>
      </g>
     </g>
    </g>
    <g id="xtick_14">
     <g id="line2d_14">
      <g>
       <use style="stroke:#000000;stroke-width:0.8;" x="120.772463" xlink:href="#md3ef507275" y="307.584"/>
      </g>
     </g>
     <g id="text_14">
      <!-- 0.2 -->
      <g transform="translate(112.61112 329.318297)rotate(-60)scale(0.1 -0.1)">
       <use xlink:href="#DejaVuSans-48"/>
       <use x="63.623047" xlink:href="#DejaVuSans-46"/>
       <use x="95.410156" xlink:href="#DejaVuSans-50"/>
      </g>
     </g>
    </g>
    <g id="xtick_15">
     <g id="line2d_15">
      <g>
       <use style="stroke:#000000;stroke-width:0.8;" x="182.228397" xlink:href="#md3ef507275" y="307.584"/>
      </g>
     </g>
     <g id="text_15">
      <!-- 0.4 -->
      <g transform="translate(174.067054 329.318297)rotate(-60)scale(0.1 -0.1)">
       <use xlink:href="#DejaVuSans-48"/>
       <use x="63.623047" xlink:href="#DejaVuSans-46"/>
       <use x="95.410156" xlink:href="#DejaVuSans-52"/>
      </g>
     </g>
    </g>
    <g id="xtick_16">
     <g id="line2d_16">
      <g>
       <use style="stroke:#000000;stroke-width:0.8;" x="243.684331" xlink:href="#md3ef507275" y="307.584"/>
      </g>
     </g>
     <g id="text_16">
      <!-- 0.6 -->
      <g transform="translate(235.522988 329.318297)rotate(-60)scale(0.1 -0.1)">
       <use xlink:href="#DejaVuSans-48"/>
       <use x="63.623047" xlink:href="#DejaVuSans-46"/>
       <use x="95.410156" xlink:href="#DejaVuSans-54"/>
      </g>
     </g>
    </g>
    <g id="xtick_17">
     <g id="line2d_17">
      <g>
       <use style="stroke:#000000;stroke-width:0.8;" x="305.140265" xlink:href="#md3ef507275" y="307.584"/>
      </g>
     </g>
     <g id="text_17">
      <!-- 0.8 -->
      <g transform="translate(296.978922 329.318297)rotate(-60)scale(0.1 -0.1)">
       <use xlink:href="#DejaVuSans-48"/>
       <use x="63.623047" xlink:href="#DejaVuSans-46"/>
       <use x="95.410156" xlink:href="#DejaVuSans-56"/>
      </g>
     </g>
    </g>
    <g id="xtick_18">
     <g id="line2d_18">
      <g>
       <use style="stroke:#000000;stroke-width:0.8;" x="366.596198" xlink:href="#md3ef507275" y="307.584"/>
      </g>
     </g>
     <g id="text_18">
      <!-- 1.0 -->
      <g transform="translate(358.434856 329.318297)rotate(-60)scale(0.1 -0.1)">
       <use xlink:href="#DejaVuSans-49"/>
       <use x="63.623047" xlink:href="#DejaVuSans-46"/>
       <use x="95.410156" xlink:href="#DejaVuSans-48"/>
      </g>
     </g>
    </g>
   </g>
   <g id="line2d_19">
    <path clip-path="url(#p04f071503e)" d="M 212.956364 218.88 
L 212.543502 218.814609 
L 212.161266 218.621657 
L 211.839021 218.310685 
L 211.603662 217.897205 
L 211.478483 217.402119 
L 211.482171 216.850948 
L 211.627963 216.272867 
L 211.922992 215.699608 
L 212.367846 215.164248 
L 212.956364 214.699922 
L 213.675663 214.338525 
L 214.506422 214.109412 
L 215.423394 214.038181 
L 216.396147 214.145545 
L 217.390005 214.446358 
L 218.36717 214.948819 
L 219.287973 215.653884 
L 220.112246 216.554913 
L 220.80073 217.637574 
L 221.316519 218.88 
L 221.626453 220.253207 
L 221.702442 221.721773 
L 221.522659 223.244746 
L 221.072573 224.776771 
L 220.345767 226.269403 
L 219.344532 227.67256 
L 218.080195 228.936086 
L 216.573166 230.011372 
L 214.852697 230.85298 
L 212.956364 231.420233 
L 210.929248 231.678703 
L 208.822876 231.601568 
L 206.693903 231.170772 
L 204.602605 230.377963 
L 202.6112 229.225164 
L 200.78205 227.725157 
L 199.175801 225.901547 
L 197.849502 223.788517 
L 196.85477 221.430242 
L 196.236054 218.88 
L 196.029047 216.198976 
L 196.259306 213.454797 
L 196.941115 210.719823 
L 198.076647 208.069253 
L 199.655438 205.579075 
L 201.654219 203.323933 
L 204.037101 201.374961 
L 206.756132 199.797648 
L 209.752214 198.649792 
L 212.956364 197.979612 
L 216.291295 197.824069 
L 219.673282 198.207452 
L 223.014256 199.140275 
L 226.224098 200.61853 
L 229.21305 202.623314 
L 231.894185 205.120868 
L 234.185879 208.063022 
L 236.014205 211.388053 
L 237.315185 215.021942 
L 238.036829 218.88 
L 238.140908 222.86884 
L 237.604401 226.888633 
L 236.420565 230.835608 
L 234.599588 234.604723 
L 232.168811 238.092448 
L 229.172484 241.199575 
L 225.671057 243.833991 
L 221.740026 245.913332 
L 217.46833 247.367435 
L 212.956364 248.140543 
L 208.313615 248.193158 
L 203.656016 247.503528 
L 199.103041 246.068677 
L 194.774653 243.904978 
L 190.788155 241.048209 
L 187.255035 237.553108 
L 184.277896 233.492409 
L 181.947542 228.955377 
L 180.340314 224.045875 
L 179.515743 218.88 
L 179.514592 213.583344 
L 180.357346 208.287937 
L 182.04321 203.128961 
L 184.549632 198.241301 
L 187.832394 193.75603 
L 191.826268 189.796918 
L 196.446239 186.477056 
L 201.589272 183.895688 
L 207.136581 182.135337 
L 212.956364 181.259302 
L 218.906928 181.309614 
L 224.840142 182.305492 
L 230.605118 184.24237 
L 236.05205 187.091515 
L 241.036095 190.800269 
L 245.4212 195.292916 
L 249.083784 200.47216 
L 251.916165 206.221193 
L 253.829641 212.406309 
L 254.757139 218.88 
L 254.655363 225.484473 
L 253.506361 232.055493 
L 251.31847 238.426469 
L 248.126603 244.432674 
L 243.991856 249.915492 
L 239.000436 254.72659 
L 233.261919 258.731897 
L 226.906886 261.815292 
L 220.083963 263.881891 
L 212.956364 264.860853 
L 205.697983 264.707614 
L 198.489156 263.405488 
L 191.512179 260.966583 
L 184.946701 257.431993 
L 178.96511 252.871253 
L 173.72802 247.38106 
L 169.37999 241.083271 
L 166.045582 234.122237 
L 163.825859 226.661507 
L 162.795433 218.88 
L 163.000136 210.967711 
L 164.455386 203.121077 
L 167.145305 195.5381 
L 171.022617 188.41335 
L 176.009349 181.932985 
L 181.998316 176.269903 
L 188.855377 171.57915 
L 196.422412 167.993728 
L 204.520948 165.620882 
L 212.956364 164.538992 
L 221.522561 164.795159 
L 230.007002 166.403532 
L 238.19598 169.344465 
L 245.880002 173.5645 
L 252.859139 178.977224 
L 258.948215 185.464964 
L 263.98169 192.881298 
L 267.818125 201.054333 
L 270.344096 209.790676 
L 271.477449 218.88 
L 271.169819 228.100105 
L 269.408321 237.222353 
L 266.216375 246.017331 
L 261.653618 254.260626 
L 255.8149 261.738537 
L 248.828387 268.253605 
L 240.852781 273.629802 
L 232.073746 277.717251 
L 222.699596 280.396346 
L 212.956364 281.581163 
L 203.08235 281.222069 
L 193.322296 279.307447 
L 183.921317 275.864488 
L 175.11875 270.959008 
L 167.142066 264.694298 
L 160.201005 257.209012 
L 154.482085 248.674133 
L 150.143622 239.289097 
L 147.311404 229.27714 
L 146.075123 218.88 
L 146.485681 208.352078 
L 148.553426 197.954217 
L 152.247399 187.947238 
L 157.495602 178.585398 
L 164.186304 170.109941 
L 172.170364 162.742888 
L 181.264515 156.681245 
L 191.255552 152.091769 
L 201.905315 149.106426 
L 212.956364 147.818682 
L 224.138194 148.280703 
L 235.173861 150.501573 
L 245.786841 154.446559 
L 255.707953 160.037485 
L 264.682184 167.15418 
L 272.47523 175.637013 
L 278.879595 185.290436 
L 283.720085 195.887473 
L 286.858551 207.175043 
L 288.197759 218.88 
L 287.684274 230.715738 
L 285.310281 242.389213 
L 281.114281 253.608193 
L 275.180633 264.088578 
L 267.637945 273.561581 
L 258.656339 281.78062 
L 248.443643 288.527708 
L 237.240605 293.619211 
L 225.315228 296.910801 
L 212.956364 298.301473 
L 200.466717 297.736524 
L 188.155436 295.209407 
L 176.330455 290.762393 
L 165.290798 284.486023 
L 155.319021 276.517343 
L 146.67399 267.036963 
L 139.58418 256.264995 
L 134.241662 244.455957 
L 130.796948 231.892773 
L 129.354813 218.88 
L 129.354813 218.88 
" style="fill:none;stroke:#000000;stroke-linecap:square;stroke-width:1.5;"/>
   </g>
   <g id="patch_3">
    <path d="M 59.316529 307.584 
L 366.596198 307.584 
" style="fill:none;stroke:#000000;stroke-linecap:square;stroke-linejoin:miter;stroke-width:0.8;"/>
   </g>
   <g id="patch_4">
    <path d="M 366.596198 307.584 
L 212.956364 41.472 
" style="fill:none;stroke:#000000;stroke-linecap:square;stroke-linejoin:miter;stroke-width:0.8;"/>
   </g>
   <g id="patch_5">
    <path d="M 212.956364 41.472 
L 59.316529 307.584 
" style="fill:none;stroke:#000000;stroke-linecap:square;stroke-linejoin:miter;stroke-width:0.8;"/>
   </g>
  </g>
  <g id="axes_2">
   <g id="patch_6">
    <path d="M 429.447273 307.584 
L 738.72 307.584 
L 738.72 41.472 
L 429.447273 41.472 
z
" style="fill:#ffffff;"/>
   </g>
   <g id="matplotlib.axis_4">
    <g id="xtick_19">
     <g id="line2d_20">
      <defs>
       <path d="M 0 0 
L 0 3.5 
" id="mbb432533ca" style="stroke:#000000;stroke-width:0.8;"/>
      </defs>
      <g>
       <use style="stroke:#000000;stroke-width:0.8;" x="443.505124" xlink:href="#mbb432533ca" y="307.584"/>
      </g>
     </g>
     <g id="text_19">
      <!-- 0 -->
      <g transform="translate(440.323874 322.182437)scale(0.1 -0.1)">
       <use xlink:href="#DejaVuSans-48"/>
      </g>
     </g>
    </g>
    <g id="xtick_20">
     <g id="line2d_21">
      <g>
       <use style="stroke:#000000;stroke-width:0.8;" x="478.649752" xlink:href="#mbb432533ca" y="307.584"/>
      </g>
     </g>
     <g id="text_20">
      <!-- 25 -->
      <defs>
       <path d="M 10.796875 72.90625 
L 49.515625 72.90625 
L 49.515625 64.59375 
L 19.828125 64.59375 
L 19.828125 46.734375 
Q 21.96875 47.46875 24.109375 47.828125 
Q 26.265625 48.1875 28.421875 48.1875 
Q 40.625 48.1875 47.75 41.5 
Q 54.890625 34.8125 54.890625 23.390625 
Q 54.890625 11.625 47.5625 5.09375 
Q 40.234375 -1.421875 26.90625 -1.421875 
Q 22.3125 -1.421875 17.546875 -0.640625 
Q 12.796875 0.140625 7.71875 1.703125 
L 7.71875 11.625 
Q 12.109375 9.234375 16.796875 8.0625 
Q 21.484375 6.890625 26.703125 6.890625 
Q 35.15625 6.890625 40.078125 11.328125 
Q 45.015625 15.765625 45.015625 23.390625 
Q 45.015625 31 40.078125 35.4375 
Q 35.15625 39.890625 26.703125 39.890625 
Q 22.75 39.890625 18.8125 39.015625 
Q 14.890625 38.140625 10.796875 36.28125 
z
" id="DejaVuSans-53"/>
      </defs>
      <g transform="translate(472.287252 322.182437)scale(0.1 -0.1)">
       <use xlink:href="#DejaVuSans-50"/>
       <use x="63.623047" xlink:href="#DejaVuSans-53"/>
      </g>
     </g>
    </g>
    <g id="xtick_21">
     <g id="line2d_22">
      <g>
       <use style="stroke:#000000;stroke-width:0.8;" x="513.79438" xlink:href="#mbb432533ca" y="307.584"/>
      </g>
     </g>
     <g id="text_21">
      <!-- 50 -->
      <g transform="translate(507.43188 322.182437)scale(0.1 -0.1)">
       <use xlink:href="#DejaVuSans-53"/>
       <use x="63.623047" xlink:href="#DejaVuSans-48"/>
      </g>
     </g>
    </g>
    <g id="xtick_22">
     <g id="line2d_23">
      <g>
       <use style="stroke:#000000;stroke-width:0.8;" x="548.939008" xlink:href="#mbb432533ca" y="307.584"/>
      </g>
     </g>
     <g id="text_22">
      <!-- 75 -->
      <defs>
       <path d="M 8.203125 72.90625 
L 55.078125 72.90625 
L 55.078125 68.703125 
L 28.609375 0 
L 18.3125 0 
L 43.21875 64.59375 
L 8.203125 64.59375 
z
" id="DejaVuSans-55"/>
      </defs>
      <g transform="translate(542.576508 322.182437)scale(0.1 -0.1)">
       <use xlink:href="#DejaVuSans-55"/>
       <use x="63.623047" xlink:href="#DejaVuSans-53"/>
      </g>
     </g>
    </g>
    <g id="xtick_23">
     <g id="line2d_24">
      <g>
       <use style="stroke:#000000;stroke-width:0.8;" x="584.083636" xlink:href="#mbb432533ca" y="307.584"/>
      </g>
     </g>
     <g id="text_23">
      <!-- 100 -->
      <g transform="translate(574.539886 322.182437)scale(0.1 -0.1)">
       <use xlink:href="#DejaVuSans-49"/>
       <use x="63.623047" xlink:href="#DejaVuSans-48"/>
       <use x="127.246094" xlink:href="#DejaVuSans-48"/>
      </g>
     </g>
    </g>
    <g id="xtick_24">
     <g id="line2d_25">
      <g>
       <use style="stroke:#000000;stroke-width:0.8;" x="619.228264" xlink:href="#mbb432533ca" y="307.584"/>
      </g>
     </g>
     <g id="text_24">
      <!-- 125 -->
      <g transform="translate(609.684514 322.182437)scale(0.1 -0.1)">
       <use xlink:href="#DejaVuSans-49"/>
       <use x="63.623047" xlink:href="#DejaVuSans-50"/>
       <use x="127.246094" xlink:href="#DejaVuSans-53"/>
      </g>
     </g>
    </g>
    <g id="xtick_25">
     <g id="line2d_26">
      <g>
       <use style="stroke:#000000;stroke-width:0.8;" x="654.372893" xlink:href="#mbb432533ca" y="307.584"/>
      </g>
     </g>
     <g id="text_25">
      <!-- 150 -->
      <g transform="translate(644.829143 322.182437)scale(0.1 -0.1)">
       <use xlink:href="#DejaVuSans-49"/>
       <use x="63.623047" xlink:href="#DejaVuSans-53"/>
       <use x="127.246094" xlink:href="#DejaVuSans-48"/>
      </g>
     </g>
    </g>
    <g id="xtick_26">
     <g id="line2d_27">
      <g>
       <use style="stroke:#000000;stroke-width:0.8;" x="689.517521" xlink:href="#mbb432533ca" y="307.584"/>
      </g>
     </g>
     <g id="text_26">
      <!-- 175 -->
      <g transform="translate(679.973771 322.182437)scale(0.1 -0.1)">
       <use xlink:href="#DejaVuSans-49"/>
       <use x="63.623047" xlink:href="#DejaVuSans-55"/>
       <use x="127.246094" xlink:href="#DejaVuSans-53"/>
      </g>
     </g>
    </g>
    <g id="xtick_27">
     <g id="line2d_28">
      <g>
       <use style="stroke:#000000;stroke-width:0.8;" x="724.662149" xlink:href="#mbb432533ca" y="307.584"/>
      </g>
     </g>
     <g id="text_27">
      <!-- 200 -->
      <g transform="translate(715.118399 322.182437)scale(0.1 -0.1)">
       <use xlink:href="#DejaVuSans-50"/>
       <use x="63.623047" xlink:href="#DejaVuSans-48"/>
       <use x="127.246094" xlink:href="#DejaVuSans-48"/>
      </g>
     </g>
    </g>
   </g>
   <g id="matplotlib.axis_5">
    <g id="ytick_1">
     <g id="line2d_29">
      <defs>
       <path d="M 0 0 
L -3.5 0 
" id="ma17c87b7ff" style="stroke:#000000;stroke-width:0.8;"/>
      </defs>
      <g>
       <use style="stroke:#000000;stroke-width:0.8;" x="429.447273" xlink:href="#ma17c87b7ff" y="269.555472"/>
      </g>
     </g>
     <g id="text_28">
      <!-- 0.1 -->
      <g transform="translate(406.544148 273.354691)scale(0.1 -0.1)">
       <use xlink:href="#DejaVuSans-48"/>
       <use x="63.623047" xlink:href="#DejaVuSans-46"/>
       <use x="95.410156" xlink:href="#DejaVuSans-49"/>
      </g>
     </g>
    </g>
    <g id="ytick_2">
     <g id="line2d_30">
      <g>
       <use style="stroke:#000000;stroke-width:0.8;" x="429.447273" xlink:href="#ma17c87b7ff" y="229.731551"/>
      </g>
     </g>
     <g id="text_29">
      <!-- 0.2 -->
      <g transform="translate(406.544148 233.53077)scale(0.1 -0.1)">
       <use xlink:href="#DejaVuSans-48"/>
       <use x="63.623047" xlink:href="#DejaVuSans-46"/>
       <use x="95.410156" xlink:href="#DejaVuSans-50"/>
      </g>
     </g>
    </g>
    <g id="ytick_3">
     <g id="line2d_31">
      <g>
       <use style="stroke:#000000;stroke-width:0.8;" x="429.447273" xlink:href="#ma17c87b7ff" y="189.907631"/>
      </g>
     </g>
     <g id="text_30">
      <!-- 0.3 -->
      <defs>
       <path d="M 40.578125 39.3125 
Q 47.65625 37.796875 51.625 33 
Q 55.609375 28.21875 55.609375 21.1875 
Q 55.609375 10.40625 48.1875 4.484375 
Q 40.765625 -1.421875 27.09375 -1.421875 
Q 22.515625 -1.421875 17.65625 -0.515625 
Q 12.796875 0.390625 7.625 2.203125 
L 7.625 11.71875 
Q 11.71875 9.328125 16.59375 8.109375 
Q 21.484375 6.890625 26.8125 6.890625 
Q 36.078125 6.890625 40.9375 10.546875 
Q 45.796875 14.203125 45.796875 21.1875 
Q 45.796875 27.640625 41.28125 31.265625 
Q 36.765625 34.90625 28.71875 34.90625 
L 20.21875 34.90625 
L 20.21875 43.015625 
L 29.109375 43.015625 
Q 36.375 43.015625 40.234375 45.921875 
Q 44.09375 48.828125 44.09375 54.296875 
Q 44.09375 59.90625 40.109375 62.90625 
Q 36.140625 65.921875 28.71875 65.921875 
Q 24.65625 65.921875 20.015625 65.03125 
Q 15.375 64.15625 9.8125 62.3125 
L 9.8125 71.09375 
Q 15.4375 72.65625 20.34375 73.4375 
Q 25.25 74.21875 29.59375 74.21875 
Q 40.828125 74.21875 47.359375 69.109375 
Q 53.90625 64.015625 53.90625 55.328125 
Q 53.90625 49.265625 50.4375 45.09375 
Q 46.96875 40.921875 40.578125 39.3125 
z
" id="DejaVuSans-51"/>
      </defs>
      <g transform="translate(406.544148 193.706849)scale(0.1 -0.1)">
       <use xlink:href="#DejaVuSans-48"/>
       <use x="63.623047" xlink:href="#DejaVuSans-46"/>
       <use x="95.410156" xlink:href="#DejaVuSans-51"/>
      </g>
     </g>
    </g>
    <g id="ytick_4">
     <g id="line2d_32">
      <g>
       <use style="stroke:#000000;stroke-width:0.8;" x="429.447273" xlink:href="#ma17c87b7ff" y="150.08371"/>
      </g>
     </g>
     <g id="text_31">
      <!-- 0.4 -->
      <g transform="translate(406.544148 153.882929)scale(0.1 -0.1)">
       <use xlink:href="#DejaVuSans-48"/>
       <use x="63.623047" xlink:href="#DejaVuSans-46"/>
       <use x="95.410156" xlink:href="#DejaVuSans-52"/>
      </g>
     </g>
    </g>
    <g id="ytick_5">
     <g id="line2d_33">
      <g>
       <use style="stroke:#000000;stroke-width:0.8;" x="429.447273" xlink:href="#ma17c87b7ff" y="110.25979"/>
      </g>
     </g>
     <g id="text_32">
      <!-- 0.5 -->
      <g transform="translate(406.544148 114.059008)scale(0.1 -0.1)">
       <use xlink:href="#DejaVuSans-48"/>
       <use x="63.623047" xlink:href="#DejaVuSans-46"/>
       <use x="95.410156" xlink:href="#DejaVuSans-53"/>
      </g>
     </g>
    </g>
    <g id="ytick_6">
     <g id="line2d_34">
      <g>
       <use style="stroke:#000000;stroke-width:0.8;" x="429.447273" xlink:href="#ma17c87b7ff" y="70.435869"/>
      </g>
     </g>
     <g id="text_33">
      <!-- 0.6 -->
      <g transform="translate(406.544148 74.235088)scale(0.1 -0.1)">
       <use xlink:href="#DejaVuSans-48"/>
       <use x="63.623047" xlink:href="#DejaVuSans-46"/>
       <use x="95.410156" xlink:href="#DejaVuSans-54"/>
      </g>
     </g>
    </g>
   </g>
   <g id="line2d_35">
    <path clip-path="url(#p954ed4379b)" d="M 443.505124 176.632991 
L 444.910909 176.535133 
L 446.316694 176.246378 
L 447.722479 175.781006 
L 449.128264 175.162228 
L 451.939835 173.596494 
L 456.15719 171.072331 
L 457.562975 170.377464 
L 458.96876 169.836629 
L 460.374545 169.493759 
L 461.780331 169.387161 
L 463.186116 169.547832 
L 464.591901 169.998002 
L 465.997686 170.74994 
L 467.403471 171.805076 
L 468.809256 173.153475 
L 470.215041 174.773689 
L 471.620826 176.632991 
L 474.432397 180.885732 
L 480.055537 189.791142 
L 481.461322 191.682022 
L 482.867107 193.291197 
L 484.272893 194.550672 
L 485.678678 195.399571 
L 487.084463 195.786374 
L 488.490248 195.670941 
L 489.896033 195.026251 
L 491.301818 193.839804 
L 492.707603 192.11463 
L 494.113388 189.869854 
L 495.519174 187.140805 
L 496.924959 183.978634 
L 499.736529 176.632991 
L 506.765455 156.728026 
L 508.17124 153.353184 
L 509.577025 150.436529 
L 510.98281 148.076065 
L 512.388595 146.358287 
L 513.79438 145.355356 
L 515.200165 145.122585 
L 516.60595 145.696321 
L 518.011736 147.0923 
L 519.417521 149.304522 
L 520.823306 152.304701 
L 522.229091 156.042315 
L 523.634876 160.445277 
L 525.040661 165.421219 
L 527.852231 176.632991 
L 533.475372 200.165192 
L 534.881157 205.384606 
L 536.286942 210.034452 
L 537.692727 213.976882 
L 539.098512 217.088635 
L 540.504298 219.264716 
L 541.910083 220.421678 
L 543.315868 220.500418 
L 544.721653 219.468379 
L 546.127438 217.321112 
L 547.533223 214.083114 
L 548.939008 209.807931 
L 550.344793 204.577479 
L 551.750579 198.500604 
L 553.156364 191.71089 
L 555.967934 176.632991 
L 560.185289 153.061408 
L 561.591074 145.746977 
L 562.99686 139.034724 
L 564.402645 133.109874 
L 565.80843 128.141668 
L 567.214215 124.278627 
L 568.62 121.644244 
L 570.025785 120.333249 
L 571.43157 120.408541 
L 572.837355 121.898883 
L 574.24314 124.797439 
L 575.648926 129.061212 
L 577.054711 134.611399 
L 578.460496 141.334689 
L 579.866281 149.085478 
L 582.677851 166.945049 
L 589.706777 214.872817 
L 591.112562 223.077908 
L 592.518347 230.277762 
L 593.924132 236.271743 
L 595.329917 240.886074 
L 596.735702 243.978759 
L 598.141488 245.443785 
L 599.547273 245.214461 
L 600.953058 243.265817 
L 602.358843 239.615972 
L 603.764628 234.326424 
L 605.170413 227.501233 
L 606.576198 219.285105 
L 607.981983 209.860403 
L 610.793554 188.278092 
L 616.416694 141.701609 
L 617.822479 131.039351 
L 619.228264 121.341423 
L 620.63405 112.866564 
L 622.039835 105.846807 
L 623.44562 100.481188 
L 624.851405 96.9302 
L 626.25719 95.311142 
L 627.662975 95.694498 
L 629.06876 98.101445 
L 630.474545 102.502578 
L 631.880331 108.817902 
L 633.286116 116.918097 
L 634.691901 126.627063 
L 636.097686 137.725679 
L 638.909256 163.030729 
L 644.532397 217.244272 
L 645.938182 229.580443 
L 647.343967 240.771209 
L 648.749752 250.521072 
L 650.155537 258.566604 
L 651.561322 264.683512 
L 652.967107 268.692803 
L 654.372893 270.465893 
L 655.778678 269.928505 
L 657.184463 267.063256 
L 658.590248 261.910833 
L 659.996033 254.569734 
L 661.401818 245.194535 
L 662.807603 233.99273 
L 664.213388 221.220202 
L 667.024959 192.192412 
L 672.648099 130.34181 
L 674.053884 116.331725 
L 675.459669 103.648121 
L 676.865455 92.623254 
L 678.27124 83.551947 
L 679.677025 76.68375 
L 681.08281 72.216156 
L 682.488595 70.289035 
L 683.89438 70.980454 
L 685.300165 74.304006 
L 686.70595 80.207717 
L 688.111736 88.574592 
L 689.517521 99.224795 
L 690.923306 111.919438 
L 692.329091 126.36588 
L 695.140661 159.116409 
L 700.763802 228.604071 
L 702.169587 244.288068 
L 703.575372 258.464511 
L 704.981157 270.764382 
L 706.386942 280.861465 
L 707.792727 288.48095 
L 709.198512 293.406847 
L 710.604298 295.488 
L 712.010083 294.642549 
L 713.415868 290.860694 
L 714.821653 284.205694 
L 716.227438 274.813044 
L 717.633223 262.887836 
L 719.039008 248.700356 
L 720.444793 232.58 
L 723.256364 196.106732 
L 724.662149 176.632991 
L 724.662149 176.632991 
" style="fill:none;stroke:#1f77b4;stroke-linecap:square;stroke-width:1.5;"/>
   </g>
   <g id="line2d_36">
    <path clip-path="url(#p954ed4379b)" d="M 443.505124 176.632991 
L 444.910909 176.146845 
L 446.316694 175.795838 
L 447.722479 175.610889 
L 449.128264 175.61525 
L 450.53405 175.823466 
L 451.939835 176.240662 
L 453.34562 176.862163 
L 454.751405 177.673468 
L 457.562975 179.760754 
L 464.591901 185.696553 
L 465.997686 186.587004 
L 467.403471 187.252812 
L 468.809256 187.646882 
L 470.215041 187.729062 
L 471.620826 187.467881 
L 473.026612 186.842051 
L 474.432397 185.841672 
L 475.838182 184.4691 
L 477.243967 182.739435 
L 478.649752 180.680614 
L 480.055537 178.33308 
L 482.867107 172.991318 
L 488.490248 161.756951 
L 489.896033 159.320114 
L 491.301818 157.202983 
L 492.707603 155.484678 
L 494.113388 154.23646 
L 495.519174 153.519261 
L 496.924959 153.381442 
L 498.330744 153.856845 
L 499.736529 154.96321 
L 501.142314 156.701015 
L 502.548099 159.05278 
L 503.953884 161.982873 
L 505.359669 165.437842 
L 506.765455 169.347268 
L 509.577025 178.171719 
L 515.200165 196.710316 
L 516.60595 200.806555 
L 518.011736 204.43852 
L 519.417521 207.492414 
L 520.823306 209.866053 
L 522.229091 211.472037 
L 523.634876 212.240627 
L 525.040661 212.122196 
L 526.446446 211.089211 
L 527.852231 209.137661 
L 529.258017 206.287881 
L 530.663802 202.58473 
L 532.069587 198.097116 
L 533.475372 192.916843 
L 536.286942 180.948603 
L 543.315868 148.682203 
L 544.721653 143.161901 
L 546.127438 138.334809 
L 547.533223 134.344151 
L 548.939008 131.315179 
L 550.344793 129.351427 
L 551.750579 128.531446 
L 553.156364 128.906128 
L 554.562149 130.496695 
L 555.967934 133.293429 
L 557.373719 137.255186 
L 558.779504 142.309722 
L 560.185289 148.354857 
L 561.591074 155.260434 
L 564.402645 171.009617 
L 570.025785 204.782861 
L 571.43157 212.457239 
L 572.837355 219.401604 
L 574.24314 225.423824 
L 575.648926 230.351247 
L 577.054711 234.035552 
L 578.460496 236.357071 
L 579.866281 237.228443 
L 581.272066 236.59751 
L 582.677851 234.449361 
L 584.083636 230.807442 
L 585.489421 225.73371 
L 586.895207 219.327788 
L 588.300992 211.725133 
L 589.706777 203.094251 
L 592.518347 183.564125 
L 598.141488 142.227593 
L 599.547273 132.935281 
L 600.953058 124.566852 
L 602.358843 117.349504 
L 603.764628 111.485318 
L 605.170413 107.145679 
L 606.576198 104.466393 
L 607.981983 103.543631 
L 609.387769 104.430814 
L 610.793554 107.136546 
L 612.199339 111.623649 
L 613.605124 117.809356 
L 615.010909 125.566664 
L 616.416694 134.72684 
L 617.822479 145.083026 
L 620.63405 168.394095 
L 626.25719 217.293915 
L 627.662975 228.204161 
L 629.06876 237.996654 
L 630.474545 246.409129 
L 631.880331 253.210079 
L 633.286116 258.205052 
L 634.691901 261.242105 
L 636.097686 262.216258 
L 637.503471 261.072824 
L 638.909256 257.80951 
L 640.315041 252.477222 
L 641.720826 245.17954 
L 643.126612 236.070846 
L 644.532397 225.353149 
L 645.938182 213.271659 
L 648.749752 186.179647 
L 654.372893 129.716539 
L 655.778678 117.188359 
L 657.184463 105.971802 
L 658.590248 96.364199 
L 659.996033 88.626486 
L 661.401818 82.976179 
L 662.807603 79.58136 
L 664.213388 78.555815 
L 665.619174 79.955499 
L 667.024959 83.776396 
L 668.430744 89.953868 
L 669.836529 98.363526 
L 671.242314 108.823606 
L 672.648099 121.098824 
L 674.053884 134.905618 
L 676.865455 165.778572 
L 682.488595 229.804968 
L 683.89438 243.951083 
L 685.300165 256.591704 
L 686.70595 267.394434 
L 688.111736 276.068912 
L 689.517521 282.374551 
L 690.923306 286.127138 
L 692.329091 287.204073 
L 693.734876 285.548139 
L 695.140661 281.16966 
L 696.546446 274.147003 
L 697.952231 264.625369 
L 699.358017 252.813904 
L 700.763802 238.981165 
L 702.169587 223.449067 
L 704.981157 188.79517 
L 709.198512 134.263343 
L 712.010083 101.441436 
L 713.415868 87.376753 
L 714.821653 75.378894 
L 716.227438 65.767653 
L 717.633223 58.80668 
L 719.039008 54.696326 
L 720.444793 53.568 
L 721.850579 55.480185 
L 723.256364 60.416246 
L 724.662149 68.284088 
L 724.662149 68.284088 
" style="fill:none;stroke:#ff7f0e;stroke-linecap:square;stroke-width:1.5;"/>
   </g>
   <g id="line2d_37">
    <path clip-path="url(#p954ed4379b)" d="M 443.505124 176.632991 
L 446.316694 177.856756 
L 449.128264 179.121494 
L 450.53405 179.654178 
L 451.939835 180.061815 
L 453.34562 180.305419 
L 454.751405 180.352 
L 456.15719 180.176048 
L 457.562975 179.760754 
L 458.96876 179.098949 
L 460.374545 178.193707 
L 461.780331 177.058596 
L 463.186116 175.717558 
L 465.997686 172.562027 
L 471.620826 165.7981 
L 473.026612 164.368912 
L 474.432397 163.171568 
L 475.838182 162.264997 
L 477.243967 161.70197 
L 478.649752 161.527053 
L 480.055537 161.774749 
L 481.461322 162.46791 
L 482.867107 163.616456 
L 484.272893 165.216472 
L 485.678678 167.2497 
L 487.084463 169.683472 
L 488.490248 172.47108 
L 491.301818 178.856185 
L 496.924959 192.538895 
L 498.330744 195.592674 
L 499.736529 198.302771 
L 501.142314 200.577144 
L 502.548099 202.33207 
L 503.953884 203.494892 
L 505.359669 204.006527 
L 506.765455 203.823678 
L 508.17124 202.920648 
L 509.577025 201.290724 
L 510.98281 198.94705 
L 512.388595 195.92297 
L 513.79438 192.271808 
L 515.200165 188.06607 
L 518.011736 178.368152 
L 525.040661 152.355557 
L 526.446446 147.950392 
L 527.852231 144.12832 
L 529.258017 141.008762 
L 530.663802 138.696254 
L 532.069587 137.277181 
L 533.475372 136.816937 
L 534.881157 137.357554 
L 536.286942 138.915917 
L 537.692727 141.482605 
L 539.098512 145.021406 
L 540.504298 149.469549 
L 541.910083 154.738647 
L 543.315868 160.71635 
L 546.127438 174.243051 
L 551.750579 202.866922 
L 553.156364 209.281953 
L 554.562149 215.038504 
L 555.967934 219.972552 
L 557.373719 223.937293 
L 558.779504 226.807385 
L 560.185289 228.482707 
L 561.591074 228.891561 
L 562.99686 227.993177 
L 564.402645 225.77948 
L 565.80843 222.276029 
L 567.214215 217.542099 
L 568.62 211.669893 
L 570.025785 204.782861 
L 571.43157 197.033191 
L 574.24314 179.677708 
L 579.866281 143.585051 
L 581.272066 135.612499 
L 582.677851 128.504562 
L 584.083636 122.458539 
L 585.489421 117.648613 
L 586.895207 114.220939 
L 588.300992 112.289366 
L 589.706777 111.931903 
L 591.112562 113.188054 
L 592.518347 116.057085 
L 593.924132 120.4973 
L 595.329917 126.426357 
L 596.735702 133.722627 
L 598.141488 142.227593 
L 599.547273 151.749229 
L 602.358843 172.933495 
L 606.576198 206.147473 
L 609.387769 226.025011 
L 610.793554 234.484334 
L 612.199339 241.642332 
L 613.605124 247.297443 
L 615.010909 251.282699 
L 616.416694 253.470523 
L 617.822479 253.776594 
L 619.228264 252.162677 
L 620.63405 248.638313 
L 622.039835 243.261334 
L 623.44562 236.137149 
L 624.851405 227.416815 
L 626.25719 217.293915 
L 627.662975 206.000313 
L 630.474545 180.987264 
L 634.691901 142.029804 
L 636.097686 129.957035 
L 637.503471 118.869441 
L 638.909256 109.058733 
L 640.315041 100.788759 
L 641.720826 94.288463 
L 643.126612 89.745625 
L 644.532397 87.301551 
L 645.938182 87.04687 
L 647.343967 89.018554 
L 648.749752 93.198252 
L 650.155537 99.511995 
L 651.561322 107.831307 
L 652.967107 117.975705 
L 654.372893 129.716539 
L 657.184463 156.863914 
L 664.213388 230.122955 
L 665.619174 242.768069 
L 667.024959 253.930163 
L 668.430744 263.312113 
L 669.836529 270.657593 
L 671.242314 275.758013 
L 672.648099 278.458338 
L 674.053884 278.661628 
L 675.459669 276.332176 
L 676.865455 271.497145 
L 678.27124 264.246639 
L 679.677025 254.732199 
L 681.08281 243.163737 
L 682.488595 229.804968 
L 685.300165 199.003262 
L 692.329091 116.329018 
L 693.734876 102.126383 
L 695.140661 89.612903 
L 696.546446 79.118978 
L 697.952231 70.928314 
L 699.358017 65.270311 
L 700.763802 62.313735 
L 702.169587 62.161836 
L 703.575372 64.849055 
L 704.981157 70.33942 
L 706.386942 78.52669 
L 707.792727 89.236258 
L 709.198512 102.228783 
L 710.604298 117.205486 
L 713.415868 151.661525 
L 720.444793 243.750971 
L 721.850579 259.511127 
L 723.256364 273.375993 
L 724.662149 284.981893 
L 724.662149 284.981893 
" style="fill:none;stroke:#2ca02c;stroke-linecap:square;stroke-width:1.5;"/>
   </g>
   <g id="patch_7">
    <path d="M 429.447273 307.584 
L 429.447273 41.472 
" style="fill:none;stroke:#000000;stroke-linecap:square;stroke-linejoin:miter;stroke-width:0.8;"/>
   </g>
   <g id="patch_8">
    <path d="M 738.72 307.584 
L 738.72 41.472 
" style="fill:none;stroke:#000000;stroke-linecap:square;stroke-linejoin:miter;stroke-width:0.8;"/>
   </g>
   <g id="patch_9">
    <path d="M 429.447273 307.584 
L 738.72 307.584 
" style="fill:none;stroke:#000000;stroke-linecap:square;stroke-linejoin:miter;stroke-width:0.8;"/>
   </g>
   <g id="patch_10">
    <path d="M 429.447273 41.472 
L 738.72 41.472 
" style="fill:none;stroke:#000000;stroke-linecap:square;stroke-linejoin:miter;stroke-width:0.8;"/>
   </g>
  </g>
 </g>
 <defs>
  <clipPath id="p04f071503e">
   <path d="M 212.956364 41.472 
L 59.316529 307.584 
L 366.596198 307.584 
z
"/>
  </clipPath>
  <clipPath id="p954ed4379b">
   <rect height="266.112" width="309.272727" x="429.447273" y="41.472"/>
  </clipPath>
 </defs>
</svg>
