<?xml version="1.0" encoding="utf-8" standalone="no"?>
<!DOCTYPE svg PUBLIC "-//W3C//DTD SVG 1.1//EN"
  "http://www.w3.org/Graphics/SVG/1.1/DTD/svg11.dtd">
<!-- Created with matplotlib (https://matplotlib.org/) -->
<svg height="345.6pt" version="1.1" viewBox="0 0 777.6 345.6" width="777.6pt" xmlns="http://www.w3.org/2000/svg" xmlns:xlink="http://www.w3.org/1999/xlink">
 <defs>
  <style type="text/css">
*{stroke-linecap:butt;stroke-linejoin:round;}
  </style>
 </defs>
 <g id="figure_1">
  <g id="patch_1">
   <path d="M 0 345.6 
L 777.6 345.6 
L 777.6 0 
L 0 0 
z
" style="fill:#ffffff;"/>
  </g>
  <g id="axes_1">
   <g id="patch_2">
    <path d="M 228.208696 61.071141 
L 97.2 287.984859 
L 359.217391 287.984859 
z
" style="fill:#ffffff;"/>
   </g>
   <g id="matplotlib.axis_1">
    <g id="xtick_1">
     <g id="line2d_1">
      <defs>
       <path d="M 0 0 
L 3.5 0 
" id="m2b82b25335" style="stroke:#000000;stroke-width:0.8;"/>
      </defs>
      <g>
       <use style="stroke:#000000;stroke-width:0.8;" x="359.217391" xlink:href="#m2b82b25335" y="287.984859"/>
      </g>
     </g>
     <g id="text_1">
      <!-- 0.0 -->
      <defs>
       <path d="M 31.78125 66.40625 
Q 24.171875 66.40625 20.328125 58.90625 
Q 16.5 51.421875 16.5 36.375 
Q 16.5 21.390625 20.328125 13.890625 
Q 24.171875 6.390625 31.78125 6.390625 
Q 39.453125 6.390625 43.28125 13.890625 
Q 47.125 21.390625 47.125 36.375 
Q 47.125 51.421875 43.28125 58.90625 
Q 39.453125 66.40625 31.78125 66.40625 
z
M 31.78125 74.21875 
Q 44.046875 74.21875 50.515625 64.515625 
Q 56.984375 54.828125 56.984375 36.375 
Q 56.984375 17.96875 50.515625 8.265625 
Q 44.046875 -1.421875 31.78125 -1.421875 
Q 19.53125 -1.421875 13.0625 8.265625 
Q 6.59375 17.96875 6.59375 36.375 
Q 6.59375 54.828125 13.0625 64.515625 
Q 19.53125 74.21875 31.78125 74.21875 
z
" id="DejaVuSans-48"/>
       <path d="M 10.6875 12.40625 
L 21 12.40625 
L 21 0 
L 10.6875 0 
z
" id="DejaVuSans-46"/>
      </defs>
      <g transform="translate(366.217391 291.784077)scale(0.1 -0.1)">
       <use xlink:href="#DejaVuSans-48"/>
       <use x="63.623047" xlink:href="#DejaVuSans-46"/>
       <use x="95.410156" xlink:href="#DejaVuSans-48"/>
      </g>
     </g>
    </g>
    <g id="xtick_2">
     <g id="line2d_2">
      <g>
       <use style="stroke:#000000;stroke-width:0.8;" x="333.015652" xlink:href="#m2b82b25335" y="242.602115"/>
      </g>
     </g>
     <g id="text_2">
      <!-- 0.2 -->
      <defs>
       <path d="M 19.1875 8.296875 
L 53.609375 8.296875 
L 53.609375 0 
L 7.328125 0 
L 7.328125 8.296875 
Q 12.9375 14.109375 22.625 23.890625 
Q 32.328125 33.6875 34.8125 36.53125 
Q 39.546875 41.84375 41.421875 45.53125 
Q 43.3125 49.21875 43.3125 52.78125 
Q 43.3125 58.59375 39.234375 62.25 
Q 35.15625 65.921875 28.609375 65.921875 
Q 23.96875 65.921875 18.8125 64.3125 
Q 13.671875 62.703125 7.8125 59.421875 
L 7.8125 69.390625 
Q 13.765625 71.78125 18.9375 73 
Q 24.125 74.21875 28.421875 74.21875 
Q 39.75 74.21875 46.484375 68.546875 
Q 53.21875 62.890625 53.21875 53.421875 
Q 53.21875 48.921875 51.53125 44.890625 
Q 49.859375 40.875 45.40625 35.40625 
Q 44.1875 33.984375 37.640625 27.21875 
Q 31.109375 20.453125 19.1875 8.296875 
z
" id="DejaVuSans-50"/>
      </defs>
      <g transform="translate(340.015652 246.401334)scale(0.1 -0.1)">
       <use xlink:href="#DejaVuSans-48"/>
       <use x="63.623047" xlink:href="#DejaVuSans-46"/>
       <use x="95.410156" xlink:href="#DejaVuSans-50"/>
      </g>
     </g>
    </g>
    <g id="xtick_3">
     <g id="line2d_3">
      <g>
       <use style="stroke:#000000;stroke-width:0.8;" x="306.813913" xlink:href="#m2b82b25335" y="197.219372"/>
      </g>
     </g>
     <g id="text_3">
      <!-- 0.4 -->
      <defs>
       <path d="M 37.796875 64.3125 
L 12.890625 25.390625 
L 37.796875 25.390625 
z
M 35.203125 72.90625 
L 47.609375 72.90625 
L 47.609375 25.390625 
L 58.015625 25.390625 
L 58.015625 17.1875 
L 47.609375 17.1875 
L 47.609375 0 
L 37.796875 0 
L 37.796875 17.1875 
L 4.890625 17.1875 
L 4.890625 26.703125 
z
" id="DejaVuSans-52"/>
      </defs>
      <g transform="translate(313.813913 201.01859)scale(0.1 -0.1)">
       <use xlink:href="#DejaVuSans-48"/>
       <use x="63.623047" xlink:href="#DejaVuSans-46"/>
       <use x="95.410156" xlink:href="#DejaVuSans-52"/>
      </g>
     </g>
    </g>
    <g id="xtick_4">
     <g id="line2d_4">
      <g>
       <use style="stroke:#000000;stroke-width:0.8;" x="280.612174" xlink:href="#m2b82b25335" y="151.836628"/>
      </g>
     </g>
     <g id="text_4">
      <!-- 0.6 -->
      <defs>
       <path d="M 33.015625 40.375 
Q 26.375 40.375 22.484375 35.828125 
Q 18.609375 31.296875 18.609375 23.390625 
Q 18.609375 15.53125 22.484375 10.953125 
Q 26.375 6.390625 33.015625 6.390625 
Q 39.65625 6.390625 43.53125 10.953125 
Q 47.40625 15.53125 47.40625 23.390625 
Q 47.40625 31.296875 43.53125 35.828125 
Q 39.65625 40.375 33.015625 40.375 
z
M 52.59375 71.296875 
L 52.59375 62.3125 
Q 48.875 64.0625 45.09375 64.984375 
Q 41.3125 65.921875 37.59375 65.921875 
Q 27.828125 65.921875 22.671875 59.328125 
Q 17.53125 52.734375 16.796875 39.40625 
Q 19.671875 43.65625 24.015625 45.921875 
Q 28.375 48.1875 33.59375 48.1875 
Q 44.578125 48.1875 50.953125 41.515625 
Q 57.328125 34.859375 57.328125 23.390625 
Q 57.328125 12.15625 50.6875 5.359375 
Q 44.046875 -1.421875 33.015625 -1.421875 
Q 20.359375 -1.421875 13.671875 8.265625 
Q 6.984375 17.96875 6.984375 36.375 
Q 6.984375 53.65625 15.1875 63.9375 
Q 23.390625 74.21875 37.203125 74.21875 
Q 40.921875 74.21875 44.703125 73.484375 
Q 48.484375 72.75 52.59375 71.296875 
z
" id="DejaVuSans-54"/>
      </defs>
      <g transform="translate(287.612174 155.635847)scale(0.1 -0.1)">
       <use xlink:href="#DejaVuSans-48"/>
       <use x="63.623047" xlink:href="#DejaVuSans-46"/>
       <use x="95.410156" xlink:href="#DejaVuSans-54"/>
      </g>
     </g>
    </g>
    <g id="xtick_5">
     <g id="line2d_5">
      <g>
       <use style="stroke:#000000;stroke-width:0.8;" x="254.410435" xlink:href="#m2b82b25335" y="106.453885"/>
      </g>
     </g>
     <g id="text_5">
      <!-- 0.8 -->
      <defs>
       <path d="M 31.78125 34.625 
Q 24.75 34.625 20.71875 30.859375 
Q 16.703125 27.09375 16.703125 20.515625 
Q 16.703125 13.921875 20.71875 10.15625 
Q 24.75 6.390625 31.78125 6.390625 
Q 38.8125 6.390625 42.859375 10.171875 
Q 46.921875 13.96875 46.921875 20.515625 
Q 46.921875 27.09375 42.890625 30.859375 
Q 38.875 34.625 31.78125 34.625 
z
M 21.921875 38.8125 
Q 15.578125 40.375 12.03125 44.71875 
Q 8.5 49.078125 8.5 55.328125 
Q 8.5 64.0625 14.71875 69.140625 
Q 20.953125 74.21875 31.78125 74.21875 
Q 42.671875 74.21875 48.875 69.140625 
Q 55.078125 64.0625 55.078125 55.328125 
Q 55.078125 49.078125 51.53125 44.71875 
Q 48 40.375 41.703125 38.8125 
Q 48.828125 37.15625 52.796875 32.3125 
Q 56.78125 27.484375 56.78125 20.515625 
Q 56.78125 9.90625 50.3125 4.234375 
Q 43.84375 -1.421875 31.78125 -1.421875 
Q 19.734375 -1.421875 13.25 4.234375 
Q 6.78125 9.90625 6.78125 20.515625 
Q 6.78125 27.484375 10.78125 32.3125 
Q 14.796875 37.15625 21.921875 38.8125 
z
M 18.3125 54.390625 
Q 18.3125 48.734375 21.84375 45.5625 
Q 25.390625 42.390625 31.78125 42.390625 
Q 38.140625 42.390625 41.71875 45.5625 
Q 45.3125 48.734375 45.3125 54.390625 
Q 45.3125 60.0625 41.71875 63.234375 
Q 38.140625 66.40625 31.78125 66.40625 
Q 25.390625 66.40625 21.84375 63.234375 
Q 18.3125 60.0625 18.3125 54.390625 
z
" id="DejaVuSans-56"/>
      </defs>
      <g transform="translate(261.410435 110.253104)scale(0.1 -0.1)">
       <use xlink:href="#DejaVuSans-48"/>
       <use x="63.623047" xlink:href="#DejaVuSans-46"/>
       <use x="95.410156" xlink:href="#DejaVuSans-56"/>
      </g>
     </g>
    </g>
    <g id="xtick_6">
     <g id="line2d_6">
      <g>
       <use style="stroke:#000000;stroke-width:0.8;" x="228.208696" xlink:href="#m2b82b25335" y="61.071141"/>
      </g>
     </g>
     <g id="text_6">
      <!-- 1.0 -->
      <defs>
       <path d="M 12.40625 8.296875 
L 28.515625 8.296875 
L 28.515625 63.921875 
L 10.984375 60.40625 
L 10.984375 69.390625 
L 28.421875 72.90625 
L 38.28125 72.90625 
L 38.28125 8.296875 
L 54.390625 8.296875 
L 54.390625 0 
L 12.40625 0 
z
" id="DejaVuSans-49"/>
      </defs>
      <g transform="translate(235.208696 64.87036)scale(0.1 -0.1)">
       <use xlink:href="#DejaVuSans-49"/>
       <use x="63.623047" xlink:href="#DejaVuSans-46"/>
       <use x="95.410156" xlink:href="#DejaVuSans-48"/>
      </g>
     </g>
    </g>
    <g id="text_7">
     <!-- Top -->
     <defs>
      <path d="M -0.296875 72.90625 
L 61.375 72.90625 
L 61.375 64.59375 
L 35.5 64.59375 
L 35.5 0 
L 25.59375 0 
L 25.59375 64.59375 
L -0.296875 64.59375 
z
" id="DejaVuSans-84"/>
      <path d="M 30.609375 48.390625 
Q 23.390625 48.390625 19.1875 42.75 
Q 14.984375 37.109375 14.984375 27.296875 
Q 14.984375 17.484375 19.15625 11.84375 
Q 23.34375 6.203125 30.609375 6.203125 
Q 37.796875 6.203125 41.984375 11.859375 
Q 46.1875 17.53125 46.1875 27.296875 
Q 46.1875 37.015625 41.984375 42.703125 
Q 37.796875 48.390625 30.609375 48.390625 
z
M 30.609375 56 
Q 42.328125 56 49.015625 48.375 
Q 55.71875 40.765625 55.71875 27.296875 
Q 55.71875 13.875 49.015625 6.21875 
Q 42.328125 -1.421875 30.609375 -1.421875 
Q 18.84375 -1.421875 12.171875 6.21875 
Q 5.515625 13.875 5.515625 27.296875 
Q 5.515625 40.765625 12.171875 48.375 
Q 18.84375 56 30.609375 56 
z
" id="DejaVuSans-111"/>
      <path d="M 18.109375 8.203125 
L 18.109375 -20.796875 
L 9.078125 -20.796875 
L 9.078125 54.6875 
L 18.109375 54.6875 
L 18.109375 46.390625 
Q 20.953125 51.265625 25.265625 53.625 
Q 29.59375 56 35.59375 56 
Q 45.5625 56 51.78125 48.09375 
Q 58.015625 40.1875 58.015625 27.296875 
Q 58.015625 14.40625 51.78125 6.484375 
Q 45.5625 -1.421875 35.59375 -1.421875 
Q 29.59375 -1.421875 25.265625 0.953125 
Q 20.953125 3.328125 18.109375 8.203125 
z
M 48.6875 27.296875 
Q 48.6875 37.203125 44.609375 42.84375 
Q 40.53125 48.484375 33.40625 48.484375 
Q 26.265625 48.484375 22.1875 42.84375 
Q 18.109375 37.203125 18.109375 27.296875 
Q 18.109375 17.390625 22.1875 11.75 
Q 26.265625 6.109375 33.40625 6.109375 
Q 40.53125 6.109375 44.609375 11.75 
Q 48.6875 17.390625 48.6875 27.296875 
z
" id="DejaVuSans-112"/>
     </defs>
     <g transform="translate(218.934477 33.257156)scale(0.1 -0.1)">
      <use xlink:href="#DejaVuSans-84"/>
      <use x="60.818359" xlink:href="#DejaVuSans-111"/>
      <use x="122" xlink:href="#DejaVuSans-112"/>
     </g>
    </g>
   </g>
   <g id="matplotlib.axis_2">
    <g id="xtick_7">
     <g id="line2d_7">
      <defs>
       <path d="M 0 0 
L -1.75 -3.031089 
" id="m9527759126" style="stroke:#000000;stroke-width:0.8;"/>
      </defs>
      <g>
       <use style="stroke:#000000;stroke-width:0.8;" x="228.208696" xlink:href="#m9527759126" y="61.071141"/>
      </g>
     </g>
     <g id="text_8">
      <!-- 0.0 -->
      <g transform="translate(213.466913 43.136063)rotate(-300)scale(0.1 -0.1)">
       <use xlink:href="#DejaVuSans-48"/>
       <use x="63.623047" xlink:href="#DejaVuSans-46"/>
       <use x="95.410156" xlink:href="#DejaVuSans-48"/>
      </g>
     </g>
    </g>
    <g id="xtick_8">
     <g id="line2d_8">
      <g>
       <use style="stroke:#000000;stroke-width:0.8;" x="202.006957" xlink:href="#m9527759126" y="106.453885"/>
      </g>
     </g>
     <g id="text_9">
      <!-- 0.2 -->
      <g transform="translate(187.265174 88.518806)rotate(-300)scale(0.1 -0.1)">
       <use xlink:href="#DejaVuSans-48"/>
       <use x="63.623047" xlink:href="#DejaVuSans-46"/>
       <use x="95.410156" xlink:href="#DejaVuSans-50"/>
      </g>
     </g>
    </g>
    <g id="xtick_9">
     <g id="line2d_9">
      <g>
       <use style="stroke:#000000;stroke-width:0.8;" x="175.805217" xlink:href="#m9527759126" y="151.836628"/>
      </g>
     </g>
     <g id="text_10">
      <!-- 0.4 -->
      <g transform="translate(161.063435 133.90155)rotate(-300)scale(0.1 -0.1)">
       <use xlink:href="#DejaVuSans-48"/>
       <use x="63.623047" xlink:href="#DejaVuSans-46"/>
       <use x="95.410156" xlink:href="#DejaVuSans-52"/>
      </g>
     </g>
    </g>
    <g id="xtick_10">
     <g id="line2d_10">
      <g>
       <use style="stroke:#000000;stroke-width:0.8;" x="149.603478" xlink:href="#m9527759126" y="197.219372"/>
      </g>
     </g>
     <g id="text_11">
      <!-- 0.6 -->
      <g transform="translate(134.861696 179.284293)rotate(-300)scale(0.1 -0.1)">
       <use xlink:href="#DejaVuSans-48"/>
       <use x="63.623047" xlink:href="#DejaVuSans-46"/>
       <use x="95.410156" xlink:href="#DejaVuSans-54"/>
      </g>
     </g>
    </g>
    <g id="xtick_11">
     <g id="line2d_11">
      <g>
       <use style="stroke:#000000;stroke-width:0.8;" x="123.401739" xlink:href="#m9527759126" y="242.602115"/>
      </g>
     </g>
     <g id="text_12">
      <!-- 0.8 -->
      <g transform="translate(108.659957 224.667036)rotate(-300)scale(0.1 -0.1)">
       <use xlink:href="#DejaVuSans-48"/>
       <use x="63.623047" xlink:href="#DejaVuSans-46"/>
       <use x="95.410156" xlink:href="#DejaVuSans-56"/>
      </g>
     </g>
    </g>
    <g id="xtick_12">
     <g id="line2d_12">
      <g>
       <use style="stroke:#000000;stroke-width:0.8;" x="97.2" xlink:href="#m9527759126" y="287.984859"/>
      </g>
     </g>
     <g id="text_13">
      <!-- 1.0 -->
      <g transform="translate(82.458218 270.04978)rotate(-300)scale(0.1 -0.1)">
       <use xlink:href="#DejaVuSans-49"/>
       <use x="63.623047" xlink:href="#DejaVuSans-46"/>
       <use x="95.410156" xlink:href="#DejaVuSans-48"/>
      </g>
     </g>
    </g>
    <g id="text_14">
     <!-- Left -->
     <defs>
      <path d="M 9.8125 72.90625 
L 19.671875 72.90625 
L 19.671875 8.296875 
L 55.171875 8.296875 
L 55.171875 0 
L 9.8125 0 
z
" id="DejaVuSans-76"/>
      <path d="M 56.203125 29.59375 
L 56.203125 25.203125 
L 14.890625 25.203125 
Q 15.484375 15.921875 20.484375 11.0625 
Q 25.484375 6.203125 34.421875 6.203125 
Q 39.59375 6.203125 44.453125 7.46875 
Q 49.3125 8.734375 54.109375 11.28125 
L 54.109375 2.78125 
Q 49.265625 0.734375 44.1875 -0.34375 
Q 39.109375 -1.421875 33.890625 -1.421875 
Q 20.796875 -1.421875 13.15625 6.1875 
Q 5.515625 13.8125 5.515625 26.8125 
Q 5.515625 40.234375 12.765625 48.109375 
Q 20.015625 56 32.328125 56 
Q 43.359375 56 49.78125 48.890625 
Q 56.203125 41.796875 56.203125 29.59375 
z
M 47.21875 32.234375 
Q 47.125 39.59375 43.09375 43.984375 
Q 39.0625 48.390625 32.421875 48.390625 
Q 24.90625 48.390625 20.390625 44.140625 
Q 15.875 39.890625 15.1875 32.171875 
z
" id="DejaVuSans-101"/>
      <path d="M 37.109375 75.984375 
L 37.109375 68.5 
L 28.515625 68.5 
Q 23.6875 68.5 21.796875 66.546875 
Q 19.921875 64.59375 19.921875 59.515625 
L 19.921875 54.6875 
L 34.71875 54.6875 
L 34.71875 47.703125 
L 19.921875 47.703125 
L 19.921875 0 
L 10.890625 0 
L 10.890625 47.703125 
L 2.296875 47.703125 
L 2.296875 54.6875 
L 10.890625 54.6875 
L 10.890625 58.5 
Q 10.890625 67.625 15.140625 71.796875 
Q 19.390625 75.984375 28.609375 75.984375 
z
" id="DejaVuSans-102"/>
      <path d="M 18.3125 70.21875 
L 18.3125 54.6875 
L 36.8125 54.6875 
L 36.8125 47.703125 
L 18.3125 47.703125 
L 18.3125 18.015625 
Q 18.3125 11.328125 20.140625 9.421875 
Q 21.96875 7.515625 27.59375 7.515625 
L 36.8125 7.515625 
L 36.8125 0 
L 27.59375 0 
Q 17.1875 0 13.234375 3.875 
Q 9.28125 7.765625 9.28125 18.015625 
L 9.28125 47.703125 
L 2.6875 47.703125 
L 2.6875 54.6875 
L 9.28125 54.6875 
L 9.28125 70.21875 
z
" id="DejaVuSans-116"/>
     </defs>
     <g transform="translate(63.54238 296.35362)rotate(-300)scale(0.1 -0.1)">
      <use xlink:href="#DejaVuSans-76"/>
      <use x="55.697266" xlink:href="#DejaVuSans-101"/>
      <use x="117.220703" xlink:href="#DejaVuSans-102"/>
      <use x="152.410156" xlink:href="#DejaVuSans-116"/>
     </g>
    </g>
   </g>
   <g id="matplotlib.axis_3">
    <g id="xtick_13">
     <g id="line2d_13">
      <defs>
       <path d="M 0 0 
L -1.75 3.031089 
" id="md324458ca7" style="stroke:#000000;stroke-width:0.8;"/>
      </defs>
      <g>
       <use style="stroke:#000000;stroke-width:0.8;" x="97.2" xlink:href="#md324458ca7" y="287.984859"/>
      </g>
     </g>
     <g id="text_15">
      <!-- 0.0 -->
      <g transform="translate(89.038657 309.719156)rotate(-60)scale(0.1 -0.1)">
       <use xlink:href="#DejaVuSans-48"/>
       <use x="63.623047" xlink:href="#DejaVuSans-46"/>
       <use x="95.410156" xlink:href="#DejaVuSans-48"/>
      </g>
     </g>
    </g>
    <g id="xtick_14">
     <g id="line2d_14">
      <g>
       <use style="stroke:#000000;stroke-width:0.8;" x="149.603478" xlink:href="#md324458ca7" y="287.984859"/>
      </g>
     </g>
     <g id="text_16">
      <!-- 0.2 -->
      <g transform="translate(141.442136 309.719156)rotate(-60)scale(0.1 -0.1)">
       <use xlink:href="#DejaVuSans-48"/>
       <use x="63.623047" xlink:href="#DejaVuSans-46"/>
       <use x="95.410156" xlink:href="#DejaVuSans-50"/>
      </g>
     </g>
    </g>
    <g id="xtick_15">
     <g id="line2d_15">
      <g>
       <use style="stroke:#000000;stroke-width:0.8;" x="202.006957" xlink:href="#md324458ca7" y="287.984859"/>
      </g>
     </g>
     <g id="text_17">
      <!-- 0.4 -->
      <g transform="translate(193.845614 309.719156)rotate(-60)scale(0.1 -0.1)">
       <use xlink:href="#DejaVuSans-48"/>
       <use x="63.623047" xlink:href="#DejaVuSans-46"/>
       <use x="95.410156" xlink:href="#DejaVuSans-52"/>
      </g>
     </g>
    </g>
    <g id="xtick_16">
     <g id="line2d_16">
      <g>
       <use style="stroke:#000000;stroke-width:0.8;" x="254.410435" xlink:href="#md324458ca7" y="287.984859"/>
      </g>
     </g>
     <g id="text_18">
      <!-- 0.6 -->
      <g transform="translate(246.249092 309.719156)rotate(-60)scale(0.1 -0.1)">
       <use xlink:href="#DejaVuSans-48"/>
       <use x="63.623047" xlink:href="#DejaVuSans-46"/>
       <use x="95.410156" xlink:href="#DejaVuSans-54"/>
      </g>
     </g>
    </g>
    <g id="xtick_17">
     <g id="line2d_17">
      <g>
       <use style="stroke:#000000;stroke-width:0.8;" x="306.813913" xlink:href="#md324458ca7" y="287.984859"/>
      </g>
     </g>
     <g id="text_19">
      <!-- 0.8 -->
      <g transform="translate(298.65257 309.719156)rotate(-60)scale(0.1 -0.1)">
       <use xlink:href="#DejaVuSans-48"/>
       <use x="63.623047" xlink:href="#DejaVuSans-46"/>
       <use x="95.410156" xlink:href="#DejaVuSans-56"/>
      </g>
     </g>
    </g>
    <g id="xtick_18">
     <g id="line2d_18">
      <g>
       <use style="stroke:#000000;stroke-width:0.8;" x="359.217391" xlink:href="#md324458ca7" y="287.984859"/>
      </g>
     </g>
     <g id="text_20">
      <!-- 1.0 -->
      <g transform="translate(351.056049 309.719156)rotate(-60)scale(0.1 -0.1)">
       <use xlink:href="#DejaVuSans-49"/>
       <use x="63.623047" xlink:href="#DejaVuSans-46"/>
       <use x="95.410156" xlink:href="#DejaVuSans-48"/>
      </g>
     </g>
    </g>
    <g id="text_21">
     <!-- Right -->
     <defs>
      <path d="M 44.390625 34.1875 
Q 47.5625 33.109375 50.5625 29.59375 
Q 53.5625 26.078125 56.59375 19.921875 
L 66.609375 0 
L 56 0 
L 46.6875 18.703125 
Q 43.0625 26.03125 39.671875 28.421875 
Q 36.28125 30.8125 30.421875 30.8125 
L 19.671875 30.8125 
L 19.671875 0 
L 9.8125 0 
L 9.8125 72.90625 
L 32.078125 72.90625 
Q 44.578125 72.90625 50.734375 67.671875 
Q 56.890625 62.453125 56.890625 51.90625 
Q 56.890625 45.015625 53.6875 40.46875 
Q 50.484375 35.9375 44.390625 34.1875 
z
M 19.671875 64.796875 
L 19.671875 38.921875 
L 32.078125 38.921875 
Q 39.203125 38.921875 42.84375 42.21875 
Q 46.484375 45.515625 46.484375 51.90625 
Q 46.484375 58.296875 42.84375 61.546875 
Q 39.203125 64.796875 32.078125 64.796875 
z
" id="DejaVuSans-82"/>
      <path d="M 9.421875 54.6875 
L 18.40625 54.6875 
L 18.40625 0 
L 9.421875 0 
z
M 9.421875 75.984375 
L 18.40625 75.984375 
L 18.40625 64.59375 
L 9.421875 64.59375 
z
" id="DejaVuSans-105"/>
      <path d="M 45.40625 27.984375 
Q 45.40625 37.75 41.375 43.109375 
Q 37.359375 48.484375 30.078125 48.484375 
Q 22.859375 48.484375 18.828125 43.109375 
Q 14.796875 37.75 14.796875 27.984375 
Q 14.796875 18.265625 18.828125 12.890625 
Q 22.859375 7.515625 30.078125 7.515625 
Q 37.359375 7.515625 41.375 12.890625 
Q 45.40625 18.265625 45.40625 27.984375 
z
M 54.390625 6.78125 
Q 54.390625 -7.171875 48.1875 -13.984375 
Q 42 -20.796875 29.203125 -20.796875 
Q 24.46875 -20.796875 20.265625 -20.09375 
Q 16.0625 -19.390625 12.109375 -17.921875 
L 12.109375 -9.1875 
Q 16.0625 -11.328125 19.921875 -12.34375 
Q 23.78125 -13.375 27.78125 -13.375 
Q 36.625 -13.375 41.015625 -8.765625 
Q 45.40625 -4.15625 45.40625 5.171875 
L 45.40625 9.625 
Q 42.625 4.78125 38.28125 2.390625 
Q 33.9375 0 27.875 0 
Q 17.828125 0 11.671875 7.65625 
Q 5.515625 15.328125 5.515625 27.984375 
Q 5.515625 40.671875 11.671875 48.328125 
Q 17.828125 56 27.875 56 
Q 33.9375 56 38.28125 53.609375 
Q 42.625 51.21875 45.40625 46.390625 
L 45.40625 54.6875 
L 54.390625 54.6875 
z
" id="DejaVuSans-103"/>
      <path d="M 54.890625 33.015625 
L 54.890625 0 
L 45.90625 0 
L 45.90625 32.71875 
Q 45.90625 40.484375 42.875 44.328125 
Q 39.84375 48.1875 33.796875 48.1875 
Q 26.515625 48.1875 22.3125 43.546875 
Q 18.109375 38.921875 18.109375 30.90625 
L 18.109375 0 
L 9.078125 0 
L 9.078125 75.984375 
L 18.109375 75.984375 
L 18.109375 46.1875 
Q 21.34375 51.125 25.703125 53.5625 
Q 30.078125 56 35.796875 56 
Q 45.21875 56 50.046875 50.171875 
Q 54.890625 44.34375 54.890625 33.015625 
z
" id="DejaVuSans-104"/>
     </defs>
     <g transform="translate(382.401715 316.57359)rotate(-60)scale(0.1 -0.1)">
      <use xlink:href="#DejaVuSans-82"/>
      <use x="69.482422" xlink:href="#DejaVuSans-105"/>
      <use x="97.265625" xlink:href="#DejaVuSans-103"/>
      <use x="160.742188" xlink:href="#DejaVuSans-104"/>
      <use x="224.121094" xlink:href="#DejaVuSans-116"/>
     </g>
    </g>
   </g>
   <g id="line2d_19">
    <path clip-path="url(#pecabba2f5c)" d="M 228.208696 212.346953 
L 227.856649 212.291194 
L 227.530716 212.126664 
L 227.255937 211.861498 
L 227.055247 211.508923 
L 226.948507 211.086764 
L 226.951651 210.61678 
L 227.075968 210.12385 
L 227.327539 209.635032 
L 227.706867 209.178531 
L 228.208696 208.782601 
L 228.822042 208.474437 
L 229.53043 208.279072 
L 230.312332 208.218333 
L 231.141799 208.309883 
L 231.989262 208.566386 
L 232.82249 208.994835 
L 233.60766 209.596043 
L 234.310517 210.364351 
L 234.897587 211.287537 
L 235.3374 212.346953 
L 235.601681 213.517887 
L 235.666477 214.770133 
L 235.513176 216.068772 
L 235.129388 217.37513 
L 234.50964 218.647897 
L 233.655887 219.844369 
L 232.577787 220.921778 
L 231.292743 221.838674 
L 229.8257 222.556314 
L 228.208696 223.04001 
L 226.480174 223.260407 
L 224.68407 223.194634 
L 222.868695 222.827295 
L 221.085445 222.151266 
L 219.387374 221.168275 
L 217.827658 219.889218 
L 216.458009 218.334227 
L 215.327074 216.532446 
L 214.478866 214.521544 
L 213.951286 212.346953 
L 213.774772 210.060844 
L 213.971113 207.720882 
L 214.552493 205.38877 
L 215.520761 203.128628 
L 216.866996 201.005253 
L 218.571356 199.082293 
L 220.60324 197.420405 
L 222.921758 196.07543 
L 225.476517 195.096654 
L 228.208696 194.525191 
L 231.052392 194.39256 
L 233.936212 194.71947 
L 236.785061 195.514889 
L 239.522094 196.775396 
L 242.070773 198.484875 
L 244.356977 200.61454 
L 246.311104 203.123315 
L 247.870119 205.958569 
L 248.979464 209.057186 
L 249.59481 212.346953 
L 249.683558 215.748237 
L 249.226079 219.175915 
L 248.216621 222.5415 
L 246.663874 225.755425 
L 244.591151 228.729408 
L 242.036182 231.378855 
L 239.050516 233.625223 
L 235.698525 235.398276 
L 232.05605 236.638191 
L 228.208696 237.297419 
L 224.249824 237.342284 
L 220.278288 236.754237 
L 216.395966 235.530739 
L 212.70515 233.685753 
L 209.305863 231.249786 
L 206.293171 228.269513 
L 203.754565 224.806955 
L 201.767472 220.938227 
L 200.396989 216.751894 
L 199.693877 212.346953 
L 199.692895 207.830494 
L 200.411511 203.3151 
L 201.849048 198.916041 
L 203.986274 194.748333 
L 206.785485 190.923742 
L 210.191062 187.547807 
L 214.130511 184.716961 
L 218.515976 182.515828 
L 223.246166 181.014777 
L 228.208696 180.267782 
L 233.282742 180.310683 
L 238.341994 181.159868 
L 243.257789 182.811444 
L 247.902389 185.24091 
L 252.152284 188.403365 
L 255.891463 192.234245 
L 259.014549 196.650587 
L 261.429721 201.552787 
L 263.061341 206.826836 
L 263.852219 212.346953 
L 263.765435 217.978587 
L 262.785681 223.581696 
L 260.920066 229.014228 
L 258.19836 234.13572 
L 254.672662 238.810919 
L 250.416477 242.913342 
L 245.523244 246.328668 
L 240.104306 248.957878 
L 234.2864 250.720068 
L 228.208696 251.554829 
L 222.019474 251.424161 
L 215.872507 250.313839 
L 209.923238 248.234184 
L 204.324855 245.220239 
L 199.224352 241.331296 
L 194.758685 236.649808 
L 191.05112 231.279683 
L 188.20787 225.344009 
L 186.315112 218.982245 
L 185.436468 212.346953 
L 185.611018 205.600143 
L 186.851909 198.909318 
L 189.145603 192.443313 
L 192.451788 186.368039 
L 196.703974 180.842232 
L 201.810767 176.013321 
L 207.657783 172.013516 
L 214.110194 168.956226 
L 221.015816 166.9329 
L 228.208696 166.010373 
L 235.513093 166.228806 
L 242.747776 167.600266 
L 249.730518 170.107999 
L 256.282684 173.706423 
L 262.233795 178.321854 
L 267.42595 183.85395 
L 271.717994 190.177858 
L 274.989323 197.147006 
L 277.143218 204.596486 
L 278.109628 212.346953 
L 277.847312 220.208937 
L 276.345283 227.987478 
L 273.623511 235.486957 
L 269.732847 242.516015 
L 264.754172 248.89243 
L 258.796772 254.447828 
L 251.995972 259.032112 
L 244.510088 262.51748 
L 236.51675 264.801945 
L 228.208696 265.812238 
L 219.789124 265.506038 
L 211.466725 263.873441 
L 203.45051 260.937629 
L 195.94456 256.754726 
L 189.142841 251.412807 
L 183.224199 245.030103 
L 178.347675 237.752412 
L 174.648268 229.749791 
L 172.233235 221.212595 
L 171.179058 212.346953 
L 171.529141 203.369793 
L 173.292307 194.503537 
L 176.442158 185.970585 
L 180.917301 177.987744 
L 186.622464 170.760721 
L 193.430472 164.478834 
L 201.185055 159.310071 
L 209.704412 155.396624 
L 218.785466 152.851023 
L 228.208696 151.752963 
L 237.743443 152.146929 
L 247.153557 154.040664 
L 256.203246 157.404554 
L 264.662979 162.171937 
L 272.315305 168.240343 
L 278.960436 175.473655 
L 284.421439 183.70513 
L 288.548925 192.741224 
L 291.225095 202.366136 
L 292.367038 212.346953 
L 291.929189 222.439288 
L 289.904885 232.39326 
L 286.326955 241.959685 
L 281.267333 250.89631 
L 274.835683 258.97394 
L 267.177067 265.982315 
L 258.468701 271.735557 
L 248.91587 276.077082 
L 238.7471 278.883822 
L 228.208696 280.069647 
L 217.558773 279.587915 
L 207.060943 277.433043 
L 196.977781 273.641074 
L 187.564265 268.289212 
L 179.06133 261.494318 
L 171.689712 253.410398 
L 165.64423 244.22514 
L 161.088665 234.155573 
L 158.151358 223.442945 
L 156.921649 212.346953 
L 156.921649 212.346953 
" style="fill:none;stroke:#1f77b4;stroke-linecap:square;stroke-width:1.5;"/>
   </g>
   <g id="patch_3">
    <path d="M 97.2 287.984859 
L 359.217391 287.984859 
" style="fill:none;stroke:#000000;stroke-linecap:square;stroke-linejoin:miter;stroke-width:0.8;"/>
   </g>
   <g id="patch_4">
    <path d="M 359.217391 287.984859 
L 228.208696 61.071141 
" style="fill:none;stroke:#000000;stroke-linecap:square;stroke-linejoin:miter;stroke-width:0.8;"/>
   </g>
   <g id="patch_5">
    <path d="M 228.208696 61.071141 
L 97.2 287.984859 
" style="fill:none;stroke:#000000;stroke-linecap:square;stroke-linejoin:miter;stroke-width:0.8;"/>
   </g>
   <g id="text_22">
    <!-- label_rotation_mode='axis' -->
    <defs>
     <path d="M 9.421875 75.984375 
L 18.40625 75.984375 
L 18.40625 0 
L 9.421875 0 
z
" id="DejaVuSans-108"/>
     <path d="M 34.28125 27.484375 
Q 23.390625 27.484375 19.1875 25 
Q 14.984375 22.515625 14.984375 16.5 
Q 14.984375 11.71875 18.140625 8.90625 
Q 21.296875 6.109375 26.703125 6.109375 
Q 34.1875 6.109375 38.703125 11.40625 
Q 43.21875 16.703125 43.21875 25.484375 
L 43.21875 27.484375 
z
M 52.203125 31.203125 
L 52.203125 0 
L 43.21875 0 
L 43.21875 8.296875 
Q 40.140625 3.328125 35.546875 0.953125 
Q 30.953125 -1.421875 24.3125 -1.421875 
Q 15.921875 -1.421875 10.953125 3.296875 
Q 6 8.015625 6 15.921875 
Q 6 25.140625 12.171875 29.828125 
Q 18.359375 34.515625 30.609375 34.515625 
L 43.21875 34.515625 
L 43.21875 35.40625 
Q 43.21875 41.609375 39.140625 45 
Q 35.0625 48.390625 27.6875 48.390625 
Q 23 48.390625 18.546875 47.265625 
Q 14.109375 46.140625 10.015625 43.890625 
L 10.015625 52.203125 
Q 14.9375 54.109375 19.578125 55.046875 
Q 24.21875 56 28.609375 56 
Q 40.484375 56 46.34375 49.84375 
Q 52.203125 43.703125 52.203125 31.203125 
z
" id="DejaVuSans-97"/>
     <path d="M 48.6875 27.296875 
Q 48.6875 37.203125 44.609375 42.84375 
Q 40.53125 48.484375 33.40625 48.484375 
Q 26.265625 48.484375 22.1875 42.84375 
Q 18.109375 37.203125 18.109375 27.296875 
Q 18.109375 17.390625 22.1875 11.75 
Q 26.265625 6.109375 33.40625 6.109375 
Q 40.53125 6.109375 44.609375 11.75 
Q 48.6875 17.390625 48.6875 27.296875 
z
M 18.109375 46.390625 
Q 20.953125 51.265625 25.265625 53.625 
Q 29.59375 56 35.59375 56 
Q 45.5625 56 51.78125 48.09375 
Q 58.015625 40.1875 58.015625 27.296875 
Q 58.015625 14.40625 51.78125 6.484375 
Q 45.5625 -1.421875 35.59375 -1.421875 
Q 29.59375 -1.421875 25.265625 0.953125 
Q 20.953125 3.328125 18.109375 8.203125 
L 18.109375 0 
L 9.078125 0 
L 9.078125 75.984375 
L 18.109375 75.984375 
z
" id="DejaVuSans-98"/>
     <path d="M 50.984375 -16.609375 
L 50.984375 -23.578125 
L -0.984375 -23.578125 
L -0.984375 -16.609375 
z
" id="DejaVuSans-95"/>
     <path d="M 41.109375 46.296875 
Q 39.59375 47.171875 37.8125 47.578125 
Q 36.03125 48 33.890625 48 
Q 26.265625 48 22.1875 43.046875 
Q 18.109375 38.09375 18.109375 28.8125 
L 18.109375 0 
L 9.078125 0 
L 9.078125 54.6875 
L 18.109375 54.6875 
L 18.109375 46.1875 
Q 20.953125 51.171875 25.484375 53.578125 
Q 30.03125 56 36.53125 56 
Q 37.453125 56 38.578125 55.875 
Q 39.703125 55.765625 41.0625 55.515625 
z
" id="DejaVuSans-114"/>
     <path d="M 54.890625 33.015625 
L 54.890625 0 
L 45.90625 0 
L 45.90625 32.71875 
Q 45.90625 40.484375 42.875 44.328125 
Q 39.84375 48.1875 33.796875 48.1875 
Q 26.515625 48.1875 22.3125 43.546875 
Q 18.109375 38.921875 18.109375 30.90625 
L 18.109375 0 
L 9.078125 0 
L 9.078125 54.6875 
L 18.109375 54.6875 
L 18.109375 46.1875 
Q 21.34375 51.125 25.703125 53.5625 
Q 30.078125 56 35.796875 56 
Q 45.21875 56 50.046875 50.171875 
Q 54.890625 44.34375 54.890625 33.015625 
z
" id="DejaVuSans-110"/>
     <path d="M 52 44.1875 
Q 55.375 50.25 60.0625 53.125 
Q 64.75 56 71.09375 56 
Q 79.640625 56 84.28125 50.015625 
Q 88.921875 44.046875 88.921875 33.015625 
L 88.921875 0 
L 79.890625 0 
L 79.890625 32.71875 
Q 79.890625 40.578125 77.09375 44.375 
Q 74.3125 48.1875 68.609375 48.1875 
Q 61.625 48.1875 57.5625 43.546875 
Q 53.515625 38.921875 53.515625 30.90625 
L 53.515625 0 
L 44.484375 0 
L 44.484375 32.71875 
Q 44.484375 40.625 41.703125 44.40625 
Q 38.921875 48.1875 33.109375 48.1875 
Q 26.21875 48.1875 22.15625 43.53125 
Q 18.109375 38.875 18.109375 30.90625 
L 18.109375 0 
L 9.078125 0 
L 9.078125 54.6875 
L 18.109375 54.6875 
L 18.109375 46.1875 
Q 21.1875 51.21875 25.484375 53.609375 
Q 29.78125 56 35.6875 56 
Q 41.65625 56 45.828125 52.96875 
Q 50 49.953125 52 44.1875 
z
" id="DejaVuSans-109"/>
     <path d="M 45.40625 46.390625 
L 45.40625 75.984375 
L 54.390625 75.984375 
L 54.390625 0 
L 45.40625 0 
L 45.40625 8.203125 
Q 42.578125 3.328125 38.25 0.953125 
Q 33.9375 -1.421875 27.875 -1.421875 
Q 17.96875 -1.421875 11.734375 6.484375 
Q 5.515625 14.40625 5.515625 27.296875 
Q 5.515625 40.1875 11.734375 48.09375 
Q 17.96875 56 27.875 56 
Q 33.9375 56 38.25 53.625 
Q 42.578125 51.265625 45.40625 46.390625 
z
M 14.796875 27.296875 
Q 14.796875 17.390625 18.875 11.75 
Q 22.953125 6.109375 30.078125 6.109375 
Q 37.203125 6.109375 41.296875 11.75 
Q 45.40625 17.390625 45.40625 27.296875 
Q 45.40625 37.203125 41.296875 42.84375 
Q 37.203125 48.484375 30.078125 48.484375 
Q 22.953125 48.484375 18.875 42.84375 
Q 14.796875 37.203125 14.796875 27.296875 
z
" id="DejaVuSans-100"/>
     <path d="M 10.59375 45.40625 
L 73.1875 45.40625 
L 73.1875 37.203125 
L 10.59375 37.203125 
z
M 10.59375 25.484375 
L 73.1875 25.484375 
L 73.1875 17.1875 
L 10.59375 17.1875 
z
" id="DejaVuSans-61"/>
     <path d="M 17.921875 72.90625 
L 17.921875 45.796875 
L 9.625 45.796875 
L 9.625 72.90625 
z
" id="DejaVuSans-39"/>
     <path d="M 54.890625 54.6875 
L 35.109375 28.078125 
L 55.90625 0 
L 45.3125 0 
L 29.390625 21.484375 
L 13.484375 0 
L 2.875 0 
L 24.125 28.609375 
L 4.6875 54.6875 
L 15.28125 54.6875 
L 29.78125 35.203125 
L 44.28125 54.6875 
z
" id="DejaVuSans-120"/>
     <path d="M 44.28125 53.078125 
L 44.28125 44.578125 
Q 40.484375 46.53125 36.375 47.5 
Q 32.28125 48.484375 27.875 48.484375 
Q 21.1875 48.484375 17.84375 46.4375 
Q 14.5 44.390625 14.5 40.28125 
Q 14.5 37.15625 16.890625 35.375 
Q 19.28125 33.59375 26.515625 31.984375 
L 29.59375 31.296875 
Q 39.15625 29.25 43.1875 25.515625 
Q 47.21875 21.78125 47.21875 15.09375 
Q 47.21875 7.46875 41.1875 3.015625 
Q 35.15625 -1.421875 24.609375 -1.421875 
Q 20.21875 -1.421875 15.453125 -0.5625 
Q 10.6875 0.296875 5.421875 2 
L 5.421875 11.28125 
Q 10.40625 8.6875 15.234375 7.390625 
Q 20.0625 6.109375 24.8125 6.109375 
Q 31.15625 6.109375 34.5625 8.28125 
Q 37.984375 10.453125 37.984375 14.40625 
Q 37.984375 18.0625 35.515625 20.015625 
Q 33.0625 21.96875 24.703125 23.78125 
L 21.578125 24.515625 
Q 13.234375 26.265625 9.515625 29.90625 
Q 5.8125 33.546875 5.8125 39.890625 
Q 5.8125 47.609375 11.28125 51.796875 
Q 16.75 56 26.8125 56 
Q 31.78125 56 36.171875 55.265625 
Q 40.578125 54.546875 44.28125 53.078125 
z
" id="DejaVuSans-115"/>
    </defs>
    <g transform="translate(146.676196 19.071141)scale(0.12 -0.12)">
     <use xlink:href="#DejaVuSans-108"/>
     <use x="27.783203" xlink:href="#DejaVuSans-97"/>
     <use x="89.0625" xlink:href="#DejaVuSans-98"/>
     <use x="152.539062" xlink:href="#DejaVuSans-101"/>
     <use x="214.0625" xlink:href="#DejaVuSans-108"/>
     <use x="241.845703" xlink:href="#DejaVuSans-95"/>
     <use x="291.845703" xlink:href="#DejaVuSans-114"/>
     <use x="332.927734" xlink:href="#DejaVuSans-111"/>
     <use x="394.109375" xlink:href="#DejaVuSans-116"/>
     <use x="433.318359" xlink:href="#DejaVuSans-97"/>
     <use x="494.597656" xlink:href="#DejaVuSans-116"/>
     <use x="533.806641" xlink:href="#DejaVuSans-105"/>
     <use x="561.589844" xlink:href="#DejaVuSans-111"/>
     <use x="622.771484" xlink:href="#DejaVuSans-110"/>
     <use x="686.150391" xlink:href="#DejaVuSans-95"/>
     <use x="736.150391" xlink:href="#DejaVuSans-109"/>
     <use x="833.5625" xlink:href="#DejaVuSans-111"/>
     <use x="894.744141" xlink:href="#DejaVuSans-100"/>
     <use x="958.220703" xlink:href="#DejaVuSans-101"/>
     <use x="1019.744141" xlink:href="#DejaVuSans-61"/>
     <use x="1103.533203" xlink:href="#DejaVuSans-39"/>
     <use x="1131.023438" xlink:href="#DejaVuSans-97"/>
     <use x="1192.302734" xlink:href="#DejaVuSans-120"/>
     <use x="1251.482422" xlink:href="#DejaVuSans-105"/>
     <use x="1279.265625" xlink:href="#DejaVuSans-115"/>
     <use x="1331.365234" xlink:href="#DejaVuSans-39"/>
    </g>
   </g>
  </g>
  <g id="axes_2">
   <g id="patch_6">
    <path d="M 568.831304 61.071141 
L 437.822609 287.984859 
L 699.84 287.984859 
z
" style="fill:#ffffff;"/>
   </g>
   <g id="matplotlib.axis_4">
    <g id="xtick_19">
     <g id="line2d_20">
      <g>
       <use style="stroke:#000000;stroke-width:0.8;" x="699.84" xlink:href="#m2b82b25335" y="287.984859"/>
      </g>
     </g>
     <g id="text_23">
      <!-- 0.0 -->
      <g transform="translate(706.84 291.784077)scale(0.1 -0.1)">
       <use xlink:href="#DejaVuSans-48"/>
       <use x="63.623047" xlink:href="#DejaVuSans-46"/>
       <use x="95.410156" xlink:href="#DejaVuSans-48"/>
      </g>
     </g>
    </g>
    <g id="xtick_20">
     <g id="line2d_21">
      <g>
       <use style="stroke:#000000;stroke-width:0.8;" x="673.638261" xlink:href="#m2b82b25335" y="242.602115"/>
      </g>
     </g>
     <g id="text_24">
      <!-- 0.2 -->
      <g transform="translate(680.638261 246.401334)scale(0.1 -0.1)">
       <use xlink:href="#DejaVuSans-48"/>
       <use x="63.623047" xlink:href="#DejaVuSans-46"/>
       <use x="95.410156" xlink:href="#DejaVuSans-50"/>
      </g>
     </g>
    </g>
    <g id="xtick_21">
     <g id="line2d_22">
      <g>
       <use style="stroke:#000000;stroke-width:0.8;" x="647.436522" xlink:href="#m2b82b25335" y="197.219372"/>
      </g>
     </g>
     <g id="text_25">
      <!-- 0.4 -->
      <g transform="translate(654.436522 201.01859)scale(0.1 -0.1)">
       <use xlink:href="#DejaVuSans-48"/>
       <use x="63.623047" xlink:href="#DejaVuSans-46"/>
       <use x="95.410156" xlink:href="#DejaVuSans-52"/>
      </g>
     </g>
    </g>
    <g id="xtick_22">
     <g id="line2d_23">
      <g>
       <use style="stroke:#000000;stroke-width:0.8;" x="621.234783" xlink:href="#m2b82b25335" y="151.836628"/>
      </g>
     </g>
     <g id="text_26">
      <!-- 0.6 -->
      <g transform="translate(628.234783 155.635847)scale(0.1 -0.1)">
       <use xlink:href="#DejaVuSans-48"/>
       <use x="63.623047" xlink:href="#DejaVuSans-46"/>
       <use x="95.410156" xlink:href="#DejaVuSans-54"/>
      </g>
     </g>
    </g>
    <g id="xtick_23">
     <g id="line2d_24">
      <g>
       <use style="stroke:#000000;stroke-width:0.8;" x="595.033043" xlink:href="#m2b82b25335" y="106.453885"/>
      </g>
     </g>
     <g id="text_27">
      <!-- 0.8 -->
      <g transform="translate(602.033043 110.253104)scale(0.1 -0.1)">
       <use xlink:href="#DejaVuSans-48"/>
       <use x="63.623047" xlink:href="#DejaVuSans-46"/>
       <use x="95.410156" xlink:href="#DejaVuSans-56"/>
      </g>
     </g>
    </g>
    <g id="xtick_24">
     <g id="line2d_25">
      <g>
       <use style="stroke:#000000;stroke-width:0.8;" x="568.831304" xlink:href="#m2b82b25335" y="61.071141"/>
      </g>
     </g>
     <g id="text_28">
      <!-- 1.0 -->
      <g transform="translate(575.831304 64.87036)scale(0.1 -0.1)">
       <use xlink:href="#DejaVuSans-49"/>
       <use x="63.623047" xlink:href="#DejaVuSans-46"/>
       <use x="95.410156" xlink:href="#DejaVuSans-48"/>
      </g>
     </g>
    </g>
    <g id="text_29">
     <!-- Top -->
     <g transform="translate(559.557086 33.257156)scale(0.1 -0.1)">
      <use xlink:href="#DejaVuSans-84"/>
      <use x="60.818359" xlink:href="#DejaVuSans-111"/>
      <use x="122" xlink:href="#DejaVuSans-112"/>
     </g>
    </g>
   </g>
   <g id="matplotlib.axis_5">
    <g id="xtick_25">
     <g id="line2d_26">
      <g>
       <use style="stroke:#000000;stroke-width:0.8;" x="568.831304" xlink:href="#m9527759126" y="61.071141"/>
      </g>
     </g>
     <g id="text_30">
      <!-- 0.0 -->
      <g transform="translate(554.089522 43.136063)rotate(-300)scale(0.1 -0.1)">
       <use xlink:href="#DejaVuSans-48"/>
       <use x="63.623047" xlink:href="#DejaVuSans-46"/>
       <use x="95.410156" xlink:href="#DejaVuSans-48"/>
      </g>
     </g>
    </g>
    <g id="xtick_26">
     <g id="line2d_27">
      <g>
       <use style="stroke:#000000;stroke-width:0.8;" x="542.629565" xlink:href="#m9527759126" y="106.453885"/>
      </g>
     </g>
     <g id="text_31">
      <!-- 0.2 -->
      <g transform="translate(527.887783 88.518806)rotate(-300)scale(0.1 -0.1)">
       <use xlink:href="#DejaVuSans-48"/>
       <use x="63.623047" xlink:href="#DejaVuSans-46"/>
       <use x="95.410156" xlink:href="#DejaVuSans-50"/>
      </g>
     </g>
    </g>
    <g id="xtick_27">
     <g id="line2d_28">
      <g>
       <use style="stroke:#000000;stroke-width:0.8;" x="516.427826" xlink:href="#m9527759126" y="151.836628"/>
      </g>
     </g>
     <g id="text_32">
      <!-- 0.4 -->
      <g transform="translate(501.686044 133.90155)rotate(-300)scale(0.1 -0.1)">
       <use xlink:href="#DejaVuSans-48"/>
       <use x="63.623047" xlink:href="#DejaVuSans-46"/>
       <use x="95.410156" xlink:href="#DejaVuSans-52"/>
      </g>
     </g>
    </g>
    <g id="xtick_28">
     <g id="line2d_29">
      <g>
       <use style="stroke:#000000;stroke-width:0.8;" x="490.226087" xlink:href="#m9527759126" y="197.219372"/>
      </g>
     </g>
     <g id="text_33">
      <!-- 0.6 -->
      <g transform="translate(475.484305 179.284293)rotate(-300)scale(0.1 -0.1)">
       <use xlink:href="#DejaVuSans-48"/>
       <use x="63.623047" xlink:href="#DejaVuSans-46"/>
       <use x="95.410156" xlink:href="#DejaVuSans-54"/>
      </g>
     </g>
    </g>
    <g id="xtick_29">
     <g id="line2d_30">
      <g>
       <use style="stroke:#000000;stroke-width:0.8;" x="464.024348" xlink:href="#m9527759126" y="242.602115"/>
      </g>
     </g>
     <g id="text_34">
      <!-- 0.8 -->
      <g transform="translate(449.282565 224.667036)rotate(-300)scale(0.1 -0.1)">
       <use xlink:href="#DejaVuSans-48"/>
       <use x="63.623047" xlink:href="#DejaVuSans-46"/>
       <use x="95.410156" xlink:href="#DejaVuSans-56"/>
      </g>
     </g>
    </g>
    <g id="xtick_30">
     <g id="line2d_31">
      <g>
       <use style="stroke:#000000;stroke-width:0.8;" x="437.822609" xlink:href="#m9527759126" y="287.984859"/>
      </g>
     </g>
     <g id="text_35">
      <!-- 1.0 -->
      <g transform="translate(423.080826 270.04978)rotate(-300)scale(0.1 -0.1)">
       <use xlink:href="#DejaVuSans-49"/>
       <use x="63.623047" xlink:href="#DejaVuSans-46"/>
       <use x="95.410156" xlink:href="#DejaVuSans-48"/>
      </g>
     </g>
    </g>
    <g id="text_36">
     <!-- Left -->
     <g transform="translate(396.373553 308.450445)scale(0.1 -0.1)">
      <use xlink:href="#DejaVuSans-76"/>
      <use x="55.697266" xlink:href="#DejaVuSans-101"/>
      <use x="117.220703" xlink:href="#DejaVuSans-102"/>
      <use x="152.410156" xlink:href="#DejaVuSans-116"/>
     </g>
    </g>
   </g>
   <g id="matplotlib.axis_6">
    <g id="xtick_31">
     <g id="line2d_32">
      <g>
       <use style="stroke:#000000;stroke-width:0.8;" x="437.822609" xlink:href="#md324458ca7" y="287.984859"/>
      </g>
     </g>
     <g id="text_37">
      <!-- 0.0 -->
      <g transform="translate(429.661266 309.719156)rotate(-60)scale(0.1 -0.1)">
       <use xlink:href="#DejaVuSans-48"/>
       <use x="63.623047" xlink:href="#DejaVuSans-46"/>
       <use x="95.410156" xlink:href="#DejaVuSans-48"/>
      </g>
     </g>
    </g>
    <g id="xtick_32">
     <g id="line2d_33">
      <g>
       <use style="stroke:#000000;stroke-width:0.8;" x="490.226087" xlink:href="#md324458ca7" y="287.984859"/>
      </g>
     </g>
     <g id="text_38">
      <!-- 0.2 -->
      <g transform="translate(482.064744 309.719156)rotate(-60)scale(0.1 -0.1)">
       <use xlink:href="#DejaVuSans-48"/>
       <use x="63.623047" xlink:href="#DejaVuSans-46"/>
       <use x="95.410156" xlink:href="#DejaVuSans-50"/>
      </g>
     </g>
    </g>
    <g id="xtick_33">
     <g id="line2d_34">
      <g>
       <use style="stroke:#000000;stroke-width:0.8;" x="542.629565" xlink:href="#md324458ca7" y="287.984859"/>
      </g>
     </g>
     <g id="text_39">
      <!-- 0.4 -->
      <g transform="translate(534.468223 309.719156)rotate(-60)scale(0.1 -0.1)">
       <use xlink:href="#DejaVuSans-48"/>
       <use x="63.623047" xlink:href="#DejaVuSans-46"/>
       <use x="95.410156" xlink:href="#DejaVuSans-52"/>
      </g>
     </g>
    </g>
    <g id="xtick_34">
     <g id="line2d_35">
      <g>
       <use style="stroke:#000000;stroke-width:0.8;" x="595.033043" xlink:href="#md324458ca7" y="287.984859"/>
      </g>
     </g>
     <g id="text_40">
      <!-- 0.6 -->
      <g transform="translate(586.871701 309.719156)rotate(-60)scale(0.1 -0.1)">
       <use xlink:href="#DejaVuSans-48"/>
       <use x="63.623047" xlink:href="#DejaVuSans-46"/>
       <use x="95.410156" xlink:href="#DejaVuSans-54"/>
      </g>
     </g>
    </g>
    <g id="xtick_35">
     <g id="line2d_36">
      <g>
       <use style="stroke:#000000;stroke-width:0.8;" x="647.436522" xlink:href="#md324458ca7" y="287.984859"/>
      </g>
     </g>
     <g id="text_41">
      <!-- 0.8 -->
      <g transform="translate(639.275179 309.719156)rotate(-60)scale(0.1 -0.1)">
       <use xlink:href="#DejaVuSans-48"/>
       <use x="63.623047" xlink:href="#DejaVuSans-46"/>
       <use x="95.410156" xlink:href="#DejaVuSans-56"/>
      </g>
     </g>
    </g>
    <g id="xtick_36">
     <g id="line2d_37">
      <g>
       <use style="stroke:#000000;stroke-width:0.8;" x="699.84" xlink:href="#md324458ca7" y="287.984859"/>
      </g>
     </g>
     <g id="text_42">
      <!-- 1.0 -->
      <g transform="translate(691.678657 309.719156)rotate(-60)scale(0.1 -0.1)">
       <use xlink:href="#DejaVuSans-49"/>
       <use x="63.623047" xlink:href="#DejaVuSans-46"/>
       <use x="95.410156" xlink:href="#DejaVuSans-48"/>
      </g>
     </g>
    </g>
    <g id="text_43">
     <!-- Right -->
     <g transform="translate(723.027086 308.970367)scale(0.1 -0.1)">
      <use xlink:href="#DejaVuSans-82"/>
      <use x="69.482422" xlink:href="#DejaVuSans-105"/>
      <use x="97.265625" xlink:href="#DejaVuSans-103"/>
      <use x="160.742188" xlink:href="#DejaVuSans-104"/>
      <use x="224.121094" xlink:href="#DejaVuSans-116"/>
     </g>
    </g>
   </g>
   <g id="line2d_38">
    <path clip-path="url(#p08450dbe44)" d="M 568.831304 212.346953 
L 568.479257 212.291194 
L 568.153324 212.126664 
L 567.878546 211.861498 
L 567.677856 211.508923 
L 567.571115 211.086764 
L 567.57426 210.61678 
L 567.698577 210.12385 
L 567.950148 209.635032 
L 568.329476 209.178531 
L 568.831304 208.782601 
L 569.444651 208.474437 
L 570.153039 208.279072 
L 570.934941 208.218333 
L 571.764408 208.309883 
L 572.611871 208.566386 
L 573.445099 208.994835 
L 574.230268 209.596043 
L 574.933125 210.364351 
L 575.520196 211.287537 
L 575.960009 212.346953 
L 576.22429 213.517887 
L 576.289085 214.770133 
L 576.135785 216.068772 
L 575.751996 217.37513 
L 575.132249 218.647897 
L 574.278496 219.844369 
L 573.200396 220.921778 
L 571.915352 221.838674 
L 570.448308 222.556314 
L 568.831304 223.04001 
L 567.102783 223.260407 
L 565.306679 223.194634 
L 563.491303 222.827295 
L 561.708054 222.151266 
L 560.009982 221.168275 
L 558.450267 219.889218 
L 557.080618 218.334227 
L 555.949682 216.532446 
L 555.101474 214.521544 
L 554.573895 212.346953 
L 554.39738 210.060844 
L 554.593722 207.720882 
L 555.175101 205.38877 
L 556.143369 203.128628 
L 557.489605 201.005253 
L 559.193965 199.082293 
L 561.225848 197.420405 
L 563.544366 196.07543 
L 566.099125 195.096654 
L 568.831304 194.525191 
L 571.675001 194.39256 
L 574.558821 194.71947 
L 577.407669 195.514889 
L 580.144703 196.775396 
L 582.693382 198.484875 
L 584.979585 200.61454 
L 586.933713 203.123315 
L 588.492727 205.958569 
L 589.602073 209.057186 
L 590.217418 212.346953 
L 590.306167 215.748237 
L 589.848688 219.175915 
L 588.83923 222.5415 
L 587.286483 225.755425 
L 585.213759 228.729408 
L 582.658791 231.378855 
L 579.673124 233.625223 
L 576.321133 235.398276 
L 572.678658 236.638191 
L 568.831304 237.297419 
L 564.872433 237.342284 
L 560.900897 236.754237 
L 557.018575 235.530739 
L 553.327759 233.685753 
L 549.928472 231.249786 
L 546.91578 228.269513 
L 544.377173 224.806955 
L 542.39008 220.938227 
L 541.019597 216.751894 
L 540.316486 212.346953 
L 540.315503 207.830494 
L 541.03412 203.3151 
L 542.471657 198.916041 
L 544.608883 194.748333 
L 547.408094 190.923742 
L 550.81367 187.547807 
L 554.75312 184.716961 
L 559.138584 182.515828 
L 563.868775 181.014777 
L 568.831304 180.267782 
L 573.905351 180.310683 
L 578.964602 181.159868 
L 583.880398 182.811444 
L 588.524997 185.24091 
L 592.774893 188.403365 
L 596.514072 192.234245 
L 599.637158 196.650587 
L 602.052329 201.552787 
L 603.68395 206.826836 
L 604.474828 212.346953 
L 604.388044 217.978587 
L 603.40829 223.581696 
L 601.542675 229.014228 
L 598.820969 234.13572 
L 595.29527 238.810919 
L 591.039086 242.913342 
L 586.145853 246.328668 
L 580.726915 248.957878 
L 574.909009 250.720068 
L 568.831304 251.554829 
L 562.642083 251.424161 
L 556.495115 250.313839 
L 550.545847 248.234184 
L 544.947464 245.220239 
L 539.846961 241.331296 
L 535.381294 236.649808 
L 531.673729 231.279683 
L 528.830478 225.344009 
L 526.93772 218.982245 
L 526.059076 212.346953 
L 526.233627 205.600143 
L 527.474518 198.909318 
L 529.768212 192.443313 
L 533.074396 186.368039 
L 537.326583 180.842232 
L 542.433375 176.013321 
L 548.280392 172.013516 
L 554.732803 168.956226 
L 561.638425 166.9329 
L 568.831304 166.010373 
L 576.135701 166.228806 
L 583.370384 167.600266 
L 590.353126 170.107999 
L 596.905292 173.706423 
L 602.856403 178.321854 
L 608.048558 183.85395 
L 612.340603 190.177858 
L 615.611931 197.147006 
L 617.765827 204.596486 
L 618.732237 212.346953 
L 618.469921 220.208937 
L 616.967892 227.987478 
L 614.246119 235.486957 
L 610.355456 242.516015 
L 605.376781 248.89243 
L 599.419381 254.447828 
L 592.618581 259.032112 
L 585.132697 262.51748 
L 577.139359 264.801945 
L 568.831304 265.812238 
L 560.411732 265.506038 
L 552.089334 263.873441 
L 544.073118 260.937629 
L 536.567169 256.754726 
L 529.76545 251.412807 
L 523.846807 245.030103 
L 518.970284 237.752412 
L 515.270876 229.749791 
L 512.855843 221.212595 
L 511.801667 212.346953 
L 512.15175 203.369793 
L 513.914916 194.503537 
L 517.064767 185.970585 
L 521.53991 177.987744 
L 527.245072 170.760721 
L 534.05308 164.478834 
L 541.807663 159.310071 
L 550.327021 155.396624 
L 559.408075 152.851023 
L 568.831304 151.752963 
L 578.366051 152.146929 
L 587.776166 154.040664 
L 596.825855 157.404554 
L 605.285587 162.171937 
L 612.937914 168.240343 
L 619.583045 175.473655 
L 625.044047 183.70513 
L 629.171533 192.741224 
L 631.847704 202.366136 
L 632.989646 212.346953 
L 632.551798 222.439288 
L 630.527494 232.39326 
L 626.949564 241.959685 
L 621.889942 250.89631 
L 615.458292 258.97394 
L 607.799676 265.982315 
L 599.09131 271.735557 
L 589.538479 276.077082 
L 579.369709 278.883822 
L 568.831304 280.069647 
L 558.181382 279.587915 
L 547.683552 277.433043 
L 537.60039 273.641074 
L 528.186874 268.289212 
L 519.683939 261.494318 
L 512.312321 253.410398 
L 506.266839 244.22514 
L 501.711274 234.155573 
L 498.773966 223.442945 
L 497.544258 212.346953 
L 497.544258 212.346953 
" style="fill:none;stroke:#1f77b4;stroke-linecap:square;stroke-width:1.5;"/>
   </g>
   <g id="patch_7">
    <path d="M 437.822609 287.984859 
L 699.84 287.984859 
" style="fill:none;stroke:#000000;stroke-linecap:square;stroke-linejoin:miter;stroke-width:0.8;"/>
   </g>
   <g id="patch_8">
    <path d="M 699.84 287.984859 
L 568.831304 61.071141 
" style="fill:none;stroke:#000000;stroke-linecap:square;stroke-linejoin:miter;stroke-width:0.8;"/>
   </g>
   <g id="patch_9">
    <path d="M 568.831304 61.071141 
L 437.822609 287.984859 
" style="fill:none;stroke:#000000;stroke-linecap:square;stroke-linejoin:miter;stroke-width:0.8;"/>
   </g>
   <g id="text_44">
    <!-- label_rotation_mode='horizontal' -->
    <defs>
     <path d="M 5.515625 54.6875 
L 48.1875 54.6875 
L 48.1875 46.484375 
L 14.40625 7.171875 
L 48.1875 7.171875 
L 48.1875 0 
L 4.296875 0 
L 4.296875 8.203125 
L 38.09375 47.515625 
L 5.515625 47.515625 
z
" id="DejaVuSans-122"/>
    </defs>
    <g transform="translate(469.393492 19.071141)scale(0.12 -0.12)">
     <use xlink:href="#DejaVuSans-108"/>
     <use x="27.783203" xlink:href="#DejaVuSans-97"/>
     <use x="89.0625" xlink:href="#DejaVuSans-98"/>
     <use x="152.539062" xlink:href="#DejaVuSans-101"/>
     <use x="214.0625" xlink:href="#DejaVuSans-108"/>
     <use x="241.845703" xlink:href="#DejaVuSans-95"/>
     <use x="291.845703" xlink:href="#DejaVuSans-114"/>
     <use x="332.927734" xlink:href="#DejaVuSans-111"/>
     <use x="394.109375" xlink:href="#DejaVuSans-116"/>
     <use x="433.318359" xlink:href="#DejaVuSans-97"/>
     <use x="494.597656" xlink:href="#DejaVuSans-116"/>
     <use x="533.806641" xlink:href="#DejaVuSans-105"/>
     <use x="561.589844" xlink:href="#DejaVuSans-111"/>
     <use x="622.771484" xlink:href="#DejaVuSans-110"/>
     <use x="686.150391" xlink:href="#DejaVuSans-95"/>
     <use x="736.150391" xlink:href="#DejaVuSans-109"/>
     <use x="833.5625" xlink:href="#DejaVuSans-111"/>
     <use x="894.744141" xlink:href="#DejaVuSans-100"/>
     <use x="958.220703" xlink:href="#DejaVuSans-101"/>
     <use x="1019.744141" xlink:href="#DejaVuSans-61"/>
     <use x="1103.533203" xlink:href="#DejaVuSans-39"/>
     <use x="1131.023438" xlink:href="#DejaVuSans-104"/>
     <use x="1194.402344" xlink:href="#DejaVuSans-111"/>
     <use x="1255.583984" xlink:href="#DejaVuSans-114"/>
     <use x="1296.697266" xlink:href="#DejaVuSans-105"/>
     <use x="1324.480469" xlink:href="#DejaVuSans-122"/>
     <use x="1376.970703" xlink:href="#DejaVuSans-111"/>
     <use x="1438.152344" xlink:href="#DejaVuSans-110"/>
     <use x="1501.53125" xlink:href="#DejaVuSans-116"/>
     <use x="1540.740234" xlink:href="#DejaVuSans-97"/>
     <use x="1602.019531" xlink:href="#DejaVuSans-108"/>
     <use x="1629.802734" xlink:href="#DejaVuSans-39"/>
    </g>
   </g>
  </g>
 </g>
 <defs>
  <clipPath id="pecabba2f5c">
   <path d="M 228.208696 61.071141 
L 97.2 287.984859 
L 359.217391 287.984859 
z
"/>
  </clipPath>
  <clipPath id="p08450dbe44">
   <path d="M 568.831304 61.071141 
L 437.822609 287.984859 
L 699.84 287.984859 
z
"/>
  </clipPath>
 </defs>
</svg>
