<?xml version="1.0" encoding="utf-8" standalone="no"?>
<!DOCTYPE svg PUBLIC "-//W3C//DTD SVG 1.1//EN"
  "http://www.w3.org/Graphics/SVG/1.1/DTD/svg11.dtd">
<!-- Created with matplotlib (https://matplotlib.org/) -->
<svg height="345.6pt" version="1.1" viewBox="0 0 777.6 345.6" width="777.6pt" xmlns="http://www.w3.org/2000/svg" xmlns:xlink="http://www.w3.org/1999/xlink">
 <defs>
  <style type="text/css">
*{stroke-linecap:butt;stroke-linejoin:round;}
  </style>
 </defs>
 <g id="figure_1">
  <g id="patch_1">
   <path d="M 0 345.6 
L 777.6 345.6 
L 777.6 0 
L 0 0 
z
" style="fill:#ffffff;"/>
  </g>
  <g id="axes_1">
   <g id="patch_2">
    <path d="M 228.208696 61.071141 
L 97.2 287.984859 
L 359.217391 287.984859 
z
" style="fill:#ffffff;"/>
   </g>
   <g id="line2d_1">
    <path clip-path="url(#p0dcd9f2ca0)" d="M 333.015652 287.984859 
L 359.217391 287.984859 
M 306.813913 287.984859 
L 333.015652 287.984859 
M 280.612174 287.984859 
L 306.813913 287.984859 
M 254.410435 287.984859 
L 280.612174 287.984859 
M 228.208696 287.984859 
L 254.410435 287.984859 
M 202.006957 287.984859 
L 228.208696 287.984859 
M 175.805217 287.984859 
L 202.006957 287.984859 
M 149.603478 287.984859 
L 175.805217 287.984859 
M 123.401739 287.984859 
L 149.603478 287.984859 
M 97.2 287.984859 
L 123.401739 287.984859 
M 346.116522 265.293487 
L 359.217391 287.984859 
M 346.116522 265.293487 
L 333.015652 287.984859 
M 319.914783 265.293487 
L 333.015652 287.984859 
M 319.914783 265.293487 
L 306.813913 287.984859 
M 319.914783 265.293487 
L 346.116522 265.293487 
M 293.713043 265.293487 
L 306.813913 287.984859 
M 293.713043 265.293487 
L 280.612174 287.984859 
M 293.713043 265.293487 
L 319.914783 265.293487 
M 267.511304 265.293487 
L 280.612174 287.984859 
M 267.511304 265.293487 
L 254.410435 287.984859 
M 267.511304 265.293487 
L 293.713043 265.293487 
M 241.309565 265.293487 
L 254.410435 287.984859 
M 241.309565 265.293487 
L 228.208696 287.984859 
M 241.309565 265.293487 
L 267.511304 265.293487 
M 215.107826 265.293487 
L 228.208696 287.984859 
M 215.107826 265.293487 
L 202.006957 287.984859 
M 215.107826 265.293487 
L 241.309565 265.293487 
M 188.906087 265.293487 
L 202.006957 287.984859 
M 188.906087 265.293487 
L 175.805217 287.984859 
M 188.906087 265.293487 
L 215.107826 265.293487 
M 162.704348 265.293487 
L 175.805217 287.984859 
M 162.704348 265.293487 
L 149.603478 287.984859 
M 162.704348 265.293487 
L 188.906087 265.293487 
M 136.502609 265.293487 
L 149.603478 287.984859 
M 136.502609 265.293487 
L 123.401739 287.984859 
M 136.502609 265.293487 
L 162.704348 265.293487 
M 110.30087 265.293487 
L 123.401739 287.984859 
M 110.30087 265.293487 
L 97.2 287.984859 
M 110.30087 265.293487 
L 136.502609 265.293487 
M 333.015652 242.602115 
L 346.116522 265.293487 
M 333.015652 242.602115 
L 319.914783 265.293487 
M 306.813913 242.602115 
L 319.914783 265.293487 
M 306.813913 242.602115 
L 293.713043 265.293487 
M 306.813913 242.602115 
L 333.015652 242.602115 
M 280.612174 242.602115 
L 293.713043 265.293487 
M 280.612174 242.602115 
L 267.511304 265.293487 
M 280.612174 242.602115 
L 306.813913 242.602115 
M 254.410435 242.602115 
L 267.511304 265.293487 
M 254.410435 242.602115 
L 241.309565 265.293487 
M 254.410435 242.602115 
L 280.612174 242.602115 
M 228.208696 242.602115 
L 241.309565 265.293487 
M 228.208696 242.602115 
L 215.107826 265.293487 
M 228.208696 242.602115 
L 254.410435 242.602115 
M 202.006957 242.602115 
L 215.107826 265.293487 
M 202.006957 242.602115 
L 188.906087 265.293487 
M 202.006957 242.602115 
L 228.208696 242.602115 
M 175.805217 242.602115 
L 188.906087 265.293487 
M 175.805217 242.602115 
L 162.704348 265.293487 
M 175.805217 242.602115 
L 202.006957 242.602115 
M 149.603478 242.602115 
L 162.704348 265.293487 
M 149.603478 242.602115 
L 136.502609 265.293487 
M 149.603478 242.602115 
L 175.805217 242.602115 
M 123.401739 242.602115 
L 136.502609 265.293487 
M 123.401739 242.602115 
L 110.30087 265.293487 
M 123.401739 242.602115 
L 149.603478 242.602115 
M 319.914783 219.910743 
L 333.015652 242.602115 
M 319.914783 219.910743 
L 306.813913 242.602115 
M 293.713043 219.910743 
L 306.813913 242.602115 
M 293.713043 219.910743 
L 280.612174 242.602115 
M 293.713043 219.910743 
L 319.914783 219.910743 
M 267.511304 219.910743 
L 280.612174 242.602115 
M 267.511304 219.910743 
L 254.410435 242.602115 
M 267.511304 219.910743 
L 293.713043 219.910743 
M 241.309565 219.910743 
L 254.410435 242.602115 
M 241.309565 219.910743 
L 228.208696 242.602115 
M 241.309565 219.910743 
L 267.511304 219.910743 
M 215.107826 219.910743 
L 228.208696 242.602115 
M 215.107826 219.910743 
L 202.006957 242.602115 
M 215.107826 219.910743 
L 241.309565 219.910743 
M 188.906087 219.910743 
L 202.006957 242.602115 
M 188.906087 219.910743 
L 175.805217 242.602115 
M 188.906087 219.910743 
L 215.107826 219.910743 
M 162.704348 219.910743 
L 175.805217 242.602115 
M 162.704348 219.910743 
L 149.603478 242.602115 
M 162.704348 219.910743 
L 188.906087 219.910743 
M 136.502609 219.910743 
L 149.603478 242.602115 
M 136.502609 219.910743 
L 123.401739 242.602115 
M 136.502609 219.910743 
L 162.704348 219.910743 
M 306.813913 197.219372 
L 319.914783 219.910743 
M 306.813913 197.219372 
L 293.713043 219.910743 
M 280.612174 197.219372 
L 293.713043 219.910743 
M 280.612174 197.219372 
L 267.511304 219.910743 
M 280.612174 197.219372 
L 306.813913 197.219372 
M 254.410435 197.219372 
L 267.511304 219.910743 
M 254.410435 197.219372 
L 241.309565 219.910743 
M 254.410435 197.219372 
L 280.612174 197.219372 
M 228.208696 197.219372 
L 241.309565 219.910743 
M 228.208696 197.219372 
L 215.107826 219.910743 
M 228.208696 197.219372 
L 254.410435 197.219372 
M 202.006957 197.219372 
L 215.107826 219.910743 
M 202.006957 197.219372 
L 188.906087 219.910743 
M 202.006957 197.219372 
L 228.208696 197.219372 
M 175.805217 197.219372 
L 188.906087 219.910743 
M 175.805217 197.219372 
L 162.704348 219.910743 
M 175.805217 197.219372 
L 202.006957 197.219372 
M 149.603478 197.219372 
L 162.704348 219.910743 
M 149.603478 197.219372 
L 136.502609 219.910743 
M 149.603478 197.219372 
L 175.805217 197.219372 
M 293.713043 174.528 
L 306.813913 197.219372 
M 293.713043 174.528 
L 280.612174 197.219372 
M 267.511304 174.528 
L 280.612174 197.219372 
M 267.511304 174.528 
L 254.410435 197.219372 
M 267.511304 174.528 
L 293.713043 174.528 
M 241.309565 174.528 
L 254.410435 197.219372 
M 241.309565 174.528 
L 228.208696 197.219372 
M 241.309565 174.528 
L 267.511304 174.528 
M 215.107826 174.528 
L 228.208696 197.219372 
M 215.107826 174.528 
L 202.006957 197.219372 
M 215.107826 174.528 
L 241.309565 174.528 
M 188.906087 174.528 
L 202.006957 197.219372 
M 188.906087 174.528 
L 175.805217 197.219372 
M 188.906087 174.528 
L 215.107826 174.528 
M 162.704348 174.528 
L 175.805217 197.219372 
M 162.704348 174.528 
L 149.603478 197.219372 
M 162.704348 174.528 
L 188.906087 174.528 
M 280.612174 151.836628 
L 293.713043 174.528 
M 280.612174 151.836628 
L 267.511304 174.528 
M 254.410435 151.836628 
L 267.511304 174.528 
M 254.410435 151.836628 
L 241.309565 174.528 
M 254.410435 151.836628 
L 280.612174 151.836628 
M 228.208696 151.836628 
L 241.309565 174.528 
M 228.208696 151.836628 
L 215.107826 174.528 
M 228.208696 151.836628 
L 254.410435 151.836628 
M 202.006957 151.836628 
L 215.107826 174.528 
M 202.006957 151.836628 
L 188.906087 174.528 
M 202.006957 151.836628 
L 228.208696 151.836628 
M 175.805217 151.836628 
L 188.906087 174.528 
M 175.805217 151.836628 
L 162.704348 174.528 
M 175.805217 151.836628 
L 202.006957 151.836628 
M 267.511304 129.145257 
L 280.612174 151.836628 
M 267.511304 129.145257 
L 254.410435 151.836628 
M 241.309565 129.145257 
L 254.410435 151.836628 
M 241.309565 129.145257 
L 228.208696 151.836628 
M 241.309565 129.145257 
L 267.511304 129.145257 
M 215.107826 129.145257 
L 228.208696 151.836628 
M 215.107826 129.145257 
L 202.006957 151.836628 
M 215.107826 129.145257 
L 241.309565 129.145257 
M 188.906087 129.145257 
L 202.006957 151.836628 
M 188.906087 129.145257 
L 175.805217 151.836628 
M 188.906087 129.145257 
L 215.107826 129.145257 
M 254.410435 106.453885 
L 267.511304 129.145257 
M 254.410435 106.453885 
L 241.309565 129.145257 
M 228.208696 106.453885 
L 241.309565 129.145257 
M 228.208696 106.453885 
L 215.107826 129.145257 
M 228.208696 106.453885 
L 254.410435 106.453885 
M 202.006957 106.453885 
L 215.107826 129.145257 
M 202.006957 106.453885 
L 188.906087 129.145257 
M 202.006957 106.453885 
L 228.208696 106.453885 
M 241.309565 83.762513 
L 254.410435 106.453885 
M 241.309565 83.762513 
L 228.208696 106.453885 
M 215.107826 83.762513 
L 228.208696 106.453885 
M 215.107826 83.762513 
L 202.006957 106.453885 
M 215.107826 83.762513 
L 241.309565 83.762513 
M 228.208696 61.071141 
L 241.309565 83.762513 
M 228.208696 61.071141 
L 215.107826 83.762513 
L 215.107826 83.762513 
" style="fill:none;stroke:#1f77b4;stroke-linecap:square;stroke-width:1.5;"/>
   </g>
   <g id="matplotlib.axis_1">
    <g id="xtick_1">
     <g id="line2d_2">
      <defs>
       <path d="M 0 0 
L 3.5 0 
" id="mef0fa5719e" style="stroke:#000000;stroke-width:0.8;"/>
      </defs>
      <g>
       <use style="stroke:#000000;stroke-width:0.8;" x="359.217391" xlink:href="#mef0fa5719e" y="287.984859"/>
      </g>
     </g>
     <g id="text_1">
      <!-- 0.0 -->
      <defs>
       <path d="M 31.78125 66.40625 
Q 24.171875 66.40625 20.328125 58.90625 
Q 16.5 51.421875 16.5 36.375 
Q 16.5 21.390625 20.328125 13.890625 
Q 24.171875 6.390625 31.78125 6.390625 
Q 39.453125 6.390625 43.28125 13.890625 
Q 47.125 21.390625 47.125 36.375 
Q 47.125 51.421875 43.28125 58.90625 
Q 39.453125 66.40625 31.78125 66.40625 
z
M 31.78125 74.21875 
Q 44.046875 74.21875 50.515625 64.515625 
Q 56.984375 54.828125 56.984375 36.375 
Q 56.984375 17.96875 50.515625 8.265625 
Q 44.046875 -1.421875 31.78125 -1.421875 
Q 19.53125 -1.421875 13.0625 8.265625 
Q 6.59375 17.96875 6.59375 36.375 
Q 6.59375 54.828125 13.0625 64.515625 
Q 19.53125 74.21875 31.78125 74.21875 
z
" id="DejaVuSans-48"/>
       <path d="M 10.6875 12.40625 
L 21 12.40625 
L 21 0 
L 10.6875 0 
z
" id="DejaVuSans-46"/>
      </defs>
      <g transform="translate(366.217391 291.784077)scale(0.1 -0.1)">
       <use xlink:href="#DejaVuSans-48"/>
       <use x="63.623047" xlink:href="#DejaVuSans-46"/>
       <use x="95.410156" xlink:href="#DejaVuSans-48"/>
      </g>
     </g>
    </g>
    <g id="xtick_2">
     <g id="line2d_3">
      <g>
       <use style="stroke:#000000;stroke-width:0.8;" x="333.015652" xlink:href="#mef0fa5719e" y="242.602115"/>
      </g>
     </g>
     <g id="text_2">
      <!-- 0.2 -->
      <defs>
       <path d="M 19.1875 8.296875 
L 53.609375 8.296875 
L 53.609375 0 
L 7.328125 0 
L 7.328125 8.296875 
Q 12.9375 14.109375 22.625 23.890625 
Q 32.328125 33.6875 34.8125 36.53125 
Q 39.546875 41.84375 41.421875 45.53125 
Q 43.3125 49.21875 43.3125 52.78125 
Q 43.3125 58.59375 39.234375 62.25 
Q 35.15625 65.921875 28.609375 65.921875 
Q 23.96875 65.921875 18.8125 64.3125 
Q 13.671875 62.703125 7.8125 59.421875 
L 7.8125 69.390625 
Q 13.765625 71.78125 18.9375 73 
Q 24.125 74.21875 28.421875 74.21875 
Q 39.75 74.21875 46.484375 68.546875 
Q 53.21875 62.890625 53.21875 53.421875 
Q 53.21875 48.921875 51.53125 44.890625 
Q 49.859375 40.875 45.40625 35.40625 
Q 44.1875 33.984375 37.640625 27.21875 
Q 31.109375 20.453125 19.1875 8.296875 
z
" id="DejaVuSans-50"/>
      </defs>
      <g transform="translate(340.015652 246.401334)scale(0.1 -0.1)">
       <use xlink:href="#DejaVuSans-48"/>
       <use x="63.623047" xlink:href="#DejaVuSans-46"/>
       <use x="95.410156" xlink:href="#DejaVuSans-50"/>
      </g>
     </g>
    </g>
    <g id="xtick_3">
     <g id="line2d_4">
      <g>
       <use style="stroke:#000000;stroke-width:0.8;" x="306.813913" xlink:href="#mef0fa5719e" y="197.219372"/>
      </g>
     </g>
     <g id="text_3">
      <!-- 0.4 -->
      <defs>
       <path d="M 37.796875 64.3125 
L 12.890625 25.390625 
L 37.796875 25.390625 
z
M 35.203125 72.90625 
L 47.609375 72.90625 
L 47.609375 25.390625 
L 58.015625 25.390625 
L 58.015625 17.1875 
L 47.609375 17.1875 
L 47.609375 0 
L 37.796875 0 
L 37.796875 17.1875 
L 4.890625 17.1875 
L 4.890625 26.703125 
z
" id="DejaVuSans-52"/>
      </defs>
      <g transform="translate(313.813913 201.01859)scale(0.1 -0.1)">
       <use xlink:href="#DejaVuSans-48"/>
       <use x="63.623047" xlink:href="#DejaVuSans-46"/>
       <use x="95.410156" xlink:href="#DejaVuSans-52"/>
      </g>
     </g>
    </g>
    <g id="xtick_4">
     <g id="line2d_5">
      <g>
       <use style="stroke:#000000;stroke-width:0.8;" x="280.612174" xlink:href="#mef0fa5719e" y="151.836628"/>
      </g>
     </g>
     <g id="text_4">
      <!-- 0.6 -->
      <defs>
       <path d="M 33.015625 40.375 
Q 26.375 40.375 22.484375 35.828125 
Q 18.609375 31.296875 18.609375 23.390625 
Q 18.609375 15.53125 22.484375 10.953125 
Q 26.375 6.390625 33.015625 6.390625 
Q 39.65625 6.390625 43.53125 10.953125 
Q 47.40625 15.53125 47.40625 23.390625 
Q 47.40625 31.296875 43.53125 35.828125 
Q 39.65625 40.375 33.015625 40.375 
z
M 52.59375 71.296875 
L 52.59375 62.3125 
Q 48.875 64.0625 45.09375 64.984375 
Q 41.3125 65.921875 37.59375 65.921875 
Q 27.828125 65.921875 22.671875 59.328125 
Q 17.53125 52.734375 16.796875 39.40625 
Q 19.671875 43.65625 24.015625 45.921875 
Q 28.375 48.1875 33.59375 48.1875 
Q 44.578125 48.1875 50.953125 41.515625 
Q 57.328125 34.859375 57.328125 23.390625 
Q 57.328125 12.15625 50.6875 5.359375 
Q 44.046875 -1.421875 33.015625 -1.421875 
Q 20.359375 -1.421875 13.671875 8.265625 
Q 6.984375 17.96875 6.984375 36.375 
Q 6.984375 53.65625 15.1875 63.9375 
Q 23.390625 74.21875 37.203125 74.21875 
Q 40.921875 74.21875 44.703125 73.484375 
Q 48.484375 72.75 52.59375 71.296875 
z
" id="DejaVuSans-54"/>
      </defs>
      <g transform="translate(287.612174 155.635847)scale(0.1 -0.1)">
       <use xlink:href="#DejaVuSans-48"/>
       <use x="63.623047" xlink:href="#DejaVuSans-46"/>
       <use x="95.410156" xlink:href="#DejaVuSans-54"/>
      </g>
     </g>
    </g>
    <g id="xtick_5">
     <g id="line2d_6">
      <g>
       <use style="stroke:#000000;stroke-width:0.8;" x="254.410435" xlink:href="#mef0fa5719e" y="106.453885"/>
      </g>
     </g>
     <g id="text_5">
      <!-- 0.8 -->
      <defs>
       <path d="M 31.78125 34.625 
Q 24.75 34.625 20.71875 30.859375 
Q 16.703125 27.09375 16.703125 20.515625 
Q 16.703125 13.921875 20.71875 10.15625 
Q 24.75 6.390625 31.78125 6.390625 
Q 38.8125 6.390625 42.859375 10.171875 
Q 46.921875 13.96875 46.921875 20.515625 
Q 46.921875 27.09375 42.890625 30.859375 
Q 38.875 34.625 31.78125 34.625 
z
M 21.921875 38.8125 
Q 15.578125 40.375 12.03125 44.71875 
Q 8.5 49.078125 8.5 55.328125 
Q 8.5 64.0625 14.71875 69.140625 
Q 20.953125 74.21875 31.78125 74.21875 
Q 42.671875 74.21875 48.875 69.140625 
Q 55.078125 64.0625 55.078125 55.328125 
Q 55.078125 49.078125 51.53125 44.71875 
Q 48 40.375 41.703125 38.8125 
Q 48.828125 37.15625 52.796875 32.3125 
Q 56.78125 27.484375 56.78125 20.515625 
Q 56.78125 9.90625 50.3125 4.234375 
Q 43.84375 -1.421875 31.78125 -1.421875 
Q 19.734375 -1.421875 13.25 4.234375 
Q 6.78125 9.90625 6.78125 20.515625 
Q 6.78125 27.484375 10.78125 32.3125 
Q 14.796875 37.15625 21.921875 38.8125 
z
M 18.3125 54.390625 
Q 18.3125 48.734375 21.84375 45.5625 
Q 25.390625 42.390625 31.78125 42.390625 
Q 38.140625 42.390625 41.71875 45.5625 
Q 45.3125 48.734375 45.3125 54.390625 
Q 45.3125 60.0625 41.71875 63.234375 
Q 38.140625 66.40625 31.78125 66.40625 
Q 25.390625 66.40625 21.84375 63.234375 
Q 18.3125 60.0625 18.3125 54.390625 
z
" id="DejaVuSans-56"/>
      </defs>
      <g transform="translate(261.410435 110.253104)scale(0.1 -0.1)">
       <use xlink:href="#DejaVuSans-48"/>
       <use x="63.623047" xlink:href="#DejaVuSans-46"/>
       <use x="95.410156" xlink:href="#DejaVuSans-56"/>
      </g>
     </g>
    </g>
    <g id="xtick_6">
     <g id="line2d_7">
      <g>
       <use style="stroke:#000000;stroke-width:0.8;" x="228.208696" xlink:href="#mef0fa5719e" y="61.071141"/>
      </g>
     </g>
     <g id="text_6">
      <!-- 1.0 -->
      <defs>
       <path d="M 12.40625 8.296875 
L 28.515625 8.296875 
L 28.515625 63.921875 
L 10.984375 60.40625 
L 10.984375 69.390625 
L 28.421875 72.90625 
L 38.28125 72.90625 
L 38.28125 8.296875 
L 54.390625 8.296875 
L 54.390625 0 
L 12.40625 0 
z
" id="DejaVuSans-49"/>
      </defs>
      <g transform="translate(235.208696 64.87036)scale(0.1 -0.1)">
       <use xlink:href="#DejaVuSans-49"/>
       <use x="63.623047" xlink:href="#DejaVuSans-46"/>
       <use x="95.410156" xlink:href="#DejaVuSans-48"/>
      </g>
     </g>
    </g>
   </g>
   <g id="matplotlib.axis_2">
    <g id="xtick_7">
     <g id="line2d_8">
      <defs>
       <path d="M 0 0 
L -1.75 -3.031089 
" id="m2601ab923b" style="stroke:#000000;stroke-width:0.8;"/>
      </defs>
      <g>
       <use style="stroke:#000000;stroke-width:0.8;" x="228.208696" xlink:href="#m2601ab923b" y="61.071141"/>
      </g>
     </g>
     <g id="text_7">
      <!-- 0.0 -->
      <g transform="translate(213.466913 43.136063)rotate(-300)scale(0.1 -0.1)">
       <use xlink:href="#DejaVuSans-48"/>
       <use x="63.623047" xlink:href="#DejaVuSans-46"/>
       <use x="95.410156" xlink:href="#DejaVuSans-48"/>
      </g>
     </g>
    </g>
    <g id="xtick_8">
     <g id="line2d_9">
      <g>
       <use style="stroke:#000000;stroke-width:0.8;" x="202.006957" xlink:href="#m2601ab923b" y="106.453885"/>
      </g>
     </g>
     <g id="text_8">
      <!-- 0.2 -->
      <g transform="translate(187.265174 88.518806)rotate(-300)scale(0.1 -0.1)">
       <use xlink:href="#DejaVuSans-48"/>
       <use x="63.623047" xlink:href="#DejaVuSans-46"/>
       <use x="95.410156" xlink:href="#DejaVuSans-50"/>
      </g>
     </g>
    </g>
    <g id="xtick_9">
     <g id="line2d_10">
      <g>
       <use style="stroke:#000000;stroke-width:0.8;" x="175.805217" xlink:href="#m2601ab923b" y="151.836628"/>
      </g>
     </g>
     <g id="text_9">
      <!-- 0.4 -->
      <g transform="translate(161.063435 133.90155)rotate(-300)scale(0.1 -0.1)">
       <use xlink:href="#DejaVuSans-48"/>
       <use x="63.623047" xlink:href="#DejaVuSans-46"/>
       <use x="95.410156" xlink:href="#DejaVuSans-52"/>
      </g>
     </g>
    </g>
    <g id="xtick_10">
     <g id="line2d_11">
      <g>
       <use style="stroke:#000000;stroke-width:0.8;" x="149.603478" xlink:href="#m2601ab923b" y="197.219372"/>
      </g>
     </g>
     <g id="text_10">
      <!-- 0.6 -->
      <g transform="translate(134.861696 179.284293)rotate(-300)scale(0.1 -0.1)">
       <use xlink:href="#DejaVuSans-48"/>
       <use x="63.623047" xlink:href="#DejaVuSans-46"/>
       <use x="95.410156" xlink:href="#DejaVuSans-54"/>
      </g>
     </g>
    </g>
    <g id="xtick_11">
     <g id="line2d_12">
      <g>
       <use style="stroke:#000000;stroke-width:0.8;" x="123.401739" xlink:href="#m2601ab923b" y="242.602115"/>
      </g>
     </g>
     <g id="text_11">
      <!-- 0.8 -->
      <g transform="translate(108.659957 224.667036)rotate(-300)scale(0.1 -0.1)">
       <use xlink:href="#DejaVuSans-48"/>
       <use x="63.623047" xlink:href="#DejaVuSans-46"/>
       <use x="95.410156" xlink:href="#DejaVuSans-56"/>
      </g>
     </g>
    </g>
    <g id="xtick_12">
     <g id="line2d_13">
      <g>
       <use style="stroke:#000000;stroke-width:0.8;" x="97.2" xlink:href="#m2601ab923b" y="287.984859"/>
      </g>
     </g>
     <g id="text_12">
      <!-- 1.0 -->
      <g transform="translate(82.458218 270.04978)rotate(-300)scale(0.1 -0.1)">
       <use xlink:href="#DejaVuSans-49"/>
       <use x="63.623047" xlink:href="#DejaVuSans-46"/>
       <use x="95.410156" xlink:href="#DejaVuSans-48"/>
      </g>
     </g>
    </g>
   </g>
   <g id="matplotlib.axis_3">
    <g id="xtick_13">
     <g id="line2d_14">
      <defs>
       <path d="M 0 0 
L -1.75 3.031089 
" id="mb867442803" style="stroke:#000000;stroke-width:0.8;"/>
      </defs>
      <g>
       <use style="stroke:#000000;stroke-width:0.8;" x="97.2" xlink:href="#mb867442803" y="287.984859"/>
      </g>
     </g>
     <g id="text_13">
      <!-- 0.0 -->
      <g transform="translate(89.038657 309.719156)rotate(-60)scale(0.1 -0.1)">
       <use xlink:href="#DejaVuSans-48"/>
       <use x="63.623047" xlink:href="#DejaVuSans-46"/>
       <use x="95.410156" xlink:href="#DejaVuSans-48"/>
      </g>
     </g>
    </g>
    <g id="xtick_14">
     <g id="line2d_15">
      <g>
       <use style="stroke:#000000;stroke-width:0.8;" x="149.603478" xlink:href="#mb867442803" y="287.984859"/>
      </g>
     </g>
     <g id="text_14">
      <!-- 0.2 -->
      <g transform="translate(141.442136 309.719156)rotate(-60)scale(0.1 -0.1)">
       <use xlink:href="#DejaVuSans-48"/>
       <use x="63.623047" xlink:href="#DejaVuSans-46"/>
       <use x="95.410156" xlink:href="#DejaVuSans-50"/>
      </g>
     </g>
    </g>
    <g id="xtick_15">
     <g id="line2d_16">
      <g>
       <use style="stroke:#000000;stroke-width:0.8;" x="202.006957" xlink:href="#mb867442803" y="287.984859"/>
      </g>
     </g>
     <g id="text_15">
      <!-- 0.4 -->
      <g transform="translate(193.845614 309.719156)rotate(-60)scale(0.1 -0.1)">
       <use xlink:href="#DejaVuSans-48"/>
       <use x="63.623047" xlink:href="#DejaVuSans-46"/>
       <use x="95.410156" xlink:href="#DejaVuSans-52"/>
      </g>
     </g>
    </g>
    <g id="xtick_16">
     <g id="line2d_17">
      <g>
       <use style="stroke:#000000;stroke-width:0.8;" x="254.410435" xlink:href="#mb867442803" y="287.984859"/>
      </g>
     </g>
     <g id="text_16">
      <!-- 0.6 -->
      <g transform="translate(246.249092 309.719156)rotate(-60)scale(0.1 -0.1)">
       <use xlink:href="#DejaVuSans-48"/>
       <use x="63.623047" xlink:href="#DejaVuSans-46"/>
       <use x="95.410156" xlink:href="#DejaVuSans-54"/>
      </g>
     </g>
    </g>
    <g id="xtick_17">
     <g id="line2d_18">
      <g>
       <use style="stroke:#000000;stroke-width:0.8;" x="306.813913" xlink:href="#mb867442803" y="287.984859"/>
      </g>
     </g>
     <g id="text_17">
      <!-- 0.8 -->
      <g transform="translate(298.65257 309.719156)rotate(-60)scale(0.1 -0.1)">
       <use xlink:href="#DejaVuSans-48"/>
       <use x="63.623047" xlink:href="#DejaVuSans-46"/>
       <use x="95.410156" xlink:href="#DejaVuSans-56"/>
      </g>
     </g>
    </g>
    <g id="xtick_18">
     <g id="line2d_19">
      <g>
       <use style="stroke:#000000;stroke-width:0.8;" x="359.217391" xlink:href="#mb867442803" y="287.984859"/>
      </g>
     </g>
     <g id="text_18">
      <!-- 1.0 -->
      <g transform="translate(351.056049 309.719156)rotate(-60)scale(0.1 -0.1)">
       <use xlink:href="#DejaVuSans-49"/>
       <use x="63.623047" xlink:href="#DejaVuSans-46"/>
       <use x="95.410156" xlink:href="#DejaVuSans-48"/>
      </g>
     </g>
    </g>
   </g>
   <g id="line2d_20"/>
   <g id="patch_3">
    <path d="M 97.2 287.984859 
L 359.217391 287.984859 
" style="fill:none;stroke:#000000;stroke-linecap:square;stroke-linejoin:miter;stroke-width:0.8;"/>
   </g>
   <g id="patch_4">
    <path d="M 359.217391 287.984859 
L 228.208696 61.071141 
" style="fill:none;stroke:#000000;stroke-linecap:square;stroke-linejoin:miter;stroke-width:0.8;"/>
   </g>
   <g id="patch_5">
    <path d="M 228.208696 61.071141 
L 97.2 287.984859 
" style="fill:none;stroke:#000000;stroke-linecap:square;stroke-linejoin:miter;stroke-width:0.8;"/>
   </g>
  </g>
  <g id="axes_2">
   <g id="patch_6">
    <path d="M 568.831304 61.071141 
L 437.822609 287.984859 
L 699.84 287.984859 
z
" style="fill:#ffffff;"/>
   </g>
   <g id="line2d_21">
    <path clip-path="url(#p46397bc3d4)" d="M 673.638261 287.984859 
L 699.84 287.984859 
M 647.436522 287.984859 
L 673.638261 287.984859 
M 621.234783 287.984859 
L 647.436522 287.984859 
M 595.033043 287.984859 
L 621.234783 287.984859 
M 568.831304 287.984859 
L 595.033043 287.984859 
M 542.629565 287.984859 
L 568.831304 287.984859 
M 516.427826 287.984859 
L 542.629565 287.984859 
M 490.226087 287.984859 
L 516.427826 287.984859 
M 464.024348 287.984859 
L 490.226087 287.984859 
M 437.822609 287.984859 
L 464.024348 287.984859 
M 686.73913 265.293487 
L 699.84 287.984859 
M 686.73913 265.293487 
L 673.638261 287.984859 
M 660.537391 265.293487 
L 673.638261 287.984859 
M 660.537391 265.293487 
L 647.436522 287.984859 
M 660.537391 265.293487 
L 686.73913 265.293487 
M 634.335652 265.293487 
L 647.436522 287.984859 
M 634.335652 265.293487 
L 621.234783 287.984859 
M 634.335652 265.293487 
L 660.537391 265.293487 
M 608.133913 265.293487 
L 621.234783 287.984859 
M 608.133913 265.293487 
L 595.033043 287.984859 
M 608.133913 265.293487 
L 634.335652 265.293487 
M 581.932174 265.293487 
L 595.033043 287.984859 
M 581.932174 265.293487 
L 568.831304 287.984859 
M 581.932174 265.293487 
L 608.133913 265.293487 
M 555.730435 265.293487 
L 568.831304 287.984859 
M 555.730435 265.293487 
L 542.629565 287.984859 
M 555.730435 265.293487 
L 581.932174 265.293487 
M 529.528696 265.293487 
L 542.629565 287.984859 
M 529.528696 265.293487 
L 516.427826 287.984859 
M 529.528696 265.293487 
L 555.730435 265.293487 
M 503.326957 265.293487 
L 516.427826 287.984859 
M 503.326957 265.293487 
L 490.226087 287.984859 
M 503.326957 265.293487 
L 529.528696 265.293487 
M 477.125217 265.293487 
L 490.226087 287.984859 
M 477.125217 265.293487 
L 464.024348 287.984859 
M 477.125217 265.293487 
L 503.326957 265.293487 
M 450.923478 265.293487 
L 464.024348 287.984859 
M 450.923478 265.293487 
L 437.822609 287.984859 
M 450.923478 265.293487 
L 477.125217 265.293487 
M 673.638261 242.602115 
L 686.73913 265.293487 
M 673.638261 242.602115 
L 660.537391 265.293487 
M 647.436522 242.602115 
L 660.537391 265.293487 
M 647.436522 242.602115 
L 634.335652 265.293487 
M 647.436522 242.602115 
L 673.638261 242.602115 
M 621.234783 242.602115 
L 634.335652 265.293487 
M 621.234783 242.602115 
L 608.133913 265.293487 
M 621.234783 242.602115 
L 647.436522 242.602115 
M 595.033043 242.602115 
L 608.133913 265.293487 
M 595.033043 242.602115 
L 581.932174 265.293487 
M 595.033043 242.602115 
L 621.234783 242.602115 
M 568.831304 242.602115 
L 581.932174 265.293487 
M 568.831304 242.602115 
L 555.730435 265.293487 
M 568.831304 242.602115 
L 595.033043 242.602115 
M 542.629565 242.602115 
L 555.730435 265.293487 
M 542.629565 242.602115 
L 529.528696 265.293487 
M 542.629565 242.602115 
L 568.831304 242.602115 
M 516.427826 242.602115 
L 529.528696 265.293487 
M 516.427826 242.602115 
L 503.326957 265.293487 
M 516.427826 242.602115 
L 542.629565 242.602115 
M 490.226087 242.602115 
L 503.326957 265.293487 
M 490.226087 242.602115 
L 477.125217 265.293487 
M 490.226087 242.602115 
L 516.427826 242.602115 
M 464.024348 242.602115 
L 477.125217 265.293487 
M 464.024348 242.602115 
L 450.923478 265.293487 
M 464.024348 242.602115 
L 490.226087 242.602115 
M 660.537391 219.910743 
L 673.638261 242.602115 
M 660.537391 219.910743 
L 647.436522 242.602115 
M 634.335652 219.910743 
L 647.436522 242.602115 
M 634.335652 219.910743 
L 621.234783 242.602115 
M 634.335652 219.910743 
L 660.537391 219.910743 
M 608.133913 219.910743 
L 621.234783 242.602115 
M 608.133913 219.910743 
L 595.033043 242.602115 
M 608.133913 219.910743 
L 634.335652 219.910743 
M 581.932174 219.910743 
L 595.033043 242.602115 
M 581.932174 219.910743 
L 568.831304 242.602115 
M 581.932174 219.910743 
L 608.133913 219.910743 
M 555.730435 219.910743 
L 568.831304 242.602115 
M 555.730435 219.910743 
L 542.629565 242.602115 
M 555.730435 219.910743 
L 581.932174 219.910743 
M 529.528696 219.910743 
L 542.629565 242.602115 
M 529.528696 219.910743 
L 516.427826 242.602115 
M 529.528696 219.910743 
L 555.730435 219.910743 
M 503.326957 219.910743 
L 516.427826 242.602115 
M 503.326957 219.910743 
L 490.226087 242.602115 
M 503.326957 219.910743 
L 529.528696 219.910743 
M 477.125217 219.910743 
L 490.226087 242.602115 
M 477.125217 219.910743 
L 464.024348 242.602115 
M 477.125217 219.910743 
L 503.326957 219.910743 
M 647.436522 197.219372 
L 660.537391 219.910743 
M 647.436522 197.219372 
L 634.335652 219.910743 
M 621.234783 197.219372 
L 634.335652 219.910743 
M 621.234783 197.219372 
L 608.133913 219.910743 
M 621.234783 197.219372 
L 647.436522 197.219372 
M 595.033043 197.219372 
L 608.133913 219.910743 
M 595.033043 197.219372 
L 581.932174 219.910743 
M 595.033043 197.219372 
L 621.234783 197.219372 
M 568.831304 197.219372 
L 581.932174 219.910743 
M 568.831304 197.219372 
L 555.730435 219.910743 
M 568.831304 197.219372 
L 595.033043 197.219372 
M 542.629565 197.219372 
L 555.730435 219.910743 
M 542.629565 197.219372 
L 529.528696 219.910743 
M 542.629565 197.219372 
L 568.831304 197.219372 
M 516.427826 197.219372 
L 529.528696 219.910743 
M 516.427826 197.219372 
L 503.326957 219.910743 
M 516.427826 197.219372 
L 542.629565 197.219372 
M 490.226087 197.219372 
L 503.326957 219.910743 
M 490.226087 197.219372 
L 477.125217 219.910743 
M 490.226087 197.219372 
L 516.427826 197.219372 
M 634.335652 174.528 
L 647.436522 197.219372 
M 634.335652 174.528 
L 621.234783 197.219372 
M 608.133913 174.528 
L 621.234783 197.219372 
M 608.133913 174.528 
L 595.033043 197.219372 
M 608.133913 174.528 
L 634.335652 174.528 
M 581.932174 174.528 
L 595.033043 197.219372 
M 581.932174 174.528 
L 568.831304 197.219372 
M 581.932174 174.528 
L 608.133913 174.528 
M 555.730435 174.528 
L 568.831304 197.219372 
M 555.730435 174.528 
L 542.629565 197.219372 
M 555.730435 174.528 
L 581.932174 174.528 
M 529.528696 174.528 
L 542.629565 197.219372 
M 529.528696 174.528 
L 516.427826 197.219372 
M 529.528696 174.528 
L 555.730435 174.528 
M 503.326957 174.528 
L 516.427826 197.219372 
M 503.326957 174.528 
L 490.226087 197.219372 
M 503.326957 174.528 
L 529.528696 174.528 
M 621.234783 151.836628 
L 634.335652 174.528 
M 621.234783 151.836628 
L 608.133913 174.528 
M 595.033043 151.836628 
L 608.133913 174.528 
M 595.033043 151.836628 
L 581.932174 174.528 
M 595.033043 151.836628 
L 621.234783 151.836628 
M 568.831304 151.836628 
L 581.932174 174.528 
M 568.831304 151.836628 
L 555.730435 174.528 
M 568.831304 151.836628 
L 595.033043 151.836628 
M 542.629565 151.836628 
L 555.730435 174.528 
M 542.629565 151.836628 
L 529.528696 174.528 
M 542.629565 151.836628 
L 568.831304 151.836628 
M 516.427826 151.836628 
L 529.528696 174.528 
M 516.427826 151.836628 
L 503.326957 174.528 
M 516.427826 151.836628 
L 542.629565 151.836628 
M 608.133913 129.145257 
L 621.234783 151.836628 
M 608.133913 129.145257 
L 595.033043 151.836628 
M 581.932174 129.145257 
L 595.033043 151.836628 
M 581.932174 129.145257 
L 568.831304 151.836628 
M 581.932174 129.145257 
L 608.133913 129.145257 
M 555.730435 129.145257 
L 568.831304 151.836628 
M 555.730435 129.145257 
L 542.629565 151.836628 
M 555.730435 129.145257 
L 581.932174 129.145257 
M 529.528696 129.145257 
L 542.629565 151.836628 
M 529.528696 129.145257 
L 516.427826 151.836628 
M 529.528696 129.145257 
L 555.730435 129.145257 
M 595.033043 106.453885 
L 608.133913 129.145257 
M 595.033043 106.453885 
L 581.932174 129.145257 
M 568.831304 106.453885 
L 581.932174 129.145257 
M 568.831304 106.453885 
L 555.730435 129.145257 
M 568.831304 106.453885 
L 595.033043 106.453885 
M 542.629565 106.453885 
L 555.730435 129.145257 
M 542.629565 106.453885 
L 529.528696 129.145257 
M 542.629565 106.453885 
L 568.831304 106.453885 
M 581.932174 83.762513 
L 595.033043 106.453885 
M 581.932174 83.762513 
L 568.831304 106.453885 
M 555.730435 83.762513 
L 568.831304 106.453885 
M 555.730435 83.762513 
L 542.629565 106.453885 
M 555.730435 83.762513 
L 581.932174 83.762513 
M 568.831304 61.071141 
L 581.932174 83.762513 
M 568.831304 61.071141 
L 555.730435 83.762513 
L 555.730435 83.762513 
" style="fill:none;stroke:#1f77b4;stroke-linecap:square;stroke-width:1.5;"/>
   </g>
   <g id="matplotlib.axis_4">
    <g id="xtick_19">
     <g id="line2d_22">
      <g>
       <use style="stroke:#000000;stroke-width:0.8;" x="699.84" xlink:href="#mef0fa5719e" y="287.984859"/>
      </g>
     </g>
     <g id="text_19">
      <!-- 0.0 -->
      <g transform="translate(706.84 291.784077)scale(0.1 -0.1)">
       <use xlink:href="#DejaVuSans-48"/>
       <use x="63.623047" xlink:href="#DejaVuSans-46"/>
       <use x="95.410156" xlink:href="#DejaVuSans-48"/>
      </g>
     </g>
    </g>
    <g id="xtick_20">
     <g id="line2d_23">
      <g>
       <use style="stroke:#000000;stroke-width:0.8;" x="673.638261" xlink:href="#mef0fa5719e" y="242.602115"/>
      </g>
     </g>
     <g id="text_20">
      <!-- 0.2 -->
      <g transform="translate(680.638261 246.401334)scale(0.1 -0.1)">
       <use xlink:href="#DejaVuSans-48"/>
       <use x="63.623047" xlink:href="#DejaVuSans-46"/>
       <use x="95.410156" xlink:href="#DejaVuSans-50"/>
      </g>
     </g>
    </g>
    <g id="xtick_21">
     <g id="line2d_24">
      <g>
       <use style="stroke:#000000;stroke-width:0.8;" x="647.436522" xlink:href="#mef0fa5719e" y="197.219372"/>
      </g>
     </g>
     <g id="text_21">
      <!-- 0.4 -->
      <g transform="translate(654.436522 201.01859)scale(0.1 -0.1)">
       <use xlink:href="#DejaVuSans-48"/>
       <use x="63.623047" xlink:href="#DejaVuSans-46"/>
       <use x="95.410156" xlink:href="#DejaVuSans-52"/>
      </g>
     </g>
    </g>
    <g id="xtick_22">
     <g id="line2d_25">
      <g>
       <use style="stroke:#000000;stroke-width:0.8;" x="621.234783" xlink:href="#mef0fa5719e" y="151.836628"/>
      </g>
     </g>
     <g id="text_22">
      <!-- 0.6 -->
      <g transform="translate(628.234783 155.635847)scale(0.1 -0.1)">
       <use xlink:href="#DejaVuSans-48"/>
       <use x="63.623047" xlink:href="#DejaVuSans-46"/>
       <use x="95.410156" xlink:href="#DejaVuSans-54"/>
      </g>
     </g>
    </g>
    <g id="xtick_23">
     <g id="line2d_26">
      <g>
       <use style="stroke:#000000;stroke-width:0.8;" x="595.033043" xlink:href="#mef0fa5719e" y="106.453885"/>
      </g>
     </g>
     <g id="text_23">
      <!-- 0.8 -->
      <g transform="translate(602.033043 110.253104)scale(0.1 -0.1)">
       <use xlink:href="#DejaVuSans-48"/>
       <use x="63.623047" xlink:href="#DejaVuSans-46"/>
       <use x="95.410156" xlink:href="#DejaVuSans-56"/>
      </g>
     </g>
    </g>
    <g id="xtick_24">
     <g id="line2d_27">
      <g>
       <use style="stroke:#000000;stroke-width:0.8;" x="568.831304" xlink:href="#mef0fa5719e" y="61.071141"/>
      </g>
     </g>
     <g id="text_24">
      <!-- 1.0 -->
      <g transform="translate(575.831304 64.87036)scale(0.1 -0.1)">
       <use xlink:href="#DejaVuSans-49"/>
       <use x="63.623047" xlink:href="#DejaVuSans-46"/>
       <use x="95.410156" xlink:href="#DejaVuSans-48"/>
      </g>
     </g>
    </g>
   </g>
   <g id="matplotlib.axis_5">
    <g id="xtick_25">
     <g id="line2d_28">
      <g>
       <use style="stroke:#000000;stroke-width:0.8;" x="568.831304" xlink:href="#m2601ab923b" y="61.071141"/>
      </g>
     </g>
     <g id="text_25">
      <!-- 0.0 -->
      <g transform="translate(554.089522 43.136063)rotate(-300)scale(0.1 -0.1)">
       <use xlink:href="#DejaVuSans-48"/>
       <use x="63.623047" xlink:href="#DejaVuSans-46"/>
       <use x="95.410156" xlink:href="#DejaVuSans-48"/>
      </g>
     </g>
    </g>
    <g id="xtick_26">
     <g id="line2d_29">
      <g>
       <use style="stroke:#000000;stroke-width:0.8;" x="542.629565" xlink:href="#m2601ab923b" y="106.453885"/>
      </g>
     </g>
     <g id="text_26">
      <!-- 0.2 -->
      <g transform="translate(527.887783 88.518806)rotate(-300)scale(0.1 -0.1)">
       <use xlink:href="#DejaVuSans-48"/>
       <use x="63.623047" xlink:href="#DejaVuSans-46"/>
       <use x="95.410156" xlink:href="#DejaVuSans-50"/>
      </g>
     </g>
    </g>
    <g id="xtick_27">
     <g id="line2d_30">
      <g>
       <use style="stroke:#000000;stroke-width:0.8;" x="516.427826" xlink:href="#m2601ab923b" y="151.836628"/>
      </g>
     </g>
     <g id="text_27">
      <!-- 0.4 -->
      <g transform="translate(501.686044 133.90155)rotate(-300)scale(0.1 -0.1)">
       <use xlink:href="#DejaVuSans-48"/>
       <use x="63.623047" xlink:href="#DejaVuSans-46"/>
       <use x="95.410156" xlink:href="#DejaVuSans-52"/>
      </g>
     </g>
    </g>
    <g id="xtick_28">
     <g id="line2d_31">
      <g>
       <use style="stroke:#000000;stroke-width:0.8;" x="490.226087" xlink:href="#m2601ab923b" y="197.219372"/>
      </g>
     </g>
     <g id="text_28">
      <!-- 0.6 -->
      <g transform="translate(475.484305 179.284293)rotate(-300)scale(0.1 -0.1)">
       <use xlink:href="#DejaVuSans-48"/>
       <use x="63.623047" xlink:href="#DejaVuSans-46"/>
       <use x="95.410156" xlink:href="#DejaVuSans-54"/>
      </g>
     </g>
    </g>
    <g id="xtick_29">
     <g id="line2d_32">
      <g>
       <use style="stroke:#000000;stroke-width:0.8;" x="464.024348" xlink:href="#m2601ab923b" y="242.602115"/>
      </g>
     </g>
     <g id="text_29">
      <!-- 0.8 -->
      <g transform="translate(449.282565 224.667036)rotate(-300)scale(0.1 -0.1)">
       <use xlink:href="#DejaVuSans-48"/>
       <use x="63.623047" xlink:href="#DejaVuSans-46"/>
       <use x="95.410156" xlink:href="#DejaVuSans-56"/>
      </g>
     </g>
    </g>
    <g id="xtick_30">
     <g id="line2d_33">
      <g>
       <use style="stroke:#000000;stroke-width:0.8;" x="437.822609" xlink:href="#m2601ab923b" y="287.984859"/>
      </g>
     </g>
     <g id="text_30">
      <!-- 1.0 -->
      <g transform="translate(423.080826 270.04978)rotate(-300)scale(0.1 -0.1)">
       <use xlink:href="#DejaVuSans-49"/>
       <use x="63.623047" xlink:href="#DejaVuSans-46"/>
       <use x="95.410156" xlink:href="#DejaVuSans-48"/>
      </g>
     </g>
    </g>
   </g>
   <g id="matplotlib.axis_6">
    <g id="xtick_31">
     <g id="line2d_34">
      <g>
       <use style="stroke:#000000;stroke-width:0.8;" x="437.822609" xlink:href="#mb867442803" y="287.984859"/>
      </g>
     </g>
     <g id="text_31">
      <!-- 0.0 -->
      <g transform="translate(429.661266 309.719156)rotate(-60)scale(0.1 -0.1)">
       <use xlink:href="#DejaVuSans-48"/>
       <use x="63.623047" xlink:href="#DejaVuSans-46"/>
       <use x="95.410156" xlink:href="#DejaVuSans-48"/>
      </g>
     </g>
    </g>
    <g id="xtick_32">
     <g id="line2d_35">
      <g>
       <use style="stroke:#000000;stroke-width:0.8;" x="490.226087" xlink:href="#mb867442803" y="287.984859"/>
      </g>
     </g>
     <g id="text_32">
      <!-- 0.2 -->
      <g transform="translate(482.064744 309.719156)rotate(-60)scale(0.1 -0.1)">
       <use xlink:href="#DejaVuSans-48"/>
       <use x="63.623047" xlink:href="#DejaVuSans-46"/>
       <use x="95.410156" xlink:href="#DejaVuSans-50"/>
      </g>
     </g>
    </g>
    <g id="xtick_33">
     <g id="line2d_36">
      <g>
       <use style="stroke:#000000;stroke-width:0.8;" x="542.629565" xlink:href="#mb867442803" y="287.984859"/>
      </g>
     </g>
     <g id="text_33">
      <!-- 0.4 -->
      <g transform="translate(534.468223 309.719156)rotate(-60)scale(0.1 -0.1)">
       <use xlink:href="#DejaVuSans-48"/>
       <use x="63.623047" xlink:href="#DejaVuSans-46"/>
       <use x="95.410156" xlink:href="#DejaVuSans-52"/>
      </g>
     </g>
    </g>
    <g id="xtick_34">
     <g id="line2d_37">
      <g>
       <use style="stroke:#000000;stroke-width:0.8;" x="595.033043" xlink:href="#mb867442803" y="287.984859"/>
      </g>
     </g>
     <g id="text_34">
      <!-- 0.6 -->
      <g transform="translate(586.871701 309.719156)rotate(-60)scale(0.1 -0.1)">
       <use xlink:href="#DejaVuSans-48"/>
       <use x="63.623047" xlink:href="#DejaVuSans-46"/>
       <use x="95.410156" xlink:href="#DejaVuSans-54"/>
      </g>
     </g>
    </g>
    <g id="xtick_35">
     <g id="line2d_38">
      <g>
       <use style="stroke:#000000;stroke-width:0.8;" x="647.436522" xlink:href="#mb867442803" y="287.984859"/>
      </g>
     </g>
     <g id="text_35">
      <!-- 0.8 -->
      <g transform="translate(639.275179 309.719156)rotate(-60)scale(0.1 -0.1)">
       <use xlink:href="#DejaVuSans-48"/>
       <use x="63.623047" xlink:href="#DejaVuSans-46"/>
       <use x="95.410156" xlink:href="#DejaVuSans-56"/>
      </g>
     </g>
    </g>
    <g id="xtick_36">
     <g id="line2d_39">
      <g>
       <use style="stroke:#000000;stroke-width:0.8;" x="699.84" xlink:href="#mb867442803" y="287.984859"/>
      </g>
     </g>
     <g id="text_36">
      <!-- 1.0 -->
      <g transform="translate(691.678657 309.719156)rotate(-60)scale(0.1 -0.1)">
       <use xlink:href="#DejaVuSans-49"/>
       <use x="63.623047" xlink:href="#DejaVuSans-46"/>
       <use x="95.410156" xlink:href="#DejaVuSans-48"/>
      </g>
     </g>
    </g>
   </g>
   <g id="line2d_40">
    <defs>
     <path d="M 0 3 
C 0.795609 3 1.55874 2.683901 2.12132 2.12132 
C 2.683901 1.55874 3 0.795609 3 0 
C 3 -0.795609 2.683901 -1.55874 2.12132 -2.12132 
C 1.55874 -2.683901 0.795609 -3 0 -3 
C -0.795609 -3 -1.55874 -2.683901 -2.12132 -2.12132 
C -2.683901 -1.55874 -3 -0.795609 -3 0 
C -3 0.795609 -2.683901 1.55874 -2.12132 2.12132 
C -1.55874 2.683901 -0.795609 3 0 3 
z
" id="m6089d4c331" style="stroke:#ff7f0e;"/>
    </defs>
    <g clip-path="url(#p46397bc3d4)">
     <use style="fill:#ff7f0e;stroke:#ff7f0e;" x="699.84" xlink:href="#m6089d4c331" y="287.984859"/>
     <use style="fill:#ff7f0e;stroke:#ff7f0e;" x="673.638261" xlink:href="#m6089d4c331" y="287.984859"/>
     <use style="fill:#ff7f0e;stroke:#ff7f0e;" x="647.436522" xlink:href="#m6089d4c331" y="287.984859"/>
     <use style="fill:#ff7f0e;stroke:#ff7f0e;" x="621.234783" xlink:href="#m6089d4c331" y="287.984859"/>
     <use style="fill:#ff7f0e;stroke:#ff7f0e;" x="595.033043" xlink:href="#m6089d4c331" y="287.984859"/>
     <use style="fill:#ff7f0e;stroke:#ff7f0e;" x="568.831304" xlink:href="#m6089d4c331" y="287.984859"/>
     <use style="fill:#ff7f0e;stroke:#ff7f0e;" x="542.629565" xlink:href="#m6089d4c331" y="287.984859"/>
     <use style="fill:#ff7f0e;stroke:#ff7f0e;" x="516.427826" xlink:href="#m6089d4c331" y="287.984859"/>
     <use style="fill:#ff7f0e;stroke:#ff7f0e;" x="490.226087" xlink:href="#m6089d4c331" y="287.984859"/>
     <use style="fill:#ff7f0e;stroke:#ff7f0e;" x="464.024348" xlink:href="#m6089d4c331" y="287.984859"/>
     <use style="fill:#ff7f0e;stroke:#ff7f0e;" x="437.822609" xlink:href="#m6089d4c331" y="287.984859"/>
     <use style="fill:#ff7f0e;stroke:#ff7f0e;" x="686.73913" xlink:href="#m6089d4c331" y="265.293487"/>
     <use style="fill:#ff7f0e;stroke:#ff7f0e;" x="660.537391" xlink:href="#m6089d4c331" y="265.293487"/>
     <use style="fill:#ff7f0e;stroke:#ff7f0e;" x="634.335652" xlink:href="#m6089d4c331" y="265.293487"/>
     <use style="fill:#ff7f0e;stroke:#ff7f0e;" x="608.133913" xlink:href="#m6089d4c331" y="265.293487"/>
     <use style="fill:#ff7f0e;stroke:#ff7f0e;" x="581.932174" xlink:href="#m6089d4c331" y="265.293487"/>
     <use style="fill:#ff7f0e;stroke:#ff7f0e;" x="555.730435" xlink:href="#m6089d4c331" y="265.293487"/>
     <use style="fill:#ff7f0e;stroke:#ff7f0e;" x="529.528696" xlink:href="#m6089d4c331" y="265.293487"/>
     <use style="fill:#ff7f0e;stroke:#ff7f0e;" x="503.326957" xlink:href="#m6089d4c331" y="265.293487"/>
     <use style="fill:#ff7f0e;stroke:#ff7f0e;" x="477.125217" xlink:href="#m6089d4c331" y="265.293487"/>
     <use style="fill:#ff7f0e;stroke:#ff7f0e;" x="450.923478" xlink:href="#m6089d4c331" y="265.293487"/>
     <use style="fill:#ff7f0e;stroke:#ff7f0e;" x="673.638261" xlink:href="#m6089d4c331" y="242.602115"/>
     <use style="fill:#ff7f0e;stroke:#ff7f0e;" x="647.436522" xlink:href="#m6089d4c331" y="242.602115"/>
     <use style="fill:#ff7f0e;stroke:#ff7f0e;" x="621.234783" xlink:href="#m6089d4c331" y="242.602115"/>
     <use style="fill:#ff7f0e;stroke:#ff7f0e;" x="595.033043" xlink:href="#m6089d4c331" y="242.602115"/>
     <use style="fill:#ff7f0e;stroke:#ff7f0e;" x="568.831304" xlink:href="#m6089d4c331" y="242.602115"/>
     <use style="fill:#ff7f0e;stroke:#ff7f0e;" x="542.629565" xlink:href="#m6089d4c331" y="242.602115"/>
     <use style="fill:#ff7f0e;stroke:#ff7f0e;" x="516.427826" xlink:href="#m6089d4c331" y="242.602115"/>
     <use style="fill:#ff7f0e;stroke:#ff7f0e;" x="490.226087" xlink:href="#m6089d4c331" y="242.602115"/>
     <use style="fill:#ff7f0e;stroke:#ff7f0e;" x="464.024348" xlink:href="#m6089d4c331" y="242.602115"/>
     <use style="fill:#ff7f0e;stroke:#ff7f0e;" x="660.537391" xlink:href="#m6089d4c331" y="219.910743"/>
     <use style="fill:#ff7f0e;stroke:#ff7f0e;" x="634.335652" xlink:href="#m6089d4c331" y="219.910743"/>
     <use style="fill:#ff7f0e;stroke:#ff7f0e;" x="608.133913" xlink:href="#m6089d4c331" y="219.910743"/>
     <use style="fill:#ff7f0e;stroke:#ff7f0e;" x="581.932174" xlink:href="#m6089d4c331" y="219.910743"/>
     <use style="fill:#ff7f0e;stroke:#ff7f0e;" x="555.730435" xlink:href="#m6089d4c331" y="219.910743"/>
     <use style="fill:#ff7f0e;stroke:#ff7f0e;" x="529.528696" xlink:href="#m6089d4c331" y="219.910743"/>
     <use style="fill:#ff7f0e;stroke:#ff7f0e;" x="503.326957" xlink:href="#m6089d4c331" y="219.910743"/>
     <use style="fill:#ff7f0e;stroke:#ff7f0e;" x="477.125217" xlink:href="#m6089d4c331" y="219.910743"/>
     <use style="fill:#ff7f0e;stroke:#ff7f0e;" x="647.436522" xlink:href="#m6089d4c331" y="197.219372"/>
     <use style="fill:#ff7f0e;stroke:#ff7f0e;" x="621.234783" xlink:href="#m6089d4c331" y="197.219372"/>
     <use style="fill:#ff7f0e;stroke:#ff7f0e;" x="595.033043" xlink:href="#m6089d4c331" y="197.219372"/>
     <use style="fill:#ff7f0e;stroke:#ff7f0e;" x="568.831304" xlink:href="#m6089d4c331" y="197.219372"/>
     <use style="fill:#ff7f0e;stroke:#ff7f0e;" x="542.629565" xlink:href="#m6089d4c331" y="197.219372"/>
     <use style="fill:#ff7f0e;stroke:#ff7f0e;" x="516.427826" xlink:href="#m6089d4c331" y="197.219372"/>
     <use style="fill:#ff7f0e;stroke:#ff7f0e;" x="490.226087" xlink:href="#m6089d4c331" y="197.219372"/>
     <use style="fill:#ff7f0e;stroke:#ff7f0e;" x="634.335652" xlink:href="#m6089d4c331" y="174.528"/>
     <use style="fill:#ff7f0e;stroke:#ff7f0e;" x="608.133913" xlink:href="#m6089d4c331" y="174.528"/>
     <use style="fill:#ff7f0e;stroke:#ff7f0e;" x="581.932174" xlink:href="#m6089d4c331" y="174.528"/>
     <use style="fill:#ff7f0e;stroke:#ff7f0e;" x="555.730435" xlink:href="#m6089d4c331" y="174.528"/>
     <use style="fill:#ff7f0e;stroke:#ff7f0e;" x="529.528696" xlink:href="#m6089d4c331" y="174.528"/>
     <use style="fill:#ff7f0e;stroke:#ff7f0e;" x="503.326957" xlink:href="#m6089d4c331" y="174.528"/>
     <use style="fill:#ff7f0e;stroke:#ff7f0e;" x="621.234783" xlink:href="#m6089d4c331" y="151.836628"/>
     <use style="fill:#ff7f0e;stroke:#ff7f0e;" x="595.033043" xlink:href="#m6089d4c331" y="151.836628"/>
     <use style="fill:#ff7f0e;stroke:#ff7f0e;" x="568.831304" xlink:href="#m6089d4c331" y="151.836628"/>
     <use style="fill:#ff7f0e;stroke:#ff7f0e;" x="542.629565" xlink:href="#m6089d4c331" y="151.836628"/>
     <use style="fill:#ff7f0e;stroke:#ff7f0e;" x="516.427826" xlink:href="#m6089d4c331" y="151.836628"/>
     <use style="fill:#ff7f0e;stroke:#ff7f0e;" x="608.133913" xlink:href="#m6089d4c331" y="129.145257"/>
     <use style="fill:#ff7f0e;stroke:#ff7f0e;" x="581.932174" xlink:href="#m6089d4c331" y="129.145257"/>
     <use style="fill:#ff7f0e;stroke:#ff7f0e;" x="555.730435" xlink:href="#m6089d4c331" y="129.145257"/>
     <use style="fill:#ff7f0e;stroke:#ff7f0e;" x="529.528696" xlink:href="#m6089d4c331" y="129.145257"/>
     <use style="fill:#ff7f0e;stroke:#ff7f0e;" x="595.033043" xlink:href="#m6089d4c331" y="106.453885"/>
     <use style="fill:#ff7f0e;stroke:#ff7f0e;" x="568.831304" xlink:href="#m6089d4c331" y="106.453885"/>
     <use style="fill:#ff7f0e;stroke:#ff7f0e;" x="542.629565" xlink:href="#m6089d4c331" y="106.453885"/>
     <use style="fill:#ff7f0e;stroke:#ff7f0e;" x="581.932174" xlink:href="#m6089d4c331" y="83.762513"/>
     <use style="fill:#ff7f0e;stroke:#ff7f0e;" x="555.730435" xlink:href="#m6089d4c331" y="83.762513"/>
     <use style="fill:#ff7f0e;stroke:#ff7f0e;" x="568.831304" xlink:href="#m6089d4c331" y="61.071141"/>
    </g>
   </g>
   <g id="patch_7">
    <path d="M 437.822609 287.984859 
L 699.84 287.984859 
" style="fill:none;stroke:#000000;stroke-linecap:square;stroke-linejoin:miter;stroke-width:0.8;"/>
   </g>
   <g id="patch_8">
    <path d="M 699.84 287.984859 
L 568.831304 61.071141 
" style="fill:none;stroke:#000000;stroke-linecap:square;stroke-linejoin:miter;stroke-width:0.8;"/>
   </g>
   <g id="patch_9">
    <path d="M 568.831304 61.071141 
L 437.822609 287.984859 
" style="fill:none;stroke:#000000;stroke-linecap:square;stroke-linejoin:miter;stroke-width:0.8;"/>
   </g>
  </g>
 </g>
 <defs>
  <clipPath id="p0dcd9f2ca0">
   <path d="M 228.208696 61.071141 
L 97.2 287.984859 
L 359.217391 287.984859 
z
"/>
  </clipPath>
  <clipPath id="p46397bc3d4">
   <path d="M 568.831304 61.071141 
L 437.822609 287.984859 
L 699.84 287.984859 
z
"/>
  </clipPath>
 </defs>
</svg>
