<?xml version="1.0" encoding="utf-8" standalone="no"?>
<!DOCTYPE svg PUBLIC "-//W3C//DTD SVG 1.1//EN"
  "http://www.w3.org/Graphics/SVG/1.1/DTD/svg11.dtd">
<!-- Created with matplotlib (https://matplotlib.org/) -->
<svg height="345.6pt" version="1.1" viewBox="0 0 460.8 345.6" width="460.8pt" xmlns="http://www.w3.org/2000/svg" xmlns:xlink="http://www.w3.org/1999/xlink">
 <defs>
  <style type="text/css">
*{stroke-linecap:butt;stroke-linejoin:round;}
  </style>
 </defs>
 <g id="figure_1">
  <g id="patch_1">
   <path d="M 0 345.6 
L 460.8 345.6 
L 460.8 0 
L 0 0 
z
" style="fill:#ffffff;"/>
  </g>
  <g id="axes_1">
   <g id="patch_2">
    <path d="M 236.16 41.472 
L 82.520165 307.584 
L 389.799835 307.584 
z
" style="fill:#ffffff;"/>
   </g>
   <g id="matplotlib.axis_1">
    <g id="xtick_1">
     <g id="line2d_1">
      <defs>
       <path d="M 0 0 
L 3.5 0 
" id="m31c97b61fd" style="stroke:#000000;stroke-width:0.8;"/>
      </defs>
      <g>
       <use style="stroke:#000000;stroke-width:0.8;" x="389.799835" xlink:href="#m31c97b61fd" y="307.584"/>
      </g>
     </g>
     <g id="text_1">
      <!-- 0.10 -->
      <defs>
       <path d="M 31.78125 66.40625 
Q 24.171875 66.40625 20.328125 58.90625 
Q 16.5 51.421875 16.5 36.375 
Q 16.5 21.390625 20.328125 13.890625 
Q 24.171875 6.390625 31.78125 6.390625 
Q 39.453125 6.390625 43.28125 13.890625 
Q 47.125 21.390625 47.125 36.375 
Q 47.125 51.421875 43.28125 58.90625 
Q 39.453125 66.40625 31.78125 66.40625 
z
M 31.78125 74.21875 
Q 44.046875 74.21875 50.515625 64.515625 
Q 56.984375 54.828125 56.984375 36.375 
Q 56.984375 17.96875 50.515625 8.265625 
Q 44.046875 -1.421875 31.78125 -1.421875 
Q 19.53125 -1.421875 13.0625 8.265625 
Q 6.59375 17.96875 6.59375 36.375 
Q 6.59375 54.828125 13.0625 64.515625 
Q 19.53125 74.21875 31.78125 74.21875 
z
" id="DejaVuSans-48"/>
       <path d="M 10.6875 12.40625 
L 21 12.40625 
L 21 0 
L 10.6875 0 
z
" id="DejaVuSans-46"/>
       <path d="M 12.40625 8.296875 
L 28.515625 8.296875 
L 28.515625 63.921875 
L 10.984375 60.40625 
L 10.984375 69.390625 
L 28.421875 72.90625 
L 38.28125 72.90625 
L 38.28125 8.296875 
L 54.390625 8.296875 
L 54.390625 0 
L 12.40625 0 
z
" id="DejaVuSans-49"/>
      </defs>
      <g transform="translate(396.799835 311.383219)scale(0.1 -0.1)">
       <use xlink:href="#DejaVuSans-48"/>
       <use x="63.623047" xlink:href="#DejaVuSans-46"/>
       <use x="95.410156" xlink:href="#DejaVuSans-49"/>
       <use x="159.033203" xlink:href="#DejaVuSans-48"/>
      </g>
     </g>
    </g>
    <g id="xtick_2">
     <g id="line2d_2">
      <g>
       <use style="stroke:#000000;stroke-width:0.8;" x="370.594855" xlink:href="#m31c97b61fd" y="274.32"/>
      </g>
     </g>
     <g id="text_2">
      <!-- 0.15 -->
      <defs>
       <path d="M 10.796875 72.90625 
L 49.515625 72.90625 
L 49.515625 64.59375 
L 19.828125 64.59375 
L 19.828125 46.734375 
Q 21.96875 47.46875 24.109375 47.828125 
Q 26.265625 48.1875 28.421875 48.1875 
Q 40.625 48.1875 47.75 41.5 
Q 54.890625 34.8125 54.890625 23.390625 
Q 54.890625 11.625 47.5625 5.09375 
Q 40.234375 -1.421875 26.90625 -1.421875 
Q 22.3125 -1.421875 17.546875 -0.640625 
Q 12.796875 0.140625 7.71875 1.703125 
L 7.71875 11.625 
Q 12.109375 9.234375 16.796875 8.0625 
Q 21.484375 6.890625 26.703125 6.890625 
Q 35.15625 6.890625 40.078125 11.328125 
Q 45.015625 15.765625 45.015625 23.390625 
Q 45.015625 31 40.078125 35.4375 
Q 35.15625 39.890625 26.703125 39.890625 
Q 22.75 39.890625 18.8125 39.015625 
Q 14.890625 38.140625 10.796875 36.28125 
z
" id="DejaVuSans-53"/>
      </defs>
      <g transform="translate(377.594855 278.119219)scale(0.1 -0.1)">
       <use xlink:href="#DejaVuSans-48"/>
       <use x="63.623047" xlink:href="#DejaVuSans-46"/>
       <use x="95.410156" xlink:href="#DejaVuSans-49"/>
       <use x="159.033203" xlink:href="#DejaVuSans-53"/>
      </g>
     </g>
    </g>
    <g id="xtick_3">
     <g id="line2d_3">
      <g>
       <use style="stroke:#000000;stroke-width:0.8;" x="351.389876" xlink:href="#m31c97b61fd" y="241.056"/>
      </g>
     </g>
     <g id="text_3">
      <!-- 0.20 -->
      <defs>
       <path d="M 19.1875 8.296875 
L 53.609375 8.296875 
L 53.609375 0 
L 7.328125 0 
L 7.328125 8.296875 
Q 12.9375 14.109375 22.625 23.890625 
Q 32.328125 33.6875 34.8125 36.53125 
Q 39.546875 41.84375 41.421875 45.53125 
Q 43.3125 49.21875 43.3125 52.78125 
Q 43.3125 58.59375 39.234375 62.25 
Q 35.15625 65.921875 28.609375 65.921875 
Q 23.96875 65.921875 18.8125 64.3125 
Q 13.671875 62.703125 7.8125 59.421875 
L 7.8125 69.390625 
Q 13.765625 71.78125 18.9375 73 
Q 24.125 74.21875 28.421875 74.21875 
Q 39.75 74.21875 46.484375 68.546875 
Q 53.21875 62.890625 53.21875 53.421875 
Q 53.21875 48.921875 51.53125 44.890625 
Q 49.859375 40.875 45.40625 35.40625 
Q 44.1875 33.984375 37.640625 27.21875 
Q 31.109375 20.453125 19.1875 8.296875 
z
" id="DejaVuSans-50"/>
      </defs>
      <g transform="translate(358.389876 244.855219)scale(0.1 -0.1)">
       <use xlink:href="#DejaVuSans-48"/>
       <use x="63.623047" xlink:href="#DejaVuSans-46"/>
       <use x="95.410156" xlink:href="#DejaVuSans-50"/>
       <use x="159.033203" xlink:href="#DejaVuSans-48"/>
      </g>
     </g>
    </g>
    <g id="xtick_4">
     <g id="line2d_4">
      <g>
       <use style="stroke:#000000;stroke-width:0.8;" x="332.184897" xlink:href="#m31c97b61fd" y="207.792"/>
      </g>
     </g>
     <g id="text_4">
      <!-- 0.25 -->
      <g transform="translate(339.184897 211.591219)scale(0.1 -0.1)">
       <use xlink:href="#DejaVuSans-48"/>
       <use x="63.623047" xlink:href="#DejaVuSans-46"/>
       <use x="95.410156" xlink:href="#DejaVuSans-50"/>
       <use x="159.033203" xlink:href="#DejaVuSans-53"/>
      </g>
     </g>
    </g>
    <g id="xtick_5">
     <g id="line2d_5">
      <g>
       <use style="stroke:#000000;stroke-width:0.8;" x="312.979917" xlink:href="#m31c97b61fd" y="174.528"/>
      </g>
     </g>
     <g id="text_5">
      <!-- 0.30 -->
      <defs>
       <path d="M 40.578125 39.3125 
Q 47.65625 37.796875 51.625 33 
Q 55.609375 28.21875 55.609375 21.1875 
Q 55.609375 10.40625 48.1875 4.484375 
Q 40.765625 -1.421875 27.09375 -1.421875 
Q 22.515625 -1.421875 17.65625 -0.515625 
Q 12.796875 0.390625 7.625 2.203125 
L 7.625 11.71875 
Q 11.71875 9.328125 16.59375 8.109375 
Q 21.484375 6.890625 26.8125 6.890625 
Q 36.078125 6.890625 40.9375 10.546875 
Q 45.796875 14.203125 45.796875 21.1875 
Q 45.796875 27.640625 41.28125 31.265625 
Q 36.765625 34.90625 28.71875 34.90625 
L 20.21875 34.90625 
L 20.21875 43.015625 
L 29.109375 43.015625 
Q 36.375 43.015625 40.234375 45.921875 
Q 44.09375 48.828125 44.09375 54.296875 
Q 44.09375 59.90625 40.109375 62.90625 
Q 36.140625 65.921875 28.71875 65.921875 
Q 24.65625 65.921875 20.015625 65.03125 
Q 15.375 64.15625 9.8125 62.3125 
L 9.8125 71.09375 
Q 15.4375 72.65625 20.34375 73.4375 
Q 25.25 74.21875 29.59375 74.21875 
Q 40.828125 74.21875 47.359375 69.109375 
Q 53.90625 64.015625 53.90625 55.328125 
Q 53.90625 49.265625 50.4375 45.09375 
Q 46.96875 40.921875 40.578125 39.3125 
z
" id="DejaVuSans-51"/>
      </defs>
      <g transform="translate(319.979917 178.327219)scale(0.1 -0.1)">
       <use xlink:href="#DejaVuSans-48"/>
       <use x="63.623047" xlink:href="#DejaVuSans-46"/>
       <use x="95.410156" xlink:href="#DejaVuSans-51"/>
       <use x="159.033203" xlink:href="#DejaVuSans-48"/>
      </g>
     </g>
    </g>
    <g id="xtick_6">
     <g id="line2d_6">
      <g>
       <use style="stroke:#000000;stroke-width:0.8;" x="293.774938" xlink:href="#m31c97b61fd" y="141.264"/>
      </g>
     </g>
     <g id="text_6">
      <!-- 0.35 -->
      <g transform="translate(300.774938 145.063219)scale(0.1 -0.1)">
       <use xlink:href="#DejaVuSans-48"/>
       <use x="63.623047" xlink:href="#DejaVuSans-46"/>
       <use x="95.410156" xlink:href="#DejaVuSans-51"/>
       <use x="159.033203" xlink:href="#DejaVuSans-53"/>
      </g>
     </g>
    </g>
    <g id="xtick_7">
     <g id="line2d_7">
      <g>
       <use style="stroke:#000000;stroke-width:0.8;" x="274.569959" xlink:href="#m31c97b61fd" y="108"/>
      </g>
     </g>
     <g id="text_7">
      <!-- 0.40 -->
      <defs>
       <path d="M 37.796875 64.3125 
L 12.890625 25.390625 
L 37.796875 25.390625 
z
M 35.203125 72.90625 
L 47.609375 72.90625 
L 47.609375 25.390625 
L 58.015625 25.390625 
L 58.015625 17.1875 
L 47.609375 17.1875 
L 47.609375 0 
L 37.796875 0 
L 37.796875 17.1875 
L 4.890625 17.1875 
L 4.890625 26.703125 
z
" id="DejaVuSans-52"/>
      </defs>
      <g transform="translate(281.569959 111.799219)scale(0.1 -0.1)">
       <use xlink:href="#DejaVuSans-48"/>
       <use x="63.623047" xlink:href="#DejaVuSans-46"/>
       <use x="95.410156" xlink:href="#DejaVuSans-52"/>
       <use x="159.033203" xlink:href="#DejaVuSans-48"/>
      </g>
     </g>
    </g>
    <g id="xtick_8">
     <g id="line2d_8">
      <g>
       <use style="stroke:#000000;stroke-width:0.8;" x="255.364979" xlink:href="#m31c97b61fd" y="74.736"/>
      </g>
     </g>
     <g id="text_8">
      <!-- 0.45 -->
      <g transform="translate(262.364979 78.535219)scale(0.1 -0.1)">
       <use xlink:href="#DejaVuSans-48"/>
       <use x="63.623047" xlink:href="#DejaVuSans-46"/>
       <use x="95.410156" xlink:href="#DejaVuSans-52"/>
       <use x="159.033203" xlink:href="#DejaVuSans-53"/>
      </g>
     </g>
    </g>
    <g id="xtick_9">
     <g id="line2d_9">
      <g>
       <use style="stroke:#000000;stroke-width:0.8;" x="236.16" xlink:href="#m31c97b61fd" y="41.472"/>
      </g>
     </g>
     <g id="text_9">
      <!-- 0.50 -->
      <g transform="translate(243.16 45.271219)scale(0.1 -0.1)">
       <use xlink:href="#DejaVuSans-48"/>
       <use x="63.623047" xlink:href="#DejaVuSans-46"/>
       <use x="95.410156" xlink:href="#DejaVuSans-53"/>
       <use x="159.033203" xlink:href="#DejaVuSans-48"/>
      </g>
     </g>
    </g>
   </g>
   <g id="matplotlib.axis_2">
    <g id="xtick_10">
     <g id="line2d_10">
      <defs>
       <path d="M 0 0 
L -1.75 -3.031089 
" id="ma2a5506acb" style="stroke:#000000;stroke-width:0.8;"/>
      </defs>
      <g>
       <use style="stroke:#000000;stroke-width:0.8;" x="236.16" xlink:href="#ma2a5506acb" y="41.472"/>
      </g>
     </g>
     <g id="text_10">
      <!-- 0.20 -->
      <g transform="translate(218.236968 18.026835)rotate(-300)scale(0.1 -0.1)">
       <use xlink:href="#DejaVuSans-48"/>
       <use x="63.623047" xlink:href="#DejaVuSans-46"/>
       <use x="95.410156" xlink:href="#DejaVuSans-50"/>
       <use x="159.033203" xlink:href="#DejaVuSans-48"/>
      </g>
     </g>
    </g>
    <g id="xtick_11">
     <g id="line2d_11">
      <g>
       <use style="stroke:#000000;stroke-width:0.8;" x="216.955021" xlink:href="#ma2a5506acb" y="74.736"/>
      </g>
     </g>
     <g id="text_11">
      <!-- 0.25 -->
      <g transform="translate(199.031988 51.290835)rotate(-300)scale(0.1 -0.1)">
       <use xlink:href="#DejaVuSans-48"/>
       <use x="63.623047" xlink:href="#DejaVuSans-46"/>
       <use x="95.410156" xlink:href="#DejaVuSans-50"/>
       <use x="159.033203" xlink:href="#DejaVuSans-53"/>
      </g>
     </g>
    </g>
    <g id="xtick_12">
     <g id="line2d_12">
      <g>
       <use style="stroke:#000000;stroke-width:0.8;" x="197.750041" xlink:href="#ma2a5506acb" y="108"/>
      </g>
     </g>
     <g id="text_12">
      <!-- 0.30 -->
      <g transform="translate(179.827009 84.554835)rotate(-300)scale(0.1 -0.1)">
       <use xlink:href="#DejaVuSans-48"/>
       <use x="63.623047" xlink:href="#DejaVuSans-46"/>
       <use x="95.410156" xlink:href="#DejaVuSans-51"/>
       <use x="159.033203" xlink:href="#DejaVuSans-48"/>
      </g>
     </g>
    </g>
    <g id="xtick_13">
     <g id="line2d_13">
      <g>
       <use style="stroke:#000000;stroke-width:0.8;" x="178.545062" xlink:href="#ma2a5506acb" y="141.264"/>
      </g>
     </g>
     <g id="text_13">
      <!-- 0.35 -->
      <g transform="translate(160.622029 117.818835)rotate(-300)scale(0.1 -0.1)">
       <use xlink:href="#DejaVuSans-48"/>
       <use x="63.623047" xlink:href="#DejaVuSans-46"/>
       <use x="95.410156" xlink:href="#DejaVuSans-51"/>
       <use x="159.033203" xlink:href="#DejaVuSans-53"/>
      </g>
     </g>
    </g>
    <g id="xtick_14">
     <g id="line2d_14">
      <g>
       <use style="stroke:#000000;stroke-width:0.8;" x="159.340083" xlink:href="#ma2a5506acb" y="174.528"/>
      </g>
     </g>
     <g id="text_14">
      <!-- 0.40 -->
      <g transform="translate(141.41705 151.082835)rotate(-300)scale(0.1 -0.1)">
       <use xlink:href="#DejaVuSans-48"/>
       <use x="63.623047" xlink:href="#DejaVuSans-46"/>
       <use x="95.410156" xlink:href="#DejaVuSans-52"/>
       <use x="159.033203" xlink:href="#DejaVuSans-48"/>
      </g>
     </g>
    </g>
    <g id="xtick_15">
     <g id="line2d_15">
      <g>
       <use style="stroke:#000000;stroke-width:0.8;" x="140.135103" xlink:href="#ma2a5506acb" y="207.792"/>
      </g>
     </g>
     <g id="text_15">
      <!-- 0.45 -->
      <g transform="translate(122.212071 184.346835)rotate(-300)scale(0.1 -0.1)">
       <use xlink:href="#DejaVuSans-48"/>
       <use x="63.623047" xlink:href="#DejaVuSans-46"/>
       <use x="95.410156" xlink:href="#DejaVuSans-52"/>
       <use x="159.033203" xlink:href="#DejaVuSans-53"/>
      </g>
     </g>
    </g>
    <g id="xtick_16">
     <g id="line2d_16">
      <g>
       <use style="stroke:#000000;stroke-width:0.8;" x="120.930124" xlink:href="#ma2a5506acb" y="241.056"/>
      </g>
     </g>
     <g id="text_16">
      <!-- 0.50 -->
      <g transform="translate(103.007091 217.610835)rotate(-300)scale(0.1 -0.1)">
       <use xlink:href="#DejaVuSans-48"/>
       <use x="63.623047" xlink:href="#DejaVuSans-46"/>
       <use x="95.410156" xlink:href="#DejaVuSans-53"/>
       <use x="159.033203" xlink:href="#DejaVuSans-48"/>
      </g>
     </g>
    </g>
    <g id="xtick_17">
     <g id="line2d_17">
      <g>
       <use style="stroke:#000000;stroke-width:0.8;" x="101.725145" xlink:href="#ma2a5506acb" y="274.32"/>
      </g>
     </g>
     <g id="text_17">
      <!-- 0.55 -->
      <g transform="translate(83.802112 250.874835)rotate(-300)scale(0.1 -0.1)">
       <use xlink:href="#DejaVuSans-48"/>
       <use x="63.623047" xlink:href="#DejaVuSans-46"/>
       <use x="95.410156" xlink:href="#DejaVuSans-53"/>
       <use x="159.033203" xlink:href="#DejaVuSans-53"/>
      </g>
     </g>
    </g>
    <g id="xtick_18">
     <g id="line2d_18">
      <g>
       <use style="stroke:#000000;stroke-width:0.8;" x="82.520165" xlink:href="#ma2a5506acb" y="307.584"/>
      </g>
     </g>
     <g id="text_18">
      <!-- 0.60 -->
      <defs>
       <path d="M 33.015625 40.375 
Q 26.375 40.375 22.484375 35.828125 
Q 18.609375 31.296875 18.609375 23.390625 
Q 18.609375 15.53125 22.484375 10.953125 
Q 26.375 6.390625 33.015625 6.390625 
Q 39.65625 6.390625 43.53125 10.953125 
Q 47.40625 15.53125 47.40625 23.390625 
Q 47.40625 31.296875 43.53125 35.828125 
Q 39.65625 40.375 33.015625 40.375 
z
M 52.59375 71.296875 
L 52.59375 62.3125 
Q 48.875 64.0625 45.09375 64.984375 
Q 41.3125 65.921875 37.59375 65.921875 
Q 27.828125 65.921875 22.671875 59.328125 
Q 17.53125 52.734375 16.796875 39.40625 
Q 19.671875 43.65625 24.015625 45.921875 
Q 28.375 48.1875 33.59375 48.1875 
Q 44.578125 48.1875 50.953125 41.515625 
Q 57.328125 34.859375 57.328125 23.390625 
Q 57.328125 12.15625 50.6875 5.359375 
Q 44.046875 -1.421875 33.015625 -1.421875 
Q 20.359375 -1.421875 13.671875 8.265625 
Q 6.984375 17.96875 6.984375 36.375 
Q 6.984375 53.65625 15.1875 63.9375 
Q 23.390625 74.21875 37.203125 74.21875 
Q 40.921875 74.21875 44.703125 73.484375 
Q 48.484375 72.75 52.59375 71.296875 
z
" id="DejaVuSans-54"/>
      </defs>
      <g transform="translate(64.597133 284.138835)rotate(-300)scale(0.1 -0.1)">
       <use xlink:href="#DejaVuSans-48"/>
       <use x="63.623047" xlink:href="#DejaVuSans-46"/>
       <use x="95.410156" xlink:href="#DejaVuSans-54"/>
       <use x="159.033203" xlink:href="#DejaVuSans-48"/>
      </g>
     </g>
    </g>
   </g>
   <g id="matplotlib.axis_3">
    <g id="xtick_19">
     <g id="line2d_19">
      <defs>
       <path d="M 0 0 
L -1.75 3.031089 
" id="m30befcb6c8" style="stroke:#000000;stroke-width:0.8;"/>
      </defs>
      <g>
       <use style="stroke:#000000;stroke-width:0.8;" x="82.520165" xlink:href="#m30befcb6c8" y="307.584"/>
      </g>
     </g>
     <g id="text_19">
      <!-- 0.30 -->
      <g transform="translate(71.177573 334.828384)rotate(-60)scale(0.1 -0.1)">
       <use xlink:href="#DejaVuSans-48"/>
       <use x="63.623047" xlink:href="#DejaVuSans-46"/>
       <use x="95.410156" xlink:href="#DejaVuSans-51"/>
       <use x="159.033203" xlink:href="#DejaVuSans-48"/>
      </g>
     </g>
    </g>
    <g id="xtick_20">
     <g id="line2d_20">
      <g>
       <use style="stroke:#000000;stroke-width:0.8;" x="120.930124" xlink:href="#m30befcb6c8" y="307.584"/>
      </g>
     </g>
     <g id="text_20">
      <!-- 0.35 -->
      <g transform="translate(109.587531 334.828384)rotate(-60)scale(0.1 -0.1)">
       <use xlink:href="#DejaVuSans-48"/>
       <use x="63.623047" xlink:href="#DejaVuSans-46"/>
       <use x="95.410156" xlink:href="#DejaVuSans-51"/>
       <use x="159.033203" xlink:href="#DejaVuSans-53"/>
      </g>
     </g>
    </g>
    <g id="xtick_21">
     <g id="line2d_21">
      <g>
       <use style="stroke:#000000;stroke-width:0.8;" x="159.340083" xlink:href="#m30befcb6c8" y="307.584"/>
      </g>
     </g>
     <g id="text_21">
      <!-- 0.40 -->
      <g transform="translate(147.99749 334.828384)rotate(-60)scale(0.1 -0.1)">
       <use xlink:href="#DejaVuSans-48"/>
       <use x="63.623047" xlink:href="#DejaVuSans-46"/>
       <use x="95.410156" xlink:href="#DejaVuSans-52"/>
       <use x="159.033203" xlink:href="#DejaVuSans-48"/>
      </g>
     </g>
    </g>
    <g id="xtick_22">
     <g id="line2d_22">
      <g>
       <use style="stroke:#000000;stroke-width:0.8;" x="197.750041" xlink:href="#m30befcb6c8" y="307.584"/>
      </g>
     </g>
     <g id="text_22">
      <!-- 0.45 -->
      <g transform="translate(186.407449 334.828384)rotate(-60)scale(0.1 -0.1)">
       <use xlink:href="#DejaVuSans-48"/>
       <use x="63.623047" xlink:href="#DejaVuSans-46"/>
       <use x="95.410156" xlink:href="#DejaVuSans-52"/>
       <use x="159.033203" xlink:href="#DejaVuSans-53"/>
      </g>
     </g>
    </g>
    <g id="xtick_23">
     <g id="line2d_23">
      <g>
       <use style="stroke:#000000;stroke-width:0.8;" x="236.16" xlink:href="#m30befcb6c8" y="307.584"/>
      </g>
     </g>
     <g id="text_23">
      <!-- 0.50 -->
      <g transform="translate(224.817407 334.828384)rotate(-60)scale(0.1 -0.1)">
       <use xlink:href="#DejaVuSans-48"/>
       <use x="63.623047" xlink:href="#DejaVuSans-46"/>
       <use x="95.410156" xlink:href="#DejaVuSans-53"/>
       <use x="159.033203" xlink:href="#DejaVuSans-48"/>
      </g>
     </g>
    </g>
    <g id="xtick_24">
     <g id="line2d_24">
      <g>
       <use style="stroke:#000000;stroke-width:0.8;" x="274.569959" xlink:href="#m30befcb6c8" y="307.584"/>
      </g>
     </g>
     <g id="text_24">
      <!-- 0.55 -->
      <g transform="translate(263.227366 334.828384)rotate(-60)scale(0.1 -0.1)">
       <use xlink:href="#DejaVuSans-48"/>
       <use x="63.623047" xlink:href="#DejaVuSans-46"/>
       <use x="95.410156" xlink:href="#DejaVuSans-53"/>
       <use x="159.033203" xlink:href="#DejaVuSans-53"/>
      </g>
     </g>
    </g>
    <g id="xtick_25">
     <g id="line2d_25">
      <g>
       <use style="stroke:#000000;stroke-width:0.8;" x="312.979917" xlink:href="#m30befcb6c8" y="307.584"/>
      </g>
     </g>
     <g id="text_25">
      <!-- 0.60 -->
      <g transform="translate(301.637325 334.828384)rotate(-60)scale(0.1 -0.1)">
       <use xlink:href="#DejaVuSans-48"/>
       <use x="63.623047" xlink:href="#DejaVuSans-46"/>
       <use x="95.410156" xlink:href="#DejaVuSans-54"/>
       <use x="159.033203" xlink:href="#DejaVuSans-48"/>
      </g>
     </g>
    </g>
    <g id="xtick_26">
     <g id="line2d_26">
      <g>
       <use style="stroke:#000000;stroke-width:0.8;" x="351.389876" xlink:href="#m30befcb6c8" y="307.584"/>
      </g>
     </g>
     <g id="text_26">
      <!-- 0.65 -->
      <g transform="translate(340.047284 334.828384)rotate(-60)scale(0.1 -0.1)">
       <use xlink:href="#DejaVuSans-48"/>
       <use x="63.623047" xlink:href="#DejaVuSans-46"/>
       <use x="95.410156" xlink:href="#DejaVuSans-54"/>
       <use x="159.033203" xlink:href="#DejaVuSans-53"/>
      </g>
     </g>
    </g>
    <g id="xtick_27">
     <g id="line2d_27">
      <g>
       <use style="stroke:#000000;stroke-width:0.8;" x="389.799835" xlink:href="#m30befcb6c8" y="307.584"/>
      </g>
     </g>
     <g id="text_27">
      <!-- 0.70 -->
      <defs>
       <path d="M 8.203125 72.90625 
L 55.078125 72.90625 
L 55.078125 68.703125 
L 28.609375 0 
L 18.3125 0 
L 43.21875 64.59375 
L 8.203125 64.59375 
z
" id="DejaVuSans-55"/>
      </defs>
      <g transform="translate(378.457242 334.828384)rotate(-60)scale(0.1 -0.1)">
       <use xlink:href="#DejaVuSans-48"/>
       <use x="63.623047" xlink:href="#DejaVuSans-46"/>
       <use x="95.410156" xlink:href="#DejaVuSans-55"/>
       <use x="159.033203" xlink:href="#DejaVuSans-48"/>
      </g>
     </g>
    </g>
   </g>
   <g id="line2d_28">
    <path clip-path="url(#padc495c0ea)" d="M 197.750041 152.352 
L 196.717888 152.188523 
L 195.762296 151.706143 
L 194.956684 150.928713 
L 194.368288 149.895012 
L 194.05534 148.657299 
L 194.064559 147.279369 
L 194.429039 145.834166 
L 195.166611 144.40102 
L 196.278748 143.062619 
L 197.750041 141.901806 
L 199.548289 140.998312 
L 201.625186 140.42553 
L 203.917617 140.247452 
L 206.349499 140.515862 
L 208.834146 141.267896 
L 211.277056 142.524048 
L 213.579066 144.286709 
L 215.639746 146.539283 
L 217.360957 149.245936 
L 218.650429 152.352 
L 219.425264 155.785018 
L 219.615236 159.456432 
L 219.16578 163.263864 
L 218.040564 167.093928 
L 216.223549 170.825507 
L 213.720463 174.333399 
L 210.559621 177.492215 
L 206.792046 180.18043 
L 202.490876 182.28445 
L 197.750041 183.702581 
L 192.682253 184.348757 
L 187.416321 184.15592 
L 182.093889 183.07893 
L 176.865644 181.096907 
L 171.887131 178.21491 
L 167.314258 174.464891 
L 163.298635 169.905868 
L 159.982887 164.623292 
L 157.496056 158.727605 
L 155.949266 152.352 
L 155.43175 145.649441 
L 156.007397 138.788993 
L 157.711921 131.951559 
L 160.55075 125.325133 
L 164.497728 119.099687 
L 169.49468 113.461832 
L 175.451884 108.589403 
L 182.249461 104.64612 
L 189.739666 101.776481 
L 197.750041 100.101031 
L 206.087371 99.712174 
L 214.542336 100.67063 
L 222.894771 103.002688 
L 230.919378 106.698324 
L 238.391757 111.710284 
L 245.094594 117.954169 
L 250.823829 125.309554 
L 255.394646 133.622133 
L 258.647095 142.706854 
L 260.451204 152.352 
L 260.711402 162.3241 
L 259.370136 172.373582 
L 256.410544 182.241019 
L 251.858101 191.663807 
L 245.78116 200.383119 
L 238.290342 208.150937 
L 229.536776 214.736979 
L 219.709196 219.935329 
L 209.029958 223.570589 
L 197.750041 225.503357 
L 186.143171 225.634895 
L 174.499171 223.910819 
L 163.116734 220.323693 
L 152.295765 214.914444 
L 142.32952 207.772522 
L 133.49672 199.03477 
L 126.053872 188.883023 
L 120.227987 177.540442 
L 116.209918 165.266687 
L 114.148491 152.352 
L 114.145611 139.110359 
L 116.252497 125.871843 
L 120.467157 112.974404 
L 126.733212 100.755254 
L 134.940117 89.542075 
L 144.924801 79.644294 
L 156.47473 71.34464 
L 169.332311 64.891221 
L 183.200584 60.490342 
L 197.750041 58.300256 
L 212.626453 58.426035 
L 227.459486 60.915731 
L 241.871926 65.757925 
L 255.489257 72.880787 
L 267.949369 82.152672 
L 278.912131 93.38429 
L 288.068593 106.3324 
L 295.149545 120.704983 
L 299.933234 136.167772 
L 302.251979 152.352 
L 301.997541 168.863182 
L 299.125035 185.290732 
L 293.655307 201.218174 
L 285.675639 216.233686 
L 275.338772 229.94073 
L 262.860221 241.968474 
L 248.51393 251.981742 
L 232.626346 259.690229 
L 215.569039 264.856727 
L 197.750041 267.304132 
L 179.604089 266.921034 
L 161.582022 263.665719 
L 144.139579 257.568457 
L 127.725886 248.731982 
L 112.771908 237.330133 
L 99.679182 223.60465 
L 88.809108 207.860178 
L 80.473087 190.457592 
L 74.92378 171.805769 
L 72.347716 152.352 
L 72.859473 132.571277 
L 76.497597 112.954693 
L 83.222394 93.997249 
L 92.915675 76.185374 
L 105.382505 59.984464 
L 120.354922 45.826757 
L 137.497575 34.099876 
L 156.415162 25.136321 
L 176.661502 19.204204 
L 197.750041 16.499481 
L 219.165535 17.139897 
L 240.376636 21.160831 
L 260.849081 28.513162 
L 280.059137 39.063249 
L 297.50698 52.595061 
L 312.729669 68.814411 
L 325.313356 87.355245 
L 334.904445 107.787833 
L 341.219372 129.62869 
L 344.052755 152.352 
L 343.283679 175.402264 
L 338.879935 198.207882 
L 330.900071 220.195329 
L 319.493176 240.803565 
L 304.896383 259.498342 
L 287.4301 275.786012 
L 267.491085 289.226506 
L 245.543496 299.445129 
L 222.108121 306.142865 
L 197.750041 309.104907 
L 173.065007 308.207172 
L 148.664872 303.420619 
L 125.162424 294.81322 
L 103.156006 282.549519 
L 83.214296 266.887745 
L 65.861645 248.174529 
L 51.564345 226.837333 
L 40.718188 203.374742 
L 33.637642 178.344851 
L 30.54694 152.352 
L 31.573335 126.032195 
L 36.742698 100.037543 
L 45.97763 75.020094 
L 59.098137 51.615495 
L 75.824893 30.426852 
L 95.785043 12.009219 
L 115.302492 -1 
M 293.545984 -1 
L 304.629016 5.245712 
L 327.064592 23.037449 
L 346.547206 44.244532 
L 362.558119 68.37809 
L 374.659345 94.870683 
L 382.50551 123.089608 
L 385.85353 152.352 
L 384.569817 181.941346 
L 378.634835 211.125032 
L 368.144834 239.172483 
L 353.310714 265.373444 
L 334.453995 289.055954 
L 311.99998 309.603549 
L 286.46824 326.471269 
L 258.460646 339.200028 
L 231.650669 346.6 
M 152.430669 346.6 
L 135.747722 343.175518 
L 106.185269 332.057984 
L 78.586127 316.367057 
L 53.656685 296.445357 
L 32.044107 272.744408 
L 14.319581 245.814488 
L 0.963288 216.291892 
L -1 209.131603 
L -1 209.131603 
" style="fill:none;stroke:#1f77b4;stroke-linecap:square;stroke-width:1.5;"/>
   </g>
   <g id="line2d_29">
    <path clip-path="url(#padc495c0ea)" d="M 236.16 218.88 
L 235.747139 218.814609 
L 235.364902 218.621657 
L 235.042657 218.310685 
L 234.807298 217.897205 
L 234.682119 217.402119 
L 234.685807 216.850948 
L 234.831599 216.272867 
L 235.126628 215.699608 
L 235.571483 215.164248 
L 236.16 214.699922 
L 236.879299 214.338525 
L 237.710058 214.109412 
L 238.62703 214.038181 
L 239.599783 214.145545 
L 240.593642 214.446358 
L 241.570806 214.948819 
L 242.49161 215.653884 
L 243.315882 216.554913 
L 244.004366 217.637574 
L 244.520155 218.88 
L 244.830089 220.253207 
L 244.906078 221.721773 
L 244.726296 223.244746 
L 244.276209 224.776771 
L 243.549403 226.269403 
L 242.548169 227.67256 
L 241.283832 228.936086 
L 239.776802 230.011372 
L 238.056334 230.85298 
L 236.16 231.420233 
L 234.132885 231.678703 
L 232.026512 231.601568 
L 229.897539 231.170772 
L 227.806241 230.377963 
L 225.814836 229.225164 
L 223.985686 227.725157 
L 222.379438 225.901547 
L 221.053138 223.788517 
L 220.058406 221.430242 
L 219.43969 218.88 
L 219.232683 216.198976 
L 219.462942 213.454797 
L 220.144752 210.719823 
L 221.280283 208.069253 
L 222.859075 205.579075 
L 224.857856 203.323933 
L 227.240737 201.374961 
L 229.959768 199.797648 
L 232.95585 198.649792 
L 236.16 197.979612 
L 239.494932 197.824069 
L 242.876918 198.207452 
L 246.217892 199.140275 
L 249.427735 200.61853 
L 252.416686 202.623314 
L 255.097821 205.120868 
L 257.389515 208.063022 
L 259.217842 211.388053 
L 260.518822 215.021942 
L 261.240465 218.88 
L 261.344544 222.86884 
L 260.808038 226.888633 
L 259.624201 230.835608 
L 257.803224 234.604723 
L 255.372448 238.092448 
L 252.37612 241.199575 
L 248.874694 243.833991 
L 244.943662 245.913332 
L 240.671967 247.367435 
L 236.16 248.140543 
L 231.517252 248.193158 
L 226.859652 247.503528 
L 222.306677 246.068677 
L 217.978289 243.904978 
L 213.991791 241.048209 
L 210.458671 237.553108 
L 207.481532 233.492409 
L 205.151178 228.955377 
L 203.543951 224.045875 
L 202.71938 218.88 
L 202.718228 213.583344 
L 203.560982 208.287937 
L 205.246846 203.128961 
L 207.753268 198.241301 
L 211.03603 193.75603 
L 215.029904 189.796918 
L 219.649875 186.477056 
L 224.792908 183.895688 
L 230.340217 182.135337 
L 236.16 181.259302 
L 242.110565 181.309614 
L 248.043778 182.305492 
L 253.808754 184.24237 
L 259.255686 187.091515 
L 264.239731 190.800269 
L 268.624836 195.292916 
L 272.287421 200.47216 
L 275.119802 206.221193 
L 277.033277 212.406309 
L 277.960775 218.88 
L 277.859 225.484473 
L 276.709998 232.055493 
L 274.522106 238.426469 
L 271.330239 244.432674 
L 267.195492 249.915492 
L 262.204072 254.72659 
L 256.465556 258.731897 
L 250.110522 261.815292 
L 243.287599 263.881891 
L 236.16 264.860853 
L 228.901619 264.707614 
L 221.692792 263.405488 
L 214.715815 260.966583 
L 208.150338 257.431993 
L 202.168747 252.871253 
L 196.931656 247.38106 
L 192.583627 241.083271 
L 189.249218 234.122237 
L 187.029495 226.661507 
L 185.99907 218.88 
L 186.203773 210.967711 
L 187.659022 203.121077 
L 190.348941 195.5381 
L 194.226253 188.41335 
L 199.212985 181.932985 
L 205.201952 176.269903 
L 212.059013 171.57915 
L 219.626048 167.993728 
L 227.724584 165.620882 
L 236.16 164.538992 
L 244.726197 164.795159 
L 253.210638 166.403532 
L 261.399616 169.344465 
L 269.083638 173.5645 
L 276.062776 178.977224 
L 282.151851 185.464964 
L 287.185326 192.881298 
L 291.021762 201.054333 
L 293.547732 209.790676 
L 294.681085 218.88 
L 294.373455 228.100105 
L 292.611958 237.222353 
L 289.420012 246.017331 
L 284.857254 254.260626 
L 279.018537 261.738537 
L 272.032024 268.253605 
L 264.056418 273.629802 
L 255.277382 277.717251 
L 245.903232 280.396346 
L 236.16 281.581163 
L 226.285986 281.222069 
L 216.525932 279.307447 
L 207.124953 275.864488 
L 198.322386 270.959008 
L 190.345702 264.694298 
L 183.404641 257.209012 
L 177.685721 248.674133 
L 173.347259 239.289097 
L 170.51504 229.27714 
L 169.27876 218.88 
L 169.689317 208.352078 
L 171.757063 197.954217 
L 175.451036 187.947238 
L 180.699238 178.585398 
L 187.389941 170.109941 
L 195.374001 162.742888 
L 204.468151 156.681245 
L 214.459188 152.091769 
L 225.108952 149.106426 
L 236.16 147.818682 
L 247.34183 148.280703 
L 258.377498 150.501573 
L 268.990478 154.446559 
L 278.91159 160.037485 
L 287.88582 167.15418 
L 295.678866 175.637013 
L 302.083231 185.290436 
L 306.923721 195.887473 
L 310.062188 207.175043 
L 311.401395 218.88 
L 310.88791 230.715738 
L 308.513917 242.389213 
L 304.317917 253.608193 
L 298.384269 264.088578 
L 290.841581 273.561581 
L 281.859975 281.78062 
L 271.64728 288.527708 
L 260.444242 293.619211 
L 248.518865 296.910801 
L 236.16 298.301473 
L 223.670354 297.736524 
L 211.359072 295.209407 
L 199.534091 290.762393 
L 188.494434 284.486023 
L 178.522657 276.517343 
L 169.877626 267.036963 
L 162.787816 256.264995 
L 157.445299 244.455957 
L 154.000585 231.892773 
L 152.55845 218.88 
L 152.55845 218.88 
" style="fill:none;stroke:#ff7f0e;stroke-linecap:square;stroke-width:1.5;"/>
   </g>
   <g id="patch_3">
    <path d="M 82.520165 307.584 
L 389.799835 307.584 
" style="fill:none;stroke:#000000;stroke-linecap:square;stroke-linejoin:miter;stroke-width:0.8;"/>
   </g>
   <g id="patch_4">
    <path d="M 389.799835 307.584 
L 236.16 41.472 
" style="fill:none;stroke:#000000;stroke-linecap:square;stroke-linejoin:miter;stroke-width:0.8;"/>
   </g>
   <g id="patch_5">
    <path d="M 236.16 41.472 
L 82.520165 307.584 
" style="fill:none;stroke:#000000;stroke-linecap:square;stroke-linejoin:miter;stroke-width:0.8;"/>
   </g>
   <g id="text_28">
    <!-- Data -->
    <defs>
     <path d="M 19.671875 64.796875 
L 19.671875 8.109375 
L 31.59375 8.109375 
Q 46.6875 8.109375 53.6875 14.9375 
Q 60.6875 21.78125 60.6875 36.53125 
Q 60.6875 51.171875 53.6875 57.984375 
Q 46.6875 64.796875 31.59375 64.796875 
z
M 9.8125 72.90625 
L 30.078125 72.90625 
Q 51.265625 72.90625 61.171875 64.09375 
Q 71.09375 55.28125 71.09375 36.53125 
Q 71.09375 17.671875 61.125 8.828125 
Q 51.171875 0 30.078125 0 
L 9.8125 0 
z
" id="DejaVuSans-68"/>
     <path d="M 34.28125 27.484375 
Q 23.390625 27.484375 19.1875 25 
Q 14.984375 22.515625 14.984375 16.5 
Q 14.984375 11.71875 18.140625 8.90625 
Q 21.296875 6.109375 26.703125 6.109375 
Q 34.1875 6.109375 38.703125 11.40625 
Q 43.21875 16.703125 43.21875 25.484375 
L 43.21875 27.484375 
z
M 52.203125 31.203125 
L 52.203125 0 
L 43.21875 0 
L 43.21875 8.296875 
Q 40.140625 3.328125 35.546875 0.953125 
Q 30.953125 -1.421875 24.3125 -1.421875 
Q 15.921875 -1.421875 10.953125 3.296875 
Q 6 8.015625 6 15.921875 
Q 6 25.140625 12.171875 29.828125 
Q 18.359375 34.515625 30.609375 34.515625 
L 43.21875 34.515625 
L 43.21875 35.40625 
Q 43.21875 41.609375 39.140625 45 
Q 35.0625 48.390625 27.6875 48.390625 
Q 23 48.390625 18.546875 47.265625 
Q 14.109375 46.140625 10.015625 43.890625 
L 10.015625 52.203125 
Q 14.9375 54.109375 19.578125 55.046875 
Q 24.21875 56 28.609375 56 
Q 40.484375 56 46.34375 49.84375 
Q 52.203125 43.703125 52.203125 31.203125 
z
" id="DejaVuSans-97"/>
     <path d="M 18.3125 70.21875 
L 18.3125 54.6875 
L 36.8125 54.6875 
L 36.8125 47.703125 
L 18.3125 47.703125 
L 18.3125 18.015625 
Q 18.3125 11.328125 20.140625 9.421875 
Q 21.96875 7.515625 27.59375 7.515625 
L 36.8125 7.515625 
L 36.8125 0 
L 27.59375 0 
Q 17.1875 0 13.234375 3.875 
Q 9.28125 7.765625 9.28125 18.015625 
L 9.28125 47.703125 
L 2.6875 47.703125 
L 2.6875 54.6875 
L 9.28125 54.6875 
L 9.28125 70.21875 
z
" id="DejaVuSans-116"/>
    </defs>
    <g transform="translate(185.81176 152.352)scale(0.1 -0.1)">
     <use xlink:href="#DejaVuSans-68"/>
     <use x="77.001953" xlink:href="#DejaVuSans-97"/>
     <use x="138.28125" xlink:href="#DejaVuSans-116"/>
     <use x="177.490234" xlink:href="#DejaVuSans-97"/>
    </g>
   </g>
   <g id="text_29">
    <!-- Axes -->
    <defs>
     <path d="M 34.1875 63.1875 
L 20.796875 26.90625 
L 47.609375 26.90625 
z
M 28.609375 72.90625 
L 39.796875 72.90625 
L 67.578125 0 
L 57.328125 0 
L 50.6875 18.703125 
L 17.828125 18.703125 
L 11.1875 0 
L 0.78125 0 
z
" id="DejaVuSans-65"/>
     <path d="M 54.890625 54.6875 
L 35.109375 28.078125 
L 55.90625 0 
L 45.3125 0 
L 29.390625 21.484375 
L 13.484375 0 
L 2.875 0 
L 24.125 28.609375 
L 4.6875 54.6875 
L 15.28125 54.6875 
L 29.78125 35.203125 
L 44.28125 54.6875 
z
" id="DejaVuSans-120"/>
     <path d="M 56.203125 29.59375 
L 56.203125 25.203125 
L 14.890625 25.203125 
Q 15.484375 15.921875 20.484375 11.0625 
Q 25.484375 6.203125 34.421875 6.203125 
Q 39.59375 6.203125 44.453125 7.46875 
Q 49.3125 8.734375 54.109375 11.28125 
L 54.109375 2.78125 
Q 49.265625 0.734375 44.1875 -0.34375 
Q 39.109375 -1.421875 33.890625 -1.421875 
Q 20.796875 -1.421875 13.15625 6.1875 
Q 5.515625 13.8125 5.515625 26.8125 
Q 5.515625 40.234375 12.765625 48.109375 
Q 20.015625 56 32.328125 56 
Q 43.359375 56 49.78125 48.890625 
Q 56.203125 41.796875 56.203125 29.59375 
z
M 47.21875 32.234375 
Q 47.125 39.59375 43.09375 43.984375 
Q 39.0625 48.390625 32.421875 48.390625 
Q 24.90625 48.390625 20.390625 44.140625 
Q 15.875 39.890625 15.1875 32.171875 
z
" id="DejaVuSans-101"/>
     <path d="M 44.28125 53.078125 
L 44.28125 44.578125 
Q 40.484375 46.53125 36.375 47.5 
Q 32.28125 48.484375 27.875 48.484375 
Q 21.1875 48.484375 17.84375 46.4375 
Q 14.5 44.390625 14.5 40.28125 
Q 14.5 37.15625 16.890625 35.375 
Q 19.28125 33.59375 26.515625 31.984375 
L 29.59375 31.296875 
Q 39.15625 29.25 43.1875 25.515625 
Q 47.21875 21.78125 47.21875 15.09375 
Q 47.21875 7.46875 41.1875 3.015625 
Q 35.15625 -1.421875 24.609375 -1.421875 
Q 20.21875 -1.421875 15.453125 -0.5625 
Q 10.6875 0.296875 5.421875 2 
L 5.421875 11.28125 
Q 10.40625 8.6875 15.234375 7.390625 
Q 20.0625 6.109375 24.8125 6.109375 
Q 31.15625 6.109375 34.5625 8.28125 
Q 37.984375 10.453125 37.984375 14.40625 
Q 37.984375 18.0625 35.515625 20.015625 
Q 33.0625 21.96875 24.703125 23.78125 
L 21.578125 24.515625 
Q 13.234375 26.265625 9.515625 29.90625 
Q 5.8125 33.546875 5.8125 39.890625 
Q 5.8125 47.609375 11.28125 51.796875 
Q 16.75 56 26.8125 56 
Q 31.78125 56 36.171875 55.265625 
Q 40.578125 54.546875 44.28125 53.078125 
z
" id="DejaVuSans-115"/>
    </defs>
    <g transform="translate(224.101406 218.88)scale(0.1 -0.1)">
     <use xlink:href="#DejaVuSans-65"/>
     <use x="68.408203" xlink:href="#DejaVuSans-120"/>
     <use x="127.541016" xlink:href="#DejaVuSans-101"/>
     <use x="189.064453" xlink:href="#DejaVuSans-115"/>
    </g>
   </g>
  </g>
 </g>
 <defs>
  <clipPath id="padc495c0ea">
   <path d="M 236.16 41.472 
L 82.520165 307.584 
L 389.799835 307.584 
z
"/>
  </clipPath>
 </defs>
</svg>
