<?xml version="1.0" encoding="utf-8" standalone="no"?>
<!DOCTYPE svg PUBLIC "-//W3C//DTD SVG 1.1//EN"
  "http://www.w3.org/Graphics/SVG/1.1/DTD/svg11.dtd">
<svg xmlns:xlink="http://www.w3.org/1999/xlink" width="396pt" height="79.2pt" viewBox="0 0 396 79.2" xmlns="http://www.w3.org/2000/svg" version="1.1">
 <metadata>
  <rdf:RDF xmlns:dc="http://purl.org/dc/elements/1.1/" xmlns:cc="http://creativecommons.org/ns#" xmlns:rdf="http://www.w3.org/1999/02/22-rdf-syntax-ns#">
   <cc:Work>
    <dc:type rdf:resource="http://purl.org/dc/dcmitype/StillImage"/>
    <dc:date>2023-06-04T11:58:55.090742</dc:date>
    <dc:format>image/svg+xml</dc:format>
    <dc:creator>
     <cc:Agent>
      <dc:title>Matplotlib v3.7.1, https://matplotlib.org/</dc:title>
     </cc:Agent>
    </dc:creator>
   </cc:Work>
  </rdf:RDF>
 </metadata>
 <defs>
  <style type="text/css">*{stroke-linejoin: round; stroke-linecap: butt}</style>
 </defs>
 <g id="figure_1">
  <g id="patch_1">
   <path d="M 0 79.2 
L 396 79.2 
L 396 0 
L 0 0 
L 0 79.2 
z
" style="fill: none; opacity: 0"/>
  </g>
  <g id="axes_1">
   <g id="patch_2">
    <path d="M 56.833417 26.685096 
Q 59.489784 23.044728 62.90202 21.140536 
Q 66.314257 19.236343 70.234653 19.236343 
Q 76.988935 19.236343 80.218844 23.403164 
Q 83.449586 27.558784 82.85859 35.511587 
L 81.084772 59.381198 
L 68.483499 59.381198 
L 70.002607 38.939133 
Q 70.070338 38.479887 70.117332 37.998238 
Q 70.176359 37.505388 70.243783 36.598097 
Q 70.553431 32.431276 69.460315 30.560687 
Q 68.379233 28.678897 65.646157 28.678897 
Q 62.084197 28.678897 59.916282 31.624794 
Q 57.760401 34.559491 57.268296 40.126453 
L 55.837422 59.381198 
L 43.236149 59.381198 
L 44.755257 38.939133 
Q 45.238874 32.431276 44.25777 30.560687 
Q 43.277498 28.678897 40.410008 28.678897 
Q 36.803244 28.678897 34.623295 31.635996 
Q 32.443347 34.593094 32.034645 40.09285 
L 30.601273 59.381198 
L 18 59.381198 
L 20.913357 20.177238 
L 33.51463 20.177238 
L 33.088448 25.912218 
Q 35.653469 22.596683 38.769029 20.916513 
Q 41.884589 19.236343 45.491353 19.236343 
Q 49.546163 19.236343 52.51441 21.196541 
Q 55.493857 23.156739 56.833417 26.685096 
z
M 105.720006 53.713425 
L 104.190909 74.289904 
L 91.668044 74.289904 
L 95.68931 20.177238 
L 108.212175 20.177238 
L 107.785992 25.912218 
Q 110.639365 22.484671 113.90758 20.860507 
Q 117.175794 19.236343 121.275408 19.236343 
Q 128.52254 19.236343 132.743162 24.993725 
Q 136.974985 30.751106 136.301583 39.812821 
Q 135.628182 48.874537 130.539831 54.643119 
Q 125.463514 60.400501 118.216382 60.400501 
Q 114.116768 60.400501 111.089947 58.776337 
Q 108.063957 57.140972 105.720006 53.713425 
z
M 115.939838 28.331662 
Q 111.918632 28.331662 109.537063 31.288761 
Q 107.166696 34.245859 106.752999 39.812821 
Q 106.339302 45.379784 108.270169 48.336882 
Q 110.212237 51.293981 114.233443 51.293981 
Q 118.254649 51.293981 120.589749 48.359285 
Q 122.936882 45.413387 123.353076 39.812821 
Q 123.769269 34.212256 121.85914 31.277559 
Q 119.961044 28.331662 115.939838 28.331662 
z
M 148.139038 4.910096 
L 160.661902 4.910096 
L 156.614 59.381198 
L 144.091135 59.381198 
L 148.139038 4.910096 
z
M 235.995991 9.043314 
L 235.168598 20.177238 
L 248.094703 20.177238 
L 247.428793 29.138143 
L 234.502687 29.138143 
L 233.267424 45.760622 
Q 233.064321 48.493698 234.079246 49.456996 
Q 235.09417 50.420293 238.320096 50.420293 
L 244.760746 50.420293 
L 244.094836 59.381198 
L 233.34175 59.381198 
Q 225.926601 59.381198 223.053627 56.289686 
Q 220.192686 53.186972 220.744559 45.760622 
L 221.979823 29.138143 
L 215.740792 29.138143 
L 216.406703 20.177238 
L 222.645733 20.177238 
L 223.473126 9.043314 
L 235.995991 9.043314 
z
M 293.436842 39.678408 
L 293.172143 43.240368 
L 263.881184 43.240368 
Q 264.001269 47.653613 266.570364 49.860236 
Q 269.13946 52.066859 274.034354 52.066859 
Q 277.988354 52.066859 282.220173 50.89074 
Q 286.463193 49.714622 291.019302 47.339982 
L 290.301784 56.995357 
Q 285.730076 58.675527 281.219133 59.538014 
Q 276.70819 60.400501 272.261341 60.400501 
Q 261.620266 60.400501 256.119314 54.990354 
Q 250.629562 49.580208 251.355404 39.812821 
Q 252.067928 30.224653 258.266783 24.736099 
Q 264.46647 19.236343 274.625896 19.236343 
Q 283.86683 19.236343 288.997693 24.803306 
Q 294.129389 30.359067 293.436842 39.678408 
z
M 280.865189 35.511587 
Q 281.130721 31.938426 279.209626 29.754206 
Q 277.289364 27.558784 273.929024 27.558784 
Q 270.288657 27.558784 267.8625 29.608591 
Q 265.436343 31.658398 264.589945 35.511587 
L 280.865189 35.511587 
z
M 332.710064 30.851916 
Q 331.120932 30.079038 329.512204 29.720602 
Q 327.915508 29.350965 326.268942 29.350965 
Q 321.441255 29.350965 318.60082 32.453678 
Q 315.761217 35.54519 315.332537 41.313773 
L 313.989896 59.381198 
L 301.467031 59.381198 
L 304.380388 20.177238 
L 316.903253 20.177238 
L 316.42463 26.617889 
Q 319.130416 22.7647 322.386216 21.006122 
Q 325.65405 19.236343 330.033693 19.236343 
Q 330.660956 19.236343 331.384868 19.292349 
Q 332.120813 19.337153 333.507636 19.516372 
L 332.710064 30.851916 
z
M 378 35.511587 
L 376.226182 59.381198 
L 363.624909 59.381198 
L 363.913747 55.494405 
L 364.982533 41.112153 
Q 365.359605 36.03804 365.278753 34.111446 
Q 365.197901 32.184851 364.705268 31.277559 
Q 364.057556 30.045435 362.842604 29.362166 
Q 361.638853 28.678897 360.02589 28.678897 
Q 356.105494 28.678897 353.639691 31.714404 
Q 351.17472 34.738709 350.776838 40.09285 
L 349.343466 59.381198 
L 336.820601 59.381198 
L 339.733959 20.177238 
L 352.256824 20.177238 
L 351.830641 25.912218 
Q 354.919238 22.484671 358.221056 20.860507 
Q 361.534074 19.236343 365.387263 19.236343 
Q 372.175149 19.236343 375.382656 23.403164 
Q 378.590995 27.558784 378 35.511587 
z
" clip-path="url(#pc5fe61c94b)" style="fill: #65baea"/>
   </g>
  </g>
  <g id="axes_2">
   <g id="patch_3">
    <path d="M 190.08 10.845585 
L 190.08 10.845585 
L 156.42 69.146415 
L 156.42 69.146415 
L 223.74 69.146415 
L 223.74 69.146415 
z
" style="fill: #ffffff"/>
   </g>
   <g id="patch_4">
    <path d="M 190.08 8.513552 
L 154.4004 70.312432 
L 225.7596 70.312432 
z
" style="fill: #ffffff"/>
   </g>
   <g id="patch_5">
    <path d="M 210.276 45.826083 
L 169.884 45.826083 
L 176.616 34.165917 
L 203.544 34.165917 
z
" clip-path="url(#p3c141dd677)" style="fill: #1f77b4; opacity: 0.6; stroke: #1f77b4; stroke-linejoin: miter"/>
   </g>
   <g id="patch_6">
    <path d="M 176.616 34.165917 
L 196.812 69.146415 
L 183.348 69.146415 
L 169.884 45.826083 
z
" clip-path="url(#p3c141dd677)" style="fill: #ff7f0e; opacity: 0.6; stroke: #ff7f0e; stroke-linejoin: miter"/>
   </g>
   <g id="patch_7">
    <path d="M 183.348 69.146415 
L 203.544 34.165917 
L 210.276 45.826083 
L 196.812 69.146415 
z
" clip-path="url(#p3c141dd677)" style="fill: #2ca02c; opacity: 0.6; stroke: #2ca02c; stroke-linejoin: miter"/>
   </g>
   <g id="matplotlib.axis_1">
    <g id="xtick_1">
     <g id="line2d_1">
      <path d="M 223.74 69.146415 
L 156.42 69.146415 
" style="fill: none; stroke: #e6e6e6; stroke-width: 0.5; stroke-linecap: square"/>
     </g>
    </g>
    <g id="xtick_2">
     <g id="line2d_2">
      <path d="M 206.91 39.996 
L 173.25 39.996 
" style="fill: none; stroke: #e6e6e6; stroke-width: 0.5; stroke-linecap: square"/>
     </g>
    </g>
    <g id="xtick_3">
     <g id="line2d_3">
      <path d="M 190.08 10.845585 
L 190.08 10.845585 
" style="fill: none; stroke: #e6e6e6; stroke-width: 0.5; stroke-linecap: square"/>
     </g>
    </g>
   </g>
   <g id="matplotlib.axis_2">
    <g id="xtick_4">
     <g id="line2d_4">
      <path d="M 190.08 10.845585 
L 223.74 69.146415 
" style="fill: none; stroke: #e6e6e6; stroke-width: 0.5; stroke-linecap: square"/>
     </g>
    </g>
    <g id="xtick_5">
     <g id="line2d_5">
      <path d="M 173.25 39.996 
L 190.08 69.146415 
" style="fill: none; stroke: #e6e6e6; stroke-width: 0.5; stroke-linecap: square"/>
     </g>
    </g>
    <g id="xtick_6">
     <g id="line2d_6">
      <path d="M 156.42 69.146415 
L 156.42 69.146415 
" style="fill: none; stroke: #e6e6e6; stroke-width: 0.5; stroke-linecap: square"/>
     </g>
    </g>
   </g>
   <g id="matplotlib.axis_3">
    <g id="xtick_7">
     <g id="line2d_7">
      <path d="M 156.42 69.146415 
L 190.08 10.845585 
" style="fill: none; stroke: #e6e6e6; stroke-width: 0.5; stroke-linecap: square"/>
     </g>
    </g>
    <g id="xtick_8">
     <g id="line2d_8">
      <path d="M 190.08 69.146415 
L 206.91 39.996 
" style="fill: none; stroke: #e6e6e6; stroke-width: 0.5; stroke-linecap: square"/>
     </g>
    </g>
    <g id="xtick_9">
     <g id="line2d_9">
      <path d="M 223.74 69.146415 
L 223.74 69.146415 
" style="fill: none; stroke: #e6e6e6; stroke-width: 0.5; stroke-linecap: square"/>
     </g>
    </g>
   </g>
   <g id="patch_8">
    <path d="M 223.74 69.146415 
L 156.42 69.146415 
" style="fill: none; stroke: #65baea; stroke-linejoin: miter; stroke-linecap: square"/>
   </g>
   <g id="patch_9">
    <path d="M 190.08 10.845585 
L 190.08 10.845585 
" style="fill: none; stroke: #65baea; stroke-linejoin: miter; stroke-linecap: square"/>
   </g>
   <g id="patch_10">
    <path d="M 190.08 10.845585 
L 223.74 69.146415 
" style="fill: none; stroke: #65baea; stroke-linejoin: miter; stroke-linecap: square"/>
   </g>
   <g id="patch_11">
    <path d="M 156.42 69.146415 
L 156.42 69.146415 
" style="fill: none; stroke: #65baea; stroke-linejoin: miter; stroke-linecap: square"/>
   </g>
   <g id="patch_12">
    <path d="M 156.42 69.146415 
L 190.08 10.845585 
" style="fill: none; stroke: #65baea; stroke-linejoin: miter; stroke-linecap: square"/>
   </g>
   <g id="patch_13">
    <path d="M 223.74 69.146415 
L 223.74 69.146415 
" style="fill: none; stroke: #65baea; stroke-linejoin: miter; stroke-linecap: square"/>
   </g>
  </g>
 </g>
 <defs>
  <clipPath id="pc5fe61c94b">
   <rect x="0" y="1.441106" width="396" height="76.317788"/>
  </clipPath>
  <clipPath id="p3c141dd677">
   <path d="M 190.08 10.845585 
L 190.08 10.845585 
L 156.42 69.146415 
L 156.42 69.146415 
L 223.74 69.146415 
L 223.74 69.146415 
z
"/>
  </clipPath>
 </defs>
</svg>
